<?xml version="1.0" encoding="UTF-8"?><svg id="Calque_1" xmlns="http://www.w3.org/2000/svg" viewBox="0 0 375 396"><defs><style>.cls-1{fill:#7945db;}.cls-1,.cls-2,.cls-3,.cls-4,.cls-5{stroke-width:0px;}.cls-2{fill:#5730a0;}.cls-3{fill:#3f178a;}.cls-4{fill:#341d5e;}.cls-5{fill:#fff;}</style></defs><rect class="cls-4" x=".24" width="374.76" height="396"/><path class="cls-3" d="m215.59-11.9c-13.56-12.96-33.85-15.11-52.55-16.58-35.88-2.82-73.59-5.35-106.31,9.65C25.54-4.52,2.44,25.22-6,58.47c-7.11,28.01-1,54.75,6.8,81.84,4.6,15.97,5.93,33.19,13.52,48.2,8.81,17.41,32.49,23.14,50.82,18.88,5.3-1.23,10.39-3.86,14.59-7.42,7.23-6.12,11.83-15,10.41-24.24,15.83,8.52,36.8,6.27,50.47-5.41,13.67-11.68,19.16-32.04,13.21-49.01.94,2.68,25.62-3.12,28.32-3.92,9.09-2.7,17.29-6.78,24.51-12.81,14.9-12.43,25.4-29.56,28.81-48.76,4.17-23.44-2.32-50.92-19.88-67.71h0ZM76.47,181.9c-2.22,0-4.03-1.8-4.03-4.03s1.8-4.03,4.03-4.03,4.03,1.8,4.03,4.03-1.8,4.03-4.03,4.03Zm19.33-36c-3.18,0-5.75-2.58-5.75-5.75s2.58-5.75,5.75-5.75,5.75,2.57,5.75,5.75-2.58,5.75-5.75,5.75Zm112.84-58.37c-2.22,0-4.03-1.8-4.03-4.03s1.8-4.03,4.03-4.03,4.03,1.8,4.03,4.03-1.8,4.03-4.03,4.03Z"/><path class="cls-3" d="m361.47,157.9c-4.39-9.51-13.3-17.62-13.1-28.09-5.6-15.18-19.65-26.92-35.58-29.75-6.41-1.82-10.19-5.55-16.1-8.43-10.92-5.47-24.75-5.74-34.99.92-10.24,6.66-15.63,20.68-10.91,31.94,3.96,9.47,13.7,13.51,18.84,21.68,4.43,7.04,4.24,18.47,3.27,26.42-1.72,14.11-8.4,27.46-18.81,37.16-8.81,8.21-23.91,11.36-29.25,22.59-3.52,7.41-3.42,15.98-2.9,24.16.52,8.19,1.38,16.57-.83,24.47-3.48,12.44-14.21,21.82-26.1,26.88-2.71,1.16-5.94,2.06-9.46,2.85-20.88,4.7-51.88,5.62-45.39,34.16,2.53,11.12,11.06,19.9,20.24,26.67,21.83,16.1,49.49,23.9,76.51,22.17,27.49-1.76,51.34-17.11,68.39-38.36,12.65-15.77,21.61-34.16,29.22-52.88,14.19-34.93,24.04-71.62,29.25-108.96,1.66-11.95,2.75-24.65-2.3-35.6h0Zm-115,82.05c-3.18,0-5.75-2.58-5.75-5.75s2.58-5.75,5.75-5.75,5.75,2.58,5.75,5.75-2.58,5.75-5.75,5.75Zm44.71-112.45c-3.18,0-5.75-2.58-5.75-5.75s2.58-5.75,5.75-5.75,5.75,2.58,5.75,5.75-2.58,5.75-5.75,5.75Z"/><circle class="cls-3" cx="93.12" cy="273.59" r="12.62"/><path class="cls-2" d="m318.94,249.55c-8.7,2.31-16.21,3.09-23.66,9.18-7.36,6.01-12.52,14.64-14.35,23.96-.71,3.65-.99,7.57-3.11,10.63-4.21,6.11-16.55,2.61-22.16.68-4.01-1.38-8.29-2.72-12.41-1.75-8.71,2.06-11.75,12.5-15.98,20.38-9.31,17.35-31.89,26.26-50.55,19.94-21.58-7.31-25.18-25.72-29.38-45.05-4.92-22.61,7.04-36.68,12.51-57.97,7.13-27.76-27.46-28.21-41.79-13.05-9.13,9.66-11.29,25.24-5.14,37.02,5.31,10.17,13.16,17.69,15.88,29.3,1.16,4.95.94,10.43-1.71,14.77-3.98,6.53-13.12,8.97-20.18,6.04-4.69-1.94-7.53-5.2-9.43-9.11-4.15-8.53-3.85-20.22-8.57-28.38-7.21-12.46-20.72-21.6-35.3-22.04-21.39-.65-41.63,17.52-43.29,38.85-1.65,21.2,12.87,40.55,29.89,53.3,14.98,11.22,32.12,19.08,47.62,29.53,14.71,9.92,37.39,10.78,54.84,12.23,40.17,3.33,80.73-1.19,119.87-10.43,15.9-3.75,31.85-8.37,45.8-16.87,23.75-14.46,41.9-44.45,44.95-71.94,1.15-10.35-.35-22.38-8.85-28.39-7.77-5.5-16.19-3.4-24.47-1.1-.34.1-.68.19-1.02.28h0Zm-263.68,11.41c-2.22,0-4.03-1.8-4.03-4.03s1.8-4.03,4.03-4.03,4.03,1.8,4.03,4.03-1.8,4.03-4.03,4.03Zm85.31-7.64c-3.18,0-5.75-2.58-5.75-5.75s2.58-5.75,5.75-5.75,5.75,2.57,5.75,5.75-2.58,5.75-5.75,5.75Zm101.87,58.7c2.22,0,4.03,1.8,4.03,4.03s-1.8,4.03-4.03,4.03-4.03-1.8-4.03-4.03,1.8-4.03,4.03-4.03Zm0,40.11c-3.18,0-5.75-2.58-5.75-5.75s2.58-5.75,5.75-5.75,5.75,2.58,5.75,5.75-2.58,5.75-5.75,5.75Z"/><path class="cls-2" d="m75.63,156.3c3.84-7.66,1.51-17.46,5.89-24.83,4.01-6.74,12.43-9.39,20.21-10.35,7.79-.97,15.97-.89,22.99-4.39,8.8-4.38,14.28-13.99,15.28-23.78s-2-19.64-6.74-28.25c-5.68-10.31-14.97-19.77-26.68-20.97-11.45-1.17-22.11,5.74-30.82,13.27-18.19,15.73-32.67,35.67-42.26,57.71-3.99,9.16-10.56,22.4-9.39,32.67,1.04,9.11,9.93,13.47,17.66,16.55,11.15,4.44,27.55,4.93,33.84-7.62h.02Z"/><circle class="cls-1" cx="189.37" cy="282.29" r="12.62"/><circle class="cls-1" cx="153.19" cy="206.53" r="12.62"/><circle class="cls-1" cx="267" cy="300.88" r="12.62"/><circle class="cls-2" cx="114.32" cy="178.83" r="12.62"/><circle class="cls-1" cx="177.31" cy="152.78" r="12.62"/><circle class="cls-1" cx="67.88" cy="201.6" r="12.62"/><circle class="cls-1" cx="135.97" cy="127.51" r="8.7"/><circle class="cls-3" cx="219.4" cy="116" r="8.7"/><circle class="cls-3" cx="187.62" cy="228.45" r="8.7"/><circle class="cls-2" cx="267" cy="145.91" r="8.7"/><path class="cls-1" d="m205.36,329.9c-24.64-11.58-54.72,14.87-79.76,4.18-8.47-3.62-14.69-10.96-20.48-18.12-7.8-9.65-17.55-21.82-31.36-21.28-10.38.41-15.43,8.51-16.22,18.14-1.93,23.67,15.51,50.29,32.1,65.57,19.99,18.41,47.33,28.58,74.49,27.71,13.27-.42,26.73-3.51,37.82-10.8,11.1-7.29,19.57-19.16,20.89-32.38,1.31-13.21-5.47-27.37-17.49-33.02h.01Zm-69.39,24.53c-2.22,0-4.03-1.8-4.03-4.03s1.8-4.03,4.03-4.03,4.03,1.8,4.03,4.03-1.8,4.03-4.03,4.03Z"/><path class="cls-1" d="m108.32,36.27c-6.09.65-12.14.16-18,2.26-12.54,4.51-22.52,14.47-29.69,25.71-8.99,14.09-14.08,30.26-19.07,46.22-5.7,18.21-11.4,36.43-17.1,54.64-1.41,4.5-3.19,9.26-3.07,14.05.17,6.18,3.1,6.21,8.71,6.14,10.04-.13,20.05-4.27,27.07-11.49,3.23-3.32,5.32-6.2,5.96-10.24.12-.78.19-1.6.2-2.47.08-5.34-.07-10.44.87-15.74,1.79-10.1,5.93-19.8,12.12-28,9.23-12.22,25.01-23.4,40.68-24.83,14.15-1.29,27.36-9.93,28.73-25.54,1.91-21.66-18.66-32.71-37.42-30.71h.01Zm1.43,45.62c-2.22,0-4.03-1.8-4.03-4.03s1.8-4.03,4.03-4.03,4.03,1.8,4.03,4.03-1.8,4.03-4.03,4.03Z"/><path class="cls-2" d="m298.7-7.83c-6.18-9.21-17.27-14.24-28.31-15.32-11.03-1.08-22.11,1.33-32.77,4.39C212.29-11.49,189.47.13,166.64,13.06c-17.55,9.94-24.22,27.52-14.51,47.08,5.92,11.93,19.32,20.26,32.53,18.57,13.21-1.69,24.53-14.48,23.04-27.72,3.48,14.96,17.3,26.42,32.47,28.82s31.01-3.55,42.22-14.04,18.03-25.12,20.85-40.21c2.12-11.33,1.88-23.82-4.54-33.39Zm-134.02,61.09c-3.18,0-5.75-2.58-5.75-5.75s2.58-5.75,5.75-5.75,5.75,2.58,5.75,5.75-2.58,5.75-5.75,5.75Z"/><circle class="cls-1" cx="240.72" cy="77.86" r="12.62"/><circle class="cls-1" cx="168.72" cy="77.86" r="12.62"/><path class="cls-1" d="m356.78,127.47c-2.79-9.85-8.84-50.54-27.21-39.77-2.61,1.53-4.46,4.07-5.96,6.68-4.78,8.31-6.77,17.88-8.66,27.28s-3.8,18.98-8.46,27.35c-6.06,10.88-19.63,17.95-31.41,21.32l-.84.24c-15.97,4.37-31.25-5.27-47.15-5.01-8.06.13-16.17,3.09-21.93,8.73-5.76,5.64-8.92,14.03-7.63,21.99,1.3,7.96,7.31,15.13,15.11,17.16,10.49,2.73,21.01-3.58,29.86-9.84,7.11-5.03,19.53-13.99,28.86-11.91,13.97,3.12,12.03,18.39,4.91,26.91-3.67,4.39-8.05,8.32-10.58,13.45-4.09,8.27-2.31,19.05,4.2,25.58,6.52,6.53,17.3,8.32,25.58,4.25-6.94,10.52-6.69,25.3.61,35.58,14.52,20.45,44.43,13.68,59.02-3.09,9.27-10.66,11.87-25.47,13.23-39.53,4.13-42.68.15-86.11-11.54-127.36h-.01Zm-137.38,78.15c-2.22,0-4.03-1.8-4.03-4.03s1.8-4.03,4.03-4.03,4.03,1.8,4.03,4.03-1.8,4.03-4.03,4.03Zm62.01,45.97c-2.22,0-4.03-1.8-4.03-4.03s1.8-4.03,4.03-4.03,4.03,1.8,4.03,4.03-1.8,4.03-4.03,4.03Zm19.36-68.74c0-4.8,3.89-8.7,8.7-8.7s8.7,3.89,8.7,8.7-3.89,8.7-8.7,8.7-8.7-3.89-8.7-8.7Zm17.4,83.87c-3.18,0-5.75-2.57-5.75-5.75s2.58-5.75,5.75-5.75,5.75,2.58,5.75,5.75-2.58,5.75-5.75,5.75Z"/><circle class="cls-1" cx="153.19" cy="310.1" r="8.7"/><circle class="cls-1" cx="74.25" cy="269.66" r="8.7"/><circle class="cls-1" cx="238.42" cy="266.72" r="8.7"/><circle class="cls-1" cx="110.39" cy="234.2" r="8.7"/><path class="cls-5" d="m-9.2,292.36c10.18-7.7,19.62-10.77,27.36-13.29,6.63-2.16,14.81-4.06,21.76-.93.9.41,1.14.6,3.78,1.87,3.15,1.52,7.89,3.67,13.77,5.84,1.32.49,2.42.87,3.14,1.12,4.64,2.23,9.42,4.08,14.37,5.47,9.95,4.02,20.13,7.37,30.49,10.15,13.37,4.34,27.08,7.38,40.77,10.48,1.75.4,2.64-.1,3.17-1.88,2.04-6.84,4.21-13.64,6.33-20.45,1.81-5.58,3.61-11.15,5.43-16.76-25.83-3.16-51.44-6.34-74.84-18.49-1.94-3.11-5.7-4.85-6.57-8.76-.17-1.22-.48-2.38-1.32-3.33-.83-2.32-.4-4.95-1.72-7.15-.13-4.12-.2-8.37-.19-12.73.01-5.83.16-11.46.42-16.87,1.09.62,2.3,1.24,3.64,1.82,2.73,1.18,5.27,1.89,7.43,2.32,3.58,1.39,11.89,4.04,22.14,2,6.81-1.36,11.81-4.25,14.73-6.28-3.28.23-6.55.76-9.85,1.09-9.56.95-18.77-1.03-27.92-3.46-1.34-.87-2.95-1-4.37-1.54-2.48-.94-5.91-.94-4.66-5.84.79-3.09,1.77-6.58,1.06-10.02,1.89-3.57,1.56-7.62,2.51-11.4.24-.96-.21-1.54-1.06-1.82-5.88-1.93-11.36-5-17.53-6.1-1.4-1.79-3.74-1.76-5.54-2.18-2.99-.7-2.56-1.91-1.52-3.74,2.6-4.57,5.46-9.01,7.43-13.92,4.48-8.87,9.01-17.71,13.41-26.61,2.87-5.81,6.2-11.4,8.44-17.51,1.64-3.34,3.24-6.7,4.93-10.01,2.75-5.41,6.37-10.39,8.02-16.35,4.65-8.24,10.08-15.94,16.09-23.23,6.52-6.64,13.46-12.8,20.74-18.58,4.51-2.88,9.33-5.28,13.44-8.78,5.12-1.42,9.7-4.11,14.54-6.21,5.08-1.4,10.16-2.8,15.24-4.2,12.97-2.76,25.96-2.49,38.97-.27,4.87,1.22,9.74,2.45,14.61,3.67,9.8,3.45,19.33,7.55,28.66,12.12,5.38,3.5,10.76,7,16.13,10.5,4.51,4.25,9.02,8.5,13.53,12.75,7.08,8.45,13.05,17.62,17.68,27.65,1.58,4.31,3.16,8.62,4.73,12.94,1.09,5.09,2.18,10.19,3.26,15.28-.06,2.41-.05,4.81.73,7.14.89,19.22-.84,38.2-5.63,56.85-2.07,8.05-4.61,15.99-6.94,23.97-1.17.85-1.27,2.27-1.77,3.46-4.3,10.29-9.5,20.08-15.9,29.23-3.39,4.41-6.76,8.83-10.75,12.73-.66.65-1.28,1.27-1.36,2.31-.64,8.12-2.09,16.17-2.27,24.33-.66,7.15-1.87,14.26-1.72,21.48-1.03,9.89-2.04,19.79-3.1,29.68-.18,1.66.36,1.99,1.98,1.84,3.3-.31,6.62-.34,9.94-.49,1.19-.01,2.38.02,3.57-.05,6.13-.36,59.17-3.49,67.35-3.84,15.16-.66,37.14,2.33,65.73,19.42,10.36,7.68,18.14,14.39,23.91,20.29V-96.65H-35.7v411.59c12.41-11.57,23.31-20.17,26.5-22.59Z"/><path class="cls-5" d="m114.14,110.92c.79,9.83,5.52,16.29,14.83,19.8,11.05,4.15,21.86,4.25,32.14-2.16-20.1,4.21-35.79-1-46.98-17.64Z"/><path class="cls-5" d="m-48.65,369.09c38.35-38.47,125.55,16.68,250.6,26.21,74.57,5.68,145.51-6.16,211.72-28.74v83.37l-474.95-5.05c-5.41-30.57-4.09-59.01,12.63-75.79Z"/></svg>