<?xml version="1.0" encoding="UTF-8"?><svg id="Calque_1" xmlns="http://www.w3.org/2000/svg" xmlns:xlink="http://www.w3.org/1999/xlink" viewBox="0 0 375 396"><defs><style>.cls-1{clip-path:url(#clippath);}.cls-2{fill:none;}.cls-2,.cls-3,.cls-4,.cls-5,.cls-6,.cls-7{stroke-width:0px;}.cls-8{opacity:.58;}.cls-3{fill:#7945db;}.cls-4{fill:#5730a0;}.cls-5{fill:#3f178a;}.cls-6{fill:#341d5e;}.cls-7{fill:#fff;}</style><clipPath id="clippath"><path class="cls-2" d="m194,362.5c-.99,0-1.93-.13-2.79-.37-.01,0-5.53-1.6-5.53-1.6,31.7-32.41,59.16-83.33,75.94-141.19,16.8-57.92,20.84-115.58,11.39-159.91,3.55,1.03,5.53,1.6,5.55,1.61,7.53,2.24,16.93,16.9,20.96,44.62,4.96,34.13.7,77.05-12.01,120.86l.03-.1s-.11.39-.12.43c-11.66,40.19-29.28,76.65-49.62,102.67-19.04,24.35-35.49,32.99-43.79,32.99h0Zm-92.4-26.36c-7.35-2.13-16.62-16.35-20.76-43.31-1.61-10.51-8.74-19.37-18.49-23.29,9.77-67.67,28.87-133.49,56.84-195.87,1.25.16,2.5.24,3.76.24,8.91,0,17.3-3.92,23.02-10.76,17.55-21,32.25-28.49,40.15-28.49,1,0,1.94.13,2.81.38l25.09,7.28c-3.64,3.01-7.24,6.29-10.78,9.83-7.47,7.47-10.48,18.46-7.86,28.69.84,3.27,2.21,6.34,4.06,9.11-28.94,64.9-49.03,133.27-59.79,203.48-6.89.28-13.48,2.91-18.66,7.48-7.71,6.81-11.39,16.92-9.83,27.05.61,3.95,1.32,7.82,2.12,11.58l-11.68-3.39Z"/></clipPath></defs><path class="cls-7" d="m140.82,323.38c1.71,11.12,4.28,21.22,7.68,30.06,0,0,.01,0,.02-.01-3.38-8.83-5.94-18.93-7.64-30.03l-.05-.02Z"/><path class="cls-7" d="m224.44,73.37l.77.22c6.07,1.54,9.74,7.7,8.21,13.77-.22.88-.55,1.73-.98,2.54-33.51,71.74-55.7,148.24-65.77,226.77-.48,6.25-5.94,10.92-12.19,10.44-.33-.03-.67-.08-1-.14,1.65,6.26,3.67,12.01,6.05,17.18,28.91-27.14,56.43-75.1,73.27-133.17,16.91-58.31,19.29-113.73,9.24-152.15-5.89,3.85-11.79,8.73-17.61,14.54Z"/><path class="cls-7" d="m-12.88-2.24v400.76h400.76V-2.24H-12.88Zm329.21,237.1c-.02.05-.03.1-.05.16-.02.05-.03.1-.04.16-28.73,99.06-88.46,168.8-133.41,155.76,0,0,0,0-.01,0,0,0,0,0,0,0l-89.57-25.98c-22.13-6.42-36.55-31.72-42.06-67.56l-8.62-2.5c-7.51-2.4-12.32-9.72-11.56-17.57,10.07-78.53,32.26-155.03,65.77-226.77,3.54-7.05,11.53-10.66,19.17-8.68l7,2.03C147.52,14.5,174.33-.44,197.29,6.22l89.57,25.98s0,0,0,0c0,0,0,0,.01,0,44.95,13.04,58.14,103.75,29.46,202.66Z"/><path class="cls-3" d="m286.87,32.2s0,0-.01,0c0,0,0,0,0,0L197.29,6.22c-22.96-6.66-49.77,8.28-74.33,37.68l-7-2.03c-7.64-1.99-15.62,1.63-19.17,8.68C63.27,122.29,41.09,198.79,31.01,277.32c-.77,7.85,4.05,15.16,11.56,17.57l8.62,2.5c5.51,35.85,19.93,61.14,42.06,67.56l89.57,25.98s0,0,0,0c0,0,0,0,.01,0,44.95,13.04,104.68-56.7,133.41-155.76.02-.05.03-.1.04-.16s.03-.1.05-.16c28.68-98.9,15.49-189.62-29.46-202.66Zm-54.06,178.77c-16.84,58.07-44.36,106.03-73.27,133.17-2.38-5.17-4.4-10.92-6.05-17.18.33.06.66.11,1,.14,6.25.48,11.7-4.19,12.19-10.44,10.07-78.53,32.26-155.03,65.77-226.77.43-.8.75-1.65.98-2.54,1.54-6.07-2.14-12.23-8.21-13.77l-.77-.22c5.82-5.81,11.72-10.69,17.61-14.54,10.05,38.42,7.67,93.84-9.24,152.15Zm-91.94,112.42c1.71,11.1,4.27,21.2,7.64,30.03,0,0-.01,0-.02.01-3.4-8.84-5.96-18.94-7.68-30.06l.06.02Z"/><path class="cls-4" d="m194,382.5c-2.88,0-5.7-.39-8.38-1.17,0,0-.02,0-.02,0l-89.57-25.98c-17.17-4.98-29.91-26.66-34.96-59.48-.59-3.85-3.36-7-7.1-8.08l-8.46-2.45c-2.91-.98-4.8-3.86-4.56-6.92,9.96-77.49,31.76-152.67,64.81-223.47,1.17-2.23,3.44-3.61,5.96-3.61.53,0,1.07.06,1.59.19l6.84,1.98c.92.27,1.86.4,2.79.4,2.92,0,5.74-1.28,7.67-3.59,19.22-23,38.93-35.66,55.5-35.66,2.88,0,5.7.39,8.38,1.17,0,0,89.62,26,89.76,26.03,17.41,5.17,30.18,27.36,35.06,60.91,5.36,36.89.89,82.81-12.59,129.31-.01.05-.09.31-.09.33-12.35,42.57-31.2,81.44-53.08,109.42-20.21,25.85-41.91,40.67-59.55,40.67h0Zm-53.14-69.1c-2.41,0-4.78.86-6.63,2.5-2.55,2.25-3.81,5.65-3.29,9.01,1.83,11.87,4.6,22.68,8.23,32.12,1.14,2.96,3.6,5.2,6.65,6.05.88.25,1.79.37,2.68.37,2.18,0,4.32-.71,6.08-2.06.12-.09.25-.19.36-.29,2.14-1.79,3.38-4.34,3.55-7,.35.04.7.06,1.05.06,2.52,0,4.97-.95,6.84-2.71,31.53-29.59,59.24-79.77,76.03-137.68,16.88-58.19,20.27-115.58,9.31-157.47-.81-3.11-3.08-5.64-6.08-6.8-1.16-.45-2.38-.67-3.6-.67-1.92,0-3.82.55-5.47,1.63-6.44,4.21-12.9,9.54-19.21,15.83-2.5,2.5-3.5,6.14-2.62,9.56s3.5,6.13,6.9,7.12l.77.22c.11.03.22.06.33.09.36.09.63.29.82.61s.24.65.15,1.01c-.03.11-.07.21-.11.3-.08.15-.16.31-.23.46-33.99,72.77-56.41,150.06-66.63,229.73-.02.17-.04.33-.05.5-.06.78-.72,1.25-1.33,1.25h-.03s-.2-.03-.2-.03c-.55-.09-1.11-.14-1.66-.14-1.48,0-2.93.33-4.25.95-1.29-1.97-3.27-3.47-5.62-4.14-.91-.26-1.83-.38-2.75-.38Z"/><path class="cls-5" d="m194,372.5c-1.93,0-3.8-.26-5.56-.76-.02,0-.04-.01-.06-.02h0s-23.5-6.81-23.5-6.81c.41-.59.79-1.2,1.14-1.83,2.65-.91,5.11-2.38,7.2-4.34,32.79-30.78,61.51-82.6,78.79-142.18,17.36-59.87,20.78-119.2,9.38-162.78-1.01-3.86-3.15-7.29-6.06-9.88,22.58,6.55,25.73,7.46,26.22,7.6l-.15-.04c13.31,3.95,23.78,23.68,28.01,52.76,5.16,35.51.79,79.93-12.3,125.08,0,.02-.12.4-.15.53l.06-.2c-12,41.38-30.24,79.04-51.35,106.05-18.03,23.06-37.35,36.83-51.67,36.83h0Zm-95.19-26.76c-13.08-3.79-23.5-23.01-27.86-51.39-1.18-7.66-6.75-14.01-14.2-16.17l-5.48-1.59c9.87-74.35,30.8-146.51,62.24-214.6l3.86,1.12c1.81.53,3.69.79,5.57.79,5.94,0,11.54-2.62,15.35-7.18,17.03-20.38,34.46-32.08,47.82-32.08,1.94,0,3.82.26,5.59.77,19.71,5.72,35.09,10.18,47.1,13.66-2.74.45-5.36,1.46-7.7,3-7.01,4.58-14.01,10.35-20.8,17.13-4.98,4.98-6.99,12.31-5.24,19.12,1,3.9,3.16,7.35,6.08,9.96-31.36,68.85-52.54,141.57-63.06,216.45-.57-.22-1.15-.42-1.74-.58-1.78-.51-3.63-.77-5.49-.77-4.89,0-9.6,1.77-13.25,5-5.15,4.54-7.6,11.28-6.56,18.03,1.53,9.93,3.7,19.2,6.45,27.63l-28.69-8.32Z"/><path class="cls-6" d="m194,362.5c-.99,0-1.93-.13-2.79-.37-.01,0-5.53-1.6-5.53-1.6,31.7-32.41,59.16-83.33,75.94-141.19,16.8-57.92,20.84-115.58,11.39-159.91,3.55,1.03,5.53,1.6,5.55,1.61,7.53,2.24,16.93,16.9,20.96,44.62,4.96,34.13.7,77.05-12.01,120.86l.03-.1s-.11.39-.12.43c-11.66,40.19-29.28,76.65-49.62,102.67-19.04,24.35-35.49,32.99-43.79,32.99h0Zm-92.4-26.36c-7.35-2.13-16.62-16.35-20.76-43.31-1.61-10.51-8.74-19.37-18.49-23.29,9.77-67.67,28.87-133.49,56.84-195.87,1.25.16,2.5.24,3.76.24,8.91,0,17.3-3.92,23.02-10.76,17.55-21,32.25-28.49,40.15-28.49,1,0,1.94.13,2.81.38l25.09,7.28c-3.64,3.01-7.24,6.29-10.78,9.83-7.47,7.47-10.48,18.46-7.86,28.69.84,3.27,2.21,6.34,4.06,9.11-28.94,64.9-49.03,133.27-59.79,203.48-6.89.28-13.48,2.91-18.66,7.48-7.71,6.81-11.39,16.92-9.83,27.05.61,3.95,1.32,7.82,2.12,11.58l-11.68-3.39Z"/><g class="cls-8"><g class="cls-1"><rect class="cls-6" x="-39.92" y="-7.64" width="374.76" height="396"/><path class="cls-5" d="m175.43-19.54c-13.56-12.96-33.85-15.11-52.55-16.58-35.88-2.82-73.59-5.35-106.31,9.65C-14.62-12.16-37.72,17.58-46.16,50.83c-7.11,28.01-1,54.75,6.8,81.84,4.6,15.97,5.93,33.19,13.52,48.2,8.81,17.41,32.49,23.14,50.82,18.88,5.3-1.23,10.39-3.86,14.59-7.42,7.23-6.12,11.83-15,10.41-24.24,15.83,8.52,36.8,6.27,50.47-5.41s19.16-32.04,13.21-49.01c.94,2.68,25.62-3.12,28.32-3.92,9.09-2.7,17.29-6.78,24.51-12.81,14.9-12.43,25.4-29.56,28.81-48.76,4.17-23.44-2.32-50.92-19.88-67.71h0ZM36.31,174.26c-2.22,0-4.03-1.8-4.03-4.03s1.8-4.03,4.03-4.03,4.03,1.8,4.03,4.03-1.8,4.03-4.03,4.03Zm19.33-36c-3.18,0-5.75-2.58-5.75-5.75s2.58-5.75,5.75-5.75,5.75,2.57,5.75,5.75-2.58,5.75-5.75,5.75Zm112.84-58.37c-2.22,0-4.03-1.8-4.03-4.03s1.8-4.03,4.03-4.03,4.03,1.8,4.03,4.03-1.8,4.03-4.03,4.03Z"/><path class="cls-5" d="m321.31,150.26c-4.39-9.51-13.3-17.62-13.1-28.09-5.6-15.18-19.65-26.92-35.58-29.75-6.41-1.82-10.19-5.55-16.1-8.43-10.92-5.47-24.75-5.74-34.99.92-10.24,6.66-15.63,20.68-10.91,31.94,3.96,9.47,13.7,13.51,18.84,21.68,4.43,7.04,4.24,18.47,3.27,26.42-1.72,14.11-8.4,27.46-18.81,37.16-8.81,8.21-23.91,11.36-29.25,22.59-3.52,7.41-3.42,15.98-2.9,24.16.52,8.19,1.38,16.57-.83,24.47-3.48,12.44-14.21,21.82-26.1,26.88-2.71,1.16-5.94,2.06-9.46,2.85-20.88,4.7-51.88,5.62-45.39,34.16,2.53,11.12,11.06,19.9,20.24,26.67,21.83,16.1,49.49,23.9,76.51,22.17,27.49-1.76,51.34-17.11,68.39-38.36,12.65-15.77,21.61-34.16,29.22-52.88,14.19-34.93,24.04-71.62,29.25-108.96,1.66-11.95,2.75-24.65-2.3-35.6h0Zm-115,82.05c-3.18,0-5.75-2.58-5.75-5.75s2.58-5.75,5.75-5.75,5.75,2.58,5.75,5.75-2.58,5.75-5.75,5.75Zm44.71-112.45c-3.18,0-5.75-2.58-5.75-5.75s2.58-5.75,5.75-5.75,5.75,2.58,5.75,5.75-2.58,5.75-5.75,5.75Z"/><circle class="cls-5" cx="52.96" cy="265.95" r="12.62"/><path class="cls-4" d="m278.78,241.91c-8.7,2.31-16.21,3.09-23.66,9.18-7.36,6.01-12.52,14.64-14.35,23.96-.71,3.65-.99,7.57-3.11,10.63-4.21,6.11-16.55,2.61-22.16.68-4.01-1.38-8.29-2.72-12.41-1.75-8.71,2.06-11.75,12.5-15.98,20.38-9.31,17.35-31.89,26.26-50.55,19.94-21.58-7.31-25.18-25.72-29.38-45.05-4.92-22.61,7.04-36.68,12.51-57.97,7.13-27.76-27.46-28.21-41.79-13.05-9.13,9.66-11.29,25.24-5.14,37.02,5.31,10.17,13.16,17.69,15.88,29.3,1.16,4.95.94,10.43-1.71,14.77-3.98,6.53-13.12,8.97-20.18,6.04-4.69-1.94-7.53-5.2-9.43-9.11-4.15-8.53-3.85-20.22-8.57-28.38-7.21-12.46-20.72-21.6-35.3-22.04-21.39-.65-41.63,17.52-43.29,38.85-1.65,21.2,12.87,40.55,29.89,53.3,14.98,11.22,32.12,19.08,47.62,29.53,14.71,9.92,37.39,10.78,54.84,12.23,40.17,3.33,80.73-1.19,119.87-10.43,15.9-3.75,31.85-8.37,45.8-16.87,23.75-14.46,41.9-44.45,44.95-71.94,1.15-10.35-.35-22.38-8.85-28.39-7.77-5.5-16.19-3.4-24.47-1.1-.34.1-.68.19-1.02.28h0ZM15.1,253.32c-2.22,0-4.03-1.8-4.03-4.03s1.8-4.03,4.03-4.03,4.03,1.8,4.03,4.03-1.8,4.03-4.03,4.03Zm85.31-7.64c-3.18,0-5.75-2.58-5.75-5.75s2.58-5.75,5.75-5.75,5.75,2.57,5.75,5.75-2.58,5.75-5.75,5.75Zm101.87,58.7c2.22,0,4.03,1.8,4.03,4.03s-1.8,4.03-4.03,4.03-4.03-1.8-4.03-4.03,1.8-4.03,4.03-4.03Zm0,40.11c-3.18,0-5.75-2.58-5.75-5.75s2.58-5.75,5.75-5.75,5.75,2.58,5.75,5.75-2.58,5.75-5.75,5.75Z"/><path class="cls-4" d="m35.47,148.66c3.84-7.66,1.51-17.46,5.89-24.83,4.01-6.74,12.43-9.39,20.21-10.35,7.79-.97,15.97-.89,22.99-4.39,8.8-4.38,14.28-13.99,15.28-23.78s-2-19.64-6.74-28.25c-5.68-10.31-14.97-19.77-26.68-20.97-11.45-1.17-22.11,5.74-30.82,13.27C17.41,65.09,2.93,85.03-6.66,107.07c-3.99,9.16-10.56,22.4-9.39,32.67,1.04,9.11,9.93,13.47,17.66,16.55,11.15,4.44,27.55,4.93,33.84-7.62h.02Z"/><circle class="cls-3" cx="149.21" cy="274.65" r="12.62"/><circle class="cls-3" cx="113.03" cy="198.89" r="12.62"/><circle class="cls-3" cx="226.84" cy="293.24" r="12.62"/><circle class="cls-4" cx="74.16" cy="171.19" r="12.62"/><circle class="cls-3" cx="137.15" cy="145.14" r="12.62"/><circle class="cls-3" cx="27.72" cy="193.96" r="12.62"/><circle class="cls-3" cx="95.81" cy="119.87" r="8.7"/><circle class="cls-5" cx="179.24" cy="108.36" r="8.7"/><circle class="cls-5" cx="147.46" cy="220.81" r="8.7"/><circle class="cls-4" cx="226.84" cy="138.27" r="8.7"/><path class="cls-3" d="m165.2,322.26c-24.64-11.58-54.72,14.87-79.76,4.18-8.47-3.62-14.69-10.96-20.48-18.12-7.8-9.65-17.55-21.82-31.36-21.28-10.38.41-15.43,8.51-16.22,18.14-1.93,23.67,15.51,50.29,32.1,65.57,19.99,18.41,47.33,28.58,74.49,27.71,13.27-.42,26.73-3.51,37.82-10.8,11.1-7.29,19.57-19.16,20.89-32.38,1.31-13.21-5.47-27.37-17.49-33.02h.01Zm-69.39,24.53c-2.22,0-4.03-1.8-4.03-4.03s1.8-4.03,4.03-4.03,4.03,1.8,4.03,4.03-1.8,4.03-4.03,4.03Z"/><path class="cls-3" d="m56.98,58.12c-6.09.65-12.14.16-18,2.26-12.54,4.51-22.52,14.47-29.69,25.71-8.99,14.09-14.08,30.26-19.07,46.22-5.7,18.21-11.4,36.43-17.1,54.64-1.41,4.5-3.19,9.26-3.07,14.05.17,6.18,3.1,6.21,8.71,6.14,10.04-.13,20.05-4.27,27.07-11.49,3.23-3.32,5.32-6.2,5.96-10.24.12-.78.19-1.6.2-2.47.08-5.34-.07-10.44.87-15.74,1.79-10.1,5.93-19.8,12.12-28,9.23-12.22,25.01-23.4,40.68-24.83,14.15-1.29,27.36-9.93,28.73-25.54,1.91-21.66-18.66-32.71-37.42-30.71h.01Zm1.43,45.62c-2.22,0-4.03-1.8-4.03-4.03s1.8-4.03,4.03-4.03,4.03,1.8,4.03,4.03-1.8,4.03-4.03,4.03Z"/><path class="cls-4" d="m258.54-15.47c-6.18-9.21-17.27-14.24-28.31-15.32-11.03-1.08-22.11,1.33-32.77,4.39-25.33,7.27-48.15,18.89-70.98,31.82-17.55,9.94-24.22,27.52-14.51,47.08,5.92,11.93,19.32,20.26,32.53,18.57,13.21-1.69,24.53-14.48,23.04-27.72,3.48,14.96,17.3,26.42,32.47,28.82s31.01-3.55,42.22-14.04,18.03-25.12,20.85-40.21c2.12-11.33,1.88-23.82-4.54-33.39ZM124.52,45.62c-3.18,0-5.75-2.58-5.75-5.75s2.58-5.75,5.75-5.75,5.75,2.58,5.75,5.75-2.58,5.75-5.75,5.75Z"/><circle class="cls-3" cx="200.56" cy="70.22" r="12.62"/><circle class="cls-3" cx="128.56" cy="70.22" r="12.62"/><path class="cls-3" d="m219.1,172.83c3.2-9.72,20.97-46.82-.28-48.19-3.02-.19-5.97.87-8.68,2.2-8.61,4.21-15.62,11.02-22.45,17.75-6.83,6.73-13.78,13.6-22.32,17.92-11.11,5.62-26.31,3.88-37.96.08l-.83-.27c-15.68-5.32-22.94-21.86-36.26-30.55-6.75-4.41-15.13-6.49-23.06-5.05s-15.25,6.63-18.63,13.95c-3.38,7.32-2.41,16.63,2.91,22.68,7.16,8.14,19.41,8.8,30.25,8.57,8.71-.19,24.01-.66,30.58,6.29,9.83,10.41-.33,21.97-11,25.05-5.5,1.58-11.33,2.39-16.3,5.22-8.02,4.56-12.58,14.49-10.84,23.55,1.75,9.06,9.68,16.58,18.81,17.84-11.64,4.83-19.71,17.22-19.42,29.82.58,25.07,29.15,36.21,50.63,30.49,13.65-3.64,24.1-14.46,33.1-25.34,27.32-33.05,48.34-71.26,61.75-111.99h0Zm-157.58-12.17c-1.84-1.24-2.33-3.75-1.08-5.6s3.75-2.33,5.6-1.08,2.33,3.75,1.08,5.6c-1.25,1.85-3.75,2.33-5.6,1.08Zm25.64,72.81c-1.84-1.24-2.33-3.75-1.08-5.6,1.25-1.85,3.75-2.33,5.6-1.08s2.33,3.75,1.08,5.6-3.75,2.33-5.6,1.08Zm54.53-46.11c2.69-3.98,8.09-5.03,12.08-2.34,3.99,2.69,5.03,8.09,2.34,12.08s-8.09,5.03-12.08,2.34-5.03-8.09-2.34-12.08Zm-32.54,79.23c-2.63-1.78-3.33-5.35-1.54-7.98s5.36-3.32,7.98-1.54,3.32,5.36,1.54,7.98-5.36,3.32-7.98,1.54Z"/><circle class="cls-3" cx="113.03" cy="302.46" r="8.7"/><circle class="cls-3" cx="34.09" cy="262.02" r="8.7"/><circle class="cls-3" cx="198.26" cy="259.08" r="8.7"/><circle class="cls-3" cx="70.23" cy="226.56" r="8.7"/></g></g><path id="Tracé_38919" class="cls-7" d="m137.65,226.74c-.75-3.94-2.16-7.72-4.19-11.18-.64-1.02-1.3-2.01-1.98-2.97-1.86-2.49-4.05-4.7-6.52-6.58-.41-.29-.85-.63-1.24-.92-1.24-.84-2.53-1.58-3.88-2.23-.82-.42-1.66-.79-2.51-1.11-.43-.19-.85-.31-1.25-.47-.21-.05-.41-.13-.6-.21l-.61-.18c-1.73-.49-3.5-.83-5.29-1.01-1.93-.2-3.87-.2-5.8.02-3.04.32-6,1.14-8.77,2.43-.9.41-1.77.88-2.61,1.4-3.21,1.94-5.97,4.54-8.1,7.62-1.08,1.57-2.01,3.24-2.75,4.99-.38.92-.71,1.85-.98,2.81l-.43,1.47c-.03.23-.14.48-.17.75-.1.54-.2,1.07-.3,1.61-.35,2.19-.46,4.42-.3,6.64.12,1.92.4,3.82.85,5.69.19.71.34,1.41.58,2.08.54,1.71,1.2,3.39,1.98,5,.36.69.69,1.32.97,1.84.16.25.33.54.44.76s.16.25.21.33l.11.17.05.08s-.01.03.05.12.2.3.3.43c2.18,3.33,4.89,6.28,8.03,8.73.1.06.19.14.27.22.62.45,1.32.93,2,1.34,2.62,1.72,5.48,3.04,8.49,3.92,3.62,1.07,7.42,1.4,11.17.98.1,0,.21-.02.31-.05,3.52-.46,6.9-1.66,9.92-3.53.08-.02.15-.06.22-.11l.07-.05.02-.06s.06.02.06.02c1.04-.67,2.04-1.41,2.98-2.22,1.26-1.09,2.42-2.3,3.46-3.6.3-.4.66-.81.96-1.28,1.02-1.46,1.91-3.02,2.64-4.64.87-1.94,1.53-3.97,1.98-6.05.08-.26.1-.55.16-.82.73-4.02.72-8.14-.03-12.16m-6.65,11.27c-.04.1-.08.21-.09.32l-.18.61c-.1.41-.21.82-.35,1.22-.24.77-.54,1.52-.88,2.24-.57,1.28-1.27,2.49-2.09,3.63-.31.43-.62.82-.92,1.19-.81.98-1.7,1.88-2.68,2.69-.74.62-1.53,1.18-2.36,1.68h0l-.07.05c-2.41,1.43-5.1,2.35-7.88,2.7-2.91.32-5.85.07-8.65-.75-2.31-.68-4.5-1.68-6.52-2.99l-1.54-1.07-.21-.17c-2.42-1.87-4.51-4.14-6.17-6.71-.11-.13-.17-.29-.29-.46-.03-.05.01-.03-.06-.05l-.02-.07-.08-.13c-.07-.09-.14-.19-.19-.3-.15-.22-.23-.41-.36-.63-.27-.46-.49-.9-.76-1.46-.61-1.28-1.13-2.6-1.54-3.95-.13-.42-.25-.87-.36-1.36-.34-1.43-.57-2.88-.67-4.35-.1-1.69-.02-3.39.23-5.07l.04-.13c.06-.22.06-.5.1-.72l.05-.16s.03-.08.04-.13c.08-.28.11-.57.17-.86s.22-.77.32-1.12c.22-.74.47-1.46.75-2.14.57-1.33,1.26-2.61,2.07-3.81,1.63-2.42,3.75-4.47,6.23-6.01.69-.42,1.4-.79,2.13-1.12,2.1-1.01,4.37-1.65,6.69-1.89,2.9-.31,5.84-.05,8.64.76,2.85.85,5.52,2.2,7.89,3.99.16.14.32.27.49.38,2.5,2.01,4.6,4.47,6.19,7.26h.03s.04.02,0,.01.03.01.02.07c.63,1.06,1.17,2.17,1.62,3.32.55,1.38.99,2.79,1.31,4.24.09.44.17.88.24,1.35.25,1.5.37,3.02.36,4.55-.02,1.67-.21,3.34-.57,4.97l-.09.32"/><path id="Tracé_38920" class="cls-7" d="m135,268.19c.08.02.15.06.2.12.1.13.14.29.11.45-.02.07-.07.13-.13.17-.67.48-1.32.94-2.03,1.37-4.01,2.53-8.48,4.26-13.15,5.09-.6.1-1.21.19-1.82.28-5.54.67-11.15.21-16.5-1.37h0c-.7-.2-1.39-.4-2.07-.65s-1.37-.49-2.04-.76c-1.35-.54-2.68-1.15-4-1.82-2.6-1.33-5.07-2.89-7.39-4.66-.55-.41-1.07-.82-1.6-1.22-4.15-3.45-7.76-7.51-10.69-12.04-.52-.81-1.03-1.64-1.54-2.48-.05-.07-.07-.15-.07-.23,0-.08.02-.15.06-.22.04-.06.1-.11.16-.13.07-.02.15-.02.22,0l7.2,2.09c2.6,3.6,5.72,6.79,9.25,9.47.42.32.8.61,1.25.9,3.68,2.6,7.76,4.57,12.07,5.84,4.15,1.22,8.49,1.68,12.8,1.36.46-.04.93-.08,1.4-.14,3.88-.48,7.64-1.66,11.1-3.49l7.2,2.09"/></svg>