<svg xmlns="http://www.w3.org/2000/svg" width="41.895" height="57.67" viewBox="0 0 41.895 57.67">
  <g id="Groupe_5980" data-name="Groupe 5980" transform="translate(19082.748 10813.085)">
    <path id="Tracé_38914" data-name="Tracé 38914" d="M45.063,6.915c-1.726,0-7.02.744-8.528,2.082,4.807,4.265,8.2,14.632,8.2,26.753s-3.4,22.488-8.2,26.753c1.508,1.338,6.8,2.082,8.528,2.082,7.226,0,13.084-12.91,13.084-28.835S52.289,6.915,45.063,6.915" transform="translate(-19099 -10820)" fill="#666"/>
    <path id="Tracé_38915" data-name="Tracé 38915" d="M31.979,35.75c0-12.121,3.4-22.488,8.2-26.753a9.656,9.656,0,0,1,4.882-2.082h-14.4c-7.226,0-13.084,12.91-13.084,28.835s5.858,28.835,13.084,28.835h14.4A11.071,11.071,0,0,1,40.181,62.5c-4.807-4.265-8.2-14.632-8.2-26.753" transform="translate(-19099 -10820)" fill="#333"/>
    <path id="Tracé_38916" data-name="Tracé 38916" d="M45.063,6.915C37.837,6.915,31.979,19.8,31.979,35.7s5.858,28.885,13.084,28.885S58.147,51.6,58.147,35.7,52.289,6.915,45.063,6.915m0,54.692c-6.5,0-11.775-11.6-11.775-25.907S38.56,9.793,45.063,9.793,56.838,21.392,56.838,35.7,51.566,61.607,45.063,61.607" transform="translate(-19099 -10820)" fill="#4d4d4d"/>
    <path id="Tracé_38917" data-name="Tracé 38917" d="M37.7,56.375H22.453a2.586,2.586,0,0,1-2.47-2.108,118.279,118.279,0,0,1,0-36.456,2.585,2.585,0,0,1,2.47-2.107H37.7a1.75,1.75,0,0,1,1.773,2.107,118.279,118.279,0,0,0,0,36.456A1.752,1.752,0,0,1,37.7,56.375" transform="translate(-19099 -10820)" fill="#3d3d3d"/>
    <path id="Tracé_38918" data-name="Tracé 38918" d="M35.383,56.375H20.133a2.584,2.584,0,0,1-2.469-2.108,118.279,118.279,0,0,1,0-36.456A2.584,2.584,0,0,1,20.133,15.7h15.25a1.751,1.751,0,0,1,1.773,2.107,118.279,118.279,0,0,0,0,36.456,1.751,1.751,0,0,1-1.773,2.108" transform="translate(-19099 -10820)" fill="#191919"/>
    <path id="Tracé_38919" data-name="Tracé 38919" d="M30.237,45.847a4.85,4.85,0,0,0-.985-1.321c-.124-.111-.25-.216-.377-.318a4.618,4.618,0,0,0-1.117-.622c-.066-.023-.137-.051-.2-.074a4.338,4.338,0,0,0-.6-.147,3.551,3.551,0,0,0-.376-.051c-.065-.009-.125-.009-.184-.014a.544.544,0,0,1-.088-.005h-.088a4.208,4.208,0,0,0-.74.07,3.728,3.728,0,0,0-.768.225,3.835,3.835,0,0,0-1.069.659,3.422,3.422,0,0,0-.292.286,3.642,3.642,0,0,0-.78,1.322,3.9,3.9,0,0,0-.173.768,3.689,3.689,0,0,0-.022.41c0,.069,0,.137,0,.211.005.032,0,.069.006.106.007.075.015.15.022.225a4.033,4.033,0,0,0,.215.892,4.63,4.63,0,0,0,.331.722c.052.087.1.174.157.253a5.083,5.083,0,0,0,.455.587c.074.078.142.148.2.207.031.027.064.059.088.083s.031.027.041.036l.021.019.01.009c.006,0,0,.005.011.014s.038.032.056.045a5.025,5.025,0,0,0,1.4.849.189.189,0,0,1,.044.019c.1.036.211.073.317.1a4.382,4.382,0,0,0,1.276.193,3.907,3.907,0,0,0,1.519-.3.153.153,0,0,0,.039-.018,3.471,3.471,0,0,0,1.18-.849.1.1,0,0,0,.025-.023l.008-.009c0-.005,0-.005,0-.009s.009,0,.009,0a3.6,3.6,0,0,0,.309-.409,3.778,3.778,0,0,0,.32-.61c.024-.065.056-.133.078-.207a3.87,3.87,0,0,0,.171-.717,4.244,4.244,0,0,0,.03-.878c0-.038-.008-.077-.011-.115a4.64,4.64,0,0,0-.472-1.611M29.785,47.6a.176.176,0,0,0,0,.046c0,.028,0,.06,0,.087a1.664,1.664,0,0,1,0,.175,2.324,2.324,0,0,1-.031.331,2.725,2.725,0,0,1-.138.561c-.025.069-.05.133-.076.193a2.782,2.782,0,0,1-.252.459,2.373,2.373,0,0,1-.249.313l0,0-.008.009a2.819,2.819,0,0,1-.941.661,3.061,3.061,0,0,1-1.176.234,3.415,3.415,0,0,1-.979-.146l-.245-.083-.034-.014a3.7,3.7,0,0,1-1.076-.652c-.02-.013-.034-.032-.056-.05-.006-.005,0-.005-.01-.005l-.006-.009-.015-.014a.194.194,0,0,1-.036-.032c-.028-.023-.046-.046-.072-.069-.053-.051-.1-.1-.157-.165a3.96,3.96,0,0,1-.356-.464c-.033-.051-.067-.106-.1-.166a3.682,3.682,0,0,1-.256-.551,3.429,3.429,0,0,1-.165-.681l0-.018c0-.032-.011-.069-.014-.1l0-.023a.04.04,0,0,0,0-.018c0-.04-.008-.08-.011-.12s0-.111,0-.161c0-.107.006-.211.017-.313a3.113,3.113,0,0,1,.128-.584,2.826,2.826,0,0,1,.595-1.036,2.7,2.7,0,0,1,.239-.23,2.778,2.778,0,0,1,.814-.507,3.078,3.078,0,0,1,1.175-.231,3.437,3.437,0,0,1,1.2.226.782.782,0,0,0,.08.032,3.565,3.565,0,0,1,1.1.724h.005c0,.005.006,0,0,0s.005,0,.005.009a3.151,3.151,0,0,1,.343.378,3.9,3.9,0,0,1,.337.511c.029.055.057.11.084.17a3.618,3.618,0,0,1,.222.589,3.4,3.4,0,0,1,.116.681l0,.046" transform="translate(-19099 -10820)" fill="#9b7bb5"/>
    <path id="Tracé_38920" data-name="Tracé 38920" d="M31.479,51.443a.059.059,0,0,1,.031.008.076.076,0,0,1,.032.055.04.04,0,0,1-.011.028c-.07.089-.139.175-.216.26a5.057,5.057,0,0,1-1.547,1.18c-.076.037-.153.072-.23.107a5.641,5.641,0,0,1-2.24.453h0c-.1,0-.2,0-.3-.007s-.2-.013-.3-.022q-.3-.03-.6-.087a6.825,6.825,0,0,1-1.159-.333c-.088-.033-.174-.068-.259-.1A7.349,7.349,0,0,1,22.8,51.8c-.1-.087-.2-.177-.3-.269a.047.047,0,0,1-.018-.028.055.055,0,0,1,0-.031.053.053,0,0,1,.016-.024.052.052,0,0,1,.029-.008h1.035a6.185,6.185,0,0,0,1.591.9c.068.026.13.05.2.072a5.657,5.657,0,0,0,1.825.31,4.933,4.933,0,0,0,1.749-.312c.059-.023.12-.047.18-.073a4.422,4.422,0,0,0,1.337-.89h1.035" transform="translate(-19099 -10820)" fill="#9b7bb5"/>
  </g>
</svg>
