<svg id="Layer_2" data-name="Layer 2" xmlns="http://www.w3.org/2000/svg" width="24" height="24" viewBox="0 0 24 24">
  <g id="invisible_box" data-name="invisible box">
    <rect id="Rectangle_2847" data-name="Rectangle 2847" width="24" height="24" fill="none"/>
  </g>
  <g id="icons_Q2" data-name="icons Q2" transform="translate(2 2)">
    <path id="Path_38323" data-name="Path 38323" d="M12,2a9.955,9.955,0,1,0,7.085,2.916A10,10,0,0,0,12,2Zm5.182,7.455-6.364,6.364a.864.864,0,0,1-1.273,0L6.864,13.136a1,1,0,0,1-.182-1.227.909.909,0,0,1,1.409-.091l2.091,2.091,5.727-5.727a.909.909,0,0,1,1.273,1.273Z" transform="translate(-2 -2)" fill="#5bc466"/>
  </g>
</svg>
