<svg xmlns="http://www.w3.org/2000/svg" xmlns:xlink="http://www.w3.org/1999/xlink" width="119" height="119" viewBox="0 0 119 119">
  <defs>
    <clipPath id="clip-path">
      <rect id="Rectangle_3986" data-name="Rectangle 3986" width="119" height="119" rx="5" transform="translate(0 42.84)" fill="none"/>
    </clipPath>
    <filter id="Tracé_38457" x="43.894" y="66.69" width="96.29" height="48.016" filterUnits="userSpaceOnUse">
      <feOffset input="SourceAlpha"/>
      <feGaussianBlur stdDeviation="3.23" result="blur"/>
      <feFlood flood-opacity="0.102"/>
      <feComposite operator="in" in2="blur"/>
      <feComposite in="SourceGraphic"/>
    </filter>
  </defs>
  <g id="Calque_1-2" transform="translate(0 -42.84)">
    <rect id="Rectangle_3985" data-name="Rectangle 3985" width="119" height="119" rx="5" transform="translate(0 42.84)" fill="#ebf0f7"/>
    <g id="Groupe_5835" data-name="Groupe 5835" clip-path="url(#clip-path)">
      <path id="Tracé_38454" data-name="Tracé 38454" d="M151.44,199.72a31.5,31.5,0,0,1-7.68-7.13,20.659,20.659,0,0,0-8.67-5.91,7.552,7.552,0,0,1-1.75-.82c-1.08-.77-1.26-2.37-1.56-3.57s-.52-2.4-.84-3.59c-.65-2.39-1.23-6.2-1.23-12.55,0-15.07-3.1-28.08-4.75-31.59s-2.68-6.19-4.61-20.44,1.79-11.91,0-29.11-15-20.23-20.92-21.61S81.4,57.03,79.06,55.24c-1.15-.88-1.34-5.37-1.23-9.7,1.81-2.78,2.74-6.44,3.4-9.64.28.36.88,1.03,1.41,1.07.74.06,1.81-2.27,2.15-3.51s.79-5.5.28-7.08-1.7-.34-2.1.28a2.117,2.117,0,0,1-.76.62c.11-2.1.22-4.19.52-6.28A24.531,24.531,0,0,0,81.66,8.99C78.76.62,67.3.04,65.7,0,64.11.04,52.65.62,49.71,8.98a24.791,24.791,0,0,0-1.07,12.01c.3,2.08.41,4.18.52,6.28a2.208,2.208,0,0,1-.76-.62c-.4-.62-1.59-1.87-2.1-.28s-.06,5.84.28,7.08,1.42,3.57,2.15,3.51c.54-.04,1.13-.71,1.41-1.07.66,3.2,1.59,6.87,3.4,9.64.11,4.32-.07,8.81-1.23,9.7-2.34,1.79-14.45,6.78-20.37,8.16S12.81,67.79,11.02,85s1.93,14.87,0,29.11a120.748,120.748,0,0,1-2.54,14.76A21.57,21.57,0,0,0,9,141.22a7.321,7.321,0,0,0,2.75,3.96c5,3.17,13.63,1.78,18.02,1.76,1.53,0,1.08-.83,2.07-2,.94-1.11.82-2.74.62-4.19-.44-3.13-1.01-6.25-1.71-9.34-.34-1.52-.94-3.08-1.15-4.61a19.327,19.327,0,0,1,.34-4.57c.39-3.67.43-7.62,1.24-11.21,1.33.26,2.48,4.88,2.92,6.1a61.381,61.381,0,0,1,2.22,7.73,42.2,42.2,0,0,1,.37,17.12c-4.17,20.58-2.87,14.59-4.17,20.58a168.692,168.692,0,0,0-3.54,19.85c-1.46,15.09-2.59,30.38-.2,45.32.87,5.45,4.04,37.01,3.85,38.1-.75,4.11-3.18,12.71-4.11,17.57s-.46,12.15-.09,25.42,2.06,23.55,2.62,30.84c.48,6.26-.44,22.25-.71,26.66a8.622,8.622,0,0,1-.44,2.26,43.4,43.4,0,0,1-2.41,5.85c-1.82,3.5-6.02,10.07-7.41,11.47s-3.66,4.77-1.54,5.74c.74.34,1.12.02,1.12.02a2.378,2.378,0,0,0,.87,2.59,2.61,2.61,0,0,0,1.22.19,2.345,2.345,0,0,0,3.15,1.89s.53,1.87,2.16,1.96a3.777,3.777,0,0,0,1.57-.19c.46-.18.97-.71,1.52-2.01a2.19,2.19,0,0,0,1.65,2.48c2.06.8,4.51-.14,5.77-2.8s1.12-3.15,2.17-5.46.56-8.32,1.33-10.77,3.01-3.29,3.22-5.32a27.7,27.7,0,0,0-.11-5.74c.05-.01.15-9.15.15-9.15l.26-4.08a154.214,154.214,0,0,1,2.37-18.78c1.99-10.41,4.75-27.67,5.59-38.13,1.12-14.02,2.43-25.79,3.18-28.04.03-.1.08-.24.14-.42a134.606,134.606,0,0,0,5.77-26.38c.32-2.83.62-5.96.85-9.32,1.02-14.74.55-22.76,3.19-23.15,2.64.39,2.17,8.41,3.19,23.15.23,3.36.53,6.48.85,9.32a134.607,134.607,0,0,0,5.77,26.38c.06.18.1.32.14.42.75,2.24,2.06,14.02,3.18,28.04.84,10.46,3.6,27.72,5.59,38.13a151.786,151.786,0,0,1,2.37,18.78l.26,4.08s.1,9.14.15,9.15a28.414,28.414,0,0,0-.11,5.74c.21,2.03,2.45,2.87,3.22,5.32s.28,8.46,1.33,10.77.91,2.8,2.17,5.46,3.71,3.6,5.77,2.8a2.19,2.19,0,0,0,1.65-2.48c.55,1.3,1.06,1.83,1.52,2.01a3.619,3.619,0,0,0,1.57.19c1.62-.08,2.16-1.96,2.16-1.96a2.345,2.345,0,0,0,3.15-1.89,2.61,2.61,0,0,0,1.22-.19,2.356,2.356,0,0,0,.87-2.59s.38.32,1.12-.02c2.12-.96-.14-4.34-1.54-5.74s-5.6-7.97-7.41-11.47a43.65,43.65,0,0,1-2.41-5.85,8.784,8.784,0,0,1-.44-2.26c-.27-4.4-1.19-20.4-.71-26.66.56-7.29,2.24-17.57,2.62-30.84s.85-20.56-.09-25.42-3.36-13.46-4.11-17.57c-.2-1.09,2.97-32.65,3.85-38.1,2.4-14.94,1.26-30.23-.2-45.32a168.692,168.692,0,0,0-3.54-19.85c-1.3-5.99,0,0-4.17-20.58-2.37-11.72,1.58-23.59,5.44-31.66,2.54,8.98,6.07,17.37,6.47,20.71.62,5.16-.83,9.29,3.3,21.27,3.21,9.3,8.16,24.58,10.21,30.94h-.07s1.06,2.96,1.59,5.22,1.22,9.17,1.71,12.55,1.64,6.84,2.47,10.6c.52,2.32,1.23,5.61,1.95,6.86.63,1.09,1.27,1.27,2.01,1.18,1.17-.14,1.25-1.9.79-4.38-.36-1.96-1.47-5.87-1.53-7.3-.03-.66.36.21.59,1.09.61,2.32,1.61,7.25,2.28,9.97.65,2.65,1.64,5.15,2.75,5.48a1.6,1.6,0,0,0,2.17-1.62c0-1.51-1.04-3.94-1.48-5.82-.79-3.35-2.15-10.41-2.15-10.41s2.09,8.42,2.8,11.48c.07.3,1.01,3.35,1.77,5.18.75,1.81,2.09,3.02,3.22,2.07,2.15-1.81-.37-6.61-1.34-10.36s-2.3-9.95-2.3-9.95,2.4,7.34,3.56,11.45,2.85,6.17,4.03,4.58.6-4.48.07-6.05-1.34-4.64-2.17-7.19-2.93-10.14-1.94-10.44,3.66,4.81,7.7,5.73,4.61-2.22,2.85-3.45Z" fill="#f4d7c9"/>
      <path id="Tracé_38455" data-name="Tracé 38455" d="M27.96,64.54c.02,2.61,1.83,48.15,2.04,54.5l16.61.16s-1.29-58.6-1.46-60.17c-.22-2.04-17.23,2.02-17.2,5.5Z" fill="#2e3198"/>
      <path id="Tracé_38456" data-name="Tracé 38456" d="M97.21,62.79c-.02,2.61-1.83,46.88-2.04,53.23l-16.61.16s1.29-58.6,1.46-60.17c.22-2.04,17.23,3.29,17.2,6.77Z" fill="#2e3198"/>
      <g transform="matrix(1, 0, 0, 1, 0, 42.84)" filter="url(#Tracé_38457)">
        <path id="Tracé_38457-2" data-name="Tracé 38457" d="M82.76,133.82c3.23.66,6.66,1.44,8.58-1.31a20.706,20.706,0,0,1,7.82-6.99,31.511,31.511,0,0,0,8.76-5.74c1.62-1.42,4.53-.11,2.67,3.59s-7.46,5.06-7.41,6.1,7.92.82,10.6.63,5.86-.24,7.5-.38,4.59-.02,5.85,1.52-1.14,2.67-5.41,2.82-11.97.71-11.97.71,6.33.2,10.21.16,9.14-1.34,10.38,1.18c.65,1.33-.84,2.34-2.78,2.63-1.96.3-5.15.48-5.45.47-3.14-.04-11.82-.03-11.82-.03s7.18.38,10.62.41c1.92.02,4.54-.41,6-.04a1.608,1.608,0,0,1,1.06,2.5c-.59,1-3.25,1.36-5.98,1.35-2.79,0-7.82-.21-10.22-.18-.91.01-1.85.18-1.2.31,1.4.29,5.47.15,7.45.27,2.52.15,4.2.65,4.06,1.82-.09.73-.42,1.32-1.63,1.67-1.38.4-4.75.31-7.12.25-3.85-.09-7.49.2-10.88-.14s-10.27-1.32-12.59-1.35a54.421,54.421,0,0,0-5.44.29v-.07q-6.78.48-13.57.98c-4.47.33-10.94,1.68-14.88-1.19-3.06-2.23-3.3-9.67,0-11.77,1.71-1.09,3.85-1.19,5.87-1.23q8.925-.18,17.83.32a21.364,21.364,0,0,1,3.09.48Z" transform="translate(0 -42.84)" fill="#f4d7c9"/>
      </g>
      <path id="Tracé_38458" data-name="Tracé 38458" d="M29.69,127.63s-1.04,16.26-.69,19.31,64.3,2.14,64.21-.61.46-21.61.46-21.61l-63.56-.47-.42,3.39Z" fill="#2e3198"/>
      <path id="Tracé_38459" data-name="Tracé 38459" d="M11.05,104.63c2.19-.36,81.75-.36,84.51.17s.6,21-1.07,21.52-84.89.28-85.77-.35c-1.13-.8.99-21.49,2.33-21.35Z" fill="#141d7a" stroke="#5a5edb" stroke-width="1"/>
      <path id="Tracé_38460" data-name="Tracé 38460" d="M43.78,114.64a10.78,10.78,0,0,1,10.71-10.07c14.67-.07,40.36-.14,41.56.23,1.62.51.37,21-.65,21.52-.71.36-25.83.05-41.02-.17a10.783,10.783,0,0,1-10.6-11.51h0Z" fill="#000959" stroke="#5a5edb" stroke-width="1"/>
    </g>
  </g>
</svg>
