<svg id="Calque_1-2" xmlns="http://www.w3.org/2000/svg" xmlns:xlink="http://www.w3.org/1999/xlink" width="119" height="119" viewBox="0 0 119 119">
  <defs>
    <radialGradient id="radial-gradient" cx="0.5" cy="0.5" r="0.5" gradientUnits="objectBoundingBox">
      <stop offset="0" stop-color="#e6e6e6"/>
      <stop offset="1" stop-color="#e6e6e6"/>
    </radialGradient>
  </defs>
  <rect id="Rectangle_3970" data-name="Rectangle 3970" width="119" height="119" rx="5" fill="#ebf0f7"/>
  <rect id="Rectangle_3971" data-name="Rectangle 3971" width="82.65" height="63.31" transform="translate(17.57 34.99)" fill="#fff"/>
  <rect id="Rectangle_3972" data-name="Rectangle 3972" width="13.86" height="13.86" transform="translate(25.27 42.02)" fill="url(#radial-gradient)"/>
  <rect id="Rectangle_3973" data-name="Rectangle 3973" width="13.86" height="13.86" transform="translate(43.06 42.02)" fill="url(#radial-gradient)"/>
  <rect id="Rectangle_3974" data-name="Rectangle 3974" width="13.86" height="13.86" transform="translate(60.86 42.02)" fill="url(#radial-gradient)"/>
  <rect id="Rectangle_3975" data-name="Rectangle 3975" width="13.86" height="13.86" transform="translate(78.65 42.02)" fill="url(#radial-gradient)"/>
  <rect id="Rectangle_3976" data-name="Rectangle 3976" width="13.86" height="13.86" transform="translate(25.27 59.72)" fill="url(#radial-gradient)"/>
  <rect id="Rectangle_3977" data-name="Rectangle 3977" width="13.86" height="13.86" transform="translate(43.06 59.72)" fill="#646682"/>
  <rect id="Rectangle_3978" data-name="Rectangle 3978" width="13.86" height="13.86" transform="translate(60.86 59.72)" fill="#646682"/>
  <rect id="Rectangle_3979" data-name="Rectangle 3979" width="13.86" height="13.86" transform="translate(78.65 59.72)" fill="#646682"/>
  <rect id="Rectangle_3980" data-name="Rectangle 3980" width="13.86" height="13.86" transform="translate(25.27 77.41)" fill="url(#radial-gradient)"/>
  <rect id="Rectangle_3981" data-name="Rectangle 3981" width="13.86" height="13.86" transform="translate(43.06 77.41)" fill="url(#radial-gradient)"/>
  <rect id="Rectangle_3982" data-name="Rectangle 3982" width="13.86" height="13.86" transform="translate(60.86 77.41)" fill="url(#radial-gradient)"/>
  <rect id="Rectangle_3983" data-name="Rectangle 3983" width="13.86" height="13.86" transform="translate(78.65 77.41)" fill="url(#radial-gradient)"/>
  <rect id="Rectangle_3984" data-name="Rectangle 3984" width="82.65" height="9.6" transform="translate(17.57 25.39)" fill="#0071bc"/>
  <circle id="Ellipse_1760" data-name="Ellipse 1760" cx="1.21" cy="1.21" r="1.21" transform="translate(25.43 28)" fill="#4d4d4d"/>
  <circle id="Ellipse_1761" data-name="Ellipse 1761" cx="1.21" cy="1.21" r="1.21" transform="translate(36.18 28)" fill="#4d4d4d"/>
  <circle id="Ellipse_1762" data-name="Ellipse 1762" cx="1.21" cy="1.21" r="1.21" transform="translate(46.93 28)" fill="#4d4d4d"/>
  <circle id="Ellipse_1763" data-name="Ellipse 1763" cx="1.21" cy="1.21" r="1.21" transform="translate(57.68 28)" fill="#4d4d4d"/>
  <circle id="Ellipse_1764" data-name="Ellipse 1764" cx="1.21" cy="1.21" r="1.21" transform="translate(68.43 28)" fill="#4d4d4d"/>
  <circle id="Ellipse_1765" data-name="Ellipse 1765" cx="1.21" cy="1.21" r="1.21" transform="translate(79.18 28)" fill="#4d4d4d"/>
  <circle id="Ellipse_1766" data-name="Ellipse 1766" cx="1.21" cy="1.21" r="1.21" transform="translate(89.93 28)" fill="#4d4d4d"/>
  <path id="Tracé_38444" data-name="Tracé 38444" d="M26.64,29.21a3.82,3.82,0,1,1,3.82-3.82" fill="none" stroke="#b3b3b3" stroke-miterlimit="10" stroke-width="1.08"/>
  <path id="Tracé_38445" data-name="Tracé 38445" d="M37.39,29.21a3.82,3.82,0,1,1,3.82-3.82" fill="none" stroke="#b3b3b3" stroke-miterlimit="10" stroke-width="1.08"/>
  <path id="Tracé_38446" data-name="Tracé 38446" d="M48.14,29.21a3.82,3.82,0,1,1,3.82-3.82" fill="none" stroke="#b3b3b3" stroke-miterlimit="10" stroke-width="1.08"/>
  <path id="Tracé_38447" data-name="Tracé 38447" d="M58.89,29.21a3.82,3.82,0,1,1,3.82-3.82" fill="none" stroke="#b3b3b3" stroke-miterlimit="10" stroke-width="1.08"/>
  <path id="Tracé_38448" data-name="Tracé 38448" d="M69.64,29.21a3.82,3.82,0,1,1,3.82-3.82" fill="none" stroke="#b3b3b3" stroke-miterlimit="10" stroke-width="1.08"/>
  <path id="Tracé_38449" data-name="Tracé 38449" d="M80.39,29.21a3.82,3.82,0,1,1,3.82-3.82" fill="none" stroke="#b3b3b3" stroke-miterlimit="10" stroke-width="1.08"/>
  <path id="Tracé_38450" data-name="Tracé 38450" d="M91.14,29.21a3.82,3.82,0,1,1,3.82-3.82" fill="none" stroke="#b3b3b3" stroke-miterlimit="10" stroke-width="1.08"/>
  <line id="Ligne_341" data-name="Ligne 341" x2="37.63" transform="translate(48.58 66.65)" fill="none" stroke="#7ac943" stroke-miterlimit="10" stroke-width="2.16"/>
  <path id="Tracé_38451" data-name="Tracé 38451" d="M52.87,70.3l-3.65-3.65,3.65-3.66h-3.1l-3.65,3.66,3.65,3.65Z" fill="#7ac943"/>
  <path id="Tracé_38452" data-name="Tracé 38452" d="M81.92,70.3l3.66-3.65-3.66-3.66h3.1l3.66,3.66L85.02,70.3Z" fill="#7ac943"/>
  <circle id="Ellipse_1767" data-name="Ellipse 1767" cx="10.75" cy="10.75" r="10.75" transform="translate(89.46 44.09)" fill="#7ac943"/>
  <path id="Tracé_38453" data-name="Tracé 38453" d="M95.05,55.2l4.54,4.52,6.73-10.61" fill="none" stroke="#fff" stroke-miterlimit="10" stroke-width="2.16"/>
</svg>
