<svg id="uuid-6d5a3913-a9e2-4144-9972-d479411d3746" xmlns="http://www.w3.org/2000/svg" xmlns:xlink="http://www.w3.org/1999/xlink" width="335" height="435.6" viewBox="0 0 335 435.6">
  <defs>
    <clipPath id="clip-path">
      <rect id="Rectangle_4112" data-name="Rectangle 4112" width="335" height="414.1" rx="5" transform="translate(0 21.5)" fill="none"/>
    </clipPath>
    <radialGradient id="radial-gradient" cx="0.493" cy="0.501" r="0.363" gradientTransform="translate(-1.595) scale(4.191 1)" gradientUnits="objectBoundingBox">
      <stop offset="0" stop-color="#fff"/>
      <stop offset="1" stop-color="#f2f2f2"/>
    </radialGradient>
    <radialGradient id="radial-gradient-2" cx="0.503" cy="0.503" r="0.497" gradientUnits="objectBoundingBox">
      <stop offset="0" stop-color="#e6e6e6"/>
      <stop offset="1" stop-color="#e6e6e6"/>
    </radialGradient>
    <radialGradient id="radial-gradient-3" cx="0.497" cy="0.503" r="0.497" gradientTransform="translate(0)" xlink:href="#radial-gradient-2"/>
    <radialGradient id="radial-gradient-5" cx="0.503" cy="0.503" r="0.497" gradientTransform="translate(0)" xlink:href="#radial-gradient-2"/>
    <radialGradient id="radial-gradient-6" cx="0.503" cy="0.497" r="0.497" xlink:href="#radial-gradient-2"/>
    <radialGradient id="radial-gradient-7" cx="0.497" cy="0.497" r="0.497" gradientTransform="translate(0)" xlink:href="#radial-gradient-2"/>
    <radialGradient id="radial-gradient-9" cx="0.503" cy="0.497" r="0.497" gradientTransform="translate(0)" xlink:href="#radial-gradient-2"/>
  </defs>
  <rect id="Rectangle_4097" data-name="Rectangle 4097" width="335" height="414.1" rx="5" transform="translate(0 21.5)" fill="#ebf0f7"/>
  <g id="Groupe_5968" data-name="Groupe 5968" clip-path="url(#clip-path)">
    <path id="Tracé_38966" data-name="Tracé 38966" d="M292,379.1a51.256,51.256,0,0,1-12.3-11.4c-3.6-4.4-8.6-7.4-13.9-9.5a12,12,0,0,1-2.8-1.3c-1.7-1.2-2-3.8-2.5-5.7s-.8-3.9-1.3-5.8c-1-3.8-2-9.9-2-20.1,0-24.1-5-45-7.6-50.6s-4.3-9.9-7.4-32.7,2.9-19.1,0-46.6c-2.9-27.6-24-32.4-33.5-34.6s-28.9-10.2-32.6-13.1c-1.8-1.4-2.1-8.6-2-15.5,2.9-4.4,4.4-10.3,5.4-15.4.5.6,1.4,1.7,2.3,1.7,1.2,0,2.9-3.6,3.4-5.6s1.3-8.8.5-11.3-2.7-.5-3.4.5a3.057,3.057,0,0,1-1.2,1c.2-3.4.3-6.7.8-10.1a39.135,39.135,0,0,0-1.7-19.2c-4.7-13.4-23.1-14.3-25.6-14.4h0c-2.5,0-20.9,1-25.6,14.4A39.239,39.239,0,0,0,127.3,93a84.219,84.219,0,0,1,.8,10.1,3.057,3.057,0,0,1-1.2-1c-.6-1-2.5-3-3.4-.5-.8,2.5,0,9.3.5,11.3s2.3,5.7,3.4,5.6c.9,0,1.8-1.1,2.3-1.7,1.1,5.1,2.6,11,5.4,15.4.2,6.9-.1,14.1-2,15.5-3.7,2.9-23.2,10.9-32.6,13.1C91,163,69.8,167.9,67,195.4c-2.9,27.6,3.1,23.8,0,46.6s-4.7,27.1-7.4,32.7C57,280.3,52,301.2,52,325.3s-.9,16.3-2,20.1c-.5,1.9-.9,3.8-1.3,5.8-.5,1.9-.8,4.5-2.5,5.7a12,12,0,0,1-2.8,1.3,32.682,32.682,0,0,0-13.9,9.5,51.255,51.255,0,0,1-12.3,11.4c-2.8,2-1.9,7,4.6,5.5s10.7-9.7,12.3-9.2S32.3,388,31,392.1s-2.6,9-3.5,11.5-1.8,7.1.1,9.7,4.6-.7,6.5-7.3,5.7-18.3,5.7-18.3-2.1,9.9-3.7,15.9-5.6,13.7-2.2,16.6c1.8,1.5,4-.4,5.2-3.3s2.7-7.8,2.8-8.3c1.1-4.9,4.5-18.4,4.5-18.4s-2.2,11.3-3.4,16.7c-.7,3-2.4,6.9-2.4,9.3a2.58,2.58,0,0,0,3.5,2.6c1.8-.5,3.4-4.5,4.4-8.8,1.1-4.3,2.7-12.2,3.6-16,.4-1.4,1-2.8.9-1.7,0,2.3-1.9,8.6-2.4,11.7-.7,4-.6,6.8,1.3,7,1.2.1,2.2-.2,3.2-1.9,1.2-2,2.3-7.3,3.1-11,1.3-6,3.2-11.6,4-17s1.9-16.5,2.7-20.1,2.5-8.4,2.5-8.4h-.1c3.3-10.2,11.2-34.7,16.4-49.6,6.6-19.2,4.3-25.8,5.3-34.1.6-5.4,6.3-18.8,10.4-33.2,6.2,12.9,12.5,32,8.7,50.7-6.7,33-4.6,23.4-6.7,33-2.3,10.6-4.6,21-5.7,31.8-2.3,24.2-4.2,48.7-.3,72.6,1.4,8.7,6.5,59.3,6.2,61-1.2,6.6-5.1,20.4-6.6,28.1-1.5,7.8-.7,19.5-.1,40.7.6,21.3,3.3,37.7,4.2,49.4.8,10-.7,35.7-1.1,42.7a11.489,11.489,0,0,1-.7,3.6,67.652,67.652,0,0,1-3.9,9.4c-2.9,5.6-9.6,16.1-11.9,18.4-2.2,2.2-5.9,7.6-2.5,9.2a1.772,1.772,0,0,0,1.8,0c-.4,1.8.3,3.6,1.4,4.1a4.62,4.62,0,0,0,2,.3,3.644,3.644,0,0,0,5,3s.9,3,3.5,3.1a6.878,6.878,0,0,0,2.5-.3c.7-.3,1.5-1.1,2.4-3.2,0,0-.7,2.7,2.6,4s7.2-.2,9.2-4.5,1.8-5,3.5-8.7.9-13.3,2.1-17.3c1.2-3.9,4.8-5.3,5.2-8.5a41.788,41.788,0,0,0-.2-9.2l.2-14.7.4-6.5a255.251,255.251,0,0,1,3.8-30.1c3.2-16.7,7.6-44.3,9-61.1,1.8-22.5,3.9-41.3,5.1-44.9a2.544,2.544,0,0,1,.2-.7,217.269,217.269,0,0,0,9.3-42.3c.5-4.5,1-9.5,1.4-14.9,1.6-23.6.9-36.5,5.1-37.1,4.2.6,3.5,13.5,5.1,37.1.4,5.4.8,10.4,1.4,14.9a211.707,211.707,0,0,0,9.3,42.3c0,.3.2.5.2.7,1.2,3.6,3.3,22.5,5.1,44.9,1.3,16.8,5.8,44.4,9,61.1a252.628,252.628,0,0,1,3.8,30.1l.4,6.5s.2,14.6.2,14.7a41.788,41.788,0,0,0-.2,9.2c.3,3.2,3.9,4.6,5.2,8.5,1.2,3.9.4,13.6,2.1,17.3s1.5,4.5,3.5,8.7c2,4.3,5.9,5.8,9.2,4.5s2.6-4,2.6-4c.9,2.1,1.7,2.9,2.4,3.2a5.241,5.241,0,0,0,2.5.3c2.6-.1,3.5-3.1,3.5-3.1a3.738,3.738,0,0,0,5-3,4.621,4.621,0,0,0,2-.3c1.1-.5,1.8-2.4,1.4-4.1a1.772,1.772,0,0,0,1.8,0c3.4-1.5-.2-6.9-2.5-9.2-2.2-2.2-9-12.8-11.9-18.4a75.744,75.744,0,0,1-3.9-9.4,15.278,15.278,0,0,1-.7-3.6c-.4-7.1-1.9-32.7-1.1-42.7.9-11.7,3.6-28.1,4.2-49.4s1.4-32.9-.1-40.7-5.4-21.6-6.6-28.1c-.3-1.8,4.8-52.3,6.2-61,3.8-23.9,2-48.4-.3-72.6-1-10.8-3.4-21.2-5.7-31.8-2.1-9.6,0,0-6.7-33-3.8-18.8,2.5-37.8,8.7-50.7,4.1,14.4,9.7,27.8,10.4,33.2,1,8.3-1.3,14.9,5.3,34.1,5.1,14.9,13.1,39.4,16.4,49.6h-.1a79.507,79.507,0,0,1,2.5,8.4c.8,3.6,2,14.7,2.7,20.1.8,5.4,2.6,11,4,17,.8,3.7,2,9,3.1,11,1,1.7,2,2,3.2,1.9,1.9-.2,2-3,1.3-7-.6-3.1-2.4-9.4-2.4-11.7,0-1.1.6.3.9,1.7,1,3.7,2.6,11.6,3.6,16,1,4.2,2.6,8.2,4.4,8.8a2.58,2.58,0,0,0,3.5-2.6c0-2.4-1.7-6.3-2.4-9.3-1.3-5.4-3.4-16.7-3.4-16.7s3.4,13.5,4.5,18.4c.1.5,1.6,5.4,2.8,8.3s3.4,4.8,5.2,3.3c3.4-2.9-.6-10.6-2.2-16.6s-3.7-15.9-3.7-15.9,3.8,11.8,5.7,18.3c1.9,6.6,4.6,9.9,6.5,7.3s1-7.2.1-9.7-2.1-7.4-3.5-11.5c-1.3-4.1-4.7-16.2-3.1-16.7s5.9,7.7,12.3,9.2c6.5,1.5,7.4-3.6,4.6-5.5Z" fill="#f4d7c9"/>
    <path id="Tracé_38967" data-name="Tracé 38967" d="M141.9,240.3c3.4-1.7,4.8-5.6,5-9.2s-.6-7.2-.2-10.8c.5-4.4,2.6-8.6,2.8-13,.2-5.8-3.1-11.2-3.3-16.9-.1-3.4.7-7.1-1.2-10.1-2.1-3.2-7.2-4-10.8-2.3-2.6,1.2-4.5,3.3-6.3,5.4a79.847,79.847,0,0,0-18.2,54.7c0,1.8.4,3.8,2.1,4.7a6.175,6.175,0,0,0,3.3.4c5.1-.5,9.9-2.4,15-2.4,4,0,8.4,1.2,11.9-.6Z" fill="#fa93a7"/>
    <path id="Tracé_38968" data-name="Tracé 38968" d="M148.8,211.6a8.894,8.894,0,0,0,.5-2.3,27.325,27.325,0,0,0-4.4,7.3c-.8,2.2-1.3,4.4-2.3,6.6a18.989,18.989,0,0,1-7.2,8.2,41.739,41.739,0,0,1-6.8,3.1c-2.7,1-5.3,2-8,3.1a33.379,33.379,0,0,1-6.8,2.1,16.058,16.058,0,0,0-3.8.8,3.643,3.643,0,0,0,1.7,2.3,6.175,6.175,0,0,0,3.3.4c5.1-.5,9.9-2.4,15-2.4,4,0,8.4,1.2,11.9-.6,3.4-1.7,4.8-5.6,5-9.2s-.6-7.2-.2-10.8c.3-2.9,1.4-5.8,2.1-8.6Z" fill="#fa93a7"/>
    <path id="Tracé_38969" data-name="Tracé 38969" d="M176.6,204.5a10.1,10.1,0,0,0-1.8-4.1,5.731,5.731,0,0,0-1.1-1.1,7.473,7.473,0,0,1-2.2-4.2,1.884,1.884,0,0,0-.2-.8,2.384,2.384,0,0,0-.6-1.1,2.732,2.732,0,0,0-1.9-.8,6.22,6.22,0,0,1-2.6-.9,3.045,3.045,0,0,0-.9-1.3,2.01,2.01,0,0,0-1.3-.4,8.793,8.793,0,0,0-6,1,35.289,35.289,0,0,0-3.2,2.1c-1.1.9-1.4,2-2,3.2a26.751,26.751,0,0,1-1.8,2.8c-1.1,1.7.6,5.4,1,7.3a3.59,3.59,0,0,0,1.7,2.7l1.2.6c1.3.9,1.3,2.9,2.2,4.3a4.8,4.8,0,0,0,3.3,2c1.3.3,2.6.3,3.9.5,1.8.3,3.6,1.1,5.5,1.4,1.8.3,3.9.2,5.3-1.1a4.968,4.968,0,0,0,1.3-1.9c1.5-3.2,1.2-6.9.4-10.3Z" fill="#f8738d"/>
    <path id="Tracé_38970" data-name="Tracé 38970" d="M165.9,190.6a3.4,3.4,0,0,0-.6-.6,2.01,2.01,0,0,0-1.3-.4,8.793,8.793,0,0,0-6,1,8.392,8.392,0,0,0-2.3,2.3c2.4,1,5.2,3,7.8.9a7.194,7.194,0,0,1,2.1-1.2,5.086,5.086,0,0,1,.4-2Z" fill="#f8738d"/>
    <path id="Tracé_38971" data-name="Tracé 38971" d="M165.8,192.8a3.376,3.376,0,0,1-2.3,3.5c-1.4.3-3.9-.7-4.2-2.1s1.5-3,2.9-3.3,3.3.5,3.6,1.9Z" fill="#f8738d"/>
    <path id="Tracé_38972" data-name="Tracé 38972" d="M166,188.5s-5.4-6.5-8.7-4.3-5.1,5-2.4,12.4l1.9,1a32.919,32.919,0,0,1,3-2.6s-3.5-4.5.9-5.4a4.459,4.459,0,0,1,2.9.4l2.4-1.6Z" fill="#f8738d"/>
    <path id="Tracé_38973" data-name="Tracé 38973" d="M167.7,240.3c-3.4-1.7-4.8-5.6-5-9.2s.6-7.2.2-10.8c-.5-4.4-2.6-8.6-2.8-13-.2-5.8,3.1-11.2,3.3-16.9.1-3.4-.7-7.1,1.2-10.1,2.1-3.2,7.2-4,10.8-2.3,2.6,1.2,4.5,3.3,6.3,5.4a79.847,79.847,0,0,1,18.2,54.7c0,1.8-.4,3.8-2.1,4.7a6.175,6.175,0,0,1-3.3.4c-5.1-.5-9.9-2.4-15-2.4-4,0-8.4,1.2-11.9-.6Z" fill="#fa93a7"/>
    <path id="Tracé_38974" data-name="Tracé 38974" d="M160.9,211.6a8.894,8.894,0,0,1-.5-2.3,27.325,27.325,0,0,1,4.4,7.3c.8,2.2,1.3,4.4,2.3,6.6a18.989,18.989,0,0,0,7.2,8.2,41.739,41.739,0,0,0,6.8,3.1c2.6,1,5.3,2,8,3.1a33.379,33.379,0,0,0,6.8,2.1,16.058,16.058,0,0,1,3.8.8,3.643,3.643,0,0,1-1.7,2.3,6.175,6.175,0,0,1-3.3.4c-5.1-.5-9.9-2.4-15-2.4-4,0-8.4,1.2-11.9-.6-3.4-1.7-4.8-5.6-5-9.2s.6-7.2.2-10.8c-.3-2.9-1.4-5.8-2.1-8.6Z" fill="#fa93a7"/>
    <path id="Tracé_38975" data-name="Tracé 38975" d="M24.9,377c8.5-3.4,16.7-9,22.1-16.5a68.484,68.484,0,0,0,11.4-26.6c6-29.9,15.9-59.9,17.9-69.1a88.77,88.77,0,0,0,1.4-27.7c-.9-9.4-1.8-18.8-.5-28.2,1.4-9.3,5.4-18.4,12.4-24.7,10.1-9.1,23-11.1,37-17.5,10.3-4.7,16.1-12.2,20.4-22.6s6.8-34.8,6.2-44.6c1.1,15.1,3.5,37.3-6.5,52-14,20.6-35.7,21.3-49.4,32.7-11,9.1-13,26.3-14.5,40.5s3.3,41.7-2.1,66c-2.3,10.5-10.7,22.4-13.6,36.8-4.9,24.8-9.1,56.2-9.4,59.7" fill="none" stroke="#f52850" stroke-miterlimit="10" stroke-width="1" stroke-dasharray="0 0 3 3"/>
    <path id="Tracé_38976" data-name="Tracé 38976" d="M89.4,251.8c.2-3.6.4-7.2.7-10.8.3-3.5-.9-25,.4-32.2a42.188,42.188,0,0,1,13-24.2c6.2-5.8,31.5-10.6,44.3-28.5,10.3-14.5,7.9-51.2,7.4-56" fill="none" stroke="#f52850" stroke-miterlimit="10" stroke-width="1" stroke-dasharray="0 0 3 3"/>
    <path id="Tracé_38977" data-name="Tracé 38977" d="M89.3,181.8c-.7-1.2-2.4-.8-3.7-1.1-1.4-.3-2.6-1.5-3.8-2.4-1.3-.9-3.1-1.3-4,0a3.819,3.819,0,0,0-.6,1.6c-1.4,5.7-1.6,11.6-1.7,17.5,0,3.5-.2,6.9-.2,10.4,0,3.6.1,7.3.2,10.9,0,8.2-.2,16.3-2.6,23.9-1.8,5.5-4.8,11-4.1,16.8.2,1.8.9,3.7,2.4,4.3,1.1.5,2.5.2,3.7.5,1.1.3,2.1,1.1,3.2,1.5,3.4,1.1,6.7-2.4,7.4-6.2s-.4-7.7-1.3-11.5a93.089,93.089,0,0,1-1.9-29.3,108.586,108.586,0,0,1,4.4-22c1.3-4.3,2.9-8.6,3.1-13.1a3.611,3.611,0,0,0-.3-1.8Z" fill="url(#radial-gradient)"/>
    <path id="Tracé_38978" data-name="Tracé 38978" d="M75.5,221.2l1.9-2.3,1.4,4,1.8-2.1,1.3,1.3" fill="none" stroke="#e6e6e6" stroke-miterlimit="10" stroke-width="0.5"/>
    <path id="Tracé_38979" data-name="Tracé 38979" d="M160.3,99.7a75.764,75.764,0,0,0,3.2,33.4c3,9.4,6.9,18.3,14.6,25,6.2,5.4,13.9,8.8,20.8,13.1a80.77,80.77,0,0,1,21.5,19.7c9.9,13,17,28.8,18,45.2.8,12.9-1.6,26,.9,38.7a51.756,51.756,0,0,0,10.8,22.8" fill="none" stroke="#f52850" stroke-miterlimit="10" stroke-width="1" stroke-dasharray="0 0 3 3"/>
    <path id="Tracé_38980" data-name="Tracé 38980" d="M157.6,97.6a7.72,7.72,0,0,1-.2,1.5" fill="none" stroke="#f52850" stroke-miterlimit="10" stroke-width="1"/>
    <path id="Tracé_38981" data-name="Tracé 38981" d="M157.1,102.1c-1.2,17.8,2.7,36.5,12.1,51.7a64.036,64.036,0,0,0,20.3,20.8c4.2,2.7,8.9,5.1,12.6,8.4a42.457,42.457,0,0,1,9.8,12.9c.8,1.7,1.6,3.4,2.2,5.1,3.8,10,4.7,20.8,5.6,31.5s1.8,21.5,5.4,31.5c3.8,10.5,10.5,19.8,14.5,30.3,8.8,23.2,3.8,49.9,13.2,72.9,4.1,10.1,5.1,20.7,7.5,31.3" fill="none" stroke="#f52850" stroke-miterlimit="10" stroke-width="1" stroke-dasharray="0 0 3 3"/>
    <path id="Tracé_38982" data-name="Tracé 38982" d="M260.8,399.9a8.333,8.333,0,0,0,.4,1.5" fill="none" stroke="#f52850" stroke-miterlimit="10" stroke-width="1"/>
    <path id="Tracé_38983" data-name="Tracé 38983" d="M156,101.4c1.4,51.7,2.7,115.5,4.1,167.2.5,17.4,2.4,95.8,2.4,113.2" fill="none" stroke="#f52850" stroke-miterlimit="10" stroke-width="1" stroke-dasharray="0 0 3 3"/>
    <path id="Tracé_38984" data-name="Tracé 38984" d="M156.5,100.4v1.5" fill="none" stroke="#f52850" stroke-miterlimit="10" stroke-width="1"/>
    <path id="Tracé_38985" data-name="Tracé 38985" d="M156.4,104.9c-1.3,50.9-2.7,112.5-4,162.7-.4,16.5-2.7,87.4-2.9,109.3" fill="none" stroke="#f52850" stroke-miterlimit="10" stroke-width="1" stroke-dasharray="0 0 3 3"/>
    <path id="Tracé_38986" data-name="Tracé 38986" d="M149.5,378.4v1.5" fill="none" stroke="#f52850" stroke-miterlimit="10" stroke-width="1"/>
    <path id="Tracé_38987" data-name="Tracé 38987" d="M154.8,70a5.24,5.24,0,0,0-4.6-5.4c-5.4-.3-6.7,3.1-7,5.1-1.1-1.1-5.4-.7-6.2,3.4a14.24,14.24,0,0,0,.2,4.6,4.56,4.56,0,0,0-2.8,7.8,4.631,4.631,0,0,0-2.2,3.8,4.5,4.5,0,0,0,2.2,3.8c-2.7,1.4-1.8,5.1,0,6a6.053,6.053,0,0,0,4,.6c.3,1.1,2.4,2.3,3.6,2.5,3.3.5,4.1-1,6,.1,2,1.3,5.4,1,6.7-.7" fill="#fa93a7"/>
    <path id="Tracé_38988" data-name="Tracé 38988" d="M154.8,70a5.24,5.24,0,0,1,4.6-5.4c5.4-.3,6.7,3.1,7,5.1,1.1-1.1,5.4-.7,6.2,3.4a14.24,14.24,0,0,1-.2,4.6,4.56,4.56,0,0,1,2.8,7.8,4.631,4.631,0,0,1,2.2,3.8,4.5,4.5,0,0,1-2.2,3.8c2.7,1.4,1.8,5.1,0,6a6.053,6.053,0,0,1-4,.6c-.3,1.1-2.4,2.3-3.6,2.5-3.3.5-4.1-1-6,.1-2,1.3-5.4,1-6.7-.7" fill="#fa93a7"/>
    <path id="Tracé_38989" data-name="Tracé 38989" d="M157.6,162.9a83.745,83.745,0,0,0,20.2,40.8" fill="none" stroke="#f52850" stroke-miterlimit="10" stroke-width="1" stroke-dasharray="0 0 3 3"/>
    <path id="Tracé_38990" data-name="Tracé 38990" d="M158.2,188a82,82,0,0,0,22.1,34.5" fill="none" stroke="#f52850" stroke-miterlimit="10" stroke-width="1" stroke-dasharray="0 0 3 3"/>
    <path id="Tracé_38991" data-name="Tracé 38991" d="M158.9,219.3a62.362,62.362,0,0,0,20.7,21.4" fill="none" stroke="#f52850" stroke-miterlimit="10" stroke-width="1" stroke-dasharray="0 0 3 3"/>
    <path id="Tracé_38992" data-name="Tracé 38992" d="M155,161.9c-1.2,16.4-10.8,33.3-25.1,41.3" fill="none" stroke="#f52850" stroke-miterlimit="10" stroke-width="1" stroke-dasharray="0 0 3 3"/>
    <path id="Tracé_38993" data-name="Tracé 38993" d="M154.4,186.1a62.429,62.429,0,0,1-33,41.6" fill="none" stroke="#f52850" stroke-miterlimit="10" stroke-width="1" stroke-dasharray="0 0 3 3"/>
    <path id="Tracé_38994" data-name="Tracé 38994" d="M153.8,211.4a36.22,36.22,0,0,1-21.6,26.5" fill="none" stroke="#f52850" stroke-miterlimit="10" stroke-width="1" stroke-dasharray="0 0 3 3"/>
    <path id="Tracé_38995" data-name="Tracé 38995" d="M153.1,241.6c-1.3,14.7-12.9,37.4-35,41.4" fill="none" stroke="#f52850" stroke-miterlimit="10" stroke-width="1" stroke-dasharray="0 0 3 3"/>
    <path id="Tracé_38996" data-name="Tracé 38996" d="M152.3,270.2c-2.1,14.7-15.8,38.3-38.1,41" fill="none" stroke="#f52850" stroke-miterlimit="10" stroke-width="1" stroke-dasharray="0 0 3 3"/>
    <path id="Tracé_38997" data-name="Tracé 38997" d="M159.4,240.6c1.3,14.9,14.3,36.5,32.6,39.9" fill="none" stroke="#f52850" stroke-miterlimit="10" stroke-width="1" stroke-dasharray="0 0 3 3"/>
    <path id="Tracé_38998" data-name="Tracé 38998" d="M160.1,268.6c1.3,14.9,14.9,38.1,33.3,41.5" fill="none" stroke="#f52850" stroke-miterlimit="10" stroke-width="1" stroke-dasharray="0 0 3 3"/>
    <path id="Tracé_38999" data-name="Tracé 38999" d="M150.7,324.6c-21.8,4.7-38.9,24.9-45.9,46.1-6.9,21.2-5.8,44.1-3.1,66.2,3.1,25.4,7.1,50.4,3.5,75.8" fill="none" stroke="#f52850" stroke-miterlimit="10" stroke-width="1" stroke-dasharray="0 0 3 3"/>
    <path id="Tracé_39000" data-name="Tracé 39000" d="M150.1,336.8a81.929,81.929,0,0,0-31.8,31.1c-8.4,14.4-9.4,29.2-5.7,45.3,2.9,12.6,10.7,32.9,7.7,58.9-.8,6.8-4.6,33.2-5.6,39.6" fill="none" stroke="#f52850" stroke-miterlimit="10" stroke-width="1" stroke-dasharray="0 0 3 3"/>
    <path id="Tracé_39001" data-name="Tracé 39001" d="M150,350.5c-8.8,3.4-16,12.2-19.2,21-7.8,21.2-.1,43,1.2,64.6a291.666,291.666,0,0,1-3.6,67.3c-.3,2-.7,4-1.1,6" fill="none" stroke="#f52850" stroke-miterlimit="10" stroke-width="1" stroke-dasharray="0 0 3 3"/>
    <path id="Tracé_39002" data-name="Tracé 39002" d="M161.5,325.6c21.8,4.7,38.2,23.9,45.2,45.1,4.7,14.3.5,30.2-2.8,44.5-3.5,15.1-7.7,30.3-7,46" fill="none" stroke="#f52850" stroke-miterlimit="10" stroke-width="1" stroke-dasharray="0 0 3 3"/>
    <path id="Tracé_39003" data-name="Tracé 39003" d="M161.5,336.8c13.1,7,23.2,17.6,31.2,30,4.2,6.6,3,16.2,2.2,23.7-.9,8.8-2.8,17.4-4.6,26-3.3,15.6-6.3,31.9-2.6,47.4,2,8.6,6,16.5,9.2,24.7s5.7,17,4.5,25.7" fill="none" stroke="#f52850" stroke-miterlimit="10" stroke-width="1" stroke-dasharray="0 0 3 3"/>
    <path id="Tracé_39004" data-name="Tracé 39004" d="M162.5,351.2c8.8,3.4,15,11.5,18.3,20.4,8.3,22.6-3.4,45.7-6,68.1-2.5,22.3,3.8,44.5,10.1,66" fill="none" stroke="#f52850" stroke-miterlimit="10" stroke-width="1" stroke-dasharray="0 0 3 3"/>
    <rect id="Rectangle_4098" data-name="Rectangle 4098" width="87.5" height="67" transform="translate(218.5 61)" fill="#fff"/>
    <rect id="Rectangle_4099" data-name="Rectangle 4099" width="14.7" height="14.7" transform="translate(226.6 68.4)" fill="url(#radial-gradient-2)"/>
    <rect id="Rectangle_4100" data-name="Rectangle 4100" width="14.7" height="14.7" transform="translate(245.5 68.4)" fill="url(#radial-gradient-3)"/>
    <rect id="Rectangle_4101" data-name="Rectangle 4101" width="14.7" height="14.7" transform="translate(264.3 68.4)" fill="url(#radial-gradient-3)"/>
    <rect id="Rectangle_4102" data-name="Rectangle 4102" width="14.7" height="14.7" transform="translate(283.1 68.4)" fill="url(#radial-gradient-5)"/>
    <rect id="Rectangle_4103" data-name="Rectangle 4103" width="14.7" height="14.7" transform="translate(226.6 87.2)" fill="url(#radial-gradient-6)"/>
    <rect id="Rectangle_4104" data-name="Rectangle 4104" width="14.7" height="14.7" transform="translate(245.5 87.2)" fill="url(#radial-gradient-7)"/>
    <rect id="Rectangle_4105" data-name="Rectangle 4105" width="14.7" height="14.7" transform="translate(264.3 87.2)" fill="url(#radial-gradient-7)"/>
    <rect id="Rectangle_4106" data-name="Rectangle 4106" width="14.7" height="14.7" transform="translate(283.1 87.2)" fill="url(#radial-gradient-9)"/>
    <rect id="Rectangle_4107" data-name="Rectangle 4107" width="14.7" height="14.7" transform="translate(226.6 105.9)" fill="url(#radial-gradient-2)"/>
    <rect id="Rectangle_4108" data-name="Rectangle 4108" width="14.7" height="14.7" transform="translate(245.5 105.9)" fill="url(#radial-gradient-3)"/>
    <rect id="Rectangle_4109" data-name="Rectangle 4109" width="14.7" height="14.7" transform="translate(264.3 105.9)" fill="url(#radial-gradient-3)"/>
    <rect id="Rectangle_4110" data-name="Rectangle 4110" width="14.7" height="14.7" transform="translate(283.1 105.9)" fill="url(#radial-gradient-5)"/>
    <path id="Tracé_39021" data-name="Tracé 39021" d="M0,0H87.5V10.2H0Z" transform="translate(218.5 50.8)" fill="#0071bc"/>
    <circle id="Ellipse_1840" data-name="Ellipse 1840" cx="1.3" cy="1.3" r="1.3" transform="translate(226.8 53.6)" fill="#4d4d4d"/>
    <circle id="Ellipse_1841" data-name="Ellipse 1841" cx="1.3" cy="1.3" r="1.3" transform="translate(238.2 53.6)" fill="#4d4d4d"/>
    <circle id="Ellipse_1842" data-name="Ellipse 1842" cx="1.3" cy="1.3" r="1.3" transform="translate(249.5 53.6)" fill="#4d4d4d"/>
    <circle id="Ellipse_1843" data-name="Ellipse 1843" cx="1.3" cy="1.3" r="1.3" transform="translate(260.9 53.6)" fill="#4d4d4d"/>
    <circle id="Ellipse_1844" data-name="Ellipse 1844" cx="1.3" cy="1.3" r="1.3" transform="translate(272.3 53.6)" fill="#4d4d4d"/>
    <circle id="Ellipse_1845" data-name="Ellipse 1845" cx="1.3" cy="1.3" r="1.3" transform="translate(283.7 53.6)" fill="#4d4d4d"/>
    <circle id="Ellipse_1846" data-name="Ellipse 1846" cx="1.3" cy="1.3" r="1.3" transform="translate(295.1 53.6)" fill="#4d4d4d"/>
    <path id="Tracé_39005" data-name="Tracé 39005" d="M228.1,54.9a4,4,0,1,1,4-4" fill="none" stroke="#b3b3b3" stroke-miterlimit="10" stroke-width="2.3"/>
    <path id="Tracé_39006" data-name="Tracé 39006" d="M239.5,54.9a4,4,0,1,1,4-4" fill="none" stroke="#b3b3b3" stroke-miterlimit="10" stroke-width="2.3"/>
    <path id="Tracé_39007" data-name="Tracé 39007" d="M250.8,54.9a4,4,0,1,1,4-4" fill="none" stroke="#b3b3b3" stroke-miterlimit="10" stroke-width="2.3"/>
    <path id="Tracé_39008" data-name="Tracé 39008" d="M262.2,54.9a4,4,0,1,1,4-4" fill="none" stroke="#b3b3b3" stroke-miterlimit="10" stroke-width="2.3"/>
    <path id="Tracé_39009" data-name="Tracé 39009" d="M273.6,54.9a4,4,0,1,1,4-4" fill="none" stroke="#b3b3b3" stroke-miterlimit="10" stroke-width="2.3"/>
    <path id="Tracé_39010" data-name="Tracé 39010" d="M285,54.9a4,4,0,1,1,4-4" fill="none" stroke="#b3b3b3" stroke-miterlimit="10" stroke-width="2.3"/>
    <path id="Tracé_39011" data-name="Tracé 39011" d="M296.4,54.9a4,4,0,1,1,4-4" fill="none" stroke="#b3b3b3" stroke-miterlimit="10" stroke-width="2.3"/>
    <line id="Ligne_384" data-name="Ligne 384" x2="47.8" transform="translate(249.8 75.8)" fill="none" stroke="#f52850" stroke-miterlimit="10" stroke-width="3"/>
    <line id="Ligne_385" data-name="Ligne 385" x1="26.3" transform="translate(226.9 113.3)" fill="none" stroke="#f52850" stroke-miterlimit="10" stroke-width="3"/>
    <path id="Tracé_39012" data-name="Tracé 39012" d="M247.2,108.1l5.1,5.2-5.1,5.1h4.3l5.2-5.1-5.2-5.2Z" fill="#f52850"/>
    <line id="Ligne_386" data-name="Ligne 386" x1="71" transform="translate(226.6 94.5)" fill="none" stroke="#f52850" stroke-miterlimit="10" stroke-width="3"/>
    <path id="Tracé_39013" data-name="Tracé 39013" d="M32.7,399.3c1.1-7.7,5.8-14.3,10-20.8s7.8-15.1,7.4-22.8" fill="none" stroke="#f52850" stroke-miterlimit="10" stroke-width="1" stroke-dasharray="0 0 3 3"/>
    <path id="Tracé_39014" data-name="Tracé 39014" d="M39.1,409.6c1.4-10.7,3.1-26.4,6.7-36.6" fill="none" stroke="#f52850" stroke-miterlimit="10" stroke-width="1" stroke-dasharray="0 0 3 3"/>
    <path id="Tracé_39015" data-name="Tracé 39015" d="M45.7,407.8c2.2-12.2,4.5-24.5,6.7-36.7,1.7-9.5,5.4-21.5,11.7-28.9" fill="none" stroke="#f52850" stroke-miterlimit="10" stroke-width="1" stroke-dasharray="0 0 3 3"/>
    <path id="Tracé_39016" data-name="Tracé 39016" d="M243.5,307.6c9.1,9.4,9.2,32.1,13.7,46.6,3.7,12.1,12.9,22.5,19.7,42.6" fill="none" stroke="#f52850" stroke-miterlimit="10" stroke-width="1" stroke-dasharray="0 0 3 3"/>
    <path id="Tracé_39017" data-name="Tracé 39017" d="M259.4,359.9c9.5,3,15.4,7.4,21.5,13.5" fill="none" stroke="#f52850" stroke-miterlimit="10" stroke-width="1" stroke-dasharray="0 0 3 3"/>
    <path id="Tracé_39018" data-name="Tracé 39018" d="M265.9,372.5c1.6,12.9-1.7,16.4,5.1,37.5" fill="none" stroke="#f52850" stroke-miterlimit="10" stroke-width="1" stroke-dasharray="0 0 3 3"/>
    <path id="Tracé_39019" data-name="Tracé 39019" d="M251.1,362.2a135.849,135.849,0,0,0,1.5,31.2" fill="none" stroke="#f52850" stroke-miterlimit="10" stroke-width="1" stroke-dasharray="0 0 3 3"/>
  </g>
  <circle id="Ellipse_1847" data-name="Ellipse 1847" cx="21.5" cy="21.5" r="21.5" transform="translate(26)" fill="#f52850"/>
  <line id="Ligne_387" data-name="Ligne 387" x1="6.7" y2="2.4" transform="translate(36 15.1)" fill="none" stroke="#fff" stroke-linecap="round" stroke-linejoin="round" stroke-width="2.4"/>
  <line id="Ligne_388" data-name="Ligne 388" x2="6.7" y2="2.4" transform="translate(52.3 15.1)" fill="none" stroke="#fff" stroke-linecap="round" stroke-linejoin="round" stroke-width="2.4"/>
  <path id="Tracé_39020" data-name="Tracé 39020" d="M38.4,30.8a11.026,11.026,0,0,1,18.2,0" fill="none" stroke="#fff" stroke-linecap="round" stroke-miterlimit="10" stroke-width="2.4"/>
</svg>
