<svg id="Calque_1-2" xmlns="http://www.w3.org/2000/svg" xmlns:xlink="http://www.w3.org/1999/xlink" width="117.146" height="130.493" viewBox="0 0 117.146 130.493">
  <defs>
    <clipPath id="clip-path">
      <rect id="Rectangle_4010" data-name="Rectangle 4010" width="117.146" height="117.146" rx="5" fill="none"/>
    </clipPath>
  </defs>
  <rect id="Rectangle_4009" data-name="Rectangle 4009" width="117.146" height="117.146" rx="5" transform="translate(0 13.346)" fill="#ebf0f7"/>
  <g id="Groupe_5847" data-name="Groupe 5847" transform="translate(0 13.346)" clip-path="url(#clip-path)">
    <path id="Tracé_38619" data-name="Tracé 38619" d="M229.225,414.373c-3.448-2.408-7.628-4.986-14.98-13.909-4.392-5.336-10.492-9.071-16.911-11.543a15.229,15.229,0,0,1-3.416-1.6c-2.111-1.507-2.461-4.615-3.034-6.97-.573-2.334-1.018-4.689-1.644-7.013-1.262-4.668-2.408-12.094-2.408-24.507,0-29.419-6.047-54.807-9.272-61.66s-5.241-12.094-9-39.9,3.49-23.245,0-56.823-29.281-39.5-40.835-42.182S92.536,135.84,87.963,132.35c-2.249-1.719-2.61-10.482-2.4-18.927C89.088,108,90.923,100.851,92.207,94.6c.552.711,1.708,2.016,2.758,2.09,1.443.106,3.543-4.424,4.2-6.854s1.549-10.726.552-13.824-3.321-.668-4.1.552a4.268,4.268,0,0,1-1.485,1.209c.212-4.1.424-8.19,1.018-12.254a48.169,48.169,0,0,0-2.079-23.446C87.348,25.77,64.984,24.635,61.865,24.55c-3.108.085-25.473,1.22-31.2,17.526a48.169,48.169,0,0,0-2.079,23.446c.594,4.063.8,8.158,1.018,12.254a4.369,4.369,0,0,1-1.485-1.209c-.774-1.22-3.1-3.65-4.1-.552s-.106,11.394.552,13.824,2.769,6.97,4.2,6.854c1.05-.085,2.207-1.39,2.758-2.09,1.284,6.249,3.108,13.4,6.641,18.821.212,8.445-.138,17.208-2.4,18.927-4.562,3.49-28.21,13.23-39.763,15.914s-37.344,8.593-40.835,42.182,3.766,29.016,0,56.823c-1.3,9.612-2.472,19.415-4.954,28.814a42.3,42.3,0,0,0,1.008,24.1c1,3.024,2.684,6.015,5.368,7.723,9.76,6.2,26.608,3.469,35.18,3.437,2.992,0,2.122-1.613,4.053-3.894,1.835-2.164,1.6-5.358,1.209-8.169Q-4.246,290.1-6.3,281.059c-.668-2.96-1.835-6-2.249-9s.361-6.037.668-8.912c.764-7.161.849-14.874,2.419-21.887,2.6.509,4.838,9.527,5.7,11.914a118.451,118.451,0,0,1,4.339,15.1c2.345,10.959,2.949,22.385.721,33.419C-2.84,341.86-.294,330.168-2.84,341.86c-2.8,12.9-5.633,25.547-6.907,38.734-2.843,29.462-5.061,59.295-.382,88.47,1.708,10.641,7.893,72.238,7.5,74.37-1.464,8.031-6.206,24.8-8.031,34.289s-.9,23.711-.17,49.619,4.01,45.97,5.1,60.2c.944,12.211-.859,43.434-1.379,52.038a16.859,16.859,0,0,1-.859,4.413,84.367,84.367,0,0,1-4.7,11.415c-3.554,6.822-11.744,19.659-14.471,22.4s-7.129,9.315-3,11.193c1.453.658,2.185.032,2.185.032-.541,2.154.4,4.424,1.708,5.05a5.1,5.1,0,0,0,2.387.371c.117,1.676,2.048,4.817,6.143,3.681,0,0,1.04,3.66,4.212,3.819a7.15,7.15,0,0,0,3.066-.371c.891-.361,1.888-1.379,2.96-3.925,0,0-.806,3.278,3.215,4.848S4.543,802.223,7,797.036s2.185-6.143,4.233-10.652,1.093-16.243,2.6-21.027,5.867-6.419,6.281-10.376a54.347,54.347,0,0,0-.212-11.2c.1-.021.286-17.855.286-17.855l.52-7.957a297.414,297.414,0,0,1,4.626-36.644c3.883-20.327,9.272-54,10.906-74.423,2.185-27.361,4.742-50.351,6.206-54.722.064-.191.159-.477.265-.828a262.25,262.25,0,0,0,11.267-51.486c.626-5.527,1.2-11.628,1.655-18.184,1.984-28.772,1.082-44.431,6.228-45.184,5.145.753,4.244,16.412,6.228,45.184.456,6.556,1.029,12.657,1.655,18.184a262.251,262.251,0,0,0,11.267,51.486c.117.35.2.626.265.828,1.464,4.382,4.01,27.361,6.206,54.722,1.634,20.423,7.023,54.1,10.906,74.423a297.673,297.673,0,0,1,4.626,36.644l.52,7.957s.191,17.834.286,17.855a54.347,54.347,0,0,0-.212,11.2c.414,3.957,4.774,5.6,6.281,10.376s.541,16.518,2.6,21.027,1.772,5.464,4.233,10.652,7.235,7.034,11.267,5.464,3.215-4.848,3.215-4.848c1.072,2.546,2.069,3.565,2.96,3.925a6.953,6.953,0,0,0,3.066.371c3.172-.159,4.212-3.819,4.212-3.819,4.1,1.125,6.026-2.016,6.143-3.681a5.1,5.1,0,0,0,2.387-.371c1.3-.626,2.249-2.9,1.708-5.05,0,0,.732.626,2.185-.032,4.127-1.878-.276-8.466-3-11.193s-10.927-15.564-14.471-22.4a83.807,83.807,0,0,1-4.7-11.415,16.943,16.943,0,0,1-.859-4.413c-.53-8.593-2.323-39.816-1.379-52.038,1.093-14.227,4.382-34.289,5.1-60.2s1.655-40.135-.17-49.619-6.567-26.268-8.031-34.289c-.393-2.132,5.8-63.729,7.5-74.37,4.679-29.165,2.461-59.008-.382-88.47-1.273-13.187-4.106-25.844-6.907-38.734-2.546-11.691,0,0-8.137-40.166-4.636-22.863,3.1-46.054,10.609-61.788,4.965,17.516,11.85,33.9,12.636,40.432,1.209,10.079-1.613,18.131,6.45,41.514,6.259,18.152,15.924,47.975,19.924,60.387l-.149.021s2.079,5.761,3.1,10.185,2.387,17.887,3.331,24.486,3.193,13.357,4.827,20.688c1.008,4.53,2.4,10.949,3.809,13.378,1.231,2.122,2.483,2.483,3.915,2.313,2.281-.276,2.44-3.7,1.549-8.54-.711-3.819-2.875-11.458-2.981-14.248-.053-1.294.7.4,1.146,2.122,1.178,4.53,3.14,14.153,4.445,19.457,1.273,5.167,3.193,10.047,5.368,10.694a3.136,3.136,0,0,0,4.244-3.172c0-2.949-2.026-7.7-2.9-11.352-1.549-6.535-4.191-20.317-4.191-20.317s4.085,16.434,5.474,22.417c.138.573,1.963,6.535,3.448,10.111,1.464,3.533,4.085,5.9,6.291,4.042,4.191-3.533-.721-12.89-2.62-20.221s-4.477-19.415-4.477-19.415,4.679,14.333,6.96,22.354,5.559,12.052,7.872,8.933,1.167-8.753.138-11.8-2.61-9.05-4.233-14.036-5.718-19.786-3.777-20.38,7.151,9.4,15.023,11.182,9.007-4.329,5.559-6.737Z" transform="translate(-3.111 -11.851)" fill="#f4d7c9"/>
    <path id="Tracé_38620" data-name="Tracé 38620" d="M-24.137,275.943c-2.408-17.261-4.817-34.724-2.949-52.049s4.265-38.3,17.654-49.439C7.34,160.5,33.736,159.677,50.827,134.533,63.049,116.55,60.11,89.465,58.816,71.09c.7,11.914-2.281,41.662-7.533,54.4s-12.317,21.855-24.857,27.573c-17.134,7.808-32.846,10.227-45.131,21.3-8.53,7.681-13.452,18.757-15.1,30.109s-.541,22.916.573,34.342" transform="translate(-2.11 -9.016)" fill="none" stroke="#a1a6b7" stroke-miterlimit="10" stroke-width="1"/>
    <path id="Tracé_38621" data-name="Tracé 38621" d="M-19.79,256.785c.244-4.4.5-8.806.806-13.2.308-4.318-1.156-30.533.488-39.254,2.217-11.829,7.044-21.24,15.829-29.451,7.607-7.108,38.458-12.89,54.043-34.787,12.551-17.632,9.665-62.435,9.05-68.355" transform="translate(-1.206 -8.976)" fill="none" stroke="#a1a6b7" stroke-miterlimit="10" stroke-width="1"/>
    <path id="Tracé_38622" data-name="Tracé 38622" d="M61.7,71.22c-3.872,27.043,9.877,70.509,33.366,84.449,10.121,6,21.621,9.378,31.743,15.394,21.8,12.964,35.36,38.649,33.79,63.963" transform="translate(3.719 -9.008)" fill="none" stroke="#a1a6b7" stroke-miterlimit="10" stroke-width="1"/>
    <path id="Tracé_38623" data-name="Tracé 38623" d="M58.614,68.79c-4.307,36.209,9.527,79.176,44.41,96.978,42.32,21.59,47.444,50.1,51.21,63.772s4.912,27.9,6.047,42.034" transform="translate(3.524 -9.156)" fill="none" stroke="#a1a6b7" stroke-miterlimit="10" stroke-width="1"/>
    <path id="Tracé_38624" data-name="Tracé 38624" d="M56.82,73.24c1.666,63.061,3.331,140.837,5,203.9.562,21.176-.849,40.453-.881,61.639" transform="translate(3.461 -8.885)" fill="none" stroke="#a1a6b7" stroke-miterlimit="10" stroke-width="1"/>
    <path id="Tracé_38625" data-name="Tracé 38625" d="M57.625,72.1c-1.666,63.061-3.331,140.837-5,203.9-.562,21.176.849,40.453.881,61.639" transform="translate(3.198 -8.954)" fill="none" stroke="#a1a6b7" stroke-miterlimit="10" stroke-width="1"/>
    <path id="Tracé_38626" data-name="Tracé 38626" d="M57.022,37.537c.064-3.225-2.239-6.355-5.58-6.546-6.567-.361-8.222,3.8-8.519,6.238-1.358-1.326-6.535-.806-7.522,4.2a16.371,16.371,0,0,0,.212,5.655,5.57,5.57,0,0,0-3.437,9.548,5.38,5.38,0,0,0,0,9.336c-3.31,1.708-2.132,6.217.085,7.32a10.078,10.078,0,0,0,4.923.753c.4,1.379,2.981,2.833,4.4,3.045,4.053.615,5.05-1.262,7.289.17,2.419,1.56,6.535,1.262,8.158-.891" transform="translate(1.795 -11.46)" fill="#cea2ed"/>
    <path id="Tracé_38627" data-name="Tracé 38627" d="M55.441,37.537c-.064-3.225,2.239-6.355,5.58-6.546,6.567-.361,8.222,3.8,8.519,6.238,1.358-1.326,6.535-.806,7.522,4.2a16.371,16.371,0,0,1-.212,5.655,5.57,5.57,0,0,1,3.437,9.548,5.38,5.38,0,0,1,0,9.336c3.31,1.708,2.132,6.217-.085,7.32a10.078,10.078,0,0,1-4.923.753c-.4,1.379-2.981,2.833-4.4,3.045-4.053.615-5.05-1.262-7.288.17-2.419,1.56-6.535,1.262-8.158-.891" transform="translate(3.377 -11.46)" fill="#cea2ed"/>
  </g>
  <circle id="Ellipse_1792" data-name="Ellipse 1792" cx="1.931" cy="1.931" r="1.931" transform="translate(64.079 42.256)" fill="#9d45db"/>
  <circle id="Ellipse_1793" data-name="Ellipse 1793" cx="1.931" cy="1.931" r="1.931" transform="translate(50.998 42.256)" fill="#9d45db"/>
  <circle id="Ellipse_1794" data-name="Ellipse 1794" cx="1.931" cy="1.931" r="1.931" transform="translate(42.649 50.277)" fill="#9d45db"/>
  <circle id="Ellipse_1795" data-name="Ellipse 1795" cx="1.931" cy="1.931" r="1.931" transform="translate(36.453 62.212)" fill="#9d45db"/>
  <circle id="Ellipse_1796" data-name="Ellipse 1796" cx="1.931" cy="1.931" r="1.931" transform="translate(47.137 70.678)" fill="#9d45db"/>
  <circle id="Ellipse_1797" data-name="Ellipse 1797" cx="1.931" cy="1.931" r="1.931" transform="translate(56.186 48.335)" fill="#9d45db"/>
  <circle id="Ellipse_1798" data-name="Ellipse 1798" cx="1.931" cy="1.931" r="1.931" transform="translate(72.217 50.277)" fill="#9d45db"/>
  <circle id="Ellipse_1799" data-name="Ellipse 1799" cx="1.931" cy="1.931" r="1.931" transform="translate(75.59 57.767)" fill="#9d45db"/>
  <circle id="Ellipse_1800" data-name="Ellipse 1800" cx="1.931" cy="1.931" r="1.931" transform="translate(69.543 68.747)" fill="#9d45db"/>
  <circle id="Ellipse_1801" data-name="Ellipse 1801" cx="1.931" cy="1.931" r="1.931" transform="translate(64.079 54.563)" fill="#9d45db"/>
  <circle id="Ellipse_1802" data-name="Ellipse 1802" cx="1.931" cy="1.931" r="1.931" transform="translate(57.629 63.475)" fill="#9d45db"/>
  <circle id="Ellipse_1803" data-name="Ellipse 1803" cx="1.931" cy="1.931" r="1.931" transform="translate(49.067 57.767)" fill="#9d45db"/>
  <circle id="Ellipse_1804" data-name="Ellipse 1804" cx="13.346" cy="13.346" r="13.346" transform="translate(9.262 0)" fill="#9d45db"/>
  <path id="Tracé_38628" data-name="Tracé 38628" d="M27.278,15.32a6.806,6.806,0,0,1-11.288,0" transform="translate(0.974 0.933)" fill="none" stroke="#fff" stroke-linecap="round" stroke-miterlimit="10" stroke-width="1"/>
  <path id="Tracé_38629" data-name="Tracé 38629" d="M19.176,9.723a2.485,2.485,0,0,0-4.116,0" transform="translate(0.917 0.526)" fill="none" stroke="#fff" stroke-linecap="round" stroke-miterlimit="10" stroke-width="1"/>
  <path id="Tracé_38630" data-name="Tracé 38630" d="M27.806,9.723a2.485,2.485,0,0,0-4.116,0" transform="translate(1.443 0.526)" fill="none" stroke="#fff" stroke-linecap="round" stroke-miterlimit="10" stroke-width="1"/>
</svg>
