<?xml version="1.0" encoding="UTF-8"?><svg id="Calque_1" xmlns="http://www.w3.org/2000/svg" viewBox="0 0 375 396"><defs><style>.cls-1{fill:#7945db;}.cls-1,.cls-2,.cls-3,.cls-4,.cls-5{stroke-width:0px;}.cls-2{fill:#5730a0;}.cls-3{fill:#3f178a;}.cls-4{fill:#341d5e;}.cls-5{fill:#fff;}</style></defs><rect class="cls-4" x=".24" width="374.76" height="396"/><path class="cls-3" d="m215.59-11.9c-13.56-12.96-33.85-15.11-52.55-16.58-35.88-2.82-73.59-5.35-106.31,9.65C25.54-4.52,2.44,25.22-6,58.47c-7.11,28.01-1,54.75,6.8,81.84,4.6,15.97,5.93,33.19,13.52,48.2,8.81,17.41,32.49,23.14,50.82,18.88,5.3-1.23,10.39-3.86,14.59-7.42,7.23-6.12,11.83-15,10.41-24.24,15.83,8.52,36.8,6.27,50.47-5.41,13.67-11.68,19.16-32.04,13.21-49.01.94,2.68,25.62-3.12,28.32-3.92,9.09-2.7,17.29-6.78,24.51-12.81,14.9-12.43,25.4-29.56,28.81-48.76,4.17-23.44-2.32-50.92-19.88-67.71h0ZM76.47,181.9c-2.22,0-4.03-1.8-4.03-4.03s1.8-4.03,4.03-4.03,4.03,1.8,4.03,4.03-1.8,4.03-4.03,4.03Zm19.33-36c-3.18,0-5.75-2.58-5.75-5.75s2.58-5.75,5.75-5.75,5.75,2.57,5.75,5.75-2.58,5.75-5.75,5.75Zm112.84-58.37c-2.22,0-4.03-1.8-4.03-4.03s1.8-4.03,4.03-4.03,4.03,1.8,4.03,4.03-1.8,4.03-4.03,4.03Z"/><path class="cls-3" d="m361.47,157.9c-4.39-9.51-13.3-17.62-13.1-28.09-5.6-15.18-19.65-26.92-35.58-29.75-6.41-1.82-10.19-5.55-16.1-8.43-10.92-5.47-24.75-5.74-34.99.92-10.24,6.66-15.63,20.68-10.91,31.94,3.96,9.47,13.7,13.51,18.84,21.68,4.43,7.04,4.24,18.47,3.27,26.42-1.72,14.11-8.4,27.46-18.81,37.16-8.81,8.21-23.91,11.36-29.25,22.59-3.52,7.41-3.42,15.98-2.9,24.16.52,8.19,1.38,16.57-.83,24.47-3.48,12.44-14.21,21.82-26.1,26.88-2.71,1.16-5.94,2.06-9.46,2.85-20.88,4.7-51.88,5.62-45.39,34.16,2.53,11.12,11.06,19.9,20.24,26.67,21.83,16.1,49.49,23.9,76.51,22.17,27.49-1.76,51.34-17.11,68.39-38.36,12.65-15.77,21.61-34.16,29.22-52.88,14.19-34.93,24.04-71.62,29.25-108.96,1.66-11.95,2.75-24.65-2.3-35.6h0Zm-115,82.05c-3.18,0-5.75-2.58-5.75-5.75s2.58-5.75,5.75-5.75,5.75,2.58,5.75,5.75-2.58,5.75-5.75,5.75Zm44.71-112.45c-3.18,0-5.75-2.58-5.75-5.75s2.58-5.75,5.75-5.75,5.75,2.58,5.75,5.75-2.58,5.75-5.75,5.75Z"/><circle class="cls-3" cx="93.12" cy="273.59" r="12.62"/><path class="cls-2" d="m318.94,249.55c-8.7,2.31-16.21,3.09-23.66,9.18-7.36,6.01-12.52,14.64-14.35,23.96-.71,3.65-.99,7.57-3.11,10.63-4.21,6.11-16.55,2.61-22.16.68-4.01-1.38-8.29-2.72-12.41-1.75-8.71,2.06-11.75,12.5-15.98,20.38-9.31,17.35-31.89,26.26-50.55,19.94-21.58-7.31-25.18-25.72-29.38-45.05-4.92-22.61,7.04-36.68,12.51-57.97,7.13-27.76-27.46-28.21-41.79-13.05-9.13,9.66-11.29,25.24-5.14,37.02,5.31,10.17,13.16,17.69,15.88,29.3,1.16,4.95.94,10.43-1.71,14.77-3.98,6.53-13.12,8.97-20.18,6.04-4.69-1.94-7.53-5.2-9.43-9.11-4.15-8.53-3.85-20.22-8.57-28.38-7.21-12.46-20.72-21.6-35.3-22.04-21.39-.65-41.63,17.52-43.29,38.85-1.65,21.2,12.87,40.55,29.89,53.3,14.98,11.22,32.12,19.08,47.62,29.53,14.71,9.92,37.39,10.78,54.84,12.23,40.17,3.33,80.73-1.19,119.87-10.43,15.9-3.75,31.85-8.37,45.8-16.87,23.75-14.46,41.9-44.45,44.95-71.94,1.15-10.35-.35-22.38-8.85-28.39-7.77-5.5-16.19-3.4-24.47-1.1-.34.1-.68.19-1.02.28h0Zm-263.68,11.41c-2.22,0-4.03-1.8-4.03-4.03s1.8-4.03,4.03-4.03,4.03,1.8,4.03,4.03-1.8,4.03-4.03,4.03Zm85.31-7.64c-3.18,0-5.75-2.58-5.75-5.75s2.58-5.75,5.75-5.75,5.75,2.57,5.75,5.75-2.58,5.75-5.75,5.75Zm101.87,58.7c2.22,0,4.03,1.8,4.03,4.03s-1.8,4.03-4.03,4.03-4.03-1.8-4.03-4.03,1.8-4.03,4.03-4.03Zm0,40.11c-3.18,0-5.75-2.58-5.75-5.75s2.58-5.75,5.75-5.75,5.75,2.58,5.75,5.75-2.58,5.75-5.75,5.75Z"/><path class="cls-2" d="m75.63,156.3c3.84-7.66,1.51-17.46,5.89-24.83,4.01-6.74,12.43-9.39,20.21-10.35,7.79-.97,15.97-.89,22.99-4.39,8.8-4.38,14.28-13.99,15.28-23.78s-2-19.64-6.74-28.25c-5.68-10.31-14.97-19.77-26.68-20.97-11.45-1.17-22.11,5.74-30.82,13.27-18.19,15.73-32.67,35.67-42.26,57.71-3.99,9.16-10.56,22.4-9.39,32.67,1.04,9.11,9.93,13.47,17.66,16.55,11.15,4.44,27.55,4.93,33.84-7.62h.02Z"/><circle class="cls-1" cx="189.37" cy="282.29" r="12.62"/><circle class="cls-1" cx="153.19" cy="206.53" r="12.62"/><circle class="cls-1" cx="267" cy="300.88" r="12.62"/><circle class="cls-2" cx="114.32" cy="178.83" r="12.62"/><circle class="cls-1" cx="177.31" cy="152.78" r="12.62"/><circle class="cls-1" cx="67.88" cy="201.6" r="12.62"/><circle class="cls-1" cx="135.97" cy="127.51" r="8.7"/><circle class="cls-3" cx="219.4" cy="116" r="8.7"/><circle class="cls-3" cx="187.62" cy="228.45" r="8.7"/><circle class="cls-2" cx="267" cy="145.91" r="8.7"/><path class="cls-1" d="m205.36,329.9c-24.64-11.58-54.72,14.87-79.76,4.18-8.47-3.62-14.69-10.96-20.48-18.12-7.8-9.65-17.55-21.82-31.36-21.28-10.38.41-15.43,8.51-16.22,18.14-1.93,23.67,15.51,50.29,32.1,65.57,19.99,18.41,47.33,28.58,74.49,27.71,13.27-.42,26.73-3.51,37.82-10.8,11.1-7.29,19.57-19.16,20.89-32.38,1.31-13.21-5.47-27.37-17.49-33.02h.01Zm-69.39,24.53c-2.22,0-4.03-1.8-4.03-4.03s1.8-4.03,4.03-4.03,4.03,1.8,4.03,4.03-1.8,4.03-4.03,4.03Z"/><path class="cls-1" d="m108.32,36.27c-6.09.65-12.14.16-18,2.26-12.54,4.51-22.52,14.47-29.69,25.71-8.99,14.09-14.08,30.26-19.07,46.22-5.7,18.21-11.4,36.43-17.1,54.64-1.41,4.5-3.19,9.26-3.07,14.05.17,6.18,3.1,6.21,8.71,6.14,10.04-.13,20.05-4.27,27.07-11.49,3.23-3.32,5.32-6.2,5.96-10.24.12-.78.19-1.6.2-2.47.08-5.34-.07-10.44.87-15.74,1.79-10.1,5.93-19.8,12.12-28,9.23-12.22,25.01-23.4,40.68-24.83,14.15-1.29,27.36-9.93,28.73-25.54,1.91-21.66-18.66-32.71-37.42-30.71h.01Zm1.43,45.62c-2.22,0-4.03-1.8-4.03-4.03s1.8-4.03,4.03-4.03,4.03,1.8,4.03,4.03-1.8,4.03-4.03,4.03Z"/><path class="cls-2" d="m298.7-7.83c-6.18-9.21-17.27-14.24-28.31-15.32-11.03-1.08-22.11,1.33-32.77,4.39C212.29-11.49,189.47.13,166.64,13.06c-17.55,9.94-24.22,27.52-14.51,47.08,5.92,11.93,19.32,20.26,32.53,18.57,13.21-1.69,24.53-14.48,23.04-27.72,3.48,14.96,17.3,26.42,32.47,28.82s31.01-3.55,42.22-14.04,18.03-25.12,20.85-40.21c2.12-11.33,1.88-23.82-4.54-33.39Zm-134.02,61.09c-3.18,0-5.75-2.58-5.75-5.75s2.58-5.75,5.75-5.75,5.75,2.58,5.75,5.75-2.58,5.75-5.75,5.75Z"/><circle class="cls-1" cx="240.72" cy="77.86" r="12.62"/><circle class="cls-1" cx="168.72" cy="77.86" r="12.62"/><path class="cls-1" d="m356.78,127.47c-2.79-9.85-8.84-50.54-27.21-39.77-2.61,1.53-4.46,4.07-5.96,6.68-4.78,8.31-6.77,17.88-8.66,27.28s-3.8,18.98-8.46,27.35c-6.06,10.88-19.63,17.95-31.41,21.32l-.84.24c-15.97,4.37-31.25-5.27-47.15-5.01-8.06.13-16.17,3.09-21.93,8.73s-8.92,14.03-7.63,21.99c1.3,7.96,7.31,15.13,15.11,17.16,10.49,2.73,21.01-3.58,29.86-9.84,7.11-5.03,19.53-13.99,28.86-11.91,13.97,3.12,12.03,18.39,4.91,26.91-3.67,4.39-8.05,8.32-10.58,13.45-4.09,8.27-2.31,19.05,4.2,25.58,6.52,6.53,17.3,8.32,25.58,4.25-6.94,10.52-6.69,25.3.61,35.58,14.52,20.45,44.43,13.68,59.02-3.09,9.27-10.66,11.87-25.47,13.23-39.53,4.13-42.68.15-86.11-11.54-127.36h-.01Zm-137.38,78.15c-2.22,0-4.03-1.8-4.03-4.03s1.8-4.03,4.03-4.03,4.03,1.8,4.03,4.03-1.8,4.03-4.03,4.03Zm62.01,45.97c-2.22,0-4.03-1.8-4.03-4.03s1.8-4.03,4.03-4.03,4.03,1.8,4.03,4.03-1.8,4.03-4.03,4.03Zm19.36-68.74c0-4.8,3.89-8.7,8.7-8.7s8.7,3.89,8.7,8.7-3.89,8.7-8.7,8.7-8.7-3.89-8.7-8.7Zm17.4,83.87c-3.18,0-5.75-2.57-5.75-5.75s2.58-5.75,5.75-5.75,5.75,2.58,5.75,5.75-2.58,5.75-5.75,5.75Z"/><path class="cls-5" d="m-12.33-12.86v422h400.76V-12.86H-12.33ZM336.53,255.57c-2.7,11.14-9.94,20.66-19.75,26.59-3.38,2.04-3.39,2.06-2.68,5.86,1.21,6.39,1,12.75-.87,18.97-2.88,9.58-7.98,17.03-15.3,22.27-5.96,4.27-13.37,6.14-20.63,5.13-7.16-1-14.06-3.98-19.75-8.94-.65-.56-1.35-1.1-2.11-1.48-1.16-.59-2.27-.14-2.76.9-.35.74-.31,1.83-.05,2.63.21.64.98,1.12,1.55,1.62,7.19,6.33,16.28,9.93,25.61,10.57.11,0,.18.12.13.22-1.05,2.12-2.41,4.12-3.83,6.03-14.99,20.28-41.69,24.79-61.52,10.08-14.39-10.67-21.29-25.5-21.34-43.2h0v-22.6c0-2.11-1.71-3.81-3.81-3.81h0c-2.11,0-3.81,1.71-3.81,3.81v22.6h-.1c-.05,17.7-6.95,32.53-21.34,43.2-19.83,14.7-46.52,10.2-61.52-10.08-1.41-1.91-2.77-3.91-3.83-6.03-.05-.1.02-.22.13-.22,9.33-.64,18.42-4.25,25.61-10.57.57-.5,1.34-.98,1.55-1.62.26-.81.3-1.9-.05-2.63-.5-1.04-1.61-1.49-2.76-.9-.76.39-1.46.92-2.11,1.48-5.7,4.96-12.6,7.94-19.75,8.94-7.26,1.01-14.67-.86-20.63-5.13-7.32-5.24-12.42-12.68-15.3-22.27-1.87-6.22-2.07-12.57-.87-18.97.72-3.8.7-3.82-2.68-5.86-9.81-5.93-17.05-15.44-19.75-26.59-2.75-11.36-1.03-22.08,5.21-32.5.05-.09.18-.1.25-.03.87.82,1.58,1.47,2.27,2.14,8.3,8.01,18.14,12.38,29.73,12.68.76.02,1.52.02,2.27-.03,1.53-.09,2.51-.93,2.45-2.45-.05-1.3-.95-2.15-2.34-2.27-1.62-.14-3.24-.23-4.86-.35-16.65-1.25-31.95-14.52-35.4-33.02-2.58-13.83.71-26.25,10.27-36.73,1.76-1.92,1.72-3.64,1.11-5.89-4.5-16.65,1.35-34.17,14.74-44.44,19.81-15.2,48.06-8.12,58.98,14.77,2.5,5.24,3.99,10.73,4.14,16.57.02.69.04,1.38.15,2.06.24,1.59,1.84,2.72,3.37,2.21.96-.32,1.54-1.13,1.46-2.35-.2-3.13-.26-6.3-.84-9.36-3.52-18.57-18.05-32.95-36.64-36.36-2.3-.42-4.66-.48-7.36-.73-.07,0-.12-.05-.14-.12-.52-1.98-1.23-3.99-1.52-6.05-1.5-10.52.8-20.09,7.97-28.1,5.57-6.22,12.9-9.24,20.17-9.24.08,0,.14-.06.15-.13,1.7-17.01,25.04-24.23,41-24.23,3.47,0,11.11.47,11.5.57,7.61,1.98,12.1,7.19,14.77,14.26.31.81.44,1.68.44,2.54,0,9.3.04,55.85.05,108.75h0v.06c0,2.11,1.71,3.81,3.81,3.81h0c2.11,0,3.81-1.71,3.81-3.81v-50.11c0-.25-.03-.48-.07-.72,0-29.6.03-51.86.03-57.98,0-.87.14-1.73.44-2.54,2.67-7.07,7.16-12.29,14.77-14.26.39-.1,8.03-.57,11.5-.57,15.96,0,39.3,7.22,41,24.23,0,.08.07.13.15.13,7.27,0,14.59,3.02,20.17,9.24,7.18,8.01,9.47,17.57,7.97,28.1-.29,2.06-1,4.06-1.52,6.05-.02.06-.07.11-.14.12-2.7.25-5.06.31-7.36.73-18.59,3.41-33.12,17.79-36.64,36.36-.58,3.06-.64,6.23-.84,9.36-.08,1.22.5,2.03,1.46,2.35,1.52.51,3.13-.63,3.37-2.21.1-.68.13-1.38.15-2.06.15-5.83,1.64-11.32,4.14-16.57,10.93-22.89,39.17-29.96,58.98-14.77,13.4,10.28,19.25,27.79,14.74,44.44-.61,2.24-.65,3.96,1.11,5.89,9.57,10.48,12.85,22.9,10.27,36.73-3.45,18.5-18.75,31.77-35.4,33.02-1.62.12-3.24.21-4.86.35-1.38.12-2.28.97-2.34,2.27-.06,1.51.92,2.36,2.45,2.45.76.04,1.52.05,2.27.03,11.58-.3,21.43-4.68,29.73-12.68.69-.67,1.4-1.32,2.27-2.14.07-.07.2-.06.25.03,6.24,10.43,7.96,21.14,5.21,32.5h.1Z"/><circle class="cls-1" cx="153.19" cy="310.1" r="8.7"/><circle class="cls-1" cx="74.25" cy="269.66" r="8.7"/><circle class="cls-1" cx="238.42" cy="266.72" r="8.7"/><circle class="cls-1" cx="110.39" cy="234.2" r="8.7"/></svg>