<svg xmlns="http://www.w3.org/2000/svg" xmlns:xlink="http://www.w3.org/1999/xlink" width="336" height="211.64" viewBox="0 0 336 211.64">
  <defs>
    <clipPath id="clip-path">
      <rect id="Rectangle_4131" data-name="Rectangle 4131" width="119.355" height="119.355" rx="5" fill="none"/>
    </clipPath>
    <filter id="Tracé_39085" x="74.488" y="332.602" width="232.243" height="75.777" filterUnits="userSpaceOnUse">
      <feOffset input="SourceAlpha"/>
      <feGaussianBlur stdDeviation="3.23" result="blur"/>
      <feFlood flood-opacity="0.102"/>
      <feComposite operator="in" in2="blur"/>
      <feComposite in="SourceGraphic"/>
    </filter>
  </defs>
  <g id="Groupe_5739" data-name="Groupe 5739" transform="translate(0 -719)">
    <g id="Calque_1-2" transform="translate(0 777.544)">
      <rect id="Rectangle_4130" data-name="Rectangle 4130" width="336" height="153.096" rx="3.96" fill="#ebf0f7"/>
      <path id="Tracé_37994" d="M304.187,50.14a35.214,35.214,0,0,0-21.374-9.809c-11.173-1.083-23.008.782-32.146,7.322C238.712,56.2,236.365,70.37,239.263,84,241.089,92.566,243.8,97.621,250,103.77c5.506,5.456,12.006,10.371,19.849,11.615,5.717.9,11.574-.231,17.121-1.906,9.769-2.949,18.234-7.432,23.42-16.549,8.716-15.346,6.459-34.543-6.208-46.779" transform="translate(0.711 0.12)" fill="#66a9d7"/>
      <path id="Tracé_37994-2" d="M86.507,49.85a35.214,35.214,0,0,0-21.374-9.809c-11.173-1.083-23.008.782-32.146,7.322-11.956,8.545-14.3,22.718-11.4,36.348,1.825,8.565,4.533,13.621,10.732,19.769,5.506,5.456,12.006,10.371,19.849,11.615,5.717.9,11.574-.231,17.121-1.906,9.769-2.949,18.234-7.432,23.42-16.549C101.421,81.294,99.164,62.1,86.5,49.86" transform="translate(0.061 0.119)" fill="#fa93a7"/>
      <g id="Groupe_5991" data-name="Groupe 5991" transform="translate(248.7 52.747)">
        <path id="Tracé_38128" d="M295.239,70.714c-1.184-13.661-7.542-17.843-18.4-18.124-10.872.281-16.96,4.463-18.144,18.124-.6,6.971,1.705,17.131,4,22.517a8.859,8.859,0,0,0,3.892,4.644c.09.05-.762,8.054-.762,8.054h22.3s-.853-8-.762-8.054a8.942,8.942,0,0,0,3.892-4.644c2.3-5.4,4.6-15.546,4-22.527" transform="translate(-247.928 -52.59)" fill="#f4d7c9"/>
        <path id="Tracé_39076" data-name="Tracé 39076" d="M271.66,88.13c2.116,2.016,8.9,1.845,10.521,0" transform="translate(-247.889 -52.484)" fill="none" stroke="#4d4d4d" stroke-miterlimit="10" stroke-width="1"/>
        <path id="Tracé_39077" data-name="Tracé 39077" d="M274.687,74.53a4.731,4.731,0,0,1-8.906-.01" transform="translate(-247.907 -52.525)" fill="none" stroke="#4d4d4d" stroke-miterlimit="10" stroke-width="0.88"/>
        <path id="Tracé_39078" data-name="Tracé 39078" d="M288.047,74.53a4.731,4.731,0,0,1-8.907-.01" transform="translate(-247.867 -52.525)" fill="none" stroke="#4d4d4d" stroke-miterlimit="10" stroke-width="0.88"/>
        <path id="Tracé_39079" data-name="Tracé 39079" d="M305.624,55.812S304.21,72.13,303.358,81.94a3.715,3.715,0,0,1-.542,1.655q-3.927,6.379-7.823,12.758a2.247,2.247,0,0,1-2.6,1.2A2.2,2.2,0,0,1,290.86,94.7a4.471,4.471,0,0,1,.411-.782q2.618-4.273,5.256-8.555a3.362,3.362,0,0,0,.512-1.535c.211-2.628.451-5.246.672-7.863a2.135,2.135,0,0,0-.03-.873.917.917,0,0,0-1.735-.15,2.172,2.172,0,0,0-.181.792c-.191,2.187-.381,4.363-.572,6.549a2.051,2.051,0,0,1-3.069,1.635,1.878,1.878,0,0,1-1.043-1.876c.12-1.515.261-3.019.391-4.533.171-2.016.331-4.032.532-6.038a10.637,10.637,0,0,1,3.139-6.519,9.034,9.034,0,0,1,1.073-.983,1.5,1.5,0,0,0,.6-1.133c.06-.843.14-1.675.221-2.517.241-2.808.441-5.115.441-5.115l8.134.612Z" transform="translate(-247.832 -52.582)" fill="#e8bdaf" stroke="#e8bdaf" stroke-miterlimit="10" stroke-width="1"/>
        <path id="Tracé_39080" data-name="Tracé 39080" d="M247.96,55.812s1.414,16.319,2.267,26.128a3.715,3.715,0,0,0,.542,1.655q3.927,6.379,7.823,12.758a2.247,2.247,0,0,0,2.6,1.2,2.2,2.2,0,0,0,1.535-2.859,4.469,4.469,0,0,0-.411-.782q-2.618-4.273-5.256-8.555a3.362,3.362,0,0,1-.512-1.535c-.211-2.628-.451-5.246-.672-7.863a2.135,2.135,0,0,1,.03-.873.917.917,0,0,1,1.735-.15,2.172,2.172,0,0,1,.181.792c.191,2.187.381,4.363.572,6.549a2.051,2.051,0,0,0,3.069,1.635A1.878,1.878,0,0,0,262.5,82.04c-.12-1.515-.261-3.019-.391-4.533-.171-2.016-.331-4.032-.532-6.038a10.637,10.637,0,0,0-3.139-6.519,9.037,9.037,0,0,0-1.073-.983,1.5,1.5,0,0,1-.6-1.133c-.06-.843-.14-1.675-.221-2.517-.241-2.808-.441-5.115-.441-5.115l-8.134.612Z" transform="translate(-247.96 -52.582)" fill="#e8bdaf" stroke="#e8bdaf" stroke-miterlimit="10" stroke-width="1"/>
      </g>
      <g id="Groupe_5992" data-name="Groupe 5992" transform="translate(19.317 47.673)">
        <path id="Tracé_39081" data-name="Tracé 39081" d="M71.673,102.7c.622-.13,1.244-.251,1.866-.411a14.887,14.887,0,0,0,6.509-3.3A13.822,13.822,0,0,0,84.31,91.4a19.136,19.136,0,0,0,.381-5.607q-.767-10.381-1.515-20.772a3.059,3.059,0,0,0-1.364-2.457,2.7,2.7,0,0,0-3.872.853,3.775,3.775,0,0,0-.491,2.347c.241,3.45.5,6.911.752,10.361a2.027,2.027,0,0,1,0,.652,2.065,2.065,0,0,1-1.184.03,1.109,1.109,0,0,1-.11-.612q-.617-8.38-1.214-16.76a3.122,3.122,0,0,0-1.013-2.2,2.734,2.734,0,0,0-4.223.582,3.278,3.278,0,0,0-.471,2.016c.381,5.1.742,10.19,1.113,15.275.01.2.03.411.05.632-.431.2-.832.04-1.2.08a1.1,1.1,0,0,1-.16-.682Q69.14,66.327,68.5,57.521a5.133,5.133,0,0,0-.4-1.856,2.77,2.77,0,0,0-3.851-1.374A2.952,2.952,0,0,0,62.7,57.019c0,.221.03.441.04.672q.647,8.982,1.3,17.953a2.148,2.148,0,0,1,0,.672,2.219,2.219,0,0,1-1.173,0,1.046,1.046,0,0,1-.13-.612q-.5-6.755-.983-13.51a3.39,3.39,0,0,0-1.073-2.387,2.727,2.727,0,0,0-4.373.873,3.66,3.66,0,0,0-.321,1.906q.782,10.607,1.545,21.2a1.908,1.908,0,0,1,0,.632,1.447,1.447,0,0,1-.772.12c-.231.02-.271-.191-.341-.341-.582-1.153-1.153-2.307-1.735-3.47-.672-1.344-1.344-2.678-2.006-4.022a2.871,2.871,0,0,0-2.437-1.765,2.6,2.6,0,0,0-2.528,1.324,3.164,3.164,0,0,0-.241,3.029c.8,1.9,1.645,3.771,2.477,5.657,1.635,3.7,3.26,7.422,4.925,11.113a11.85,11.85,0,0,0,4.634,5.286,10.7,10.7,0,0,0,4.142,1.374,20.107,20.107,0,0,0,3.38.251.54.54,0,0,1,.281.05c1.464-.11,2.929-.211,4.393-.321Z" transform="translate(-19.177 -47.512)" fill="#f4d7c9"/>
        <path id="Tracé_39082" data-name="Tracé 39082" d="M19.27,92.61a3.066,3.066,0,0,0,.13-.431,3.647,3.647,0,0,1,.843-1.705c1.545-1.745,3.1-3.48,4.644-5.226.582-.652,1.173-1.3,1.755-1.966,1.4-1.575,2.8-3.159,4.2-4.734q3.235-3.626,6.479-7.262c1.565-1.755,4.694-5.256,4.694-5.256L45.1,62.42l5.476,4.544-3.36,4.162S39.711,80.093,36,84.606c-3.029,3.681-6.108,7.312-9.137,10.983a4.409,4.409,0,0,1-2.457,1.595,4.053,4.053,0,0,1-3.751-.993,3.573,3.573,0,0,1-1.073-1.575,1.874,1.874,0,0,0-.171-.311l-.15-1.715Z" transform="translate(-19.26 -47.486)" fill="#f52850"/>
        <path id="Tracé_39083" data-name="Tracé 39083" d="M55.816,66.486c-.632.05-1.274.08-1.906.171a2.082,2.082,0,0,1-1.755-.552c-2.126-1.725-4.213-3.5-6.319-5.236l-.351-.291a1.079,1.079,0,0,1-.16-1.675c.14-.171.281-.341.421-.5.652-.772,1.314-1.545,1.966-2.327a1.112,1.112,0,0,0,.311-.441.392.392,0,0,0-.07-.251,11.324,11.324,0,0,0-5.6-4.774c-.331-.13-.672-.211-1.013-.321a1.1,1.1,0,0,1-.913-1.063,1.142,1.142,0,0,1,.832-1.083,8.907,8.907,0,0,1,5.707-.271,18.6,18.6,0,0,1,5.978,2.909,38.457,38.457,0,0,1,4.574,3.681,12.52,12.52,0,0,1,3.36,5.115,1,1,0,0,0,.251.542.911.911,0,0,0,.491.02c.341-.02.672-.05,1.013-.09,1.916-.181,1.494-.11,2.788.873.983.742,1.906,1.575,2.848,2.357.06.05.13.11.191.171a1.121,1.121,0,0,1,.13,1.665c-.341.441-.7.863-1.073,1.284-1.775,2-3.46,4.072-5.2,6.088a4.033,4.033,0,0,1-.341.381,1.088,1.088,0,0,1-1.555.08c-1.294-1-2.538-2.076-3.8-3.119a1.442,1.442,0,0,1-.532-1.053l-.15-1.715a1.19,1.19,0,0,0-.14-.582Z" transform="translate(-19.197 -47.531)" fill="#666"/>
      </g>
      <g id="Groupe_5993" data-name="Groupe 5993" transform="translate(108.322 33.74)" clip-path="url(#clip-path)">
        <path id="Tracé_39084" data-name="Tracé 39084" d="M338.54,443.712c-3.51-2.457-7.773-5.085-15.265-14.172-4.483-5.436-10.692-9.248-17.231-11.755a15.727,15.727,0,0,1-3.48-1.625c-2.146-1.535-2.507-4.7-3.089-7.111-.582-2.377-1.033-4.784-1.675-7.141-1.294-4.754-2.457-12.317-2.457-24.964,0-29.969-6.158-55.836-9.448-62.817s-5.336-12.317-9.167-40.651,3.561-23.68,0-57.892-29.839-40.24-41.6-42.978-35.857-12.658-40.511-16.218c-2.3-1.755-2.658-10.682-2.437-19.287,3.591-5.516,5.456-12.808,6.76-19.177.562.722,1.745,2.056,2.808,2.136,1.464.11,3.6-4.5,4.283-6.981s1.575-10.933.562-14.082-3.38-.672-4.172.562a4.352,4.352,0,0,1-1.514,1.224c.221-4.172.431-8.345,1.033-12.487A49.021,49.021,0,0,0,199.817,64.4C193.98,47.794,171.192,46.63,168.022,46.55c-3.159.08-25.947,1.244-31.795,17.853a49.021,49.021,0,0,0-2.116,23.891c.6,4.142.812,8.315,1.033,12.487a4.352,4.352,0,0,1-1.515-1.224c-.792-1.244-3.159-3.721-4.172-.562s-.11,11.6.562,14.082,2.818,7.1,4.283,6.981c1.063-.08,2.247-1.414,2.808-2.136,1.3,6.369,3.169,13.661,6.76,19.177.221,8.6-.14,17.532-2.437,19.287-4.654,3.561-28.746,13.48-40.511,16.218s-38.053,8.756-41.6,42.978,3.831,29.568,0,57.892C58,283.265,56.8,293.254,54.274,302.833A42.9,42.9,0,0,0,55.307,327.4c1.013,3.079,2.738,6.128,5.466,7.863,9.94,6.309,27.111,3.53,35.837,3.5,3.049-.01,2.156-1.645,4.122-3.972,1.866-2.207,1.625-5.456,1.224-8.325q-1.309-9.358-3.4-18.565c-.682-3.009-1.876-6.118-2.287-9.167-.4-2.9.371-6.158.682-9.087.782-7.292.863-15.145,2.467-22.3,2.648.522,4.935,9.709,5.8,12.136a122.288,122.288,0,0,1,4.423,15.376c2.387,11.163,3.009,22.808.732,34.051-8.285,40.932-5.7,29.016-8.285,40.932-2.859,13.139-5.747,26.027-7.041,39.467-2.9,30.019-5.155,60.42-.391,90.138,1.735,10.842,8.044,73.6,7.643,75.765-1.484,8.174-6.319,25.275-8.174,34.944s-.913,24.162-.171,50.55,4.092,46.839,5.205,61.333c.953,12.447-.873,44.252-1.4,53.018a17.219,17.219,0,0,1-.873,4.5,85.232,85.232,0,0,1-4.794,11.625c-3.621,6.951-11.966,20.03-14.744,22.818s-7.272,9.5-3.059,11.4c1.474.672,2.227.03,2.227.03-.552,2.187.411,4.5,1.735,5.145a5.189,5.189,0,0,0,2.437.381c.12,1.705,2.086,4.9,6.259,3.751,0,0,1.053,3.731,4.293,3.892a7.126,7.126,0,0,0,3.119-.381c.913-.361,1.916-1.414,3.019-4,0,0-.822,3.34,3.28,4.945s8.977-.281,11.474-5.567,2.227-6.259,4.313-10.852,1.113-16.549,2.638-21.424,5.978-6.539,6.4-10.571a55.3,55.3,0,0,0-.221-11.414c.1-.03.291-18.194.291-18.194l.522-8.1a303.456,303.456,0,0,1,4.714-37.341c3.952-20.712,9.448-55.014,11.113-75.826,2.227-27.873,4.834-51.293,6.319-55.756q.105-.3.271-.843a267.517,267.517,0,0,0,11.484-52.456c.632-5.627,1.224-11.845,1.685-18.525,2.026-29.317,1.1-45.265,6.349-46.037,5.246.762,4.323,16.72,6.349,46.037.461,6.68,1.053,12.9,1.685,18.525a267.516,267.516,0,0,0,11.484,52.456c.11.351.211.642.271.843,1.484,4.463,4.092,27.873,6.319,55.756,1.665,20.8,7.161,55.114,11.113,75.826a303.455,303.455,0,0,1,4.714,37.341l.522,8.1s.191,18.164.291,18.194a55.294,55.294,0,0,0-.221,11.414c.421,4.032,4.864,5.707,6.4,10.571s.552,16.83,2.638,21.424,1.805,5.567,4.313,10.852,7.372,7.161,11.474,5.567,3.28-4.945,3.28-4.945c1.093,2.588,2.106,3.631,3.019,4a7.126,7.126,0,0,0,3.119.381c3.23-.17,4.293-3.892,4.293-3.892,4.172,1.143,6.138-2.056,6.259-3.751a5.2,5.2,0,0,0,2.437-.381c1.324-.642,2.3-2.959,1.735-5.145,0,0,.752.632,2.227-.03,4.213-1.916-.281-8.626-3.059-11.4s-11.133-15.857-14.744-22.818a85.231,85.231,0,0,1-4.794-11.625,17.64,17.64,0,0,1-.873-4.5c-.542-8.756-2.367-40.571-1.4-53.018,1.113-14.493,4.463-34.944,5.205-61.333s1.685-40.892-.171-50.55-6.69-26.76-8.174-34.944c-.391-2.176,5.908-64.933,7.643-75.766,4.764-29.718,2.507-60.119-.391-90.138-1.294-13.44-4.182-26.328-7.041-39.467-2.588-11.915,0,0-8.285-40.932-4.714-23.3,3.149-46.92,10.812-62.957,5.055,17.853,12.076,34.533,12.878,41.193,1.234,10.261-1.645,18.475,6.57,42.3,6.379,18.5,16.218,48.875,20.3,61.523l-.15.02s2.116,5.877,3.149,10.371,2.427,18.234,3.39,24.954,3.26,13.6,4.915,21.083c1.023,4.614,2.447,11.153,3.882,13.631,1.254,2.166,2.528,2.528,3.992,2.347,2.327-.281,2.487-3.771,1.575-8.706-.722-3.892-2.929-11.675-3.039-14.523-.05-1.314.712.411,1.173,2.166,1.2,4.614,3.2,14.423,4.523,19.819,1.294,5.266,3.26,10.24,5.466,10.892a3.19,3.19,0,0,0,4.323-3.23c0-3-2.066-7.843-2.949-11.564-1.585-6.66-4.273-20.7-4.273-20.7s4.162,16.75,5.577,22.838c.14.592,2.006,6.66,3.51,10.3,1.494,3.6,4.162,6.008,6.409,4.122,4.273-3.6-.732-13.139-2.668-20.6s-4.564-19.789-4.564-19.789,4.764,14.6,7.091,22.778,5.667,12.277,8.024,9.1,1.194-8.917.14-12.026-2.658-9.217-4.313-14.3-5.827-20.16-3.851-20.762,7.282,9.578,15.306,11.394,9.177-4.413,5.657-6.87Z" transform="translate(-108.164 -33.601)" fill="#f4d7c9"/>
        <g transform="matrix(1, 0, 0, 1, -108.32, -92.28)" filter="url(#Tracé_39085)">
          <path id="Tracé_39085-2" data-name="Tracé 39085" d="M222.161,305.176c3.982-3.48,7.552-7.452,12.317-9.739,10.622-5.085,14.192-8.6,17.422-11.424s9.007-.211,5.306,7.141-14.844,10.06-14.734,12.126,15.747,1.635,21.083,1.244,11.645-.481,14.924-.762,9.117-.03,11.635,3.019-2.267,5.316-10.762,5.607-23.811,1.414-23.811,1.414,12.587.4,20.3.311,18.174-2.668,20.641,2.347c1.294,2.638-1.675,4.644-5.536,5.236-3.9.592-10.24.953-10.842.943-6.249-.09-23.51-.06-23.51-.06s14.272.752,21.123.822c3.821.03,9.027-.812,11.936-.09a3.191,3.191,0,0,1,2.1,4.975c-1.173,1.986-6.459,2.7-11.885,2.688-5.557,0-15.556-.421-20.331-.361-1.805.02-3.671.351-2.387.622,2.788.572,10.872.291,14.824.532,5,.3,8.355,1.294,8.074,3.621-.181,1.464-.842,2.618-3.24,3.31-2.758.8-9.438.612-14.172.5-7.663-.181-14.894.4-21.644-.281s-20.421-2.618-25.035-2.688-66.317,2.558-73.449,2.658c-14.122.2-34.844.1-48.946-.431-4.885-.181-3.6-.712-6.941-4.684-5.376-6.409-1.464-18.876,1.123-25.817.993-2.668,3.831-8.355,7.171-8.345,1.434,0,47.5,3.47,51.563,4.152,8.174,1.354,68.9,7.362,75.685,1.434Z" transform="translate(0.25 59.39)" fill="#fff"/>
        </g>
        <path id="Tracé_39086" data-name="Tracé 39086" d="M151.87,271.234c4.233-2.116,6.018-6.971,6.229-11.434s-.752-8.957-.291-13.41c.572-5.476,3.28-10.652,3.46-16.158.231-7.151-3.841-13.9-4.132-21.053-.171-4.253.9-8.876-1.494-12.5-2.648-4-8.927-4.965-13.46-2.889-3.21,1.474-5.617,4.1-7.783,6.75a99.8,99.8,0,0,0-22.647,67.942c.12,2.2.522,4.734,2.548,5.867a7.214,7.214,0,0,0,4.112.542c6.279-.562,12.307-2.949,18.615-2.939,5.025.01,10.421,1.494,14.844-.722Z" transform="translate(-107.989 -33.165)" fill="#cea2ed"/>
        <path id="Tracé_39087" data-name="Tracé 39087" d="M160.414,235.539a13.5,13.5,0,0,0,.6-2.889,37.7,37.7,0,0,0-5.526,9.037c-1.033,2.7-1.645,5.526-2.808,8.174a23.1,23.1,0,0,1-8.977,10.23,49.562,49.562,0,0,1-8.475,3.892q-4.935,1.911-9.879,3.821a38.485,38.485,0,0,1-8.485,2.548,19.251,19.251,0,0,0-4.684.993,4.64,4.64,0,0,0,2.106,2.889,7.214,7.214,0,0,0,4.112.542c6.279-.562,12.307-2.949,18.615-2.939,5.025.01,10.421,1.494,14.844-.722,4.233-2.116,6.018-6.971,6.229-11.434s-.752-8.957-.291-13.41c.381-3.651,1.705-7.161,2.608-10.732Z" transform="translate(-107.988 -33.046)" fill="#cea2ed"/>
        <path id="Tracé_39088" data-name="Tracé 39088" d="M194.846,226.715a13.813,13.813,0,0,0-2.176-5.145,9.611,9.611,0,0,0-1.314-1.394,9.694,9.694,0,0,1-2.788-5.236,9.463,9.463,0,0,0-.291-1.043,4.055,4.055,0,0,0-.7-1.354,2.981,2.981,0,0,0-2.337-.983,9.878,9.878,0,0,1-3.26-1.073,3.253,3.253,0,0,0-1.173-1.655,3.937,3.937,0,0,0-1.565-.542,10.969,10.969,0,0,0-7.512,1.224,29.482,29.482,0,0,0-3.992,2.628c-1.374,1.173-1.685,2.477-2.507,4.032-.662,1.234-1.514,2.337-2.257,3.52-1.324,2.1.712,6.66,1.224,9.127a5.079,5.079,0,0,0,2.056,3.4c.481.291,1.023.461,1.494.772,1.665,1.143,1.625,3.651,2.718,5.366a6.364,6.364,0,0,0,4.082,2.538c1.595.361,3.23.381,4.834.652,2.3.391,4.483,1.3,6.78,1.705s4.854.191,6.58-1.384a7.479,7.479,0,0,0,1.615-2.307c1.856-3.922,1.555-8.586.512-12.838Z" transform="translate(-107.837 -33.119)" fill="#bf86e8"/>
        <path id="Tracé_39089" data-name="Tracé 39089" d="M181.488,209.544a2.636,2.636,0,0,0-.7-.712,3.937,3.937,0,0,0-1.565-.542,10.969,10.969,0,0,0-7.512,1.224,8.587,8.587,0,0,0-2.889,2.9c2.969,1.264,6.479,3.761,9.669,1.073a11.249,11.249,0,0,1,2.578-1.515,8.846,8.846,0,0,1,.431-2.427Z" transform="translate(-107.818 -33.119)" fill="#bf86e8"/>
        <path id="Tracé_39090" data-name="Tracé 39090" d="M181.334,212.277a4.147,4.147,0,0,1-2.879,4.373c-1.685.391-4.794-.873-5.2-2.608s1.916-3.7,3.6-4.092,4.062.582,4.473,2.327Z" transform="translate(-107.805 -33.114)" fill="#bf86e8"/>
        <path id="Tracé_39091" data-name="Tracé 39091" d="M181.566,206.887s-6.7-8.064-10.8-5.286-6.4,6.249-2.949,15.466l2.417,1.274a33.759,33.759,0,0,1,3.681-3.179s-4.373-5.6,1.083-6.74c.622-.13,2.638-.281,3.611.441l2.959-1.966Z" transform="translate(-107.826 -33.14)" fill="#bf86e8"/>
        <path id="Tracé_39092" data-name="Tracé 39092" d="M183.768,271.234c-4.233-2.116-6.018-6.971-6.229-11.434s.752-8.957.291-13.41c-.572-5.476-3.28-10.652-3.46-16.158-.231-7.151,3.841-13.9,4.132-21.053.171-4.253-.9-8.876,1.494-12.5,2.648-4,8.927-4.965,13.46-2.889,3.21,1.474,5.617,4.1,7.783,6.75a99.8,99.8,0,0,1,22.647,67.942c-.12,2.2-.522,4.734-2.548,5.867a7.214,7.214,0,0,1-4.112.542c-6.279-.562-12.307-2.949-18.615-2.939-5.025.01-10.421,1.494-14.844-.722Z" transform="translate(-107.802 -33.165)" fill="#cea2ed"/>
        <path id="Tracé_39093" data-name="Tracé 39093" d="M175.222,235.539a13.5,13.5,0,0,1-.6-2.889,37.7,37.7,0,0,1,5.526,9.037c1.033,2.7,1.645,5.526,2.808,8.174a23.1,23.1,0,0,0,8.977,10.23,49.212,49.212,0,0,0,8.475,3.892q4.935,1.911,9.879,3.821a38.485,38.485,0,0,0,8.485,2.548,19.251,19.251,0,0,1,4.684.993,4.64,4.64,0,0,1-2.106,2.889,7.214,7.214,0,0,1-4.112.542c-6.279-.562-12.307-2.949-18.615-2.939-5.025.01-10.421,1.494-14.844-.722-4.233-2.116-6.018-6.971-6.229-11.434s.752-8.957.291-13.41c-.381-3.651-1.705-7.161-2.608-10.732Z" transform="translate(-107.801 -33.046)" fill="#cea2ed"/>
        <path id="Tracé_39094" data-name="Tracé 39094" d="M81.372,305.411c-2.447-17.582-4.9-35.375-3.009-53.028s4.343-39.016,17.994-50.37c17.081-14.212,43.991-15.055,61.393-40.671,12.447-18.314,9.458-45.917,8.134-64.642.712,12.136-2.317,42.456-7.683,55.425s-12.547,22.266-25.325,28.084c-17.462,7.954-33.47,10.421-45.987,21.7-8.686,7.823-13.7,19.107-15.386,30.681s-.552,23.349.582,34.984" transform="translate(-108.111 -33.452)" fill="none" stroke="#a1a6b7" stroke-miterlimit="10" stroke-width="1"/>
        <path id="Tracé_39095" data-name="Tracé 39095" d="M86.68,285.921c.251-4.483.512-8.967.822-13.45.311-4.4-1.173-31.113.491-40,2.267-12.046,7.181-21.634,16.128-30.009,7.743-7.242,39.187-13.129,55.054-35.445,12.788-17.973,9.839-63.609,9.217-69.647" transform="translate(-108.064 -33.45)" fill="none" stroke="#a1a6b7" stroke-miterlimit="10" stroke-width="1"/>
        <path id="Tracé_39096" data-name="Tracé 39096" d="M174.452,96.83c-3.952,27.552,10.06,71.834,33.991,86.046,10.311,6.118,22.036,9.548,32.336,15.677,22.206,13.209,36.027,39.377,34.422,65.164" transform="translate(-107.804 -33.451)" fill="none" stroke="#a1a6b7" stroke-miterlimit="10" stroke-width="1"/>
        <path id="Tracé_39097" data-name="Tracé 39097" d="M171.122,94.22c-4.393,36.9,9.7,80.67,45.245,98.8,43.108,22,48.344,51.042,52.175,64.973s5,28.425,6.158,42.827" transform="translate(-107.814 -33.459)" fill="none" stroke="#a1a6b7" stroke-miterlimit="10" stroke-width="1"/>
        <path id="Tracé_39098" data-name="Tracé 39098" d="M169.24,99.01c1.7,64.251,3.39,143.5,5.1,207.738.572,21.574-.873,41.213-.9,62.8" transform="translate(-107.817 -33.445)" fill="none" stroke="#a1a6b7" stroke-miterlimit="10" stroke-width="1"/>
        <path id="Tracé_39099" data-name="Tracé 39099" d="M169.806,97.78c-1.7,64.251-3.39,143.5-5.1,207.738-.572,21.574.873,41.213.9,62.8" transform="translate(-107.831 -33.449)" fill="none" stroke="#a1a6b7" stroke-miterlimit="10" stroke-width="1"/>
        <path id="Tracé_39100" data-name="Tracé 39100" d="M167.824,60.15c.07-3.29-2.287-6.479-5.687-6.67-6.69-.371-8.375,3.872-8.686,6.359-1.384-1.344-6.66-.822-7.663,4.273a16.928,16.928,0,0,0,.221,5.767,5.676,5.676,0,0,0-3.5,9.729,5.476,5.476,0,0,0,0,9.508c-3.37,1.735-2.176,6.339.09,7.452a10.265,10.265,0,0,0,5.015.762c.411,1.4,3.039,2.889,4.483,3.109,4.132.622,5.145-1.284,7.422.171,2.467,1.585,6.66,1.284,8.3-.9" transform="translate(-107.905 -33.581)" fill="#ccc"/>
        <path id="Tracé_39101" data-name="Tracé 39101" d="M167.74,60.15c-.07-3.29,2.287-6.479,5.687-6.67,6.69-.371,8.375,3.872,8.686,6.359,1.384-1.344,6.66-.822,7.663,4.273a16.928,16.928,0,0,1-.221,5.767,5.676,5.676,0,0,1,3.5,9.729,5.476,5.476,0,0,1,0,9.508c3.37,1.735,2.176,6.339-.09,7.452a10.265,10.265,0,0,1-5.015.762c-.411,1.4-3.039,2.889-4.483,3.109-4.132.622-5.145-1.284-7.422.171-2.467,1.585-6.66,1.284-8.3-.9" transform="translate(-107.822 -33.581)" fill="#ccc"/>
        <path id="Tracé_39102" data-name="Tracé 39102" d="M171.13,175.2a103.957,103.957,0,0,0,25.1,50.661" transform="translate(-107.812 -33.217)" fill="none" stroke="#a1a6b7" stroke-miterlimit="10" stroke-width="1"/>
        <path id="Tracé_39103" data-name="Tracé 39103" d="M171.86,206.28a102.153,102.153,0,0,0,27.462,42.908" transform="translate(-107.809 -33.125)" fill="none" stroke="#a1a6b7" stroke-miterlimit="10" stroke-width="1"/>
        <path id="Tracé_39104" data-name="Tracé 39104" d="M172.79,245.05a76.094,76.094,0,0,0,25.747,26.559" transform="translate(-107.807 -33.009)" fill="none" stroke="#a1a6b7" stroke-miterlimit="10" stroke-width="1"/>
        <path id="Tracé_39105" data-name="Tracé 39105" d="M167.993,173.96c-1.484,20.391-13.4,41.373-31.173,51.323" transform="translate(-107.914 -33.221)" fill="none" stroke="#a1a6b7" stroke-miterlimit="10" stroke-width="1"/>
        <path id="Tracé_39106" data-name="Tracé 39106" d="M167.312,203.9a77.737,77.737,0,0,1-40.972,51.694" transform="translate(-107.945 -33.132)" fill="none" stroke="#a1a6b7" stroke-miterlimit="10" stroke-width="1"/>
        <path id="Tracé_39107" data-name="Tracé 39107" d="M166.52,235.26a45.05,45.05,0,0,1-26.87,32.968" transform="translate(-107.906 -33.038)" fill="none" stroke="#a1a6b7" stroke-miterlimit="10" stroke-width="1"/>
        <path id="Tracé_39108" data-name="Tracé 39108" d="M165.66,272.72c-1.565,18.325-16,46.528-43.52,51.473" transform="translate(-107.958 -32.926)" fill="none" stroke="#a1a6b7" stroke-miterlimit="10" stroke-width="1"/>
        <path id="Tracé_39109" data-name="Tracé 39109" d="M173.43,271.38c1.665,18.515,17.713,45.295,40.531,49.527" transform="translate(-107.805 -32.93)" fill="none" stroke="#a1a6b7" stroke-miterlimit="10" stroke-width="1"/>
      </g>
      <circle id="Ellipse_1849" data-name="Ellipse 1849" cx="1.966" cy="1.966" r="1.966" transform="translate(173.607 63.198)" fill="#9d45db"/>
      <circle id="Ellipse_1850" data-name="Ellipse 1850" cx="1.966" cy="1.966" r="1.966" transform="translate(160.287 63.198)" fill="#9d45db"/>
      <circle id="Ellipse_1851" data-name="Ellipse 1851" cx="1.966" cy="1.966" r="1.966" transform="translate(151.772 71.362)" fill="#9d45db"/>
      <circle id="Ellipse_1852" data-name="Ellipse 1852" cx="1.966" cy="1.966" r="1.966" transform="translate(145.463 83.529)" fill="#9d45db"/>
      <circle id="Ellipse_1853" data-name="Ellipse 1853" cx="1.966" cy="1.966" r="1.966" transform="translate(156.345 92.154)" fill="#9d45db"/>
      <circle id="Ellipse_1854" data-name="Ellipse 1854" cx="1.966" cy="1.966" r="1.966" transform="translate(165.573 69.397)" fill="#9d45db"/>
      <circle id="Ellipse_1855" data-name="Ellipse 1855" cx="1.966" cy="1.966" r="1.966" transform="translate(181.901 71.362)" fill="#9d45db"/>
      <circle id="Ellipse_1856" data-name="Ellipse 1856" cx="1.966" cy="1.966" r="1.966" transform="translate(185.342 78.995)" fill="#9d45db"/>
      <circle id="Ellipse_1857" data-name="Ellipse 1857" cx="1.966" cy="1.966" r="1.966" transform="translate(179.173 90.188)" fill="#9d45db"/>
      <circle id="Ellipse_1858" data-name="Ellipse 1858" cx="1.966" cy="1.966" r="1.966" transform="translate(173.607 75.735)" fill="#9d45db"/>
      <circle id="Ellipse_1859" data-name="Ellipse 1859" cx="1.966" cy="1.966" r="1.966" transform="translate(167.037 84.812)" fill="#9d45db"/>
      <circle id="Ellipse_1860" data-name="Ellipse 1860" cx="1.966" cy="1.966" r="1.966" transform="translate(158.321 78.995)" fill="#9d45db"/>
      <path id="Tracé_39110" data-name="Tracé 39110" d="M114.42,86.695V68.29l9.2,9.207Z" transform="translate(0.342 0.204)"/>
      <rect id="Rectangle_4132" data-name="Rectangle 4132" width="9.478" height="7.633" transform="translate(106.377 73.88)"/>
      <path id="Tracé_39111" data-name="Tracé 39111" d="M221,86.695V68.29L211.79,77.5Z" transform="translate(0.632 0.204)"/>
      <rect id="Rectangle_4133" data-name="Rectangle 4133" width="9.478" height="7.633" transform="translate(230.005 81.513) rotate(180)"/>
    </g>
    <path id="Rectangle_2970" data-name="Rectangle 2970" d="M5,0H168a0,0,0,0,1,0,0V68a0,0,0,0,1,0,0H0a0,0,0,0,1,0,0V5A5,5,0,0,1,5,0Z" transform="translate(0 719)" fill="#f52850"/>
    <path id="Rectangle_3870" data-name="Rectangle 3870" d="M0,0H163a5,5,0,0,1,5,5V68a0,0,0,0,1,0,0H0a0,0,0,0,1,0,0V0A0,0,0,0,1,0,0Z" transform="translate(168 719)" fill="#0071bc"/>
    <path id="Tracé_39112" data-name="Tracé 39112" d="M-25.4.256a5.172,5.172,0,0,0,5.248-5.408A5.123,5.123,0,0,0-25.4-10.576a5.167,5.167,0,0,0-5.248,5.424A5.127,5.127,0,0,0-25.4.256Zm0-1.7c-2,0-3.3-1.52-3.3-3.712,0-2.24,1.3-3.728,3.3-3.728s3.3,1.488,3.3,3.728C-22.1-2.96-23.4-1.44-25.4-1.44Zm10-6.352A5,5,0,0,0-18.6-6.7V0a4.394,4.394,0,0,0,.912.08A4.3,4.3,0,0,0-16.776,0V-5.824a2.942,2.942,0,0,1,1.424-.3,4.546,4.546,0,0,1,1.152.144,2.6,2.6,0,0,0,.48-1.568A4.838,4.838,0,0,0-15.4-7.792Zm3.7-.928a1.157,1.157,0,0,0,1.152-1.152A1.157,1.157,0,0,0-11.7-11.024a1.165,1.165,0,0,0-1.184,1.152A1.165,1.165,0,0,0-11.7-8.72Zm0,8.8a4.151,4.151,0,0,0,.9-.08V-7.568a4.243,4.243,0,0,0-.9-.08,4.394,4.394,0,0,0-.912.08V0A4.491,4.491,0,0,0-11.7.08Zm6.592-7.888A3.9,3.9,0,0,0-9.256-3.872a3.681,3.681,0,0,0,4,3.712,3.857,3.857,0,0,0,1.568-.3v.352C-3.688.912-4.3,1.68-5.72,1.68A2.981,2.981,0,0,1-8.12.64,1.716,1.716,0,0,0-9.176,1.824a4.6,4.6,0,0,0,3.52,1.36c2.208,0,3.792-1.312,3.792-3.5V-6.768A5.462,5.462,0,0,0-5.112-7.808ZM-5.1-1.664A2.154,2.154,0,0,1-7.416-3.9,2.217,2.217,0,0,1-5.1-6.224a2.907,2.907,0,0,1,1.408.336v3.872A2.683,2.683,0,0,1-5.1-1.664ZM1.016-8.72A1.157,1.157,0,0,0,2.168-9.872a1.157,1.157,0,0,0-1.152-1.152A1.165,1.165,0,0,0-.168-9.872,1.165,1.165,0,0,0,1.016-8.72Zm0,8.8a4.151,4.151,0,0,0,.9-.08V-7.568a4.243,4.243,0,0,0-.9-.08,4.394,4.394,0,0,0-.912.08V0A4.491,4.491,0,0,0,1.016.08Zm6.5-7.888a5.9,5.9,0,0,0-3.632,1.2V0a4.338,4.338,0,0,0,.9.08A4.3,4.3,0,0,0,5.688,0V-5.728a3.485,3.485,0,0,1,1.68-.416c1.168,0,1.84.528,1.84,1.92V0a4.491,4.491,0,0,0,.912.08A4.491,4.491,0,0,0,11.032,0V-4.656C11.032-6.4,9.96-7.808,7.512-7.808Zm12.256,3.44A3.3,3.3,0,0,0,16.3-7.792a3.828,3.828,0,0,0-3.808,4.048A3.717,3.717,0,0,0,16.392.24,4.852,4.852,0,0,0,19.544-.832a1.873,1.873,0,0,0-.784-1.232,3.552,3.552,0,0,1-2.24.784A2.064,2.064,0,0,1,14.344-3.3H19.7A8.193,8.193,0,0,0,19.768-4.368ZM14.36-4.5A1.91,1.91,0,0,1,16.3-6.32a1.656,1.656,0,0,1,1.7,1.824ZM23.928.256c2.08,0,3.3-.96,3.3-2.544,0-1.5-1.2-2.064-2.848-2.32-1.3-.208-1.632-.448-1.632-.944,0-.48.416-.784,1.376-.784a4.537,4.537,0,0,1,2.224.576,1.946,1.946,0,0,0,.688-1.3,5.06,5.06,0,0,0-2.848-.736c-1.92,0-3.184.96-3.184,2.368,0,1.6,1.28,2.1,2.624,2.3,1.36.208,1.792.5,1.792,1.008s-.384.912-1.456.912a3.667,3.667,0,0,1-2.336-.752A2.005,2.005,0,0,0,20.792-.7,4.805,4.805,0,0,0,23.928.256Zm-64.36,9.152a4.151,4.151,0,0,0-.9.08v2.976a4.181,4.181,0,0,0-1.536-.24,3.935,3.935,0,0,0-4.128,4.048c0,2.56,1.7,3.968,4.192,3.968a7.518,7.518,0,0,0,3.28-.752v-10A4.491,4.491,0,0,0-40.432,9.408Zm-2.4,9.248a2.227,2.227,0,0,1-2.32-2.416A2.277,2.277,0,0,1-42.8,13.824a2.672,2.672,0,0,1,1.472.336v4.256A3.958,3.958,0,0,1-42.832,18.656Zm8.816,1.584a3.9,3.9,0,0,0,4.048-4.016,3.844,3.844,0,0,0-3.984-4.032A3.9,3.9,0,0,0-38,16.224,3.831,3.831,0,0,0-34.016,20.24Zm.032-1.584a2.178,2.178,0,0,1-2.192-2.432,2.2,2.2,0,0,1,2.192-2.464,2.2,2.2,0,0,1,2.192,2.464A2.178,2.178,0,0,1-33.984,18.656Zm11.6-6.256a4.491,4.491,0,0,0-.912.08v5.856a3.948,3.948,0,0,1-1.552.288c-1.52,0-1.84-.688-1.84-1.92V12.48a4.243,4.243,0,0,0-.9-.08,4.646,4.646,0,0,0-.928.08v4.752c0,1.84,1.056,3.008,3.424,3.008a8.106,8.106,0,0,0,3.616-.8V12.48A4.394,4.394,0,0,0-22.384,12.4Zm3.808,7.68a4.3,4.3,0,0,0,.912-.08V9.5a4.547,4.547,0,0,0-.928-.08,4.151,4.151,0,0,0-.9.08V20A4.59,4.59,0,0,0-18.576,20.08Zm6.464.16a3.9,3.9,0,0,0,4.048-4.016,3.844,3.844,0,0,0-3.984-4.032A3.9,3.9,0,0,0-16.1,16.224,3.831,3.831,0,0,0-12.112,20.24Zm.032-1.584a2.178,2.178,0,0,1-2.192-2.432A2.2,2.2,0,0,1-12.08,13.76a2.2,2.2,0,0,1,2.192,2.464A2.178,2.178,0,0,1-12.08,18.656ZM-.48,12.4a4.491,4.491,0,0,0-.912.08v5.856a3.948,3.948,0,0,1-1.552.288c-1.52,0-1.84-.688-1.84-1.92V12.48a4.243,4.243,0,0,0-.9-.08,4.646,4.646,0,0,0-.928.08v4.752c0,1.84,1.056,3.008,3.424,3.008a8.106,8.106,0,0,0,3.616-.8V12.48A4.394,4.394,0,0,0-.48,12.4Zm6.032-.192a5,5,0,0,0-3.2,1.088V20a4.394,4.394,0,0,0,.912.08A4.3,4.3,0,0,0,4.176,20V14.176a2.942,2.942,0,0,1,1.424-.3,4.546,4.546,0,0,1,1.152.144,2.6,2.6,0,0,0,.48-1.568A4.838,4.838,0,0,0,5.552,12.208Zm9.3,3.424a3.3,3.3,0,0,0-3.472-3.424,3.828,3.828,0,0,0-3.808,4.048,3.717,3.717,0,0,0,3.9,3.984,4.852,4.852,0,0,0,3.152-1.072,1.873,1.873,0,0,0-.784-1.232,3.552,3.552,0,0,1-2.24.784A2.064,2.064,0,0,1,9.424,16.7h5.36A8.194,8.194,0,0,0,14.848,15.632ZM9.44,15.5a1.91,1.91,0,0,1,1.936-1.824,1.656,1.656,0,0,1,1.7,1.824Zm12.992-3.1a4.491,4.491,0,0,0-.912.08v5.856a3.948,3.948,0,0,1-1.552.288c-1.52,0-1.84-.688-1.84-1.92V12.48a4.243,4.243,0,0,0-.9-.08,4.646,4.646,0,0,0-.928.08v4.752c0,1.84,1.056,3.008,3.424,3.008a8.106,8.106,0,0,0,3.616-.8V12.48A4.394,4.394,0,0,0,22.432,12.4Zm5.488,7.856c2.08,0,3.3-.96,3.3-2.544,0-1.5-1.2-2.064-2.848-2.32-1.3-.208-1.632-.448-1.632-.944,0-.48.416-.784,1.376-.784a4.537,4.537,0,0,1,2.224.576,1.946,1.946,0,0,0,.688-1.3,5.06,5.06,0,0,0-2.848-.736c-1.92,0-3.184.96-3.184,2.368,0,1.6,1.28,2.1,2.624,2.3,1.36.208,1.792.5,1.792,1.008s-.384.912-1.456.912a3.667,3.667,0,0,1-2.336-.752,2.005,2.005,0,0,0-.832,1.248A4.805,4.805,0,0,0,27.92,20.256Zm11.648-4.624A3.3,3.3,0,0,0,36.1,12.208a3.828,3.828,0,0,0-3.808,4.048,3.717,3.717,0,0,0,3.9,3.984,4.852,4.852,0,0,0,3.152-1.072,1.873,1.873,0,0,0-.784-1.232,3.552,3.552,0,0,1-2.24.784A2.064,2.064,0,0,1,34.144,16.7H39.5A8.193,8.193,0,0,0,39.568,15.632ZM34.16,15.5A1.91,1.91,0,0,1,36.1,13.68a1.656,1.656,0,0,1,1.7,1.824Zm9.568,4.752c2.08,0,3.3-.96,3.3-2.544,0-1.5-1.2-2.064-2.848-2.32-1.3-.208-1.632-.448-1.632-.944,0-.48.416-.784,1.376-.784a4.537,4.537,0,0,1,2.224.576,1.946,1.946,0,0,0,.688-1.3,5.06,5.06,0,0,0-2.848-.736c-1.92,0-3.184.96-3.184,2.368,0,1.6,1.28,2.1,2.624,2.3,1.36.208,1.792.5,1.792,1.008s-.384.912-1.456.912a3.667,3.667,0,0,1-2.336-.752,2.005,2.005,0,0,0-.832,1.248A4.805,4.805,0,0,0,43.728,20.256Z" transform="translate(84 746)" fill="#fff"/>
    <path id="Tracé_39113" data-name="Tracé 39113" d="M-25.4.256a5.172,5.172,0,0,0,5.248-5.408A5.123,5.123,0,0,0-25.4-10.576a5.167,5.167,0,0,0-5.248,5.424A5.127,5.127,0,0,0-25.4.256Zm0-1.7c-2,0-3.3-1.52-3.3-3.712,0-2.24,1.3-3.728,3.3-3.728s3.3,1.488,3.3,3.728C-22.1-2.96-23.4-1.44-25.4-1.44Zm10-6.352A5,5,0,0,0-18.6-6.7V0a4.394,4.394,0,0,0,.912.08A4.3,4.3,0,0,0-16.776,0V-5.824a2.942,2.942,0,0,1,1.424-.3,4.546,4.546,0,0,1,1.152.144,2.6,2.6,0,0,0,.48-1.568A4.838,4.838,0,0,0-15.4-7.792Zm3.7-.928a1.157,1.157,0,0,0,1.152-1.152A1.157,1.157,0,0,0-11.7-11.024a1.165,1.165,0,0,0-1.184,1.152A1.165,1.165,0,0,0-11.7-8.72Zm0,8.8a4.151,4.151,0,0,0,.9-.08V-7.568a4.243,4.243,0,0,0-.9-.08,4.394,4.394,0,0,0-.912.08V0A4.491,4.491,0,0,0-11.7.08Zm6.592-7.888A3.9,3.9,0,0,0-9.256-3.872a3.681,3.681,0,0,0,4,3.712,3.857,3.857,0,0,0,1.568-.3v.352C-3.688.912-4.3,1.68-5.72,1.68A2.981,2.981,0,0,1-8.12.64,1.716,1.716,0,0,0-9.176,1.824a4.6,4.6,0,0,0,3.52,1.36c2.208,0,3.792-1.312,3.792-3.5V-6.768A5.462,5.462,0,0,0-5.112-7.808ZM-5.1-1.664A2.154,2.154,0,0,1-7.416-3.9,2.217,2.217,0,0,1-5.1-6.224a2.907,2.907,0,0,1,1.408.336v3.872A2.683,2.683,0,0,1-5.1-1.664ZM1.016-8.72A1.157,1.157,0,0,0,2.168-9.872a1.157,1.157,0,0,0-1.152-1.152A1.165,1.165,0,0,0-.168-9.872,1.165,1.165,0,0,0,1.016-8.72Zm0,8.8a4.151,4.151,0,0,0,.9-.08V-7.568a4.243,4.243,0,0,0-.9-.08,4.394,4.394,0,0,0-.912.08V0A4.491,4.491,0,0,0,1.016.08Zm6.5-7.888a5.9,5.9,0,0,0-3.632,1.2V0a4.338,4.338,0,0,0,.9.08A4.3,4.3,0,0,0,5.688,0V-5.728a3.485,3.485,0,0,1,1.68-.416c1.168,0,1.84.528,1.84,1.92V0a4.491,4.491,0,0,0,.912.08A4.491,4.491,0,0,0,11.032,0V-4.656C11.032-6.4,9.96-7.808,7.512-7.808Zm12.256,3.44A3.3,3.3,0,0,0,16.3-7.792a3.828,3.828,0,0,0-3.808,4.048A3.717,3.717,0,0,0,16.392.24,4.852,4.852,0,0,0,19.544-.832a1.873,1.873,0,0,0-.784-1.232,3.552,3.552,0,0,1-2.24.784A2.064,2.064,0,0,1,14.344-3.3H19.7A8.193,8.193,0,0,0,19.768-4.368ZM14.36-4.5A1.91,1.91,0,0,1,16.3-6.32a1.656,1.656,0,0,1,1.7,1.824ZM23.928.256c2.08,0,3.3-.96,3.3-2.544,0-1.5-1.2-2.064-2.848-2.32-1.3-.208-1.632-.448-1.632-.944,0-.48.416-.784,1.376-.784a4.537,4.537,0,0,1,2.224.576,1.946,1.946,0,0,0,.688-1.3,5.06,5.06,0,0,0-2.848-.736c-1.92,0-3.184.96-3.184,2.368,0,1.6,1.28,2.1,2.624,2.3,1.36.208,1.792.5,1.792,1.008s-.384.912-1.456.912a3.667,3.667,0,0,1-2.336-.752A2.005,2.005,0,0,0,20.792-.7,4.805,4.805,0,0,0,23.928.256ZM-55.016,9.648a4.231,4.231,0,0,0-.88.1v6.544l.032.72-.288-.512L-60.888,9.68a3.767,3.767,0,0,0-1.7.16V20a4.473,4.473,0,0,0,.88.1,4.381,4.381,0,0,0,.9-.1V13.344l-.032-.64.288.544,4.752,6.816a6.632,6.632,0,0,0,1.68-.144V9.744A4.265,4.265,0,0,0-55.016,9.648Zm6.624,10.592a3.9,3.9,0,0,0,4.048-4.016,3.844,3.844,0,0,0-3.984-4.032,3.9,3.9,0,0,0-4.048,4.032A3.831,3.831,0,0,0-48.392,20.24Zm.032-1.584a2.178,2.178,0,0,1-2.192-2.432A2.2,2.2,0,0,1-48.36,13.76a2.2,2.2,0,0,1,2.192,2.464A2.178,2.178,0,0,1-48.36,18.656Zm9.152-6.464a5.9,5.9,0,0,0-3.632,1.2V20a4.338,4.338,0,0,0,.9.08,4.3,4.3,0,0,0,.912-.08V14.272a3.485,3.485,0,0,1,1.68-.416c1.168,0,1.84.528,1.84,1.92V20a4.491,4.491,0,0,0,.912.08,4.491,4.491,0,0,0,.912-.08V15.344C-35.688,13.6-36.76,12.192-39.208,12.192Zm15.04-2.784a4.151,4.151,0,0,0-.9.08v2.976a4.181,4.181,0,0,0-1.536-.24,3.935,3.935,0,0,0-4.128,4.048c0,2.56,1.7,3.968,4.192,3.968a7.518,7.518,0,0,0,3.28-.752v-10A4.491,4.491,0,0,0-24.168,9.408Zm-2.4,9.248a2.227,2.227,0,0,1-2.32-2.416,2.277,2.277,0,0,1,2.352-2.416,2.672,2.672,0,0,1,1.472.336v4.256A3.958,3.958,0,0,1-26.568,18.656Zm8.816,1.584A3.9,3.9,0,0,0-13.7,16.224a3.844,3.844,0,0,0-3.984-4.032,3.9,3.9,0,0,0-4.048,4.032A3.831,3.831,0,0,0-17.752,20.24Zm.032-1.584a2.178,2.178,0,0,1-2.192-2.432A2.2,2.2,0,0,1-17.72,13.76a2.2,2.2,0,0,1,2.192,2.464A2.178,2.178,0,0,1-17.72,18.656ZM-6.12,12.4a4.491,4.491,0,0,0-.912.08v5.856a3.948,3.948,0,0,1-1.552.288c-1.52,0-1.84-.688-1.84-1.92V12.48a4.243,4.243,0,0,0-.9-.08,4.646,4.646,0,0,0-.928.08v4.752c0,1.84,1.056,3.008,3.424,3.008a8.106,8.106,0,0,0,3.616-.8V12.48A4.394,4.394,0,0,0-6.12,12.4Zm3.808,7.68A4.3,4.3,0,0,0-1.4,20V9.5a4.547,4.547,0,0,0-.928-.08,4.151,4.151,0,0,0-.9.08V20A4.59,4.59,0,0,0-2.312,20.08Zm6.464.16A3.9,3.9,0,0,0,8.2,16.224a3.844,3.844,0,0,0-3.984-4.032A3.9,3.9,0,0,0,.168,16.224,3.831,3.831,0,0,0,4.152,20.24Zm.032-1.584a2.178,2.178,0,0,1-2.192-2.432,2.207,2.207,0,1,1,4.384,0A2.178,2.178,0,0,1,4.184,18.656Zm11.6-6.256a4.491,4.491,0,0,0-.912.08v5.856a3.948,3.948,0,0,1-1.552.288c-1.52,0-1.84-.688-1.84-1.92V12.48a4.243,4.243,0,0,0-.9-.08,4.646,4.646,0,0,0-.928.08v4.752c0,1.84,1.056,3.008,3.424,3.008a8.106,8.106,0,0,0,3.616-.8V12.48A4.394,4.394,0,0,0,15.784,12.4Zm6.032-.192a5,5,0,0,0-3.2,1.088V20a4.394,4.394,0,0,0,.912.08A4.3,4.3,0,0,0,20.44,20V14.176a2.942,2.942,0,0,1,1.424-.3,4.546,4.546,0,0,1,1.152.144,2.6,2.6,0,0,0,.48-1.568A4.838,4.838,0,0,0,21.816,12.208Zm9.3,3.424a3.3,3.3,0,0,0-3.472-3.424,3.828,3.828,0,0,0-3.808,4.048,3.717,3.717,0,0,0,3.9,3.984,4.852,4.852,0,0,0,3.152-1.072,1.873,1.873,0,0,0-.784-1.232,3.552,3.552,0,0,1-2.24.784A2.064,2.064,0,0,1,25.688,16.7h5.36A8.194,8.194,0,0,0,31.112,15.632ZM25.7,15.5A1.91,1.91,0,0,1,27.64,13.68a1.656,1.656,0,0,1,1.7,1.824ZM38.7,12.4a4.491,4.491,0,0,0-.912.08v5.856a3.948,3.948,0,0,1-1.552.288c-1.52,0-1.84-.688-1.84-1.92V12.48a4.243,4.243,0,0,0-.9-.08,4.646,4.646,0,0,0-.928.08v4.752c0,1.84,1.056,3.008,3.424,3.008a8.106,8.106,0,0,0,3.616-.8V12.48A4.394,4.394,0,0,0,38.7,12.4Zm5.488,7.856c2.08,0,3.3-.96,3.3-2.544,0-1.5-1.2-2.064-2.848-2.32-1.3-.208-1.632-.448-1.632-.944,0-.48.416-.784,1.376-.784a4.537,4.537,0,0,1,2.224.576,1.946,1.946,0,0,0,.688-1.3,5.06,5.06,0,0,0-2.848-.736c-1.92,0-3.184.96-3.184,2.368,0,1.6,1.28,2.1,2.624,2.3,1.36.208,1.792.5,1.792,1.008s-.384.912-1.456.912a3.667,3.667,0,0,1-2.336-.752,2.005,2.005,0,0,0-.832,1.248A4.805,4.805,0,0,0,44.184,20.256Zm11.648-4.624a3.3,3.3,0,0,0-3.472-3.424,3.828,3.828,0,0,0-3.808,4.048,3.717,3.717,0,0,0,3.9,3.984,4.852,4.852,0,0,0,3.152-1.072,1.873,1.873,0,0,0-.784-1.232,3.552,3.552,0,0,1-2.24.784A2.064,2.064,0,0,1,50.408,16.7h5.36A8.193,8.193,0,0,0,55.832,15.632ZM50.424,15.5A1.91,1.91,0,0,1,52.36,13.68a1.656,1.656,0,0,1,1.7,1.824Zm9.568,4.752c2.08,0,3.3-.96,3.3-2.544,0-1.5-1.2-2.064-2.848-2.32-1.3-.208-1.632-.448-1.632-.944,0-.48.416-.784,1.376-.784a4.537,4.537,0,0,1,2.224.576,1.946,1.946,0,0,0,.688-1.3,5.06,5.06,0,0,0-2.848-.736c-1.92,0-3.184.96-3.184,2.368,0,1.6,1.28,2.1,2.624,2.3,1.36.208,1.792.5,1.792,1.008s-.384.912-1.456.912a3.667,3.667,0,0,1-2.336-.752,2.005,2.005,0,0,0-.832,1.248A4.805,4.805,0,0,0,59.992,20.256Z" transform="translate(252 746)" fill="#fff"/>
  </g>
</svg>
