<svg xmlns="http://www.w3.org/2000/svg" xmlns:xlink="http://www.w3.org/1999/xlink" width="336" height="210.64" viewBox="0 0 336 210.64">
  <defs>
    <clipPath id="clip-path">
      <rect id="Rectangle_4034" data-name="Rectangle 4034" width="119" height="119" rx="5" transform="translate(108 33.64)" fill="none"/>
    </clipPath>
  </defs>
  <g id="Groupe_5739" data-name="Groupe 5739" transform="translate(0 -719)">
    <g id="Calque_1-2" transform="translate(0 777)">
      <rect id="Rectangle_4033" data-name="Rectangle 4033" width="335" height="152.64" rx="3.96" fill="#ebf0f7"/>
      <path id="Tracé_37994" d="M302.99,50.11a35.11,35.11,0,0,0-21.31-9.78c-11.14-1.08-22.94.78-32.05,7.3-11.92,8.52-14.26,22.65-11.37,36.24,1.82,8.54,4.52,13.58,10.7,19.71,5.49,5.44,11.97,10.34,19.79,11.58,5.7.9,11.54-.23,17.07-1.9,9.74-2.94,18.18-7.41,23.35-16.5,8.69-15.3,6.44-34.44-6.19-46.64" fill="#66a9d7"/>
      <path id="Tracé_37994-2" d="M86.31,49.82A35.11,35.11,0,0,0,65,40.04c-11.14-1.08-22.94.78-32.05,7.3C21.03,55.86,18.69,69.99,21.58,83.58c1.82,8.54,4.52,13.58,10.7,19.71,5.49,5.44,11.97,10.34,19.79,11.58,5.7.9,11.54-.23,17.07-1.9,9.74-2.94,18.18-7.41,23.35-16.5,8.69-15.3,6.44-34.44-6.19-46.64" fill="#fa93a7"/>
      <g id="Groupe_5853" data-name="Groupe 5853">
        <path id="Tracé_38128" d="M294.13,70.66c-1.18-13.62-7.52-17.79-18.35-18.07-10.84.28-16.91,4.45-18.09,18.07-.6,6.95,1.7,17.08,3.99,22.45a8.833,8.833,0,0,0,3.88,4.63c.09.05-.76,8.03-.76,8.03h22.23s-.85-7.98-.76-8.03a8.916,8.916,0,0,0,3.88-4.63c2.29-5.38,4.59-15.5,3.99-22.46" fill="#f4d7c9"/>
        <path id="Tracé_38856" data-name="Tracé 38856" d="M270.66,88.13c2.11,2.01,8.87,1.84,10.49,0" fill="none" stroke="#4d4d4d" stroke-miterlimit="10" stroke-width="1"/>
        <path id="Tracé_38857" data-name="Tracé 38857" d="M273.66,74.53a4.717,4.717,0,0,1-8.88-.01" fill="none" stroke="#4d4d4d" stroke-miterlimit="10" stroke-width="0.88"/>
        <path id="Tracé_38858" data-name="Tracé 38858" d="M287.02,74.53a4.717,4.717,0,0,1-8.88-.01" fill="none" stroke="#4d4d4d" stroke-miterlimit="10" stroke-width="0.88"/>
        <path id="Tracé_38859" data-name="Tracé 38859" d="M304.58,55.81s-1.41,16.27-2.26,26.05a3.7,3.7,0,0,1-.54,1.65q-3.915,6.36-7.8,12.72a2.24,2.24,0,0,1-2.59,1.2,2.191,2.191,0,0,1-1.53-2.85,4.458,4.458,0,0,1,.41-.78q2.61-4.26,5.24-8.53a3.352,3.352,0,0,0,.51-1.53c.21-2.62.45-5.23.67-7.84a2.129,2.129,0,0,0-.03-.87.914.914,0,0,0-1.73-.15,2.166,2.166,0,0,0-.18.79c-.19,2.18-.38,4.35-.57,6.53a2.045,2.045,0,0,1-3.06,1.63,1.872,1.872,0,0,1-1.04-1.87c.12-1.51.26-3.01.39-4.52.17-2.01.33-4.02.53-6.02a10.6,10.6,0,0,1,3.13-6.5,9.008,9.008,0,0,1,1.07-.98,1.49,1.49,0,0,0,.6-1.13c.06-.84.14-1.67.22-2.51.24-2.8.44-5.1.44-5.1l8.11.61Z" fill="#e8bdaf" stroke="#e8bdaf" stroke-miterlimit="10" stroke-width="1"/>
        <path id="Tracé_38860" data-name="Tracé 38860" d="M246.96,55.81s1.41,16.27,2.26,26.05a3.7,3.7,0,0,0,.54,1.65q3.915,6.36,7.8,12.72a2.24,2.24,0,0,0,2.59,1.2,2.191,2.191,0,0,0,1.53-2.85,4.458,4.458,0,0,0-.41-.78q-2.61-4.26-5.24-8.53a3.352,3.352,0,0,1-.51-1.53c-.21-2.62-.45-5.23-.67-7.84a2.129,2.129,0,0,1,.03-.87.914.914,0,0,1,1.73-.15,2.166,2.166,0,0,1,.18.79c.19,2.18.38,4.35.57,6.53a2.045,2.045,0,0,0,3.06,1.63,1.872,1.872,0,0,0,1.04-1.87c-.12-1.51-.26-3.01-.39-4.52-.17-2.01-.33-4.02-.53-6.02a10.6,10.6,0,0,0-3.13-6.5,9.008,9.008,0,0,0-1.07-.98,1.49,1.49,0,0,1-.6-1.13c-.06-.84-.14-1.67-.22-2.51-.24-2.8-.44-5.1-.44-5.1l-8.11.61Z" fill="#e8bdaf" stroke="#e8bdaf" stroke-miterlimit="10" stroke-width="1"/>
      </g>
      <g id="Groupe_5854" data-name="Groupe 5854">
        <path id="Tracé_38861" data-name="Tracé 38861" d="M71.6,102.55c.62-.13,1.24-.25,1.86-.41a14.842,14.842,0,0,0,6.49-3.29,13.78,13.78,0,0,0,4.25-7.56,19.079,19.079,0,0,0,.38-5.59q-.765-10.35-1.51-20.71a3.049,3.049,0,0,0-1.36-2.45,2.693,2.693,0,0,0-3.86.85,3.764,3.764,0,0,0-.49,2.34c.24,3.44.5,6.89.75,10.33a2.021,2.021,0,0,1,0,.65,2.058,2.058,0,0,1-1.18.03,1.106,1.106,0,0,1-.11-.61q-.615-8.355-1.21-16.71a3.113,3.113,0,0,0-1.01-2.19,2.726,2.726,0,0,0-4.21.58,3.268,3.268,0,0,0-.47,2.01c.38,5.08.74,10.16,1.11,15.23.01.2.03.41.05.63-.43.2-.83.04-1.2.08a1.1,1.1,0,0,1-.16-.68q-.645-8.79-1.28-17.57a5.118,5.118,0,0,0-.4-1.85,2.762,2.762,0,0,0-3.84-1.37,2.943,2.943,0,0,0-1.55,2.72c0,.22.03.44.04.67q.645,8.955,1.3,17.9a2.141,2.141,0,0,1,0,.67,2.212,2.212,0,0,1-1.17,0,1.043,1.043,0,0,1-.13-.61q-.5-6.735-.98-13.47a3.38,3.38,0,0,0-1.07-2.38,2.719,2.719,0,0,0-4.36.87,3.649,3.649,0,0,0-.32,1.9q.78,10.575,1.54,21.14a1.9,1.9,0,0,1,0,.63,1.443,1.443,0,0,1-.77.12c-.23.02-.27-.19-.34-.34-.58-1.15-1.15-2.3-1.73-3.46-.67-1.34-1.34-2.67-2-4.01a2.863,2.863,0,0,0-2.43-1.76,2.6,2.6,0,0,0-2.52,1.32,3.155,3.155,0,0,0-.24,3.02c.8,1.89,1.64,3.76,2.47,5.64,1.63,3.69,3.25,7.4,4.91,11.08a11.815,11.815,0,0,0,4.62,5.27,10.672,10.672,0,0,0,4.13,1.37,20.047,20.047,0,0,0,3.37.25.538.538,0,0,1,.28.05l4.38-.32Z" fill="#f4d7c9"/>
        <path id="Tracé_38862" data-name="Tracé 38862" d="M19.27,92.52a3.056,3.056,0,0,0,.13-.43,3.636,3.636,0,0,1,.84-1.7c1.54-1.74,3.09-3.47,4.63-5.21.58-.65,1.17-1.3,1.75-1.96,1.4-1.57,2.79-3.15,4.19-4.72q3.225-3.615,6.46-7.24c1.56-1.75,4.68-5.24,4.68-5.24l3.07-3.6,5.46,4.53L47.13,71.1s-7.48,8.94-11.18,13.44c-3.02,3.67-6.09,7.29-9.11,10.95a4.4,4.4,0,0,1-2.45,1.59,4.041,4.041,0,0,1-3.74-.99,3.562,3.562,0,0,1-1.07-1.57,1.869,1.869,0,0,0-.17-.31l-.15-1.71Z" fill="#f52850"/>
        <path id="Tracé_38863" data-name="Tracé 38863" d="M55.77,66.43c-.63.05-1.27.08-1.9.17a2.076,2.076,0,0,1-1.75-.55c-2.12-1.72-4.2-3.49-6.3-5.22l-.35-.29a1.076,1.076,0,0,1-.16-1.67c.14-.17.28-.34.42-.5.65-.77,1.31-1.54,1.96-2.32a1.108,1.108,0,0,0,.31-.44.39.39,0,0,0-.07-.25,11.29,11.29,0,0,0-5.58-4.76c-.33-.13-.67-.21-1.01-.32a1.092,1.092,0,0,1-.91-1.06,1.139,1.139,0,0,1,.83-1.08,8.881,8.881,0,0,1,5.69-.27,18.542,18.542,0,0,1,5.96,2.9,38.342,38.342,0,0,1,4.56,3.67,12.483,12.483,0,0,1,3.35,5.1,1,1,0,0,0,.25.54.908.908,0,0,0,.49.02c.34-.02.67-.05,1.01-.09,1.91-.18,1.49-.11,2.78.87.98.74,1.9,1.57,2.84,2.35.06.05.13.11.19.17a1.118,1.118,0,0,1,.13,1.66c-.34.44-.7.86-1.07,1.28-1.77,1.99-3.45,4.06-5.18,6.07a4.021,4.021,0,0,1-.34.38,1.085,1.085,0,0,1-1.55.08c-1.29-1-2.53-2.07-3.79-3.11a1.438,1.438,0,0,1-.53-1.05L55.9,67a1.186,1.186,0,0,0-.14-.58Z" fill="#666"/>
      </g>
      <g id="Groupe_5855" data-name="Groupe 5855" clip-path="url(#clip-path)">
        <path id="Tracé_38864" data-name="Tracé 38864" d="M337.69,442.53c-3.5-2.45-7.75-5.07-15.22-14.13-4.47-5.42-10.66-9.22-17.18-11.72a15.68,15.68,0,0,1-3.47-1.62c-2.14-1.53-2.5-4.69-3.08-7.09-.58-2.37-1.03-4.77-1.67-7.12-1.29-4.74-2.45-12.28-2.45-24.89,0-29.88-6.14-55.67-9.42-62.63s-5.32-12.28-9.14-40.53,3.55-23.61,0-57.72-29.75-40.12-41.48-42.85-35.75-12.62-40.39-16.17c-2.29-1.75-2.65-10.65-2.43-19.23,3.58-5.5,5.44-12.77,6.74-19.12.56.72,1.74,2.05,2.8,2.13,1.46.11,3.59-4.49,4.27-6.96s1.57-10.9.56-14.04-3.37-.67-4.16.56a4.339,4.339,0,0,1-1.51,1.22c.22-4.16.43-8.32,1.03-12.45a48.875,48.875,0,0,0-2.11-23.82c-5.82-16.56-28.54-17.72-31.7-17.8-3.15.08-25.87,1.24-31.7,17.8a48.875,48.875,0,0,0-2.11,23.82c.6,4.13.81,8.29,1.03,12.45a4.339,4.339,0,0,1-1.51-1.22c-.79-1.24-3.15-3.71-4.16-.56s-.11,11.57.56,14.04,2.81,7.08,4.27,6.96c1.06-.08,2.24-1.41,2.8-2.13,1.3,6.35,3.16,13.62,6.74,19.12.22,8.57-.14,17.48-2.43,19.23-4.64,3.55-28.66,13.44-40.39,16.17s-37.94,8.73-41.48,42.85,3.82,29.48,0,57.72c-1.32,9.76-2.51,19.72-5.03,29.27a42.771,42.771,0,0,0,1.03,24.49c1.01,3.07,2.73,6.11,5.45,7.84,9.91,6.29,27.03,3.52,35.73,3.49,3.04-.01,2.15-1.64,4.11-3.96,1.86-2.2,1.62-5.44,1.22-8.3q-1.305-9.33-3.39-18.51c-.68-3-1.87-6.1-2.28-9.14-.4-2.89.37-6.14.68-9.06.78-7.27.86-15.1,2.46-22.23,2.64.52,4.92,9.68,5.78,12.1a121.926,121.926,0,0,1,4.41,15.33c2.38,11.13,3,22.74.73,33.95-8.26,40.81-5.68,28.93-8.26,40.81-2.85,13.1-5.73,25.95-7.02,39.35-2.89,29.93-5.14,60.24-.39,89.87,1.73,10.81,8.02,73.38,7.62,75.54-1.48,8.15-6.3,25.2-8.15,34.84s-.91,24.09-.17,50.4,4.08,46.7,5.19,61.15c.95,12.41-.87,44.12-1.4,52.86a17.169,17.169,0,0,1-.87,4.49,84.98,84.98,0,0,1-4.78,11.59c-3.61,6.93-11.93,19.97-14.7,22.75s-7.25,9.47-3.05,11.37c1.47.67,2.22.03,2.22.03-.55,2.18.41,4.49,1.73,5.13a5.173,5.173,0,0,0,2.43.38c.12,1.7,2.08,4.89,6.24,3.74,0,0,1.05,3.72,4.28,3.88a7.1,7.1,0,0,0,3.11-.38c.91-.36,1.91-1.41,3.01-3.99,0,0-.82,3.33,3.27,4.93s8.95-.28,11.44-5.55,2.22-6.24,4.3-10.82,1.11-16.5,2.63-21.36,5.96-6.52,6.38-10.54a55.139,55.139,0,0,0-.22-11.38c.1-.03.29-18.14.29-18.14l.52-8.08a302.553,302.553,0,0,1,4.7-37.23c3.94-20.65,9.42-54.85,11.08-75.6,2.22-27.79,4.82-51.14,6.3-55.59q.105-.3.27-.84a266.721,266.721,0,0,0,11.45-52.3c.63-5.61,1.22-11.81,1.68-18.47,2.02-29.23,1.1-45.13,6.33-45.9,5.23.76,4.31,16.67,6.33,45.9.46,6.66,1.05,12.86,1.68,18.47a266.72,266.72,0,0,0,11.45,52.3c.11.35.21.64.27.84,1.48,4.45,4.08,27.79,6.3,55.59,1.66,20.74,7.14,54.95,11.08,75.6a302.55,302.55,0,0,1,4.7,37.23l.52,8.08s.19,18.11.29,18.14a55.13,55.13,0,0,0-.22,11.38c.42,4.02,4.85,5.69,6.38,10.54s.55,16.78,2.63,21.36,1.8,5.55,4.3,10.82,7.35,7.14,11.44,5.55,3.27-4.93,3.27-4.93c1.09,2.58,2.1,3.62,3.01,3.99a7.1,7.1,0,0,0,3.11.38c3.22-.17,4.28-3.88,4.28-3.88,4.16,1.14,6.12-2.05,6.24-3.74a5.184,5.184,0,0,0,2.43-.38c1.32-.64,2.29-2.95,1.73-5.13,0,0,.75.63,2.22-.03,4.2-1.91-.28-8.6-3.05-11.37s-11.1-15.81-14.7-22.75a84.98,84.98,0,0,1-4.78-11.59,17.588,17.588,0,0,1-.87-4.49c-.54-8.73-2.36-40.45-1.4-52.86,1.11-14.45,4.45-34.84,5.19-61.15s1.68-40.77-.17-50.4-6.67-26.68-8.15-34.84c-.39-2.17,5.89-64.74,7.62-75.54,4.75-29.63,2.5-59.94-.39-89.87-1.29-13.4-4.17-26.25-7.02-39.35-2.58-11.88,0,0-8.26-40.81-4.7-23.23,3.14-46.78,10.78-62.77,5.04,17.8,12.04,34.43,12.84,41.07,1.23,10.23-1.64,18.42,6.55,42.17,6.36,18.44,16.17,48.73,20.24,61.34l-.15.02s2.11,5.86,3.14,10.34,2.42,18.18,3.38,24.88,3.25,13.56,4.9,21.02c1.02,4.6,2.44,11.12,3.87,13.59,1.25,2.16,2.52,2.52,3.98,2.34,2.32-.28,2.48-3.76,1.57-8.68-.72-3.88-2.92-11.64-3.03-14.48-.05-1.31.71.41,1.17,2.16,1.2,4.6,3.19,14.38,4.51,19.76,1.29,5.25,3.25,10.21,5.45,10.86a3.18,3.18,0,0,0,4.31-3.22c0-2.99-2.06-7.82-2.94-11.53-1.58-6.64-4.26-20.64-4.26-20.64s4.15,16.7,5.56,22.77c.14.59,2,6.64,3.5,10.27,1.49,3.59,4.15,5.99,6.39,4.11,4.26-3.59-.73-13.1-2.66-20.54s-4.55-19.73-4.55-19.73,4.75,14.56,7.07,22.71,5.65,12.24,8,9.07,1.19-8.89.14-11.99-2.65-9.19-4.3-14.26-5.81-20.1-3.84-20.7S324,447.56,332,449.37s9.15-4.4,5.64-6.85Z" fill="#f4d7c9"/>
        <path id="Tracé_38865" data-name="Tracé 38865" d="M81.34,304.79c-2.44-17.53-4.89-35.27-3-52.87s4.33-38.9,17.94-50.22c17.03-14.17,43.86-15.01,61.21-40.55,12.41-18.26,9.43-45.78,8.11-64.45.71,12.1-2.31,42.33-7.66,55.26s-12.51,22.2-25.25,28c-17.41,7.93-33.37,10.39-45.85,21.64-8.66,7.8-13.66,19.05-15.34,30.59s-.55,23.28.58,34.88" fill="none" stroke="#a1a6b7" stroke-miterlimit="10" stroke-width="1"/>
        <path id="Tracé_38866" data-name="Tracé 38866" d="M86.68,285.36c.25-4.47.51-8.94.82-13.41.31-4.39-1.17-31.02.49-39.88,2.26-12.01,7.16-21.57,16.08-29.92,7.72-7.22,39.07-13.09,54.89-35.34,12.75-17.92,9.81-63.42,9.19-69.44" fill="none" stroke="#a1a6b7" stroke-miterlimit="10" stroke-width="1"/>
        <path id="Tracé_38867" data-name="Tracé 38867" d="M174.45,96.83c-3.94,27.47,10.03,71.62,33.89,85.79,10.28,6.1,21.97,9.52,32.24,15.63,22.14,13.17,35.92,39.26,34.32,64.97" fill="none" stroke="#a1a6b7" stroke-miterlimit="10" stroke-width="1"/>
        <path id="Tracé_38868" data-name="Tracé 38868" d="M171.12,94.22c-4.38,36.79,9.67,80.43,45.11,98.51,42.98,21.93,48.2,50.89,52.02,64.78s4.99,28.34,6.14,42.7" fill="none" stroke="#a1a6b7" stroke-miterlimit="10" stroke-width="1"/>
        <path id="Tracé_38869" data-name="Tracé 38869" d="M169.24,99.01c1.69,64.06,3.38,143.07,5.08,207.12.57,21.51-.87,41.09-.9,62.61" fill="none" stroke="#a1a6b7" stroke-miterlimit="10" stroke-width="1"/>
        <path id="Tracé_38870" data-name="Tracé 38870" d="M169.79,97.78c-1.69,64.06-3.38,143.07-5.08,207.12-.57,21.51.87,41.09.9,62.61" fill="none" stroke="#a1a6b7" stroke-miterlimit="10" stroke-width="1"/>
        <path id="Tracé_38871" data-name="Tracé 38871" d="M167.74,60.13c.07-3.28-2.28-6.46-5.67-6.65-6.67-.37-8.35,3.86-8.66,6.34-1.38-1.34-6.64-.82-7.64,4.26a16.877,16.877,0,0,0,.22,5.75,5.659,5.659,0,0,0-3.49,9.7,5.46,5.46,0,0,0,0,9.48c-3.36,1.73-2.17,6.32.09,7.43a10.235,10.235,0,0,0,5,.76c.41,1.4,3.03,2.88,4.47,3.1,4.12.62,5.13-1.28,7.4.17,2.46,1.58,6.64,1.28,8.28-.9" fill="#cea2ed"/>
        <path id="Tracé_38872" data-name="Tracé 38872" d="M167.74,60.13c-.07-3.28,2.28-6.46,5.67-6.65,6.67-.37,8.35,3.86,8.66,6.34,1.38-1.34,6.64-.82,7.64,4.26a16.877,16.877,0,0,1-.22,5.75,5.659,5.659,0,0,1,3.49,9.7,5.46,5.46,0,0,1,0,9.48c3.36,1.73,2.17,6.32-.09,7.43a10.235,10.235,0,0,1-5,.76c-.41,1.4-3.03,2.88-4.47,3.1-4.12.62-5.13-1.28-7.4.17-2.46,1.58-6.64,1.28-8.28-.9" fill="#cea2ed"/>
      </g>
      <circle id="Ellipse_1828" data-name="Ellipse 1828" cx="1.96" cy="1.96" r="1.96" transform="translate(173.09 63.01)" fill="#9d45db"/>
      <circle id="Ellipse_1829" data-name="Ellipse 1829" cx="1.96" cy="1.96" r="1.96" transform="translate(159.81 63.01)" fill="#9d45db"/>
      <circle id="Ellipse_1830" data-name="Ellipse 1830" cx="1.96" cy="1.96" r="1.96" transform="translate(151.32 71.15)" fill="#9d45db"/>
      <circle id="Ellipse_1831" data-name="Ellipse 1831" cx="1.96" cy="1.96" r="1.96" transform="translate(145.03 83.28)" fill="#9d45db"/>
      <circle id="Ellipse_1832" data-name="Ellipse 1832" cx="1.96" cy="1.96" r="1.96" transform="translate(155.88 91.88)" fill="#9d45db"/>
      <circle id="Ellipse_1833" data-name="Ellipse 1833" cx="1.96" cy="1.96" r="1.96" transform="translate(165.08 69.19)" fill="#9d45db"/>
      <circle id="Ellipse_1834" data-name="Ellipse 1834" cx="1.96" cy="1.96" r="1.96" transform="translate(181.36 71.15)" fill="#9d45db"/>
      <circle id="Ellipse_1835" data-name="Ellipse 1835" cx="1.96" cy="1.96" r="1.96" transform="translate(184.79 78.76)" fill="#9d45db"/>
      <circle id="Ellipse_1836" data-name="Ellipse 1836" cx="1.96" cy="1.96" r="1.96" transform="translate(178.64 89.92)" fill="#9d45db"/>
      <circle id="Ellipse_1837" data-name="Ellipse 1837" cx="1.96" cy="1.96" r="1.96" transform="translate(173.09 75.51)" fill="#9d45db"/>
      <circle id="Ellipse_1838" data-name="Ellipse 1838" cx="1.96" cy="1.96" r="1.96" transform="translate(166.54 84.56)" fill="#9d45db"/>
      <circle id="Ellipse_1839" data-name="Ellipse 1839" cx="1.96" cy="1.96" r="1.96" transform="translate(157.85 78.76)" fill="#9d45db"/>
      <path id="Tracé_38873" data-name="Tracé 38873" d="M110.24,86.64V68.29l9.18,9.18Z"/>
      <path id="Tracé_38874" data-name="Tracé 38874" d="M224.76,86.64V68.29l-9.18,9.18Z"/>
    </g>
    <path id="Rectangle_2970" data-name="Rectangle 2970" d="M5,0H168a0,0,0,0,1,0,0V68a0,0,0,0,1,0,0H0a0,0,0,0,1,0,0V5A5,5,0,0,1,5,0Z" transform="translate(0 719)" fill="#f52850"/>
    <path id="Rectangle_3870" data-name="Rectangle 3870" d="M0,0H163a5,5,0,0,1,5,5V68a0,0,0,0,1,0,0H0a0,0,0,0,1,0,0V0A0,0,0,0,1,0,0Z" transform="translate(168 719)" fill="#0071bc"/>
    <text id="Origines_douloureuse" data-name="Origines 
douloureuse" transform="translate(84 746)" fill="#fff" font-size="16" font-family="Sans-serif" font-weight="400" letter-spacing="-0.005em"><tspan x="-31.288" y="0">Origines </tspan><tspan x="-43.872" y="20">douloureuse</tspan></text>
    <text id="Origines_Non_douloureuse" data-name="Origines 
Non douloureuse" transform="translate(252 746)" fill="#fff" font-size="16" font-family="Sans-serif" font-weight="400" letter-spacing="-0.005em"><tspan x="-31.288" y="0">Origines </tspan><tspan x="-60.136" y="20">Non douloureuse</tspan></text>
  </g>
</svg>
