<svg id="Calque_1-2" xmlns="http://www.w3.org/2000/svg" xmlns:xlink="http://www.w3.org/1999/xlink" width="335" height="203.36" viewBox="0 0 335 203.36">
  <defs>
    <clipPath id="clip-path">
      <rect id="Rectangle_4014" data-name="Rectangle 4014" width="335" height="203.36" rx="5" fill="none"/>
    </clipPath>
    <clipPath id="clip-path-2">
      <path id="Tracé_38662" data-name="Tracé 38662" d="M577.59,485.61c-6.44-4.5-14.26-9.32-27.98-25.98-8.21-9.97-19.59-16.94-31.59-21.55a27.868,27.868,0,0,1-6.37-2.98c-3.94-2.81-4.6-8.63-5.67-13.03-1.06-4.35-1.89-8.77-3.06-13.09-2.36-8.72-4.5-22.59-4.5-45.76,0-54.94-11.29-102.35-17.31-115.15s-9.78-22.58-16.81-74.51,6.52-43.4,0-106.12S409.61-6.32,388.04-11.33s-65.73-23.2-74.26-29.73c-4.21-3.22-4.87-19.58-4.47-35.35,6.59-10.12,10-23.48,12.4-35.15,1.04,1.32,3.2,3.76,5.16,3.91,2.68.21,6.61-8.26,7.85-12.8s2.89-20.03,1.03-25.81-6.2-1.24-7.64,1.03a7.959,7.959,0,0,1-2.77,2.25c.4-7.65.79-15.29,1.9-22.88,2.18-14.97,1.19-29.36-3.88-43.79-10.7-30.45-52.47-32.57-58.27-32.72h0c-5.8.15-47.57,2.28-58.27,32.72a89.863,89.863,0,0,0-3.88,43.79c1.11,7.59,1.49,15.23,1.9,22.88a7.959,7.959,0,0,1-2.77-2.25c-1.44-2.27-5.78-6.82-7.64-1.03s-.21,21.27,1.03,25.81,5.16,13.01,7.85,12.8c1.96-.15,4.12-2.59,5.16-3.91,2.39,11.67,5.81,25.03,12.4,35.15.4,15.76-.26,32.13-4.47,35.35-8.53,6.52-52.68,24.71-74.26,29.73S72.4,4.73,65.88,67.44s7.02,54.19,0,106.12-10.79,61.71-16.81,74.51S31.76,308.28,31.76,363.22c0,23.18-2.13,37.04-4.5,45.76-1.17,4.32-2,8.74-3.06,13.09-1.07,4.4-1.73,10.22-5.67,13.03a28.271,28.271,0,0,1-6.37,2.98c-12,4.61-23.38,11.59-31.59,21.55-13.73,16.66-21.54,21.48-27.98,25.98s-4.33,15.93,10.38,12.59,24.43-21.99,28.05-20.89-4.02,28.73-7.05,38.06-5.98,20.52-7.91,26.22-4.06,16.21.25,22.04,10.45-1.69,14.7-16.68S4,505.2,4,505.2s-4.82,22.58-8.37,36.26-12.73,31.17-4.89,37.76c4.13,3.47,9.01-.94,11.75-7.55,2.77-6.68,6.19-17.81,6.44-18.89,2.59-11.16,10.22-41.86,10.22-41.86s-4.93,25.74-7.83,37.94c-1.62,6.82-5.42,15.7-5.41,21.2,0,4.34,3.39,7.28,7.92,5.92,4.05-1.21,7.64-10.31,10.02-19.97,2.43-9.89,6.09-27.86,8.29-36.33.84-3.21,2.24-6.38,2.15-3.97-.2,5.21-4.25,19.48-5.57,26.61-1.67,9.04-1.36,15.43,2.89,15.95,2.68.33,5.03-.35,7.32-4.31,2.63-4.55,5.24-16.53,7.12-24.99,3.05-13.71,7.25-26.32,9.02-38.64s4.32-37.49,6.22-45.73,5.78-19.01,5.78-19.01l-.27-.03c7.48-23.18,25.52-78.86,37.21-112.77,15.05-43.65,9.78-58.7,12.04-77.52,1.46-12.21,14.33-42.79,23.6-75.51,14.04,29.4,28.46,72.7,19.81,115.4-15.19,75.02-10.45,53.18-15.19,75.02-5.24,24.08-10.53,47.71-12.91,72.34-5.31,55.02-9.45,110.74-.71,165.21,3.19,19.87,14.74,134.9,14.02,138.88-2.73,14.99-11.58,46.33-14.99,64.04s-1.67,44.29-.31,92.66,7.49,85.85,9.54,112.42c1.75,22.81-1.6,81.12-2.58,97.17a31.321,31.321,0,0,1-1.6,8.25,157.572,157.572,0,0,1-8.78,21.31c-6.63,12.75-21.93,36.72-27.03,41.82s-13.32,17.4-5.61,20.91c2.71,1.23,4.08.06,4.08.06-1.02,4.02.75,8.26,3.19,9.43a9.451,9.451,0,0,0,4.46.7c.22,3.12,3.82,8.99,11.47,6.88,0,0,1.94,6.83,7.86,7.14a13.322,13.322,0,0,0,5.72-.7c1.67-.67,3.52-2.58,5.53-7.33,0,0-1.51,6.12,6.01,9.05s16.45-.51,21.04-10.2,4.08-11.47,7.9-19.89,2.04-30.34,4.84-39.27,10.96-11.98,11.73-19.38a101.133,101.133,0,0,0-.4-20.91c.18-.05.53-33.35.53-33.35l.96-14.86a556.562,556.562,0,0,1,8.64-68.44c7.25-37.96,17.32-100.85,20.37-138.98,4.09-51.1,8.86-94.02,11.58-102.2.12-.37.29-.89.5-1.54a490.355,490.355,0,0,0,21.05-96.15c1.17-10.32,2.25-21.72,3.09-33.96,3.71-53.73,2.02-82.98,11.63-84.38,9.61,1.4,7.93,30.65,11.63,84.38.84,12.24,1.92,23.63,3.09,33.96a489.951,489.951,0,0,0,21.05,96.15c.21.65.38,1.17.5,1.54,2.72,8.18,7.49,51.1,11.58,102.2,3.05,38.13,13.12,101.03,20.37,138.98a554.635,554.635,0,0,1,8.64,68.44l.96,14.86s.35,33.3.53,33.35a101.138,101.138,0,0,0-.4,20.91c.77,7.39,8.92,10.45,11.73,19.38s1.02,30.85,4.84,39.27,3.31,10.2,7.9,19.89,13.51,13.13,21.04,10.2,6.01-9.05,6.01-9.05c2.01,4.75,3.85,6.66,5.53,7.33a13.321,13.321,0,0,0,5.72.7c5.92-.31,7.86-7.14,7.86-7.14,7.65,2.1,11.25-3.76,11.47-6.88a9.585,9.585,0,0,0,4.46-.7c2.43-1.18,4.21-5.42,3.19-9.43,0,0,1.37,1.17,4.08-.06,7.71-3.51-.51-15.81-5.61-20.91s-20.4-29.07-27.03-41.82a157.574,157.574,0,0,1-8.78-21.31,32.15,32.15,0,0,1-1.6-8.25c-.98-16.05-4.34-74.37-2.58-97.17,2.04-26.57,8.18-64.04,9.54-112.42s3.1-74.95-.31-92.66-12.26-49.05-14.99-64.04c-.72-3.98,10.83-119.02,14.02-138.88,8.73-54.47,4.6-110.19-.71-165.21-2.38-24.63-7.67-48.26-12.91-72.34-4.75-21.84,0,0-15.19-75.02-8.65-42.7,5.78-86,19.81-115.4,9.27,32.72,22.13,63.3,23.6,75.51,2.26,18.82-3.01,33.87,12.04,77.52,11.69,33.91,29.73,89.59,37.21,112.77l-.27.03s3.88,10.76,5.78,19.01,4.45,33.41,6.22,45.73,5.97,24.93,9.02,38.64c1.88,8.46,4.49,20.44,7.12,24.99,2.29,3.96,4.64,4.64,7.32,4.31,4.26-.52,4.57-6.91,2.89-15.95-1.32-7.13-5.37-21.4-5.57-26.61-.09-2.42,1.31.76,2.15,3.97,2.21,8.46,5.86,26.44,8.29,36.33,2.37,9.66,5.97,18.76,10.02,19.97,4.53,1.35,7.91-1.58,7.92-5.92.01-5.5-3.78-14.38-5.41-21.2-2.9-12.2-7.83-37.94-7.83-37.94s7.63,30.7,10.22,41.86c.25,1.08,3.67,12.21,6.44,18.89,2.74,6.6,7.62,11.02,11.75,7.55,7.84-6.59-1.34-24.08-4.89-37.76s-8.37-36.26-8.37-36.26,8.74,26.76,12.99,41.75,10.39,22.51,14.71,16.68,2.19-16.34.25-22.04-4.88-16.9-7.91-26.22-10.68-36.95-7.05-38.06,13.35,17.55,28.05,20.89,16.81-8.09,10.38-12.59Z" fill="none"/>
    </clipPath>
    <radialGradient id="radial-gradient" cx="0.509" cy="0.499" fx="0.4323742091655731" r="0.507" gradientTransform="translate(0)" gradientUnits="objectBoundingBox">
      <stop offset="0.1" stop-color="#f52850"/>
      <stop offset="0.17" stop-color="#f52850" stop-opacity="0.878"/>
      <stop offset="0.38" stop-color="#f52850" stop-opacity="0.569"/>
      <stop offset="0.57" stop-color="#f52850" stop-opacity="0.329"/>
      <stop offset="0.73" stop-color="#f52850" stop-opacity="0.149"/>
      <stop offset="0.85" stop-color="#f52850" stop-opacity="0.039"/>
      <stop offset="0.93" stop-color="#f52850" stop-opacity="0"/>
    </radialGradient>
    <radialGradient id="radial-gradient-2" cx="0.5" cy="0.5" r="0.361" gradientTransform="translate(-1.864) scale(4.729 1)" gradientUnits="objectBoundingBox">
      <stop offset="0" stop-color="#fff"/>
      <stop offset="0.04" stop-color="#fdfdfd"/>
      <stop offset="1" stop-color="#e6e6e6"/>
    </radialGradient>
    <radialGradient id="radial-gradient-3" cx="0.5" cy="0.5" r="1.541" gradientTransform="translate(0.382) scale(0.236 1)" xlink:href="#radial-gradient-2"/>
    <radialGradient id="radial-gradient-4" cx="0.5" cy="0.501" r="2.737" gradientTransform="translate(0.435) scale(0.13 1)" xlink:href="#radial-gradient-2"/>
    <radialGradient id="radial-gradient-5" cx="0.591" cy="0.447" fx="0.46424734592437744" r="0.572" gradientTransform="translate(-0.237) scale(1.475 1)" xlink:href="#radial-gradient-2"/>
    <radialGradient id="radial-gradient-6" cx="0.5" cy="0.501" r="1.586" gradientTransform="translate(0.386 0.025) scale(0.228 1.05)" xlink:href="#radial-gradient-2"/>
    <radialGradient id="radial-gradient-7" cx="0.5" cy="0.501" r="1.586" gradientTransform="translate(0.386 0.025) scale(0.228 1.05)" gradientUnits="objectBoundingBox">
      <stop offset="0" stop-color="#f8f8f8"/>
      <stop offset="0.58" stop-color="#f5f5f5"/>
      <stop offset="0.88" stop-color="#edeeee"/>
      <stop offset="1" stop-color="#e8e9e9"/>
    </radialGradient>
    <radialGradient id="radial-gradient-8" cx="0.5" cy="0.5" r="0.377" gradientTransform="translate(-0.866) scale(2.731 1)" xlink:href="#radial-gradient-2"/>
    <radialGradient id="radial-gradient-9" cx="0.5" cy="0.501" r="0.714" gradientTransform="translate(0.215) scale(0.571 1)" xlink:href="#radial-gradient-2"/>
    <radialGradient id="radial-gradient-10" cx="0.5" cy="0.501" r="0.714" gradientTransform="translate(0.215) scale(0.571 1)" xlink:href="#radial-gradient-2"/>
    <radialGradient id="radial-gradient-11" cx="0.5" cy="0.501" r="0.714" gradientTransform="translate(0.215) scale(0.571 1)" xlink:href="#radial-gradient-2"/>
    <radialGradient id="radial-gradient-12" cx="0.5" cy="0.501" r="0.714" gradientTransform="translate(0.215) scale(0.571 1)" xlink:href="#radial-gradient-2"/>
    <radialGradient id="radial-gradient-13" cx="0.5" cy="0.5" r="0.616" gradientTransform="translate(0.149) scale(0.702 1)" xlink:href="#radial-gradient-2"/>
    <radialGradient id="radial-gradient-14" cx="0.5" cy="0.5" r="0.575" gradientTransform="translate(0.11) scale(0.779 1)" xlink:href="#radial-gradient-2"/>
    <radialGradient id="radial-gradient-15" cx="0.5" cy="0.5" r="0.562" gradientTransform="translate(0.095) scale(0.809 1)" xlink:href="#radial-gradient-2"/>
    <radialGradient id="radial-gradient-16" cx="0.5" cy="0.5" r="0.573" gradientTransform="translate(0.108) scale(0.784 1)" xlink:href="#radial-gradient-2"/>
    <radialGradient id="radial-gradient-17" cx="0.5" cy="0.5" r="0.597" gradientTransform="translate(0.132) scale(0.735 1)" xlink:href="#radial-gradient-2"/>
    <radialGradient id="radial-gradient-18" cx="0.5" cy="0.5" r="0.671" gradientTransform="translate(0.19) scale(0.619 1)" xlink:href="#radial-gradient-2"/>
    <radialGradient id="radial-gradient-19" cx="0.5" cy="0.5" r="0.626" gradientTransform="translate(0.158) scale(0.685 1)" xlink:href="#radial-gradient-2"/>
    <radialGradient id="radial-gradient-20" cx="0.5" cy="0.5" r="0.534" gradientTransform="translate(0.058) scale(0.885 1)" xlink:href="#radial-gradient-2"/>
    <radialGradient id="radial-gradient-21" cx="0.5" cy="0.5" r="0.616" gradientTransform="translate(0.149) scale(0.701 1)" xlink:href="#radial-gradient-2"/>
    <radialGradient id="radial-gradient-22" cx="0.5" cy="0.5" r="0.575" gradientTransform="translate(0.11) scale(0.779 1)" xlink:href="#radial-gradient-2"/>
    <radialGradient id="radial-gradient-23" cx="0.5" cy="0.5" r="0.562" gradientTransform="translate(0.095) scale(0.809 1)" xlink:href="#radial-gradient-2"/>
    <radialGradient id="radial-gradient-24" cx="0.5" cy="0.5" r="0.573" gradientTransform="translate(0.108) scale(0.784 1)" xlink:href="#radial-gradient-2"/>
    <radialGradient id="radial-gradient-25" cx="0.5" cy="0.5" r="0.597" gradientTransform="translate(0.132) scale(0.735 1)" xlink:href="#radial-gradient-2"/>
    <radialGradient id="radial-gradient-26" cx="0.5" cy="0.5" r="0.662" gradientTransform="translate(0.184) scale(0.632 1)" xlink:href="#radial-gradient-2"/>
    <radialGradient id="radial-gradient-27" cx="0.5" cy="0.5" r="0.626" gradientTransform="translate(0.158) scale(0.685 1)" xlink:href="#radial-gradient-2"/>
    <radialGradient id="radial-gradient-28" cx="0.5" cy="0.5" r="0.534" gradientTransform="translate(0.058) scale(0.885 1)" xlink:href="#radial-gradient-2"/>
    <radialGradient id="radial-gradient-29" cx="0.5" cy="0.5" r="0.549" gradientTransform="translate(0.079) scale(0.842 1)" xlink:href="#radial-gradient-2"/>
    <radialGradient id="radial-gradient-30" cx="0.5" cy="0.5" r="0.55" gradientTransform="translate(0.08) scale(0.84 1)" xlink:href="#radial-gradient-2"/>
    <radialGradient id="radial-gradient-31" cx="0.5" cy="0.5" r="0.363" gradientTransform="translate(-1.664) scale(4.328 1)" xlink:href="#radial-gradient-2"/>
    <radialGradient id="radial-gradient-32" cx="0.5" cy="0.5" r="1.223" gradientTransform="translate(0.349) scale(0.302 1)" xlink:href="#radial-gradient-2"/>
    <radialGradient id="radial-gradient-33" cx="0.5" cy="0.501" r="1.268" gradientTransform="translate(0.355) scale(0.29 1)" xlink:href="#radial-gradient-2"/>
  </defs>
  <rect id="Rectangle_4013" data-name="Rectangle 4013" width="335" height="203.36" rx="5" fill="#ebf0f7"/>
  <g id="Groupe_5850" data-name="Groupe 5850" clip-path="url(#clip-path)">
    <path id="Tracé_38661" data-name="Tracé 38661" d="M577.59,485.61c-6.44-4.5-14.26-9.32-27.98-25.98-8.21-9.97-19.59-16.94-31.59-21.55a27.868,27.868,0,0,1-6.37-2.98c-3.94-2.81-4.6-8.63-5.67-13.03-1.06-4.35-1.89-8.77-3.06-13.09-2.36-8.72-4.5-22.59-4.5-45.76,0-54.94-11.29-102.35-17.31-115.15s-9.78-22.58-16.81-74.51,6.52-43.4,0-106.12S409.61-6.32,388.04-11.33s-65.73-23.2-74.26-29.73c-4.21-3.22-4.87-19.58-4.47-35.35,6.59-10.12,10-23.48,12.4-35.15,1.04,1.32,3.2,3.76,5.16,3.91,2.68.21,6.61-8.26,7.85-12.8s2.89-20.03,1.03-25.81-6.2-1.24-7.64,1.03a7.959,7.959,0,0,1-2.77,2.25c.4-7.65.79-15.29,1.9-22.88,2.18-14.97,1.19-29.36-3.88-43.79-10.7-30.45-52.47-32.57-58.27-32.72h0c-5.8.15-47.57,2.28-58.27,32.72a89.863,89.863,0,0,0-3.88,43.79c1.11,7.59,1.49,15.23,1.9,22.88a7.959,7.959,0,0,1-2.77-2.25c-1.44-2.27-5.78-6.82-7.64-1.03s-.21,21.27,1.03,25.81,5.16,13.01,7.85,12.8c1.96-.15,4.12-2.59,5.16-3.91,2.39,11.67,5.81,25.03,12.4,35.15.4,15.76-.26,32.13-4.47,35.35-8.53,6.52-52.68,24.71-74.26,29.73S72.4,4.73,65.88,67.44s7.02,54.19,0,106.12-10.79,61.71-16.81,74.51S31.76,308.28,31.76,363.22c0,23.18-2.13,37.04-4.5,45.76-1.17,4.32-2,8.74-3.06,13.09-1.07,4.4-1.73,10.22-5.67,13.03a28.271,28.271,0,0,1-6.37,2.98c-12,4.61-23.38,11.59-31.59,21.55-13.73,16.66-21.54,21.48-27.98,25.98s-4.33,15.93,10.38,12.59,24.43-21.99,28.05-20.89-4.02,28.73-7.05,38.06-5.98,20.52-7.91,26.22-4.06,16.21.25,22.04,10.45-1.69,14.7-16.68S4,505.2,4,505.2s-4.82,22.58-8.37,36.26-12.73,31.17-4.89,37.76c4.13,3.47,9.01-.94,11.75-7.55,2.77-6.68,6.19-17.81,6.44-18.89,2.59-11.16,10.22-41.86,10.22-41.86s-4.93,25.74-7.83,37.94c-1.62,6.82-5.42,15.7-5.41,21.2,0,4.34,3.39,7.28,7.92,5.92,4.05-1.21,7.64-10.31,10.02-19.97,2.43-9.89,6.09-27.86,8.29-36.33.84-3.21,2.24-6.38,2.15-3.97-.2,5.21-4.25,19.48-5.57,26.61-1.67,9.04-1.36,15.43,2.89,15.95,2.68.33,5.03-.35,7.32-4.31,2.63-4.55,5.24-16.53,7.12-24.99,3.05-13.71,7.25-26.32,9.02-38.64s4.32-37.49,6.22-45.73,5.78-19.01,5.78-19.01l-.27-.03c7.48-23.18,25.52-78.86,37.21-112.77,15.05-43.65,9.78-58.7,12.04-77.52,1.46-12.21,14.33-42.79,23.6-75.51,14.04,29.4,28.46,72.7,19.81,115.4-15.19,75.02-10.45,53.18-15.19,75.02-5.24,24.08-10.53,47.71-12.91,72.34-5.31,55.02-9.45,110.74-.71,165.21,3.19,19.87,14.74,134.9,14.02,138.88-2.73,14.99-11.58,46.33-14.99,64.04s-1.67,44.29-.31,92.66,7.49,85.85,9.54,112.42c1.75,22.81-1.6,81.12-2.58,97.17a31.321,31.321,0,0,1-1.6,8.25,157.572,157.572,0,0,1-8.78,21.31c-6.63,12.75-21.93,36.72-27.03,41.82s-13.32,17.4-5.61,20.91c2.71,1.23,4.08.06,4.08.06-1.02,4.02.75,8.26,3.19,9.43a9.451,9.451,0,0,0,4.46.7c.22,3.12,3.82,8.99,11.47,6.88,0,0,1.94,6.83,7.86,7.14a13.322,13.322,0,0,0,5.72-.7c1.67-.67,3.52-2.58,5.53-7.33,0,0-1.51,6.12,6.01,9.05s16.45-.51,21.04-10.2,4.08-11.47,7.9-19.89,2.04-30.34,4.84-39.27,10.96-11.98,11.73-19.38a101.133,101.133,0,0,0-.4-20.91c.18-.05.53-33.35.53-33.35l.96-14.86a556.562,556.562,0,0,1,8.64-68.44c7.25-37.96,17.32-100.85,20.37-138.98,4.09-51.1,8.86-94.02,11.58-102.2.12-.37.29-.89.5-1.54a490.355,490.355,0,0,0,21.05-96.15c1.17-10.32,2.25-21.72,3.09-33.96,3.71-53.73,2.02-82.98,11.63-84.38,9.61,1.4,7.93,30.65,11.63,84.38.84,12.24,1.92,23.63,3.09,33.96a489.951,489.951,0,0,0,21.05,96.15c.21.65.38,1.17.5,1.54,2.72,8.18,7.49,51.1,11.58,102.2,3.05,38.13,13.12,101.03,20.37,138.98a554.635,554.635,0,0,1,8.64,68.44l.96,14.86s.35,33.3.53,33.35a101.138,101.138,0,0,0-.4,20.91c.77,7.39,8.92,10.45,11.73,19.38s1.02,30.85,4.84,39.27,3.31,10.2,7.9,19.89,13.51,13.13,21.04,10.2,6.01-9.05,6.01-9.05c2.01,4.75,3.85,6.66,5.53,7.33a13.321,13.321,0,0,0,5.72.7c5.92-.31,7.86-7.14,7.86-7.14,7.65,2.1,11.25-3.76,11.47-6.88a9.585,9.585,0,0,0,4.46-.7c2.43-1.18,4.21-5.42,3.19-9.43,0,0,1.37,1.17,4.08-.06,7.71-3.51-.51-15.81-5.61-20.91s-20.4-29.07-27.03-41.82a157.574,157.574,0,0,1-8.78-21.31,32.15,32.15,0,0,1-1.6-8.25c-.98-16.05-4.34-74.37-2.58-97.17,2.04-26.57,8.18-64.04,9.54-112.42s3.1-74.95-.31-92.66-12.26-49.05-14.99-64.04c-.72-3.98,10.83-119.02,14.02-138.88,8.73-54.47,4.6-110.19-.71-165.21-2.38-24.63-7.67-48.26-12.91-72.34-4.75-21.84,0,0-15.19-75.02-8.65-42.7,5.78-86,19.81-115.4,9.27,32.72,22.13,63.3,23.6,75.51,2.26,18.82-3.01,33.87,12.04,77.52,11.69,33.91,29.73,89.59,37.21,112.77l-.27.03s3.88,10.76,5.78,19.01,4.45,33.41,6.22,45.73,5.97,24.93,9.02,38.64c1.88,8.46,4.49,20.44,7.12,24.99,2.29,3.96,4.64,4.64,7.32,4.31,4.26-.52,4.57-6.91,2.89-15.95-1.32-7.13-5.37-21.4-5.57-26.61-.09-2.42,1.31.76,2.15,3.97,2.21,8.46,5.86,26.44,8.29,36.33,2.37,9.66,5.97,18.76,10.02,19.97,4.53,1.35,7.91-1.58,7.92-5.92.01-5.5-3.78-14.38-5.41-21.2-2.9-12.2-7.83-37.94-7.83-37.94s7.63,30.7,10.22,41.86c.25,1.08,3.67,12.21,6.44,18.89,2.74,6.6,7.62,11.02,11.75,7.55,7.84-6.59-1.34-24.08-4.89-37.76s-8.37-36.26-8.37-36.26,8.74,26.76,12.99,41.75,10.39,22.51,14.71,16.68,2.19-16.34.25-22.04-4.88-16.9-7.91-26.22-10.68-36.95-7.05-38.06,13.35,17.55,28.05,20.89,16.81-8.09,10.38-12.59Z" fill="#f4d7c9"/>
    <g id="Groupe_5849" data-name="Groupe 5849" clip-path="url(#clip-path-2)">
      <circle id="Ellipse_1818" data-name="Ellipse 1818" cx="58.04" cy="58.04" r="58.04" transform="translate(31.72 59.82)" fill="url(#radial-gradient)"/>
    </g>
    <path id="Tracé_38663" data-name="Tracé 38663" d="M111.31,89.5a121.843,121.843,0,0,0-11.56,86.56" fill="none" stroke="#a1a6b7" stroke-miterlimit="10" stroke-width="1.5"/>
    <path id="Tracé_38664" data-name="Tracé 38664" d="M110.07,142.04C133.27,94.3,129.39,39.69,146.1-10.69" fill="none" stroke="#a1a6b7" stroke-miterlimit="10" stroke-width="1.5"/>
    <path id="Tracé_38665" data-name="Tracé 38665" d="M285.25,348.95l-9.28-187.71H253.91l-9.37,189.61C258.21,354.97,271.99,354.99,285.25,348.95Z" fill="url(#radial-gradient-2)"/>
    <path id="Tracé_38666" data-name="Tracé 38666" d="M284.54,192.57a18.02,18.02,0,0,0-3.48-1.59,10.528,10.528,0,0,0-6.4-.33c-6.85,1.82-14.37,2.36-20.97-.23-1.89-.74-5.09,1.36-7.01,1.97-1.14.36-2.58,1.02-2.45,2.21.1.94,5.03,2.82,6.54,3.36a84.819,84.819,0,0,0,13.75,2.07c6.92-.07,21.68-3.5,21.13-6.16a2.26,2.26,0,0,0-1.1-1.3Z" fill="url(#radial-gradient-3)"/>
    <path id="Tracé_38667" data-name="Tracé 38667" d="M282.59,193.44c-1.79-1.05-5.81-.68-7.93-.41-3.3.42-6.77,1.55-10.21,1.59-3.69.04-7.35-1.07-10.77-1.7-1.89-.35-5.41-.18-7.01.93-1.15.79,11.45,3.6,17.83,3.6,5.85,0,20.02-2.88,18.08-4.01Z" fill="url(#radial-gradient-4)"/>
    <path id="Tracé_38668" data-name="Tracé 38668" d="M184.95,91.16c3.04-10.1-.55-21.09,2.09-31.28,1.44-5.58,4.7-10.71,5.53-16.39a39.287,39.287,0,0,0-.42-10.87c-.2-1.54-.46-3.2-1.64-4.31a7.709,7.709,0,0,0-3.36-1.52,117.35,117.35,0,0,0-45.29-2.82c-7.36.99-14.87,2.68-22.14,1.25-3.69-.72-7.3-2.24-11.05-1.9-6.81.63-11.45,8.6-8.27,14.23,1.8,3.18,5.27,5.16,8.36,7.32,14.12,9.88,21.97,25.73,26.45,41.6s6.16,32.35,10.91,48.16c2.56,8.5,6.26,17.12,13.44,22.91,3.19,2.58,8.09,4.48,11.51,2.16,1.93-1.31,2.76-3.59,3.25-5.77,3.18-14.23-3.5-29.5,1.3-43.33,2.35-6.77,7.28-12.6,9.34-19.44Z" fill="url(#radial-gradient-5)"/>
    <path id="Tracé_38671" data-name="Tracé 38671" d="M109.27,27.76a38.754,38.754,0,0,1,33.88-8.51c6.95,1.64,13.35,5.21,20.15,7.47a55.622,55.622,0,0,0,29.91,1.44c5.99-1.37,12.96-5.67,12.11-12.07a78.06,78.06,0,0,1-46.93-.95c-6.98-2.37-13.67-5.73-20.85-7.3a44,44,0,0,0-33.09,6.14c-3.23,2.1-6.38,4.9-7.33,8.77s1.44,8.76,5.23,8.86c2.67.07,4.85-2.06,6.91-3.84Z" fill="url(#radial-gradient-6)"/>
    <path id="Tracé_38669" data-name="Tracé 38669" d="M95.49,115.73a262.234,262.234,0,0,1,22.44-51.05c5.55-9.69,11.76-19.21,14.65-30.17a8.063,8.063,0,0,0,.25-4.42c-1.08-3.36-5.3-3.23-8.29-4.53-3.36-1.46-5.42-5.08-8-7.84s-6.8-4.7-9.77-2.24a10.434,10.434,0,0,0-2.42,3.51C97.93,31.94,94.34,46.26,90.81,60.43c-2.07,8.32-4.14,16.63-5.99,25.01-1.93,8.77-3.64,17.68-5.5,26.53l7.45-3.77,1.09,8.78,3.72-3.13,3.9,1.88Z" fill="#fff"/>
    <path id="Tracé_38670" data-name="Tracé 38670" d="M95.94,120.37a233.683,233.683,0,0,0,9.49,72.31c2.78,9.22,6.22,18.71,5.14,28.24s-8.81,18.75-17.31,16.54c-2.8-.73-5.34-2.59-8.18-3.08-3.05-.53-6.25.58-9.19-.56-3.75-1.45-5.77-6.06-6.55-10.37-2.62-14.43,3.89-28.39,7.44-42.38,4.88-19.24,4.16-39.48,2.59-59.76l6.09-5.72,3.51,8.12,2.69-4.05,4.27.71Z" fill="#fff"/>
    <path id="Tracé_38672" data-name="Tracé 38672" d="M421.36,27.76a38.754,38.754,0,0,0-33.88-8.51c-6.95,1.64-13.35,5.21-20.15,7.47a55.622,55.622,0,0,1-29.91,1.44c-5.99-1.37-12.96-5.67-12.11-12.07a78.06,78.06,0,0,0,46.93-.95c6.98-2.37,13.67-5.73,20.85-7.3a44,44,0,0,1,33.09,6.14c3.23,2.1,6.38,4.9,7.33,8.77s-1.44,8.76-5.23,8.86c-2.67.07-4.85-2.06-6.91-3.84Z" fill="url(#radial-gradient-7)"/>
    <path id="Tracé_38673" data-name="Tracé 38673" d="M281.47,27.99H248.4l4.8-90.33h23.46Z" fill="url(#radial-gradient-8)"/>
    <path id="Tracé_38674" data-name="Tracé 38674" d="M239.47,3.51a4.2,4.2,0,0,0,.07,1.66,2.1,2.1,0,0,0,2.52,1.51,10.144,10.144,0,0,0,2.75-1.53,7.889,7.889,0,0,1,8.46.04c.53.33,1.04.73,1.58,1.04a5.821,5.821,0,0,0,2.89.79,1.618,1.618,0,0,0,1.18-.38,3.63,3.63,0,0,0,.73-2.23,35.374,35.374,0,0,0-.14-7.49,1.214,1.214,0,0,0-.15-.55.726.726,0,0,0-.56-.29c-1.7-.21-3.4.32-5.1.19-1.34-.1-2.65-.61-3.99-.79a8.893,8.893,0,0,0-6.31,1.61,9.261,9.261,0,0,0-3.92,6.4Z" fill="url(#radial-gradient-9)"/>
    <path id="Tracé_38675" data-name="Tracé 38675" d="M239.47,20.56a4.2,4.2,0,0,0,.07,1.66,2.1,2.1,0,0,0,2.52,1.51,10,10,0,0,0,2.75-1.53,7.889,7.889,0,0,1,8.46.04c.53.33,1.04.73,1.58,1.04a5.821,5.821,0,0,0,2.89.79,1.618,1.618,0,0,0,1.18-.38,3.63,3.63,0,0,0,.73-2.23,35.374,35.374,0,0,0-.14-7.49,1.214,1.214,0,0,0-.15-.55.726.726,0,0,0-.56-.29c-1.7-.21-3.4.32-5.1.19-1.34-.1-2.65-.61-3.99-.79a8.853,8.853,0,0,0-6.31,1.62,9.24,9.24,0,0,0-3.92,6.4Z" fill="url(#radial-gradient-10)"/>
    <path id="Tracé_38676" data-name="Tracé 38676" d="M290.39,3.51a4.2,4.2,0,0,1-.07,1.66,2.1,2.1,0,0,1-2.52,1.51,10.143,10.143,0,0,1-2.75-1.53,7.889,7.889,0,0,0-8.46.04c-.53.33-1.04.73-1.58,1.04a5.821,5.821,0,0,1-2.89.79,1.618,1.618,0,0,1-1.18-.38,3.63,3.63,0,0,1-.73-2.23,35.374,35.374,0,0,1,.14-7.49,1.214,1.214,0,0,1,.15-.55.726.726,0,0,1,.56-.29c1.7-.21,3.4.32,5.1.19,1.34-.1,2.65-.61,3.99-.79a8.893,8.893,0,0,1,6.31,1.61,9.3,9.3,0,0,1,3.92,6.4Z" fill="url(#radial-gradient-11)"/>
    <path id="Tracé_38677" data-name="Tracé 38677" d="M290.39,20.56a4.2,4.2,0,0,1-.07,1.66,2.1,2.1,0,0,1-2.52,1.51,10.143,10.143,0,0,1-2.75-1.53,7.889,7.889,0,0,0-8.46.04c-.53.33-1.04.73-1.58,1.04a5.821,5.821,0,0,1-2.89.79,1.618,1.618,0,0,1-1.18-.38,3.63,3.63,0,0,1-.73-2.23,35.374,35.374,0,0,1,.14-7.49,1.214,1.214,0,0,1,.15-.55.726.726,0,0,1,.56-.29c1.7-.21,3.4.32,5.1.19,1.34-.1,2.65-.61,3.99-.79a8.853,8.853,0,0,1,6.31,1.62,9.274,9.274,0,0,1,3.92,6.4Z" fill="url(#radial-gradient-12)"/>
    <path id="Tracé_38678" data-name="Tracé 38678" d="M249.09,55.45s-16.49,4.93-28.71,4.87-25.94-8.01-18.57-18.33c3.25-4.55,23.38-11.76,42.28-1.33l1.12-9.34s-33.4-8.56-46.42,1.86c-13.05,10.44-15.27,30.85,16.25,37.83,7.95,1.76,34.04-2.38,34.04-2.38s5.87-9.25,0-13.17Z" fill="url(#radial-gradient-13)"/>
    <path id="Tracé_38679" data-name="Tracé 38679" d="M249.45,80.28s-21.58,5.87-36.03,5.8-30.57-11.97-21.19-24.54c10.39-13.92,33.72-17.58,57.5-5.92l1.33-11.79s-44.03-7.36-59.43,5.79c-15.44,13.19-18.05,38.95,19.21,47.77,9.4,2.22,40.26-3.01,40.26-3.01s5.29-9.14-1.65-14.09Z" fill="url(#radial-gradient-14)"/>
    <path id="Tracé_38680" data-name="Tracé 38680" d="M248.93,105.86s-24.27,6.86-40.52,6.77-34.37-13.98-23.82-28.66c11.69-16.26,41.08-17.36,67.82-3.75l-1.67-16.94s-49.52-8.6-66.84,6.76c-17.36,15.4-20.3,45.48,21.61,55.77,10.57,2.59,45.28-3.51,45.28-3.51s5.95-10.68-1.86-16.45Z" fill="url(#radial-gradient-15)"/>
    <path id="Tracé_38681" data-name="Tracé 38681" d="M252.88,121.12s-31.53,19.36-48.51,19.27-33.95-17.38-22.93-32.55c12.21-16.81,42.33-19.49,70.26-5.42l-1.16-15.97s-51.73-8.89-69.82,6.99c-18.14,15.92-23.16,49.95,20.61,60.59,11.04,2.68,53.48-15.9,53.48-15.9s6.22-11.04-1.94-17.01Z" fill="url(#radial-gradient-16)"/>
    <path id="Tracé_38682" data-name="Tracé 38682" d="M254.47,138.86s-35.13,27.2-53.29,27.11-36.34-17.89-24.55-33.52c13.07-17.31,42.4-21.85,72.3-7.36l1.67-14.66s-55.37-9.15-74.73,7.2c-19.41,16.39-24.8,51.43,22.07,62.38,11.82,2.76,61.05-25.17,61.05-25.17s4.23-9.83-4.51-15.98Z" fill="url(#radial-gradient-17)"/>
    <path id="Tracé_38683" data-name="Tracé 38683" d="M251.7,154.31s-36.04,36.21-54.29,36.13-36.51-15.13-24.66-28.35c13.13-14.64,49.27-16.5,79.31-4.24l.9-13.82s-61.53-8.31-80.98,5.52c-19.5,13.87-25.35,46.12,22.17,52.77,21.83,3.05,58.89-30.41,58.89-30.41s7.44-12.4-1.33-17.6Z" fill="url(#radial-gradient-18)"/>
    <path id="Tracé_38684" data-name="Tracé 38684" d="M238.03,171.91s-18.8,35.78-40.61,38.26c-18.14,2.06-36.51-15.13-24.66-28.35,13.13-14.64,42.6-18.49,72.64-6.23l1.68-12.4s-55.63-7.74-75.08,6.09c-19.5,13.87-24.01,52.83,22.17,52.77,28.58-.04,48.1-41.29,48.1-41.29s4.82-6.95-4.22-8.85Z" fill="url(#radial-gradient-19)"/>
    <path id="Tracé_38685" data-name="Tracé 38685" d="M247.99,159.19s-32.2,64.13-54.18,68.46c-15.65,3.09-29.58-13.4-20.89-28.14,9.2-15.62,31.72-26.62,61.81-24.41,4.03.29,10.78-15.4,5.04-14.34-17.77,3.27-55.59,11.71-67.47,26.06-13.84,16.73-16.85,54.49,18.64,54.43,29.03-.05,62.81-71.44,62.81-71.44s6.37-10.88-5.76-10.62Z" fill="url(#radial-gradient-20)"/>
    <path id="Tracé_38686" data-name="Tracé 38686" d="M281.71,55.45s16.49,4.93,28.71,4.87,25.93-8.01,18.57-18.33c-3.25-4.55-23.38-11.76-42.28-1.33l-1.12-9.34s33.4-8.56,46.42,1.86c13.06,10.44,15.27,30.85-16.25,37.83-7.95,1.76-34.05-2.38-34.05-2.38s-5.87-9.25,0-13.17Z" fill="url(#radial-gradient-21)"/>
    <path id="Tracé_38687" data-name="Tracé 38687" d="M281.35,80.28s21.58,5.87,36.03,5.8,30.57-11.97,21.19-24.54c-10.39-13.92-35.64-17.75-59.42-6.09l.6-11.63s44.03-7.36,59.43,5.79c15.44,13.19,18.05,38.95-19.21,47.77-9.4,2.22-40.26-3.01-40.26-3.01s-5.29-9.14,1.65-14.09Z" fill="url(#radial-gradient-22)"/>
    <path id="Tracé_38688" data-name="Tracé 38688" d="M281.87,105.86s24.27,6.86,40.52,6.77,34.37-13.98,23.82-28.66c-11.69-16.26-40.37-20.53-67.11-6.92l.96-13.77s49.52-8.6,66.84,6.76c17.36,15.4,20.3,45.48-21.61,55.77-10.57,2.59-45.28-3.51-45.28-3.51s-5.95-10.68,1.86-16.45Z" fill="url(#radial-gradient-23)"/>
    <path id="Tracé_38689" data-name="Tracé 38689" d="M277.93,121.12s31.53,19.36,48.5,19.27,33.95-17.38,22.93-32.55c-12.21-16.81-43.59-19.49-71.52-5.42l2.42-15.97s51.73-8.89,69.81,6.99c18.14,15.92,23.17,49.95-20.61,60.59-11.04,2.68-53.48-15.9-53.48-15.9s-6.22-11.04,1.94-17.01Z" fill="url(#radial-gradient-24)"/>
    <path id="Tracé_38690" data-name="Tracé 38690" d="M276.34,138.86s35.13,27.2,53.29,27.11,36.34-17.89,24.55-33.52c-13.07-17.31-42.4-21.85-72.3-7.36l-1.67-14.66s55.37-9.15,74.73,7.2c19.41,16.39,24.8,51.43-22.06,62.38-11.82,2.76-61.05-25.17-61.05-25.17s-4.23-9.83,4.51-15.98Z" fill="url(#radial-gradient-25)"/>
    <path id="Tracé_38691" data-name="Tracé 38691" d="M279.1,154.31s36.04,36.21,54.29,36.13,36.51-15.13,24.66-28.35c-13.13-14.64-50.25-19.09-80.28-6.84l-.6-13.7s62.2-5.83,81.65,8c19.5,13.87,25.35,46.12-22.17,52.77-21.82,3.05-58.88-30.41-58.88-30.41s-7.44-12.4,1.33-17.6Z" fill="url(#radial-gradient-26)"/>
    <path id="Tracé_38692" data-name="Tracé 38692" d="M292.78,171.91s18.8,35.78,40.61,38.26c18.14,2.06,36.51-15.13,24.66-28.35-13.13-14.64-42.6-18.49-72.64-6.23l-1.68-12.4s55.63-7.74,75.08,6.09c19.5,13.87,24.01,52.83-22.17,52.77-28.58-.04-48.1-41.29-48.1-41.29s-4.82-6.95,4.22-8.85Z" fill="url(#radial-gradient-27)"/>
    <path id="Tracé_38693" data-name="Tracé 38693" d="M282.81,159.19s32.2,64.13,54.17,68.46c15.65,3.09,29.58-13.4,20.89-28.14-9.2-15.62-31.72-26.62-61.81-24.41-4.03.29-10.78-15.4-5.04-14.34,17.77,3.27,55.59,11.71,67.46,26.06,13.84,16.73,16.85,54.49-18.64,54.43-29.03-.05-62.81-71.44-62.81-71.44s-6.36-10.88,5.76-10.62Z" fill="url(#radial-gradient-28)"/>
    <path id="Tracé_38694" data-name="Tracé 38694" d="M210.78,27.3c.37-5.29,13.42-12.25,29.72-5.21a8.48,8.48,0,0,1,4.92-8.35c-4.9-1.82-29.69-10.31-40.39.35-11.89,11.85-18.19,32.57,44.56,38.86,0,0,1.37-9.62-4.37-13.69,0,0-34.86-6.17-34.45-11.97Z" fill="url(#radial-gradient-29)"/>
    <path id="Tracé_38695" data-name="Tracé 38695" d="M325.09,14.09c-10.73-10.69-35.64-2.12-40.43-.33,2.91,2.12,3.97,5.49,3.43,9.07,17.01-8.19,30.87-.98,31.26,4.47.41,5.8-34.45,11.97-34.45,11.97-5.74,4.07-4.64,13.69-4.64,13.69,62.76-6.29,56.72-27.01,44.83-38.86Z" fill="url(#radial-gradient-30)"/>
    <path id="Tracé_38696" data-name="Tracé 38696" d="M264.78,21.95c-22.85,0-24.15,12.28-20.77,17.29a36.6,36.6,0,0,1,2.83,5.52,30.094,30.094,0,0,1,2.52,11.78c.22,26.82.98,70.88.72,77.96-.25,6.85-1.55,35.21,6.83,49.57,2.4,4.11,3.78,18.21,5.77,27.87.5,2.43,3.41,2.42,3.88-.02,1.79-9.24,4.56-24.42,6.67-27.85,7.7-12.5,7.16-41.56,6.9-48.77-.25-7.06.07-51.35.03-78.42a30.36,30.36,0,0,1,2.5-12.03,37.143,37.143,0,0,1,2.88-5.63c3.38-5.02,2.08-17.29-20.77-17.29Z" fill="url(#radial-gradient-31)"/>
    <path id="Tracé_38697" data-name="Tracé 38697" d="M283.49,15.47c0,3.13-8.38,9.43-18.71,9.43s-18.71-6.3-18.71-9.43,8.38-1.39,18.71-1.39,18.71-1.74,18.71,1.39Z" fill="url(#radial-gradient-32)"/>
    <path id="Tracé_38698" data-name="Tracé 38698" d="M285.5-2.33c0,3.47-9.28,9.96-20.72,9.96s-20.72-6.49-20.72-9.96,9.28-1.54,20.72-1.54S285.5-5.8,285.5-2.33Z" fill="url(#radial-gradient-33)"/>
    <path id="Tracé_38699" data-name="Tracé 38699" d="M91.25,101.15A188.012,188.012,0,0,1,150.46-23.16" fill="none" stroke="#a1a6b7" stroke-miterlimit="10" stroke-width="1.5"/>
    <path id="Tracé_38700" data-name="Tracé 38700" d="M151.3-24.81a240.629,240.629,0,0,0-40.36,148.18" fill="none" stroke="#a1a6b7" stroke-miterlimit="10" stroke-width="1.5"/>
    <path id="Tracé_38701" data-name="Tracé 38701" d="M92.7,87.51a32.969,32.969,0,0,1-8.61,13.02" fill="none" stroke="#a1a6b7" stroke-miterlimit="10" stroke-width="1.5"/>
    <path id="Tracé_38702" data-name="Tracé 38702" d="M94.62,75.96c.05,3.91,2,7.49,3.41,11.14s2.25,7.96.24,11.31" fill="none" stroke="#a1a6b7" stroke-miterlimit="10" stroke-width="1.5"/>
    <path id="Tracé_38703" data-name="Tracé 38703" d="M88.08,95.85c-2.21-.29-4.42-.57-6.62-.86" fill="none" stroke="#a1a6b7" stroke-miterlimit="10" stroke-width="1.5"/>
    <path id="Tracé_38704" data-name="Tracé 38704" d="M93.53,80.63a10.19,10.19,0,0,0-6.9,6.66" fill="none" stroke="#a1a6b7" stroke-miterlimit="10" stroke-width="1.5"/>
    <path id="Tracé_38705" data-name="Tracé 38705" d="M111.14,113.83a9.756,9.756,0,0,0-7.67,6.55" fill="none" stroke="#a1a6b7" stroke-miterlimit="10" stroke-width="1.5"/>
    <path id="Tracé_38706" data-name="Tracé 38706" d="M111.22,118.48a7.02,7.02,0,0,1,4.66,1.53" fill="none" stroke="#a1a6b7" stroke-miterlimit="10" stroke-width="1.5"/>
    <path id="Tracé_38707" data-name="Tracé 38707" d="M103.67,133.34a7.306,7.306,0,0,0,10.55-.53" fill="none" stroke="#a1a6b7" stroke-miterlimit="10" stroke-width="1.5"/>
    <path id="Tracé_38708" data-name="Tracé 38708" d="M112.48,136.67l4.44,3.87" fill="none" stroke="#a1a6b7" stroke-miterlimit="10" stroke-width="1.5"/>
    <path id="Tracé_38709" data-name="Tracé 38709" d="M114.67,130.3a7.745,7.745,0,0,1,3.64,5.19" fill="none" stroke="#a1a6b7" stroke-miterlimit="10" stroke-width="1.5"/>
    <path id="Tracé_38710" data-name="Tracé 38710" d="M108.6,135.49a10.1,10.1,0,0,0-.72-5.18" fill="none" stroke="#a1a6b7" stroke-miterlimit="10" stroke-width="1.5"/>
    <path id="Tracé_38711" data-name="Tracé 38711" d="M126.85,88.36a135.7,135.7,0,0,1,3.11,51.86c-2.42,18.02-8.43,35.33-14.4,52.5" fill="none" stroke="#a1a6b7" stroke-miterlimit="10" stroke-width="1.5"/>
    <path id="Tracé_38712" data-name="Tracé 38712" d="M105.89,116.42a6.866,6.866,0,0,1,1.28,4.43" fill="none" stroke="#a1a6b7" stroke-miterlimit="10" stroke-width="1.5"/>
    <path id="Tracé_38713" data-name="Tracé 38713" d="M110.43,111.25a6.583,6.583,0,0,1,3.91.82" fill="none" stroke="#a1a6b7" stroke-miterlimit="10" stroke-width="1.5"/>
    <path id="Tracé_38714" data-name="Tracé 38714" d="M93.77,102.57l-5.03-.24,2.7-3.83Z" fill="#f52850"/>
    <path id="Tracé_38715" data-name="Tracé 38715" d="M85.58,102.86l-3.87-3.23,4.47-1.42Z" fill="#f52850"/>
    <path id="Tracé_38716" data-name="Tracé 38716" d="M80.56,97.38l.54-5,3.66,2.92Z" fill="#f52850"/>
    <path id="Tracé_38717" data-name="Tracé 38717" d="M94.62,90.73l-4.98-.79,3.11-3.52Z" fill="#f52850"/>
    <path id="Tracé_38718" data-name="Tracé 38718" d="M96.65,79.14l-4.95-.97,3.23-3.4Z" fill="#f52850"/>
    <path id="Tracé_38719" data-name="Tracé 38719" d="M98.33,70.72l-4.85-1.38,3.51-3.12Z" fill="#f52850"/>
    <path id="Tracé_38720" data-name="Tracé 38720" d="M100.75,61.5l-4.84-1.38L99.41,57Z" fill="#f52850"/>
    <path id="Tracé_38721" data-name="Tracé 38721" d="M103.66,52.19l-4.68-1.88,3.81-2.73Z" fill="#f52850"/>
    <path id="Tracé_38722" data-name="Tracé 38722" d="M107.99,41.76l-4.68-1.87,3.82-2.74Z" fill="#f52850"/>
    <path id="Tracé_38723" data-name="Tracé 38723" d="M111.86,33.03l-4.45-2.37,4.08-2.31Z" fill="#f52850"/>
    <path id="Tracé_38724" data-name="Tracé 38724" d="M117.08,22.81l-4.25-2.72,4.26-1.98Z" fill="#f52850"/>
    <path id="Tracé_38725" data-name="Tracé 38725" d="M122.75,13.02l-3.93-3.15,4.45-1.51Z" fill="#f52850"/>
  </g>
</svg>
