<?xml version="1.0" encoding="UTF-8"?><svg id="Layer_1" xmlns="http://www.w3.org/2000/svg" viewBox="0 0 800 800"><defs><style>.cls-1{fill:#5000a8;}.cls-1,.cls-2,.cls-3,.cls-4,.cls-5,.cls-6,.cls-7,.cls-8{stroke-width:0px;}.cls-2{fill:#390271;}.cls-3{fill:#460093;}.cls-4{fill:#b29dfd;}.cls-5{fill:#7431e8;}.cls-6{fill:#662abf;}.cls-7{fill:#fff;}.cls-8{fill:#fefefe;}</style></defs><rect class="cls-3" x="-137.84" y="-218.84" width="1109" height="1109"/><rect class="cls-7" x="-137.84" y="-218.84" width="1109" height="1109"/><path class="cls-8" d="m-137.7,334.93c0-182.33.03-364.65-.14-546.98,0-5.54,1.25-6.78,6.78-6.78,365.15.15,730.29.15,1095.44,0,5.54,0,6.78,1.25,6.78,6.78-.15,365.15-.15,730.29,0,1095.44,0,5.54-1.25,6.78-6.78,6.78-365.15-.15-730.29-.15-1095.44,0-5.54,0-6.79-1.25-6.78-6.78.17-182.82.14-365.64.14-548.46Zm735.05-23.68c2.01,9.4,4.02,18.8,6.02,28.2-.12,4.45-.09,8.88,1.35,13.17,1.65,35.47-1.54,70.49-10.38,104.88-3.82,14.86-8.5,29.49-12.8,44.23-2.15,1.57-2.35,4.19-3.26,6.38-7.93,18.99-17.53,37.05-29.33,53.93-6.25,8.14-12.47,16.29-19.84,23.48-1.22,1.19-2.36,2.34-2.51,4.26-1.18,14.98-3.86,29.83-4.19,44.89-1.21,13.2-3.45,26.32-3.17,39.63-1.89,18.25-3.75,36.51-5.72,54.75-.33,3.06.67,3.68,3.65,3.4,6.08-.57,12.22-.63,18.33-.9,2.19-.02,4.39.04,6.58-.09,41.41-2.46,82.64-7.79,124.25-7.09,43.79.74,85.19,9.12,121.27,35.82,2.74,2.03,5.83,3.66,8.93,5.11,17.6,8.22,29.45,2.28,33.68-16.78,2.03-11.82,1.21-23.32-3.79-34.36-.02-1.46.26-3.01-.11-4.38-4.85-18.2-5.87-36.72-4.55-55.41,1.31-18.51,7.75-35.79,12.97-53.36,2.25-5.1,4.81-10.09,5.13-15.82,4.55-6.67,6.53-14.41,9.17-21.87,9.14-21.34,16.49-43.3,22.46-65.72,5.13-15.98,8.37-32.39,11.39-48.86,6.72-30.19,9.84-60.82,11.13-91.66.97-27.61.97-55.21-1.8-82.74-1.84-18.63-3.68-37.26-5.52-55.89.28-4.55-.4-9.01-1.37-13.43.52-7.81-.35-15.53-1.34-23.25-.27-15.28-.54-30.56-.81-45.84.29-21.34,3.5-41.77,18.41-58.52.13-.15.06-.47.08-.72,6.81-7.43,9.73-15.8,5.34-25.45-4.23-9.31-12.45-11.83-21.84-11.78-3.42.02-6.95-.12-10.25.6-19.09,4.16-38.04,8.98-57.47,11.44-24.63.57-49.23.44-73.71-2.83-7.06-1.17-14.15-2.16-21.17-3.53-23.98-4.66-47.61-10.64-71.03-17.63-40.89-12.21-81.49-25.51-123.31-34.4-5.43-1.13-10.86-2.26-16.29-3.4-48.25-10.04-97.06-16.72-145.79-23.75-24.42-3.52-48.5-9.11-73.24-10.87-11.13-.79-22.18-3.74-33.49-3.98-12.74-1.45-25.48-2.9-38.22-4.35-2.54-.41-5.09-.83-7.63-1.24-2.9-.47-5.79-.94-8.69-1.41-1.5-.16-3.01-.33-4.51-.49-5.89-1.34-11.78-2.67-17.66-4.01-26.1-6.82-50.41-17.48-72.31-33.42-1.96-1.43-4.2-2.56-6.45-3.5-9.04-3.76-13.96-1.1-16.05,8.46-1.6,7.31-1.32,14.69-.19,21.97,2.86,18.51-.47,35.77-7.81,53-11.45,26.84-23.64,53.27-37.82,78.77-3.85,6.03-6.85,12.49-9.65,19.04-7.78,16.42-12.85,33.81-18.04,51.12C-1.35,187.44-12.86,240.79-20.86,294.9c-1.67,11.3-2.78,22.67-4.15,34.01-.18,2.4-.37,4.79-.55,7.19-2.38,12.81-2.96,25.83-3.75,38.78-1.1,18.08-3.16,36.16-1.76,54.33-.07,2.02-.14,4.05-.22,6.07-2.37,20.04.1,40.13-.69,60.22-1.33,33.98-6,66.82-25.12,96.04-1.59,2.44-2.8,5.16-3.95,7.85-8.43,19.73-2.17,31.04,19.3,35,5.86.08,11.72.12,17.58.25,32.07.71,64.45-5.36,96.1,4.42,7.26,2.99,14.51,5.98,21.77,8.97,2.59,1.35,5.18,2.71,7.77,4.06,8.36,3.47,16.72,6.94,25.09,10.41,1.93.69,3.87,1.38,5.8,2.07,8.55,4.12,17.37,7.52,26.51,10.1,18.36,7.42,37.14,13.59,56.26,18.73,24.67,8.01,49.96,13.62,75.22,19.33,3.23.73,4.87-.19,5.85-3.48,3.77-12.62,7.77-25.16,11.69-37.73,3.33-10.29,6.67-20.57,10.02-30.92-47.65-5.82-94.91-11.69-138.07-34.11-3.58-5.73-10.51-8.95-12.11-16.16-.31-2.25-.89-4.39-2.44-6.14-1.53-4.28-.73-9.13-3.18-13.19-.12-7.83-.24-15.65-.36-23.48.08-9.01.18-18.02.24-27.02.04-5.43,1.54-8.49,7.63-5.22,2.54,1.36,5.13,2.83,8.17,2.9,24.78,10.21,49.21,10.55,73.18-2.04-6.06.42-12.09,1.4-18.17,2-17.63,1.74-34.63-1.91-51.5-6.39-2.47-1.61-5.44-1.85-8.06-2.84-4.58-1.73-10.9-1.73-8.6-10.77,1.45-5.7,3.27-12.14,1.96-18.48,3.48-6.58,2.88-14.06,4.64-21.03.45-1.78-.39-2.85-1.96-3.36-10.85-3.55-20.96-9.23-32.34-11.25-2.58-3.31-6.9-3.25-10.22-4.02-5.52-1.29-4.73-3.53-2.81-6.9,4.8-8.44,10.08-16.62,13.72-25.69,8.26-16.36,16.62-32.67,24.74-49.1,5.3-10.71,11.44-21.03,15.57-32.31,3.03-6.16,5.98-12.35,9.09-18.47,5.07-9.99,11.76-19.18,14.8-30.16,8.58-15.19,18.59-29.4,29.69-42.85,12.02-12.25,24.83-23.62,38.27-34.29,8.32-5.32,17.22-9.75,24.8-16.2,9.45-2.62,17.9-7.58,26.82-11.45,9.37-2.58,18.75-5.17,28.12-7.75,23.93-5.09,47.9-4.6,71.9-.5,8.98,2.26,17.97,4.51,26.95,6.77,18.09,6.37,35.67,13.93,52.88,22.37,9.92,6.46,19.84,12.92,29.77,19.38,8.32,7.84,16.64,15.68,24.96,23.52,13.07,15.6,24.08,32.5,32.62,51,2.91,7.96,5.82,15.91,8.73,23.87Zm-288.1,65.7c-33.43,7.88-59.52-1.87-78.12-33.04,1.31,18.4,9.18,30.52,24.67,37.08,18.37,7.78,36.36,7.96,53.45-4.04Z"/><path class="cls-4" d="m883.99,181.75c.99,7.72,1.86,15.44,1.34,23.25-2.74,4.09-4.69,8.53-5.87,13.31-.67.99-1.51,1.9-1.99,2.97-13.16,29.33-26.27,58.67-39.41,88.01-11.83,26.43-23.64,52.86-35.59,79.24-1.1,2.43-1.15,6.64-6.41,4.04-31.95-15.78-64.51-29.62-100.31-34.67-14.75-2.08-29.32-3.86-44.11-1.93-11.38,1.48-11.35,1.74-16.37-8.39-.22-.44-.38-.91-.57-1.36-4.38-14.92-13.23-27.26-23.61-38.34-6.9-7.36-12.6-16.3-22.47-20.5-8.54-18.49-19.55-35.4-32.62-51,4.33-9.58,8.71-19.14,12.99-28.74,16.28-36.53,32.58-73.05,48.76-109.62,4.35-9.83,8.29-19.85,12.42-29.78,3.12-2.67,3.3-6.85,4.86-10.26,2.25-4.92,4.78-4.96,9.05-3.04,7.13,3.22,14.25,6.38,21.06,10.27,22.13,12.63,39.17,30.53,53.45,51.31,4.92,10.34,10.77,20.25,14.5,31.13.8,2.33,2.34,3.04,4.46,2.84,10.05-.95,19.94,1.75,29.96,1.19,31.25,1.87,61.69,7.76,91.15,18.46,8.45,3.87,16.89,7.74,25.34,11.61Zm-222.05-58.99c1.43,2.99,3.1,5.64,7.95,5.11-2.35-2.87-4.14-5.03-7.05-5.94-7.02-6.69-15.34-10.82-24.82-12.69,8.36,3.85,15.29,10.21,23.92,13.52Zm-28.06,63.48c1.43,3,3.11,5.62,7.95,5.12-2.34-2.88-4.14-5.04-7.04-5.97-7.03-6.72-15.49-10.63-24.27-13.94-.32.59-.64,1.19-.96,1.78,8.1,4.34,16.2,8.67,24.31,13Zm11.29,73.03c-1.82-3.9-4.13-7.46-7.42-10.31-12.1-16.25-27.09-28.52-46.82-34.21,7.13,4.74,14.89,8.49,21.96,13.52,8.83,6.28,14.86,15.5,23.88,21.46,1.14,4.48,3.93,7.76,7.55,10.44,3.57,8.04,7.15,16.08,10.72,24.13.6-.29,1.2-.57,1.8-.86-2.02-8.88-5.73-17.02-11.69-24.16Zm13.29-50.2c-1.16-2.84-2.89-5.08-7.07-7.02,1.31,4.58,3.07,6.8,6.22,7.95,5.39,11.03,12.4,21.19,17.49,32.42-2.4-12.71-8.19-23.7-16.65-33.35Zm28.04-63.48c-1.11-2.89-2.87-5.09-6.86-6.95,1.02,4.55,2.92,6.67,6.01,7.86,5.28,11.06,12.49,21.09,17.35,32.4-1.63-13.02-8.16-23.62-16.5-33.32Zm-8.21,25.83c5.63,9.26,10.16,19.13,15.35,30.46.75-9.1-6.89-24.43-14.5-31.36-5.85-12.79-16.33-20.99-27.91-28.13,9.49,9.25,18.57,18.87,27.06,29.02Zm-13.45,14.82c6.52,11.63,14.21,22.63,19.41,35.01-2.13-13.97-8.92-25.56-18.46-35.76-12.04-16.32-27.1-28.49-46.76-34.29,6.94,5.05,14.87,8.5,21.93,13.58,8.8,6.33,14.83,15.54,23.87,21.47Zm-37.27,22.78c-7.23-8.99-17.57-12.42-27.87-15.98,9.12,5.43,18.18,10.89,26.96,16.81,16.74,15.2,30.43,32.63,38.04,54.94,2.54-2.69,1.76-4.01,1.28-5.41-3.77-11.04-9.71-20.97-16.97-29.91-6.22-7.66-11.54-16.55-21.45-20.46Zm160.53-32.89c-13.78-2.61-27.44-3.35-40.77,2.26,13.56-2.31,27.12-1.47,40.69-.27,25.4,4.42,49.49,12.68,72.47,24.3-22.19-14.1-46.26-22.99-72.39-26.29Zm-61.37,48.69c40.48-5.91,77.07,6.47,112.57,24.1-19.31-17.42-88.65-36.75-112.57-24.1Zm-42.6,95.23c40.52-5.07,77.27,7.51,113.1,24.54-35.23-19.9-72-32.56-113.1-24.54Zm11.79-25.78c40.67-5.8,77.39,6.58,112.94,24.43-19.94-17.93-87.79-36.65-112.94-24.43Zm41.47-93.56c12.7-.21,25.57-1.04,38.51.8,13.18,1.87,25.96,5.15,38.59,9.28,12,3.93,23.09,10.1,34.99,13.99-34.86-19.65-71.45-31.68-112.09-24.07Zm-21.02,47.49c19.77-4.11,39.1-1.22,58.25,3.21,19.18,4.43,37.19,12.26,54.84,20.92-22.92-19.31-91.53-36.68-113.1-24.13Zm102.47,46.28c-.38-.6-.61-1.47-1.15-1.76-31.6-17.12-64.88-27.65-101.33-25.38-5.52.34-7.01,1.2-10.14,4.2,40.51-6.24,76.75,6.05,112.61,22.93Zm-172.07-206.03c15.65,6.42,28.01,16.93,39.58,28.75,11.74,12.01,19.48,26.42,26.14,41.61-.76-23.62-40.55-68.22-65.72-70.36Zm-1.25,218.14c4.45-8.01-18.59-45.13-31.49-49.52,13.12,15.84,25.59,30.48,31.49,49.52Zm-32.8-51.79c-8.72-9.76-19.35-16.36-32.25-19.12,11.54,5.06,21.47,12.8,32.25,19.12Zm15.54-124.31c6.78,3.35,13.07,7.67,20.25,10.17-5.63-5.6-12.12-9.5-20.25-10.17Zm49.97,7.04c-.72-4.37-2.88-7.2-8.37-7.9,2.48,3.89,5.09,6.23,8.37,7.9Zm-27.41,63.6c-1.83-5.09-4.06-7.28-9.5-8.55,2.95,4.17,4.88,6.56,9.5,8.55Z"/><path class="cls-1" d="m830.22,748.52c-4.23,19.06-16.08,25.01-33.68,16.78-3.1-1.45-6.19-3.08-8.93-5.11-36.08-26.7-77.47-35.08-121.27-35.82-41.61-.7-82.84,4.63-124.25,7.09-2.19.13-4.39.06-6.58.09.24-8.65-1.55-17.57,5.41-24.95,6.33-6.71,12.18-13.9,18.08-21.01,7.04-8.48,6.96-21.09.02-27.55,6.77-13.68,13.97-27.14,21.9-40.19,8.76,6.38,16.16,14.88,28.09,16,13.21,1.24,25.95,4.33,36.86,12.56-2.84,5.44-5.96,10.75-8.45,16.34-2.67,6.01-4.95,6.98-9.04.97-1.68-2.46-4.84-4.19-7.67-5.55-13.24-6.39-29.11-.22-31.93,12.23-2.6,11.46,3.86,22.8,15.73,27.63,11.14,4.54,23.37,1.2,29-8.93,15.74-28.34,31.03-56.93,46.61-85.35,1.82-3.31,1.16-4.85-2.35-5.72-8.34-2.06-16.74-3.92-24.96-6.36-16.18-4.82-32.97-7.39-48.83-13.36,6.61-4.27,12.65-9.14,16.61-16.14,10.97-19.4,5.81-39.6-14.26-55.82-3.11-13.5-2.8-26.95,0-40.51,3.2-15.52,5.6-31.21,9-46.68,2.35-10.66,9.33-17.78,19.62-21.74,5.81-2.24,10.29,2.48,15.62,2.43,3.13,10.8,5.74,21.72,9.39,32.4,4.58,13.42,7.91,27.27,11.95,40.88,1.06,3.58.43,5.6-3.52,4.58-8.01-2.08-14.4,1.51-20.45,5.69-6.28,4.34-9.49,14.3-8.07,20.72,2.24,10.13,9.25,15.09,18.53,16.41,9.37,1.33,17.91-1.53,24.35-9.16,7-8.29,5.15-17.21,2.41-26.42-5.73-19.24-11.13-38.58-16.93-57.8-1.35-4.48-.41-6.57,4.28-6.78,4.6,2.88,8.09,6.91,14.27,7.97,12.22,2.1,24.11-2.1,36.14-.43-1.02,3.57-4.12,5.75-5.87,8.84-.1.22-.19.45-.29.67.12-.2.25-.39.37-.59,3.99.65,7.83-.58,11.47-1.65,5.16-1.53,6.77.56,8.15,5.04.91,2.94.18,6.89,3.96,9.04,1.84-2.52,3.16-5.22,5.79-6.71,10.98,7.69,24.08,11.1,35.62,17.66.18.1.48,0,.73,0,2.68,6.41,6.86,11.81,11.47,16.91-1.06,6.94,5.2,10.35,7.59,15.62,2.23,4.91,8.39,7.5,8.33,13.83-16.15,13.41-23.83,32.33-32.07,50.95-1.24-6.34.9-11.57,3.3-16.63,6.12-12.89,6.48-25.98,2.11-39.42-1.32-4.04-2.48-8.4-7.41-8.84-4.93-.44-7.16,3.53-9.11,7.33-6.35,12.38-7.84,25.16-3.35,38.52,1.41,4.18,2.71,8.46,3.38,12.79.45,2.92,2.14,7.09-1.55,8.65-3.19,1.36-4.91-2.54-6.69-4.59-2.72-3.14-5-6.69-7.27-10.19-6.95-10.74-17.04-16.81-29.25-19.52-3.74-.83-8.31-1.89-10.93,1.91-2.47,3.58-.74,7.58,1.2,11.12,6.33,11.52,15.43,19.43,28.48,22.71,6.51,1.64,13.39,2.84,19.22,8.32-5.03,3.33-10.14,4.41-15.54,4.61-14.1.54-26.42,5.05-36.14,15.73-2.91,3.2-6.09,6.58-4.33,10.94,1.66,4.1,6.14,4.26,10.2,4.38,7.25.22,14.31-.87,21.46-3.06-6.27,7.74-8.2,16.86-10.99,25.55-1.83,5.7,1.66,10.05,7.87,10.49,1.73,1.39.7,3.14.62,4.77-.88,16.34.36,32.03,9.48,46.58,6.53,10.42,16.19,16.63,25.84,23.18-.4,4.4,2.76,6.4,5.65,8.77,12.3,10.09,28.04,12.61,42.05,18.89,5,2.24,7.91,7.59,13.74,7.99Z"/><path class="cls-1" d="m349.54,164.84c-9.37,2.58-18.75,5.17-28.12,7.75-3.24-14.72-10.9-25.68-25.52-31.23-7.01-2.66-14.23-2.84-21.49-3.29-1-7.2-7.25-8.93-12.45-11.11-22.26-9.35-45.77-14.27-69.36-18.8-30.91-5.94-62.06-9.36-93.56-7.83-6.5.32-14.34-.16-16.67,8.82-2.95,10.32-7.3,20.24-8.73,30.99-11.52,7.34-24.24,11.92-37.13,16.12.29-23.52,14.48-38.5,31.91-51.27,5.79-4.24,13.09-6.13,16.41-13.8,2.11-4.89-.48-9.13.3-13.61,7.5-1.05,14.99-2.2,22.5-3.12,47-5.73,94-11.5,141.03-17.07,19.51-2.31,39.19-3.36,58.57-6.42,23.57-3.72,47.29-5.8,70.95-8.59,6.07-.72,12.81-.8,17.13-6.61,1.94-2.61,2.27-5.62,1.24-8.4-1.29-3.47-4.35-1.16-6.39-.93-18.28,2.07-36.5,4.8-54.81,6.43-5.52.49-8.97,5.56-13.42,5.47-18.87-.38-37.72-1.82-56.57-2.87.15-6.75-2.07-13.47,0-20.27,3.5-11.57,7.98-22.16,18.68-29.5,8.33-5.71,17.51-6.07,26.59-6.4,23.95-.85,46.45,8.21,69.89,11.37,17.27,2.33,34.86,4.04,51.69,9.23,4.43,1.37,10.15.88,11.79,7.03-5.92.64-7.81,3.6-7.69,9.78.43,22.86.21,45.73.01,68.59-.02,2.05,2.08,7.4-3.73,5.07-10-4-19.2-2.49-28.16,2.76-.71-.2-1.43-.38-2.13-.61-19.72-6.25-40.33-1.01-51.59,13.27-10.69,13.56-15.56,36.04-2.59,54.2,1.08,1.52,1.39,3.09,1.44,4.83Zm-17.79-141.38c.46,1.95-.51,4.54,2.19,5.4,3.01-2.92-2.38-6.25.98-9.91,2.1,3.19,1.06,7.26,4.09,10.18.25-1.8.41-2.96.57-4.12.75-.01,1.51-.03,2.26-.04.2.7.44,2.03.6,2.02,3.27-.18-.6-4.42,2.92-4.73,2.55.42.04,5.13,3.78,4.93.21-2.38.42-4.75.69-7.85,1.93,2.75,1.08,5.7,3.56,7.25,1.93-3-.62-6.49,1.41-9.87.97,3.38,1.81,6.31,2.69,9.4,2.76-1.53.94-3.8,1.67-5.44.59-.03,1.18-.07,1.76-.1.91,1.61-.41,4.48,3.05,5.03v-7.91c2.98,1.52,1.17,5.42,4.53,6.76v-8.47c3.23,1.9.81,6.94,4.34,8.62,2.53-1.27.31-4.66,3.13-5.41.35,1.51-.54,3.48,1.53,4.36,3.07-1.24-.52-4.3,1.49-5.87,2.78.64.67,5.13,4.14,4.92,0-2.78,0-5.45,0-8.12.61,0,1.22.02,1.83.03.18,2.76.4,5.5,2.37,8.29.84-1.76.43-5.8,3.7-2.4-.12,1.06.34,1.75,1.41,1.56.36-.06.6-.86.9-1.33-.27-3.06-.53-6.12-.82-9.17-.18-1.97.52-4.65-3.07-4.03-.58.13-1.16.26-1.74.39-.86-.02-1.72-.04-2.58-.06-1.31-.32-2.31.19-3.14,1.16-2.43-.68-4.81-.31-7.19.32-2.7-.74-5.2-.06-7.64,1.07-2.66-.25-5.25-.07-7.68,1.16-.31-.08-.62-.06-.92.05-6.34.3-12.68.59-18.73,2.83l.09-.02c-3.22-.79-6.34,0-9.47.6-1.86-.07-5.06-1.21-5.15.93-.22,4.97.66,10.04,3.33,14.72,2.95-2.37.19-5.72,3.12-7.12Z"/><path class="cls-1" d="m858.65,170.14c-29.46-10.7-59.9-16.6-91.15-18.46.12-1.44.06-2.91.37-4.3,3.14-14.24-1.66-27.16-12.68-34-11.79-7.32-25-6.19-36.61,3.14-14.29-20.78-31.33-38.68-53.45-51.31-6.81-3.88-13.93-7.05-21.06-10.27-4.27-1.92-6.8-1.88-9.05,3.04-1.56,3.41-1.74,7.59-4.86,10.26-8.21-4.94-17.33-7.66-26.23-10.97-4.03-1.5-5.45-.05-6.96,3.57-3.47,8.31-7.5,16.39-11.3,24.57-7.36-3.36-14.73-6.7-22.06-10.1-4.16-1.93-6.55-1.66-8.77,3.39-15.37,34.96-31.12,69.75-46.91,104.53-1.67,3.68-2.58,8.07-6.66,10.27-17.21-8.44-34.79-16-52.88-22.37-.85-13.36,3.84-25.95,5.5-38.97,1.08-8.43-1.97-17.95-8.21-21.61-.08-22.86-.09-45.71-.3-68.57-.03-3.45.83-5.47,4.39-6.34,20.24-4.93,40.46-9.94,60.67-15.01,4.97-1.25,6.54.58,6.43,5.52-.27,11.3-.13,22.61-.15,33.92q-.02,10.49-10.01,8.22c-10.8-2.45-23.58,3.76-27.67,13.45-3.7,8.75-.63,19.07,7.8,24.64,8.7,5.75,18.13,6.21,27.3,1.47,8.58-4.43,12.51-11.87,12.4-21.74-.18-17.94.07-35.88.13-53.82,3.37-.4,5.59-2.89,8.23-4.57,12.59-8.01,25.95-12.26,41.1-9.77,27.42,4.5,52.69,15.62,78.5,25.1,9.14,3.36,17.9,7.84,27.9,8.48,20.5,1.31,40.17,5.34,56.99,18.25,1.68,1.29,3.77.81,5.71.89,4.15,11.87,13.01,19.23,23.71,24.84-.06,2.82,1.68,4.45,3.81,5.85,8.32,5.49,17.44,6.42,26.68,3.53,14.63-4.58,27.91-11.73,38.66-22.96,2.27-2.37,4.56-4.52,8.24-3.59-1.08,1.9-2.52,3.68-3.16,5.71-2.07,6.56-6.43,12.75-4.37,20.1,2.29,8.19,5.47,16,11.38,22.39-.8,5.89,3.18,10.09,5.18,15.02,3.73,9.18,11.91,17.93,3.42,28.6Z"/><path class="cls-5" d="m73.63,140.14c1.43-10.75,5.78-20.67,8.73-30.99,1.19.1,2.63-.22,3.52.35,17.77,11.31,38.03,15.46,58.05,20.17,29.12,6.85,58.73,10.8,88.52,12.89,14.09.99,28.5,1.91,41.95-4.49,7.26.45,14.48.62,21.49,3.29,14.62,5.56,22.29,16.52,25.52,31.23-8.92,3.87-17.37,8.84-26.82,11.45.78-12.3-3.98-18.32-14.59-19.1-4.86-.36-7.18.87-7.15,6.21.05,9.78-1.47,19.45-3.06,29.09-13.44,10.67-26.24,22.04-38.27,34.29-15.72.08-31.35-1.1-46.97-2.8-38.74-4.2-76.43-12.39-112.06-28.67-7.16-3.41-10.66-8.46-7.91-16.67.59-1.77.23-3.87.3-5.82,7.21-4.02,15.33-6.24,22.09-11.16,2.01-1.46,4.25-2.72,3.3-5.76-1.45-4.7,0-9.68-1.73-14.43-1.63-4.51,2.06-11.35-1.83-13.68-3.74-2.23-8.19,4.06-13.09,4.6Z"/><path class="cls-6" d="m672.5,420.38c-4.69.21-5.63,2.31-4.28,6.78,5.8,19.22,11.2,38.56,16.93,57.8,2.74,9.2,4.59,18.13-2.41,26.42-6.44,7.63-14.98,10.49-24.35,9.16-9.28-1.32-16.29-6.28-18.53-16.41-1.42-6.41,1.79-16.37,8.07-20.72,6.05-4.18,12.43-7.78,20.45-5.69,3.95,1.03,4.58-.99,3.52-4.58-4.04-13.61-7.37-27.46-11.95-40.88-3.65-10.68-6.26-21.6-9.39-32.4,1.21-2.63,3.64-3.81,5.98-5.17,4.65-2.7,9.24-5.5,13.78-8.37,1.77-1.12,3.57-3.06.46-4.25-7.93-3.04-14.52-9.73-24.39-7.62-7.49,1.6-14.66-1.7-18.74-7.71-5.75-8.48-14.57-10.64-22.94-14.12-1.44-4.29-1.47-8.72-1.35-13.17,9.56,1.92,19.12,3.84,28.69,5.77.88.33,1.76.67,2.64,1,.19.45.35.92.57,1.36,5.02,10.12,4.99,9.87,16.37,8.39,14.78-1.93,29.35-.15,44.11,1.93,35.79,5.05,68.35,18.89,100.31,34.67,5.26,2.6,5.3-1.61,6.41-4.04,11.95-26.37,23.76-52.81,35.59-79.24,13.14-29.34,26.25-58.68,39.41-88.01.48-1.07,1.32-1.98,1.99-2.97,2.41.04,4.83.08,7.24.12,1.84,18.63,3.68,37.26,5.52,55.9-2.28.51-2.85,2.49-3.64,4.27-14.78,33.39-29.77,66.69-44.21,100.23-4.24,9.84-10.37,18.96-12.12,29.82-6.96-1.69-13.88-1.75-21-.54-13.74,2.33-21.14,12.04-27.81,22.8-8.04-1.49-14.82-6.12-22.31-8.97-2.32-.89-4.63-2.48-5.7,1.42-1.9,6.9-5.95,12.8-8.92,19.2-2.63,1.49-3.95,4.2-5.79,6.71-3.78-2.15-3.05-6.1-3.96-9.04-1.38-4.48-3-6.57-8.15-5.04-3.64,1.08-7.48,2.31-11.47,1.65l-.08-.08c1.75-3.09,4.85-5.27,5.87-8.84,1.64-2.73,3.43-5.39,4.89-8.21,5.09-9.82,5.05-9.86-4.72-14.57-2.87-1.38-6.06-2.26-8.67-4.01-7.45-5-13.23-5.04-19.99,2.28-6.18,6.7-14.54,11.39-21.93,16.97Z"/><path class="cls-1" d="m166.61,479.66c1.31,6.35-.5,12.78-1.96,18.48-2.3,9.04,4.02,9.03,8.6,10.77,2.62.99,5.59,1.23,8.06,2.84-.39,2.56-1.12,4.95-3.51,6.42-3.04-.07-5.63-1.54-8.17-2.9-6.1-3.26-7.6-.21-7.63,5.22-.06,9.01-.16,18.02-.24,27.02-1.42,0-2.84.01-4.26.02-1.65-4.28-2.8-8.84-5.06-12.76-3.78-6.55-9.03-6.69-13.1-.36-3.7,5.74-6.8,11.91-7.02,19.03-3.34-.23-5.16-2.82-6.94-5.02-8.8-10.85-15.58-23.05-22.1-35.29-2.72-5.1-5.91-9.27-10.22-12.83-3.7-4.3-3.8-10.54-8.18-14.57-11.02-10.13-21.91-20.4-32.73-30.74-2.65-2.54-5.18-3.48-8.42-1.42-2.21-4.74-5.46-2.93-9-1.77-3.38,1.11-6.67,5.48-10.57,1.73-10.34-9.94-22.96-15.44-36.42-19.44.02-5.89.16-11.79.03-17.68-.11-5.11,1.67-9.61,3.99-13.97,1.38-2.61,3.98-4.84,6.5-3.54,7.13,3.67,15.23,3.21,22.52,6.22,25.12,10.36,46.87-1.68,54.01-26.42,3.77-13.04-.2-20.93-13.51-21.64-.91-1.98-1.81-3.96-2.72-5.94,11.6-2.78,23.83-3.18,34.74-8.49,5.44-2.65,10.03-3.73,14.04,1.93-8.89,26.42.33,54.72,30.32,62.87-3.64,9.06-8.91,17.25-13.72,25.69-1.92,3.37-2.71,5.62,2.81,6.9,3.32.77,7.64.71,10.22,4.02,5.05,15.9,18.11,25.13,29.65,35.63Z"/><path class="cls-2" d="m64.89,180.57c-.08,1.95.29,4.04-.3,5.82-2.75,8.21.75,13.27,7.91,16.68-1.28,3.51.64,6.74.93,10.11,2.41,28.35,17.54,45.99,44.78,54.08,13.62,4.05,27.26,7.69,41.33,9.51,14.05,1.82,28.16,3.76,42.3.62-3.05,10.98-9.73,20.17-14.8,30.16-3.11,6.12-6.07,12.31-9.09,18.47-2.83.28-5.13-1.15-7.52-2.33-8.46-4.18-17.28-6.26-26.75-4.53-3.81-1.96-6.61-5.14-9.69-7.99,4.19-5.97,1.98-9.4-3.62-13.47-7.7-5.58-16.55-9.87-23.36-16.13-12.45-11.44-29.32-5-33.99,8.12-3.56,9.99-9.38,19.05-18.55,23.98-7.69,4.14-12.94,9.37-16.5,16.91-1.96-.49-3.92-.99-5.89-1.48-.9-7.36-8.36-6.25-12.4-7.74-3.59-1.33-3.82,5.24-3.84,9.04-3.22,1.13-6.73,1.76-8.73,5.03-4.61.67-8.88-1.32-13.36-1.73-6.26-1.59-12.51-3.19-18.77-4.78,1.37-11.34,2.48-22.72,4.15-34.01C-12.86,240.79-1.35,187.44,14.36,135.04c5.19-17.31,10.26-34.71,18.04-51.12,9.78-1.13,19.56-2.27,29.34-3.4,7.74-1.39,15.48-2.86,23.39-2.93-.77,4.48,1.82,8.72-.3,13.61-3.32,7.67-10.62,9.56-16.41,13.8-17.44,12.77-31.62,27.75-31.91,51.27-2.8,3.77.27,7.72-.37,11.56-.72.61-1.91,1.12-2.07,1.85-2.3,10.28-7.82,19.36-12.38,28.47-8.94,17.89-11.37,36.51-11.63,55.88-2.26,5.09-5.52,9.69-6.09,15.56-1.15,11.89,10.06,26.18,25.83,25.38,17.56-.89,30.24-13.43,28.44-29.21-2.36-20.71-4.83-41.41-7.17-62.12-1.9-16.85-1.85-16.85,13.82-23.06Z"/><path class="cls-4" d="m732.83,638.34c-6.21-.44-9.7-4.8-7.87-10.49,2.79-8.7,4.73-17.82,10.99-25.55-7.15,2.19-14.22,3.28-21.46,3.06-4.06-.13-8.54-.28-10.2-4.38-1.76-4.36,1.42-7.74,4.33-10.94,9.72-10.68,22.04-15.2,36.14-15.73,5.39-.2,10.51-1.28,15.54-4.61-5.83-5.48-12.71-6.69-19.22-8.32-13.05-3.28-22.15-11.18-28.48-22.71-1.94-3.54-3.68-7.54-1.2-11.12,2.63-3.81,7.19-2.75,10.93-1.91,12.21,2.72,22.3,8.79,29.25,19.52,2.27,3.5,4.55,7.05,7.27,10.19,1.78,2.06,3.5,5.95,6.69,4.59,3.69-1.57,2-5.74,1.55-8.65-.67-4.34-1.97-8.61-3.38-12.79-4.49-13.36-3-26.14,3.35-38.52,1.95-3.8,4.17-7.78,9.11-7.33,4.94.44,6.1,4.8,7.41,8.84,4.37,13.44,4.01,26.53-2.11,39.42-2.4,5.05-4.54,10.28-3.3,16.63,8.24-18.62,15.92-37.53,32.07-50.95,1.44-.14,2.89-.28,4.33-.41-2.69,12.31-10.15,22.14-16.89,32.33-4.03,6.1-9.91,10.89-12.67,17.88-.27.3-.54.6-.81.9.22.04.44.08.66.12.03-.35.06-.7.1-1.06,6.81-.46,9.97-6.42,14.58-10.02,10.61-8.3,22.65-11.23,35.71-11.1,3.17.03,6.74.43,8.29,3.7,1.7,3.57-.37,6.73-2.61,9.36-2.36,2.78-5.14,5.21-7.73,7.8-10.24,7.41-21.7,10.6-34.32,10.61-3.47,0-10.02-1.75-10.01,2.48.01,5.94,6.59,3.13,10.11,3.07,15.18-.28,29.23,2.4,40.89,12.96-.33,5.72-2.88,10.72-5.14,15.82-14.6,1.17-27.71-2.67-39.24-11.75-1.75-1.38-4.02-3.32-5.65-1.01-1.38,1.95,1.45,3.32,2.85,4.47,10.73,8.84,19.45,19.38,26.83,31.11,1.67,2.65,3.47,5.2,3.36,9.95-9.77-5.29-16.67-12.35-23.35-19.69-6.88-7.56-11.42-16.87-18.65-26.44-.09,9.49,2.52,16.37,4.47,23.35,3.77,13.47,1.75,26.21-4.6,38.39-3.85,7.39-9.65,8.14-13.25,1.57-4.11-7.49-6.26-15.49-5.73-24.37.64-10.83,6.14-20.08,8.42-30.32,1.28-2.82,3.19-7.35.64-8.33-3.63-1.39-3.62,3.8-5.11,6.22-.37.59-.46,1.35-.68,2.04-1.1,3.46-2.23,6.91-3.3,10.38-4.65,15.13-14.58,25.45-28.89,31.79Z"/><path class="cls-6" d="m182.68-60.4c5.89,1.34,11.78,2.67,17.66,4.01-1.83,5.41-4.9,10.58-4.18,18.66,5.02-6.71,6.54-12.59,8.69-18.17,2.9.47,5.79.94,8.69,1.41-3.13,4.54-7.8,8.13-9.74,15.63,7.19-4.99,12.64-9.24,17.38-14.4,12.74,1.45,25.48,2.9,38.22,4.35-11.86,15.73-28.81,18.89-47,19.2-2.11.03-5.67-1.34-5.66,2.55,0,3.29,3.14,3.18,5.59,3.24,2.94.06,5.91.23,8.83-.01,15.29-1.26,28.3,4.06,40.02,13.46,3.43,2.75,6.73,5.91,5.16,10.4-1.49,4.25-6.07,4-10.04,4.44C238.29,6.36,223.14,0,209.47-11.04c-1.46-1.18-3.42-3.55-4.91-1.73-1.91,2.35,1.17,3.66,2.73,4.86,7.62,5.86,14.46,12.66,20.49,20,5.65,6.87,11.86,13.73,14.03,22.87-1.53.07-3.06.13-4.59.2-14.33-11.83-26.41-25.64-35.99-43.3-1.62,6.66-.66,11.17.93,15.55,3.83,10.56,5.58,21.25,2.61,32.34-7.18,1.9-14.49,2.99-21.92,3.2-2.42-7.42-2.13-14.83-.65-22.45,1.74-8.96,7.4-16.58,8.31-25.78.17-1.74,1.04-3.63-1.14-4.35-2.37-.79-2.87,1.63-3.36,3.01-2.22,6.22-4.09,12.55-6.24,18.79-5.5,15.9-19.8,28.64-32.52,29.08-3.4-3.28-3.25-7.23-2.46-11.48,1.61-8.72,5.98-16.27,9.82-24.06.11-.21.22-.41.33-.62-.11.21-.22.41-.33.62-7.68,1.27-15.17,3.94-23.14,2.96-3.56-.44-7.16-1.51-8.44-4.94-1.15-3.08.68-6.11,2.91-8.56,7.37-8.1,15.6-14.37,26.93-16.44,6.75-1.24,13.77.02,20.27-2.66,1.75-.72,4.31-.79,4.43-3.15.11-2.16-2-3.39-3.79-4.02-6.22-2.17-12.64-3.8-18.79-6.16-13.66-5.23-23.17-14.26-25.57-29.38-.14-3.62,1.92-4.49,5.13-4.45,13.59.17,24.63,5.6,33.15,16.04,4.01,4.91,7.56,10.2,11.48,15.2,1.33,1.7,3.11,3.59,5.61,2.28,2.67-1.41,2.37-3.94,1.75-6.47-1.33-5.44-2.58-10.9-3.86-16.35Z"/><path class="cls-6" d="m732.83,638.34c14.31-6.34,24.24-16.67,28.89-31.79,1.07-3.47,2.2-6.92,3.3-10.38,1.72.03,3.44.05,5.15.08-2.27,10.24-7.78,19.5-8.42,30.32-.53,8.88,1.63,16.88,5.73,24.37,3.6,6.57,9.4,5.82,13.25-1.57,6.35-12.18,8.37-24.92,4.6-38.39-1.95-6.97-4.55-13.86-4.47-23.35,7.23,9.57,11.78,18.88,18.65,26.44,6.68,7.35,13.59,14.4,23.35,19.69.1-4.76-1.7-7.3-3.36-9.95-7.38-11.73-16.1-22.27-26.83-31.11-1.4-1.15-4.23-2.52-2.85-4.47,1.63-2.31,3.9-.37,5.65,1.01,11.54,9.07,24.64,12.92,39.24,11.75-5.22,17.57-11.66,34.85-12.97,53.36-1.32,18.7-.3,37.21,4.55,55.41.37,1.37.09,2.92.11,4.38-19.36,5.98-38.63,7.71-57.65-1.29-9.66-6.55-19.31-12.76-25.84-23.18-9.12-14.55-10.36-30.24-9.48-46.58.09-1.63,1.12-3.38-.62-4.77Z"/><path class="cls-6" d="m132.31,553.44c.23-7.12,3.32-13.28,7.02-19.03,4.07-6.32,9.32-6.19,13.1.36,2.26,3.92,3.41,8.49,5.06,12.76,3.61,18.07-6.82,33.72-9.1,50.85,6.81-8.17,8.45-18.66,13.71-27.39,2.44,4.06,1.65,8.91,3.18,13.19-3.4,3.84-7.11,7.48-8.89,12.96,5.66-.11,7.68-4.77,11.34-6.82,1.6,7.21,8.54,10.43,12.11,16.16-3.38.49-6.83.72-10.12,1.54-3.09.77-9-2.45-8.66,3.22.29,4.83,6.09,2.79,9.24,2.58,17.88-1.18,33.27,4.51,46.84,15.83,3.13,2.61,6.13,5.89,4.6,9.92-1.44,3.79-5.82,3.66-9.58,4.02-17.66,1.66-33.49-2.42-47.35-13.87-2.59-2.14-5.37-4.86-9.48-4.91-.03,3.59,2.65,4.28,4.39,5.83,13.35,12,26.15,24.5,34.68,40.62.86,1.62,2.63,3.65.62,5.29-1.51,1.23-3.43-.26-4.56-1.33-6.04-5.7-12.88-10.44-18.31-16.93-7.15-8.55-12.49-18.4-19.57-27.66-1.28,3.15-.47,5.21-.05,7.37,2.38,12.18,7.73,23.85,6.35,36.67-9.14-2.58-17.96-5.99-26.51-10.1,2.46-7.13,4.96-14.25,7.36-21.41,1.08-3.23,2.1-6.5,2.89-9.81.31-1.3.63-3.17-1.14-3.8-1.8-.63-2.6.98-3.16,2.29-1.45,3.35-3.19,6.66-4.03,10.18-1.72,7.18-4.19,14.01-7.72,20.47-8.36-3.47-16.72-6.94-25.09-10.41,1.46-2.38,2.92-4.77,4.38-7.15.1-.18.21-.36.31-.55-.09.2-.18.4-.27.59-4.43-.42-8.24,1.62-12.21,3.04-7.26-2.99-14.51-5.98-21.77-8.97,2.83-7.35,9.82-10.88,14.88-16.18,7.77-3.62,15.92-5.79,24.4-7.01,4.08-.59,8.33.22,12.27-1.62,1.92-.9,4.98-.76,5.27-3.21.36-3.09-3-3.58-5.05-4.38-4.75-1.85-9.7-3.2-14.56-4.75-7.7-2.46-15.11-5.36-19.62-12.74,9.44-3.44,18.87-6.88,28.31-10.32,1.73,5.49,5.6,9.71,8.77,14.29,2.38,3.44,5.01,9.15,9.85,6.82,4.27-2.06,1.52-7.42.64-11.34-2.58-11.59-8.06-22.78-4.79-35.17Z"/><path class="cls-2" d="m241.82,34.96c-2.17-9.15-8.39-16-14.03-22.87-6.03-7.34-12.87-14.13-20.49-20-1.56-1.2-4.64-2.52-2.73-4.86,1.49-1.83,3.45.55,4.91,1.73C223.14,0,238.29,6.36,256.3,4.37c3.98-.44,8.56-.19,10.04-4.44,1.57-4.49-1.73-7.65-5.16-10.4-11.71-9.4-24.72-14.72-40.02-13.46-2.92.24-5.89.07-8.83.01-2.46-.05-5.59.05-5.59-3.24,0-3.89,3.55-2.52,5.66-2.55,18.18-.3,35.14-3.47,47-19.2,11.31.24,22.37,3.19,33.49,3.98,24.75,1.76,48.82,7.35,73.24,10.87,48.74,7.02,97.54,13.7,145.79,23.75-1.03,1.75-2.97,1.63-4.54,2.01-21.12,5.13-42.26,10.17-63.4,15.23-1.65-6.15-7.37-5.67-11.79-7.03-16.83-5.2-34.43-6.9-51.69-9.23-23.44-3.16-45.95-12.23-69.89-11.37-9.09.32-18.27.68-26.59,6.4-10.7,7.35-15.17,17.93-18.68,29.5-2.06,6.8.16,13.52,0,20.27-7.84-.17-15.69-.33-23.53-.5Z"/><path class="cls-5" d="m443.98,6.93c21.14-5.06,42.28-10.1,63.4-15.23,1.57-.38,3.51-.26,4.54-2.01,5.43,1.13,10.86,2.26,16.3,3.4-2.28,1.41-1.93,3.72-1.92,5.85.1,11.11.24,22.23.37,33.34-.07,17.94-.32,35.88-.13,53.82.1,9.87-3.82,17.31-12.4,21.74-9.17,4.73-18.6,4.27-27.3-1.47-8.43-5.57-11.5-15.89-7.8-24.64,4.09-9.68,16.87-15.89,27.67-13.45q10,2.27,10.01-8.22c.02-11.31-.12-22.62.15-33.92.12-4.94-1.46-6.77-6.43-5.52-20.21,5.07-40.43,10.08-60.67,15.01-3.57.87-4.42,2.9-4.39,6.34.2,22.86.22,45.71.3,68.57-1.44,9.19-7.07,15.09-15.05,19.14-.97.05-1.96,0-2.91.17-21.92,3.84-34.04-8.36-29.37-29.55.53-1,1.07-2,1.6-3.01,1.49-1.38,2.97-2.76,4.46-4.15,8.96-5.25,18.16-6.77,28.16-2.77,5.81,2.32,3.71-3.02,3.73-5.07.19-22.86.41-45.73-.01-68.59-.12-6.19,1.78-9.14,7.69-9.78Z"/><path class="cls-5" d="m580.91,617.85c-7.93,13.05-15.12,26.51-21.9,40.19-1.17,1.86-2.41,3.67-3.49,5.58-8.97,15.86-20.03,19.13-36.28,10.68-.28-13.32,1.96-26.43,3.17-39.64,12.18-.67,22.86,2.22,30.44,14.09,5.37-9.75,10.51-18.37,14.95-27.34,6.51-13.14,15.65-24.95,19.77-39.28,5.55-.92,11.22-1.32,16.4-3.82,15.86,5.97,32.65,8.54,48.83,13.36,8.22,2.45,16.62,4.31,24.96,6.36,3.51.87,4.16,2.41,2.35,5.72-15.58,28.43-30.87,57.02-46.61,85.35-5.63,10.13-17.85,13.46-29,8.93-11.86-4.83-18.32-16.18-15.73-27.63,2.82-12.45,18.69-18.63,31.93-12.23,2.82,1.36,5.99,3.09,7.67,5.55,4.08,6.01,6.37,5.04,9.04-.97,2.49-5.59,5.61-10.9,8.45-16.34,3.36-5.97,6.49-12.08,10.14-17.87,2.75-4.35,1.19-5.74-3.11-6.83-17.57-4.46-35.08-9.16-52.62-13.7-13.62-3.53-13.64-3.48-19.37,9.84Z"/><path class="cls-1" d="m86.83,622.88c-5.07,5.29-12.05,8.83-14.89,16.17-31.65-9.78-64.03-3.71-96.1-4.42-5.86-.13-11.72-.17-17.58-.25-2.88-18.64,1.86-35.91,10.18-52.27,4.84-9.52,7.29-19.75,10.35-29.8,2.21-7.25,3.41-14.86,7.13-21.56,2.6-4.68,3.54-9.48,3.42-14.8-.23-10.14-.05-10.15,9.26-6.68-.55,6.16.15,12,2.31,17.97,8.29,22.88,16.87,45.66,24,68.95,3.64,11.89,3.83,11.82,16.14,8.2,1.39-.41,2.87-.55,4.3-.82-.29,7.17,4.9,9.46,10.29,11.66,10.02,4.1,21.3,2.99,31.18,7.63Z"/><path class="cls-6" d="m201.84,277.39c-14.15,3.14-28.25,1.2-42.3-.62-14.07-1.82-27.7-5.46-41.33-9.51-27.25-8.1-42.37-25.74-44.78-54.08-.29-3.37-2.21-6.6-.93-10.11,35.64,16.28,73.32,24.47,112.07,28.67,15.63,1.7,31.26,2.88,46.97,2.8-11.1,13.45-21.11,27.66-29.69,42.85Z"/><path class="cls-5" d="m585.68,85.39c3.8-8.17,7.83-16.25,11.3-24.57,1.51-3.61,2.93-5.07,6.96-3.57,8.9,3.31,18.02,6.04,26.23,10.97-4.13,9.93-8.07,19.95-12.42,29.78-16.18,36.57-32.48,73.09-48.76,109.62-4.28,9.6-8.66,19.16-12.99,28.74-8.32-7.84-16.64-15.68-24.96-23.52.43-1.89.59-3.9,1.35-5.64,7.94-18.18,16.03-36.3,23.99-54.48,9.81-22.43,19.54-44.89,29.3-67.34Z"/><path class="cls-2" d="m814.58,506.17c-1.44.14-2.89.28-4.33.41.06-6.33-6.1-8.92-8.33-13.83-2.4-5.28-8.65-8.68-7.59-15.62,16.01,16.66,45.95,9.6,57.37-5.06,16.77-21.52,8.46-54.62-19.44-63.41,1.75-10.86,7.88-19.98,12.12-29.82,14.44-33.54,29.43-66.84,44.21-100.23.79-1.78,1.36-3.76,3.64-4.27,2.77,27.53,2.77,55.13,1.8,82.74-7.93-.38-10.16,6.92-14.4,11.16-17.73,17.76-24.55,38.54-13.39,62.24,3.41,7.25,5.76,17.14,16.66,18.27-3.02,16.47-6.26,32.88-11.39,48.86-7.32-.67-14.88-1.15-21.51,2.17-11.3,5.65-23.17,6.7-35.4,6.41Z"/><path class="cls-2" d="m158.88,674.67c1.37-12.82-3.97-24.49-6.35-36.67-.42-2.16-1.23-4.22.05-7.37,7.08,9.26,12.42,19.1,19.57,27.66,5.43,6.49,12.27,11.23,18.31,16.93,1.14,1.07,3.05,2.57,4.56,1.33,2-1.64.23-3.66-.62-5.29-8.53-16.12-21.33-28.61-34.68-40.62-1.73-1.56-4.41-2.25-4.39-5.83,4.11.05,6.89,2.78,9.48,4.91,13.86,11.45,29.69,15.53,47.35,13.87,3.76-.35,8.14-.23,9.58-4.02,1.53-4.03-1.47-7.32-4.6-9.92-13.57-11.32-28.96-17.01-46.84-15.83-3.15.21-8.95,2.25-9.24-2.58-.34-5.67,5.57-2.45,8.66-3.22,3.3-.82,6.74-1.05,10.12-1.54,43.16,22.42,90.42,28.29,138.07,34.11-3.36,10.35-6.69,20.64-10.02,30.92-7-4.68-14.79-7.81-23.05-8.3-7.93-.47-15.16-2.72-22.68-4.81-13.15-3.67-25.74.95-37.27,6.5-6.97,3.35-13.41,9.11-12.82,18.89.22,3.63,3.78,5.88,3.06,9.6-19.12-5.14-37.9-11.31-56.26-18.73Z"/><path class="cls-2" d="m-1.39,509.28c-9.31-3.46-9.5-3.46-9.26,6.68.12,5.32-.82,10.11-3.42,14.8-3.72,6.7-4.92,14.31-7.13,21.56-3.06,10.05-5.51,20.27-10.35,29.8-8.32,16.37-13.06,33.63-10.18,52.27-21.47-3.96-27.73-15.27-19.3-35,1.15-2.69,2.36-5.41,3.95-7.85,19.12-29.23,23.79-62.06,25.12-96.04.79-20.09-1.68-40.18.69-60.22,4.38.98,8.77,1.97,13.15,2.95,10.92,4.08,22.19,7.42,31.73,14.51,1.91,1.42,5.02,2.64,4.73,5.13-.3,2.55-3.78,2.51-5.88,3.5-4.11,1.93-9.98,2.36-6.74,9.46-4.47.84-4.73,4.1-4.72,7.77.04,10.29-.83,20.52-2.38,30.69Z"/><path class="cls-6" d="m398.36,100.3c-4.67,21.2,7.45,33.39,29.37,29.55.95-.17,1.94-.12,2.91-.17,1.78,12.84-3.47,23.81-9.2,34.66-24-4.1-47.97-4.59-71.9.5-.05-1.74-.36-3.31-1.44-4.83-12.97-18.16-8.1-40.65,2.59-54.2,11.26-14.28,31.87-19.52,51.59-13.27.7.22,1.42.4,2.13.61-1.48,1.38-2.97,2.77-4.46,4.15-25.69-6.27-48.87,9.89-51.26,36.32-.48,5.28.43,11.25,5.23,15.29.36.48-.59,1.88,1.03,1.46-.35-.48-.7-.96-1.05-1.45.47-7.07-1.11-14.23.93-21.24,5.33-18.25,20.76-27.96,43.51-27.38Z"/><path class="cls-6" d="m585.68,85.39c-9.76,22.45-19.49,44.91-29.3,67.34-7.95,18.18-16.04,36.3-23.99,54.48-.76,1.74-.91,3.75-1.35,5.64-9.92-6.46-19.84-12.92-29.77-19.38,4.08-2.2,4.99-6.6,6.66-10.27,15.79-34.77,31.54-69.57,46.91-104.53,2.22-5.05,4.61-5.32,8.77-3.39,7.34,3.41,14.71,6.74,22.06,10.1Z"/><path class="cls-1" d="m215.14,693.4c.71-3.72-2.85-5.97-3.06-9.6-.59-9.78,5.85-15.54,12.82-18.89,11.54-5.55,24.12-10.17,37.27-6.5,7.51,2.1,14.75,4.35,22.68,4.81,8.26.49,16.05,3.61,23.05,8.3-3.92,12.57-7.92,25.11-11.69,37.73-.98,3.29-2.62,4.21-5.85,3.48-25.26-5.72-50.55-11.33-75.22-19.33Z"/><path class="cls-6" d="m143.68,319.15c9.46-1.73,18.29.34,26.75,4.53,2.39,1.18,4.69,2.61,7.52,2.33-4.13,11.28-10.27,21.6-15.57,32.31-8.13,16.43-16.48,32.74-24.74,49.1-30-8.16-39.21-36.46-30.32-62.87,2.65-.3,5.39-.26,7.94-.94,13.37-3.57,22.22-12.51,28.42-24.46Z"/><path class="cls-2" d="m182.68-60.4c1.28,5.45,2.53,10.91,3.86,16.35.62,2.53.92,5.06-1.75,6.47-2.5,1.32-4.27-.58-5.61-2.28-3.92-4.99-7.47-10.28-11.48-15.2-8.53-10.44-19.57-15.88-33.15-16.04-3.21-.04-5.27.83-5.13,4.45-9.36-.33-19-1.26-24.99,8.26-3.8,6.03-6.23,12.78-7.29,19.76-2.93,19.12-7.93,37.55-15.08,55.57-5.53,13.93-12.96,27.56-11.56,43.42-.59.37-1.18.74-1.77,1.12-8.89,1.13-17.78,2.26-26.67,3.39,14.18-25.5,26.37-51.92,37.82-78.77,7.35-17.23,10.67-34.48,7.81-53-1.13-7.28-1.41-14.65.19-21.97,2.1-9.56,7.01-12.21,16.05-8.46,2.25.93,4.49,2.07,6.45,3.5,21.9,15.93,46.21,26.6,72.31,33.42Z"/><path class="cls-2" d="m526.68,32.28c-.13-11.11-.28-22.23-.37-33.34-.02-2.13-.36-4.44,1.92-5.85,41.82,8.89,82.42,22.19,123.31,34.4,23.42,6.99,47.05,12.97,71.03,17.63,7.02,1.37,14.11,2.36,21.17,3.53-.82,7.42-1.85,14.85,1.37,22.01-1.94-.08-4.03.4-5.71-.89-16.82-12.9-36.48-16.94-56.99-18.25-10-.64-18.76-5.12-27.9-8.48-25.81-9.48-51.08-20.6-78.5-25.1-15.15-2.49-28.51,1.76-41.1,9.77-2.64,1.68-4.87,4.18-8.23,4.57Z"/><path class="cls-2" d="m604.72,352.62c8.37,3.48,17.19,5.64,22.94,14.12,4.08,6.01,11.25,9.31,18.74,7.71,9.87-2.11,16.46,4.58,24.39,7.62,3.1,1.19,1.3,3.13-.46,4.25-4.54,2.88-9.13,5.67-13.78,8.37-2.34,1.36-4.77,2.54-5.98,5.17-5.33.05-9.81-4.67-15.62-2.43-10.28,3.96-17.27,11.08-19.62,21.74-3.4,15.47-5.8,31.16-9,46.68-2.79,13.55-3.11,27.01,0,40.51-3.91-1.32-7.81-2.65-11.72-3.97-4.29-1.46-8.66-1.39-13.07-.67,4.29-14.74,8.98-29.37,12.8-44.23,8.84-34.4,12.03-69.42,10.38-104.88Z"/><path class="cls-2" d="m846.21,78.32c-3.68-.93-5.97,1.22-8.24,3.59-10.75,11.23-24.03,18.38-38.66,22.96-9.24,2.89-18.35,1.96-26.68-3.53-2.12-1.4-3.87-3.03-3.81-5.85,8.9,1.59,17.57,2.27,26.43-1.27,15.81-6.32,27.83-27.75,22.2-42.75,19.43-2.46,38.38-7.28,57.47-11.44,3.31-.72,6.83-.59,10.25-.6,9.39-.05,17.61,2.47,21.84,11.78,4.39,9.66,1.46,18.02-5.34,25.45-14.94-16.87-37.38-16.2-55.45,1.65Z"/><path class="cls-2" d="m61.27,357.06c13.31.71,17.28,8.6,13.51,21.64-7.14,24.73-28.9,36.78-54.01,26.42-7.29-3.01-15.39-2.54-22.52-6.22-2.53-1.3-5.12.93-6.5,3.54-2.31,4.37-4.09,8.86-3.99,13.97.13,5.89,0,11.79-.03,17.68-1.94-.52-3.88-1.04-5.81-1.56-4.09-2.04-8.42-3.13-12.98-3.34-1.41-18.17.66-36.25,1.76-54.33.79-12.95,1.37-25.96,3.75-38.77,6.42,1.06,12.84,2.12,19.26,3.18,1.67,1.41,3.72,1.53,5.75,1.71-1.36,2.31-2.84,4.56-4.07,6.94-7.48,14.47-4.61,31.34,7.13,42.32,11.56,10.82,29.03,12.55,42.72,3.7,13.35-8.64,17.57-21.6,16.06-36.89Z"/><path class="cls-2" d="m587.58,582.14c-4.12,14.33-13.27,26.14-19.77,39.28-4.44,8.97-9.58,17.58-14.95,27.34-7.58-11.87-18.26-14.77-30.44-14.09.33-15.06,3.01-29.91,4.19-44.89.15-1.93,1.29-3.07,2.51-4.26,7.37-7.19,13.59-15.34,19.84-23.48,4.71,4.17,7.62,10.07,13.04,13.56l.08.08c.18.83.54,1.37,1.51.93,7.34,4.73,15.3,6.74,24,5.54Z"/><path class="cls-6" d="m817.44,51.48c5.63,15.01-6.39,36.43-22.2,42.75-8.85,3.54-17.53,2.86-26.43,1.27-10.7-5.61-19.57-12.97-23.71-24.84-3.23-7.16-2.19-14.59-1.37-22.01,24.48,3.27,49.08,3.4,73.71,2.83Z"/><path class="cls-1" d="m814.58,506.16c12.24.29,24.11-.76,35.4-6.41,6.63-3.32,14.19-2.84,21.51-2.17-5.97,22.43-13.31,44.38-22.46,65.72-4.44-4.26-11.14-3.54-15.84-7.24,2.6-2.58,5.37-5.02,7.73-7.8,2.24-2.63,4.31-5.79,2.61-9.36-1.56-3.27-5.12-3.67-8.29-3.7-13.06-.13-25.1,2.8-35.71,11.1-4.61,3.6-7.77,9.56-14.58,10.02l.06.04c2.76-6.99,8.64-11.79,12.67-17.88,6.74-10.2,14.2-20.02,16.89-32.33Z"/><path class="cls-2" d="m519.24,674.3c16.25,8.45,27.31,5.18,36.28-10.68,1.08-1.91,2.32-3.72,3.49-5.58,6.95,6.46,7.02,19.07-.02,27.55-5.9,7.11-11.74,14.29-18.08,21.01-6.96,7.38-5.17,16.31-5.41,24.95-6.11.27-12.24.33-18.33.9-2.99.28-3.98-.34-3.65-3.4,1.96-18.24,3.82-36.5,5.72-54.75Z"/><path class="cls-5" d="m561.99,575.59c-5.42-3.48-8.33-9.39-13.04-13.56,11.8-16.88,21.41-34.94,29.33-53.93.91-2.19,1.11-4.8,3.26-6.38,4.4-.72,8.77-.79,13.07.67-3.09,16.87-11.46,31.6-18.71,46.81-4.28,9-11.04,16.67-13.92,26.38Z"/><path class="cls-2" d="m421.44,164.34c5.72-10.85,10.97-21.82,9.2-34.66,7.98-4.05,13.6-9.95,15.05-19.14,6.24,3.66,9.29,13.18,8.21,21.61-1.66,13.02-6.36,25.61-5.5,38.97-8.98-2.26-17.97-4.51-26.95-6.77Z"/><path class="cls-2" d="m768.77,712.87c19.03,9,38.29,7.27,57.65,1.29,5,11.04,5.83,22.54,3.79,34.36-5.83-.4-8.74-5.75-13.74-7.99-14.02-6.27-29.75-8.79-42.05-18.89-2.89-2.37-6.05-4.37-5.65-8.77Z"/><path class="cls-2" d="m833.2,556.08c4.69,3.7,11.4,2.98,15.84,7.24-2.64,7.47-4.63,15.21-9.17,21.87-11.66-10.56-25.71-13.24-40.89-12.96-3.52.07-10.1,2.88-10.11-3.07,0-4.22,6.54-2.47,10.01-2.48,12.62,0,24.08-3.2,34.32-10.61Z"/><path class="cls-2" d="m309.25,376.95c-17.1,12-35.08,11.82-53.45,4.04-15.49-6.56-23.35-18.68-24.67-37.08,18.6,31.17,44.69,40.92,78.12,33.04Z"/><path class="cls-2" d="m166.61,479.66c-11.54-10.5-24.6-19.73-29.65-35.63,11.38,2.02,21.49,7.69,32.34,11.25,1.56.51,2.4,1.58,1.96,3.36-1.76,6.96-1.16,14.44-4.64,21.03Z"/><path class="cls-2" d="m269.8,200.25c1.59-9.64,3.11-19.31,3.06-29.09-.03-5.34,2.3-6.57,7.15-6.21,10.61.78,15.37,6.81,14.59,19.1-7.58,6.45-16.48,10.88-24.8,16.2Z"/><path class="cls-5" d="m634.7,346.21c-.88-.33-1.76-.67-2.64-1-9.74-13.19-21.1-24.72-34.71-33.96-2.91-7.96-5.82-15.91-8.74-23.87,9.87,4.19,15.57,13.13,22.47,20.49,10.38,11.08,19.23,23.42,23.61,38.34Z"/><path class="cls-2" d="m177.8,518.18c2.38-1.48,3.11-3.86,3.51-6.42,16.88,4.48,33.87,8.13,51.5,6.39,6.07-.6,12.11-1.58,18.17-2-23.97,12.59-48.4,12.25-73.18,2.04Z"/><path class="cls-5" d="m42.05,64.87c8.89-1.13,17.78-2.26,26.67-3.39-.38,7.06-6.94,11.85-6.99,19.03-9.78,1.14-19.56,2.27-29.34,3.4,2.8-6.56,5.8-13.02,9.65-19.05Z"/><path class="cls-1" d="m597.35,311.25c13.6,9.24,24.96,20.77,34.71,33.96-9.56-1.92-19.12-3.84-28.68-5.77-2.01-9.4-4.02-18.8-6.02-28.2Z"/><path class="cls-2" d="m162.11,571c-5.26,8.73-6.91,19.22-13.71,27.39,2.28-17.13,12.71-32.78,9.1-50.85,1.42,0,2.84-.01,4.26-.02.12,7.83.24,15.65.36,23.48Z"/><path class="cls-2" d="m126.57,662.49c3.52-6.47,6-13.3,7.72-20.47.84-3.52,2.58-6.83,4.03-10.18.57-1.31,1.36-2.92,3.16-2.29,1.77.62,1.44,2.5,1.14,3.8-.79,3.31-1.8,6.58-2.89,9.81-2.4,7.15-4.9,14.27-7.36,21.41-1.93-.69-3.87-1.38-5.8-2.07Z"/><path class="cls-2" d="m167.73,590.33c-3.66,2.05-5.68,6.71-11.34,6.82,1.79-5.48,5.5-9.12,8.89-12.96,1.56,1.75,2.13,3.89,2.44,6.14Z"/><path class="cls-2" d="m93.71,648.02c3.97-1.42,7.78-3.46,12.21-3.04,0,0-.05-.05-.05-.05-1.46,2.38-2.92,4.77-4.38,7.15-2.59-1.35-5.18-2.71-7.77-4.06Z"/><path class="cls-5" d="m718.58,116.51c11.62-9.33,24.82-10.46,36.61-3.14,11.02,6.84,15.82,19.76,12.68,34-.31,1.39-.26,2.87-.37,4.3-10.02.55-19.92-2.14-29.96-1.19-2.12.2-3.66-.5-4.46-2.84-3.73-10.88-9.58-20.79-14.5-31.13Z"/><path class="cls-6" d="m726.74,224.82c23.92-12.65,93.26,6.68,112.57,24.1-35.5-17.63-72.09-30.01-112.57-24.1Z"/><path class="cls-6" d="m684.14,320.05c41.1-8.02,77.87,4.64,113.1,24.54-35.83-17.02-72.58-29.6-113.1-24.54Z"/><path class="cls-6" d="m695.94,294.26c25.15-12.22,93,6.5,112.94,24.43-35.56-17.85-72.27-30.23-112.94-24.43Z"/><path class="cls-6" d="m737.41,200.7c40.64-7.61,77.23,4.43,112.09,24.07-11.91-3.89-22.99-10.06-34.99-13.99-12.63-4.14-25.41-7.41-38.59-9.28-12.94-1.84-25.8-1.01-38.51-.8Z"/><path class="cls-6" d="m716.39,248.19c21.57-12.55,90.18,4.83,113.1,24.13-17.66-8.67-35.66-16.49-54.84-20.92-19.15-4.43-38.48-7.32-58.25-3.21Z"/><path class="cls-6" d="m818.86,294.46c-35.86-16.89-72.1-29.17-112.61-22.93,3.12-3.01,4.61-3.86,10.14-4.2,36.45-2.27,69.72,8.26,101.33,25.38.54.29.77,1.16,1.15,1.76Z"/><path class="cls-5" d="m646.79,88.43c25.17,2.14,64.96,46.74,65.72,70.36-6.66-15.19-14.4-29.6-26.14-41.61-11.57-11.83-23.93-22.33-39.58-28.75Z"/><path class="cls-1" d="m788.11,176.13c26.12,3.31,50.2,12.2,72.39,26.29-22.97-11.63-47.07-19.89-72.47-24.3.03-.66.05-1.33.08-1.99Z"/><path class="cls-5" d="m627.58,209.01c9.91,3.91,15.22,12.8,21.45,20.46,7.26,8.94,13.2,18.87,16.97,29.91.48,1.39,1.26,2.72-1.28,5.41-7.61-22.31-21.3-39.74-38.04-54.94.28-.3.58-.58.91-.83Z"/><path class="cls-5" d="m645.54,306.58c-5.9-19.04-18.37-33.68-31.49-49.52,12.9,4.39,35.93,41.5,31.49,49.52Z"/><path class="cls-5" d="m664.84,186.24c-9.04-5.93-15.07-15.15-23.87-21.47-7.06-5.08-14.99-8.52-21.93-13.58,19.66,5.8,34.72,17.97,46.76,34.29-.3.27-.62.52-.96.76Z"/><path class="cls-5" d="m636.78,249.72c-9.02-5.95-15.04-15.18-23.88-21.46-7.08-5.03-14.83-8.77-21.96-13.52,19.73,5.7,34.72,17.96,46.82,34.21-.31.28-.63.53-.98.76Z"/><path class="cls-6" d="m788.11,176.13c-.03.66-.05,1.33-.08,1.99-13.56-1.21-27.13-2.04-40.69.27,13.32-5.61,26.99-4.87,40.77-2.26Z"/><path class="cls-5" d="m678.29,171.42c-8.49-10.16-17.56-19.78-27.05-29.03,11.58,7.14,22.05,15.34,27.91,28.13-.26.32-.55.62-.85.9Z"/><path class="cls-5" d="m665.8,185.48c9.55,10.2,16.33,21.8,18.46,35.76-5.21-12.37-12.89-23.37-19.42-35.01.33-.23.65-.48.95-.76Z"/><path class="cls-5" d="m686.51,145.58c8.34,9.7,14.87,20.3,16.5,33.32-4.86-11.31-12.07-21.34-17.35-32.4.26-.33.54-.63.85-.92Z"/><path class="cls-5" d="m612.74,254.79c-10.78-6.32-20.71-14.07-32.25-19.12,12.91,2.77,23.53,9.36,32.25,19.12Z"/><path class="cls-5" d="m658.47,209.06c8.46,9.65,14.24,20.64,16.64,33.35-5.09-11.22-12.1-21.38-17.49-32.42.26-.34.54-.65.85-.93Z"/><path class="cls-5" d="m679.14,170.52c7.61,6.92,15.25,22.26,14.5,31.36-5.19-11.33-9.72-21.19-15.35-30.46.3-.28.59-.58.85-.9Z"/><path class="cls-5" d="m626.68,209.85c-8.78-5.92-17.84-11.39-26.96-16.81,10.29,3.56,20.64,6.99,27.87,15.98-.32.25-.62.53-.91.83Z"/><path class="cls-5" d="m645.18,259.26c5.95,7.15,9.66,15.28,11.68,24.17-.6.29-1.2.57-1.8.86-3.57-8.04-7.15-16.08-10.72-24.13.26-.32.54-.62.85-.9Z"/><path class="cls-5" d="m633.88,186.24c-8.1-4.34-16.2-8.67-24.3-13.01.32-.59.64-1.19.96-1.78,8.78,3.31,17.24,7.22,24.27,13.94-.28.31-.59.59-.92.85Z"/><path class="cls-5" d="m661.93,122.76c-8.63-3.31-15.56-9.68-23.92-13.52,9.48,1.87,17.8,6,24.82,12.69-.28.3-.58.58-.9.83Z"/><path class="cls-5" d="m628.29,130.48c8.13.67,14.63,4.57,20.25,10.17-7.19-2.5-13.47-6.82-20.25-10.17Z"/><path class="cls-5" d="m678.25,137.52c-3.27-1.67-5.88-4.01-8.37-7.9,5.48.7,7.64,3.53,8.37,7.9Z"/><path class="cls-5" d="m650.84,201.11c-4.62-1.99-6.55-4.39-9.5-8.55,5.44,1.28,7.67,3.46,9.5,8.55Z"/><path class="cls-5" d="m637.75,248.96c3.29,2.85,5.6,6.4,7.42,10.31-.3.28-.58.57-.84.89-3.62-2.68-6.41-5.97-7.55-10.44.34-.23.67-.48.97-.76Z"/><path class="cls-5" d="m662.84,121.93c2.91.9,4.7,3.07,7.05,5.94-4.85.53-6.51-2.12-7.95-5.11.32-.25.62-.53.9-.83Z"/><path class="cls-5" d="m685.67,146.5c-3.09-1.19-4.99-3.31-6.01-7.86,3.98,1.86,5.75,4.06,6.86,6.94-.3.28-.59.59-.85.92Z"/><path class="cls-5" d="m634.8,185.39c2.9.93,4.7,3.08,7.04,5.97-4.84.51-6.52-2.12-7.95-5.12.33-.26.63-.54.92-.85Z"/><path class="cls-5" d="m657.62,209.99c-3.15-1.15-4.91-3.37-6.22-7.95,4.18,1.93,5.91,4.18,7.07,7.02-.31.29-.59.6-.85.93Z"/><path class="cls-5" d="m832.25,408.65c27.9,8.79,36.21,41.89,19.44,63.41-11.42,14.66-41.36,21.72-57.37,5.06-4.61-5.11-8.79-10.51-11.47-16.92-3.49-9.84-1.47-19.57.59-29.3,6.67-10.76,14.07-20.47,27.81-22.8,7.12-1.21,14.04-1.15,21,.54Zm-36.88,57.61c.12.13.25.26.37.39-.15-.11-.3-.22-.45-.32-4.7-9.99-5.71-20.32-2.85-31,5.82-12.54,16.24-18.89,29.61-21.29-16.43-2.02-27.96,5.48-32.98,20.74-5.62,12.51-2.89,26.14,6.3,31.48Z"/><path class="cls-4" d="m561.99,575.59c2.88-9.72,9.64-17.38,13.92-26.38,7.24-15.22,15.62-29.95,18.71-46.81,3.91,1.32,7.81,2.64,11.72,3.97,20.07,16.22,25.23,36.42,14.26,55.82-3.96,7-9.99,11.87-16.61,16.14-5.19,2.5-10.86,2.9-16.41,3.82-8.7,1.2-16.66-.82-24-5.54-.5-.31-1.01-.62-1.51-.93l-.08-.08Zm50.33-49.38c3.18,13.21,3.21,25.33-6.75,35.51-9.2,9.4-21.02,11.52-34.51,11.55,10.78,7.96,29.84,2.94,40.58-10.99,8.65-11.22,9.18-27.08.68-36.07Z"/><path class="cls-2" d="m580.91,617.85c5.74-13.31,5.75-13.36,19.37-9.84,17.55,4.54,35.05,9.25,52.62,13.7,4.29,1.09,5.85,2.48,3.11,6.83-3.65,5.78-6.79,11.9-10.14,17.87-10.91-8.23-23.65-11.32-36.87-12.56-11.94-1.12-19.34-9.62-28.09-16Z"/><path class="cls-2" d="m672.5,420.38c7.4-5.58,15.76-10.27,21.93-16.97,6.76-7.33,12.54-7.29,19.99-2.28,2.61,1.75,5.8,2.63,8.67,4.01,9.77,4.71,9.81,4.75,4.72,14.57-1.46,2.82-3.25,5.48-4.89,8.21-12.04-1.66-23.93,2.54-36.15.43-6.19-1.06-9.67-5.09-14.27-7.97Z"/><path class="cls-2" d="m783.44,430.91c-2.06,9.73-4.08,19.46-.59,29.3-.24,0-.54.11-.72,0-11.54-6.56-24.64-9.97-35.62-17.66,2.97-6.41,7.02-12.3,8.92-19.2,1.07-3.9,3.38-2.31,5.7-1.42,7.49,2.86,14.27,7.48,22.31,8.97Z"/><path class="cls-6" d="m717.14,436.84c-.12.2-.25.39-.37.59.1-.22.19-.45.29-.67,0,0,.08.08.08.08Z"/><path class="cls-4" d="m61.73,80.51c.04-7.18,6.6-11.97,6.99-19.03.59-.37,1.18-.75,1.77-1.12,25.58-3.98,51.17-7.96,76.75-11.94,11.98-1.16,23.91-2.65,35.63-5.48,7.43-.21,14.73-1.31,21.92-3.2,10.95-.58,21.72-2.41,32.44-4.59,1.53-.07,3.06-.13,4.59-.2,7.84.17,15.69.33,23.53.5,18.85,1.05,37.7,2.49,56.57,2.87,4.45.09,7.89-4.98,13.42-5.47,18.31-1.63,36.53-4.36,54.81-6.43,2.04-.23,5.11-2.54,6.39.93,1.03,2.78.7,5.79-1.24,8.4-4.32,5.81-11.06,5.9-17.13,6.61-23.66,2.8-47.37,4.87-70.95,8.59-19.38,3.06-39.06,4.11-58.57,6.42-47.02,5.57-94.02,11.34-141.03,17.07-7.52.92-15,2.08-22.5,3.12-7.91.07-15.64,1.54-23.39,2.93Z"/><path class="cls-4" d="m36.14,167.82c.64-3.84-2.43-7.79.37-11.56,12.89-4.2,25.6-8.79,37.13-16.12,4.9-.53,9.35-6.83,13.09-4.6,3.89,2.32.2,9.17,1.83,13.68,1.72,4.75.27,9.73,1.73,14.43.94,3.04-1.3,4.3-3.3,5.76-6.77,4.92-14.88,7.14-22.09,11.16-15.67,6.2-15.72,6.21-13.82,23.06,2.34,20.71,4.8,41.41,7.17,62.12,1.8,15.78-10.88,28.32-28.44,29.21-15.77.8-26.98-13.49-25.83-25.38.57-5.87,3.83-10.47,6.09-15.56,10.76-7.45,22.35-9.83,35.76-4.57-3.32-28.03-6.5-54.83-9.68-81.64Z"/><path class="cls-6" d="m274.41,138.07c-13.45,6.41-27.86,5.48-41.95,4.49-29.79-2.1-59.4-6.05-88.52-12.89-20.02-4.71-40.28-8.86-58.05-20.17-.89-.57-2.33-.25-3.52-.35,2.33-8.98,10.17-8.5,16.67-8.82,31.5-1.53,62.65,1.89,93.56,7.83,23.59,4.53,47.11,9.45,69.36,18.8,5.2,2.19,11.44,3.91,12.45,11.11Zm-170-24.73c18.07,12.62,128.57,30.76,149.36,25-49.05-15.72-97.96-22.82-149.36-25Z"/><path class="cls-4" d="m359.16,20.67c-.73,1.63,1.08,3.91-1.67,5.44-.89-3.09-1.72-6.01-2.69-9.4-2.03,3.38.52,6.88-1.41,9.87-2.47-1.55-1.62-4.5-3.56-7.25-.27,3.1-.48,5.47-.69,7.85-3.74.2-1.23-4.51-3.78-4.93-3.52.31.34,4.55-2.92,4.73-.16,0-.4-1.31-.6-2.02-.67-3.54-1.34-7.08-2.01-10.62,6.05-2.24,12.39-2.53,18.73-2.83-.02,3.07-.81,6.18.61,9.16Z"/><path class="cls-4" d="m374.79,9.23c2.37-.63,4.76-1,7.19-.32.06,1.92-.51,3.97,1.14,5.56v8.12c-3.47.21-1.35-4.28-4.14-4.92-2.01,1.56,1.59,4.63-1.49,5.87-2.07-.87-1.17-2.85-1.53-4.36-1.28-3.21-1.2-6.59-1.17-9.95Z"/><path class="cls-4" d="m368.5,15.97v8.47c-3.36-1.34-1.55-5.23-4.53-6.76v7.91c-3.46-.55-2.14-3.41-3.05-5.03-.48-3.04-.97-6.07-1.45-9.11,2.44-1.22,5.03-1.41,7.68-1.16.29,1.93-.55,4.12,1.35,5.67Z"/><path class="cls-4" d="m385.12,7.75c.86.02,1.72.04,2.58.06.36.47.72.93,1.08,1.4.22-.6.44-1.2.66-1.79,3.59-.62,2.89,2.06,3.07,4.03.28,3.06.55,6.12.82,9.17-.77-.08-1.54-.15-2.3-.23-3.27-3.4-2.86.65-3.7,2.4-1.97-2.79-2.2-5.53-2.37-8.29.06-2.25.11-4.5.17-6.75Zm5.36,8.24c-.1-.16-.18-.39-.32-.46-.09-.04-.3.16-.45.25.18.24.36.49.55.73.08-.17.15-.35.23-.52Z"/><path class="cls-5" d="m368.5,15.97c-1.9-1.55-1.05-3.74-1.35-5.67,2.44-1.14,4.94-1.81,7.64-1.07-.03,3.37-.11,6.74,1.17,9.95-2.82.76-.6,4.15-3.13,5.41-3.53-1.69-1.11-6.73-4.34-8.62Z"/><path class="cls-4" d="m339.58,25c-.16,1.16-.32,2.32-.57,4.12-3.03-2.92-1.99-6.99-4.09-10.18-3.36,3.67,2.03,6.99-.98,9.91-2.7-.86-1.73-3.45-2.19-5.4.71-3.02-.98-5.67-1.3-8.53,3.13-.61,6.25-1.39,9.47-.6-1.19,3.52-1.09,7.09-.34,10.67Z"/><path class="cls-5" d="m330.45,14.93c.33,2.86,2.01,5.51,1.3,8.53-2.94,1.41-.18,4.76-3.12,7.12-2.67-4.68-3.55-9.75-3.33-14.72.09-2.13,3.3-.99,5.15-.93Z"/><path class="cls-6" d="m339.58,25c-.75-3.58-.85-7.15.34-10.67,0,0-.09.02-.09.02.67,3.54,1.34,7.08,2.01,10.62-.75.01-1.51.03-2.26.04Z"/><path class="cls-5" d="m385.12,7.75c-.06,2.25-.11,4.5-.17,6.75-.61-.01-1.22-.02-1.83-.03-1.65-1.59-1.08-3.64-1.14-5.56.83-.97,1.83-1.48,3.14-1.16Z"/><path class="cls-6" d="m359.47,11.46c.48,3.04.97,6.07,1.45,9.11-.59.03-1.18.07-1.76.1-1.41-2.97-.63-6.09-.6-9.16.3-.11.61-.13.92-.05Z"/><path class="cls-5" d="m391.02,20.39c.77.08,1.54.15,2.3.23-.29.46-.53,1.26-.89,1.33-1.07.19-1.53-.5-1.41-1.56Z"/><path class="cls-5" d="m389.44,7.42c-.22.6-.44,1.2-.66,1.79-.36-.47-.72-.94-1.08-1.4.58-.13,1.16-.26,1.74-.39Z"/><path class="cls-5" d="m-1.39,509.28c1.55-10.17,2.41-20.4,2.38-30.69-.01-3.67.25-6.93,4.72-7.77,5.56,9.31,8.69,19.69,12.88,29.59,1.41,3.33,2.75,4.86,6.53,3.31,9.08-3.74,18.22-7.34,27.42-10.77,4.13-1.54,5.01-3.63,3.29-7.82-4.28-10.42-8.1-21.02-12.11-31.54,3.24-2.07,5.77-1.12,8.42,1.42,10.82,10.35,21.71,20.62,32.73,30.74,4.39,4.03,4.48,10.27,8.18,14.57.29,1.16.41,2.4.89,3.48,9.87,22.15,18.64,44.74,27.45,67.32,1.69,4.33,1.48,6.92-3.55,7.75-9.44,3.44-18.87,6.88-28.31,10.32-14.72,4.8-29.44,9.61-44.16,14.41-1.44.27-2.91.41-4.3.82-12.3,3.61-12.5,3.69-16.14-8.2-7.13-23.29-15.71-46.07-24-68.95-2.16-5.97-2.86-11.81-2.31-17.97Z"/><path class="cls-5" d="m61.27,357.06c1.51,15.29-2.7,28.25-16.06,36.89-13.68,8.86-31.15,7.12-42.72-3.7-11.74-10.98-14.6-27.85-7.13-42.32,1.23-2.38,2.71-4.63,4.07-6.94,19.46,4.8,39.04,8.9,59.11,10.13.91,1.98,1.81,3.96,2.72,5.94Zm-55.26,29.4c8.87,9.03,21.84,9.99,34.31,3.12,10.39-5.73,15.56-16.67,13.15-27.88-9.99,26.82-19.41,31.94-47.46,24.76Z"/><path class="cls-4" d="m43.71,453.57c4.01,10.53,7.83,21.13,12.11,31.54,1.72,4.19.84,6.28-3.29,7.82-9.2,3.44-18.34,7.03-27.42,10.77-3.77,1.55-5.12.03-6.53-3.31-4.19-9.9-7.32-20.28-12.88-29.59-3.24-7.09,2.63-7.52,6.74-9.46,2.1-.99,5.58-.94,5.88-3.5.29-2.49-2.82-3.71-4.73-5.13-9.53-7.09-20.8-10.43-31.73-14.51.02-1.9.03-3.79.05-5.69,1.94.52,3.88,1.04,5.81,1.56,13.46,4.01,26.08,9.5,36.42,19.44,3.9,3.75,7.18-.62,10.57-1.73,3.54-1.16,6.79-2.97,9,1.77Z"/><path class="cls-4" d="m58.55,351.12c-20.07-1.23-39.65-5.33-59.11-10.13-2.03-.18-4.08-.31-5.75-1.71.02-1.86.05-3.72.07-5.59,4.47.41,8.74,2.41,13.35,1.73,15.19,6.03,31.18,7.43,47.28,8.23,9.98.85,19.53-1.5,28.92-4.32,6.92-2.08,14.3-2.92,15.78-13.11,1.52-10.43,11.52-15.99,17.66-23.79,1.93-2.44,3.6-1.71,5.58-.16,3.85,3.02,7.77,5.94,11.67,8.9,3.08,2.84,5.88,6.03,9.69,7.99-6.21,11.95-15.05,20.89-28.42,24.46-2.55.68-5.29.65-7.94.94-4-5.66-8.6-4.57-14.04-1.93-10.91,5.31-23.14,5.71-34.74,8.49Z"/><path class="cls-2" d="m117.83,578.85c5.03-.83,5.24-3.41,3.55-7.75-8.81-22.58-17.58-45.17-27.45-67.32-.48-1.08-.6-2.31-.89-3.48,4.31,3.56,7.51,7.72,10.22,12.83,6.52,12.25,13.3,24.44,22.1,35.29,1.78,2.19,3.6,4.79,6.94,5.02-3.28,12.39,2.21,23.58,4.78,35.17.87,3.92,3.63,9.29-.64,11.34-4.84,2.33-7.47-3.38-9.85-6.82-3.17-4.58-7.04-8.8-8.77-14.29Z"/><path class="cls-1" d="m134,311.17c-3.89-2.96-7.82-5.88-11.67-8.9-1.97-1.55-3.65-2.28-5.58.16-6.15,7.8-16.15,13.37-17.66,23.79-1.48,10.19-8.86,11.03-15.78,13.11-9.39,2.82-18.94,5.17-28.92,4.32-3.94-6.28-10.03-9.87-16.42-13.07,3.56-7.54,8.8-12.76,16.5-16.91,9.17-4.94,15-13.99,18.55-23.98,4.67-13.12,21.54-19.56,33.99-8.12,6.81,6.26,15.66,10.54,23.36,16.13,5.61,4.07,7.81,7.49,3.62,13.47Z"/><path class="cls-1" d="m36.14,167.82c3.18,26.8,6.36,53.6,9.68,81.64-13.42-5.26-25.01-2.89-35.76,4.57.27-19.37,2.69-37.99,11.63-55.88,4.56-9.12,10.08-18.2,12.38-28.47.16-.74,1.36-1.24,2.07-1.85Z"/><path class="cls-5" d="m37.97,330.58c6.39,3.2,12.48,6.79,16.42,13.07-16.1-.8-32.09-2.2-47.28-8.23,2-3.26,5.51-3.89,8.73-5.02,5.32-1.6,10.8-1.29,16.24-1.3,1.96.49,3.92.99,5.89,1.48Z"/><path class="cls-1" d="m32.08,329.1c-5.45,0-10.92-.3-16.24,1.3.03-3.8.25-10.37,3.84-9.04,4.04,1.49,11.5.39,12.4,7.74Z"/><path class="cls-2" d="m770.18,596.25c-1.72-.03-3.44-.05-5.15-.08.22-.68.31-1.44.68-2.03,1.49-2.41,1.48-7.61,5.11-6.22,2.55.98.64,5.51-.64,8.33Z"/><path class="cls-1" d="m784.96,556.34c-.03.35-.06.7-.1,1.06-.22-.04-.44-.08-.66-.12.27-.3.54-.6.81-.9l-.06-.04Z"/><path class="cls-1" d="m147.24,48.43c-25.58,3.98-51.17,7.96-76.75,11.94-1.4-15.86,6.03-29.49,11.56-43.42,7.15-18.02,12.16-36.45,15.08-55.57,1.07-6.98,3.5-13.73,7.29-19.76,6-9.52,15.64-8.6,24.99-8.26,2.39,15.12,11.91,24.15,25.57,29.38,6.15,2.35,12.57,3.99,18.79,6.16,1.8.63,3.91,1.86,3.79,4.02-.12,2.36-2.68,2.42-4.43,3.15-6.5,2.68-13.52,1.42-20.27,2.66-11.33,2.07-19.56,8.34-26.93,16.44-2.22,2.45-4.05,5.47-2.91,8.56,1.28,3.44,4.87,4.51,8.44,4.94,7.97.98,15.47-1.69,23.14-2.96h0c-3.84,7.79-8.22,15.34-9.82,24.06-.78,4.25-.94,8.21,2.46,11.48,0,2.39-.01,4.79-.02,7.18Z"/><path class="cls-2" d="m237.23,35.16c-10.72,2.18-21.49,4.01-32.44,4.59,2.97-11.09,1.22-21.79-2.61-32.34-1.59-4.38-2.55-8.88-.93-15.55,9.58,17.66,21.66,31.47,35.99,43.3Z"/><path class="cls-2" d="m147.24,48.43c0-2.39.01-4.79.02-7.18,12.73-.44,27.03-13.18,32.52-29.08,2.16-6.24,4.03-12.58,6.24-18.79.49-1.38.99-3.8,3.36-3.01,2.18.73,1.31,2.61,1.14,4.35-.91,9.2-6.57,16.82-8.31,25.78-1.48,7.62-1.77,15.03.65,22.45-11.72,2.83-23.65,4.32-35.63,5.48Z"/><path class="cls-1" d="m154.62,5.7c.11-.21.22-.41.33-.62-.11.21-.22.41-.33.62,0,0,0,0,0,0Z"/><path class="cls-2" d="m45.36,603.58c14.72-4.81,29.44-9.61,44.16-14.41,4.51,7.37,11.92,10.28,19.62,12.74,4.87,1.55,9.81,2.9,14.56,4.75,2.06.8,5.42,1.29,5.05,4.38-.29,2.45-3.35,2.31-5.27,3.21-3.93,1.84-8.19,1.04-12.27,1.62-8.48,1.22-16.64,3.39-24.4,7.01-9.88-4.64-21.16-3.53-31.18-7.63-5.39-2.21-10.58-4.49-10.29-11.66Z"/><path class="cls-2" d="m105.92,644.98c.09-.2.18-.4.27-.59-.1.18-.21.36-.31.55,0,0,.05.05.05.05Z"/><path class="cls-1" d="m353.93,148.9c-4.8-4.04-5.71-10.01-5.23-15.29,2.39-26.43,25.57-42.59,51.26-36.32-.53,1-1.07,2-1.6,3.01-22.75-.58-38.18,9.13-43.51,27.38-2.05,7.01-.46,14.16-.93,21.24h.02Z"/><path class="cls-1" d="m353.91,148.91c.35.48.7.96,1.05,1.45-1.62.42-.68-.98-1.03-1.46,0,0-.02.01-.02.01Z"/><path class="cls-5" d="m562.07,575.67c.5.31,1.01.62,1.51.93-.97.44-1.33-.1-1.51-.93Z"/><path class="cls-6" d="m789.08,434.78c5.02-15.26,16.56-22.76,32.98-20.74-13.37,2.39-23.8,8.74-29.61,21.28-1.12-.18-2.25-.36-3.37-.55Z"/><path class="cls-2" d="m789.08,434.78c1.12.18,2.25.36,3.37.55-2.86,10.68-1.85,21.01,2.85,31l.08-.07c-9.19-5.34-11.91-18.97-6.3-31.48Z"/><path class="cls-2" d="m795.3,466.33c.15.11.3.22.45.32-.12-.13-.25-.26-.37-.39,0,0-.08.07-.08.07Z"/><path class="cls-2" d="m612.32,526.21c8.5,8.99,7.96,24.85-.68,36.07-10.74,13.94-29.79,18.95-40.58,10.99,13.49-.03,25.3-2.15,34.51-11.55,9.96-10.18,9.94-22.29,6.75-35.51Z"/><path class="cls-1" d="m104.41,113.34c51.4,2.18,100.31,9.29,149.36,25-20.79,5.76-131.29-12.38-149.36-25Z"/><path class="cls-5" d="m390.47,15.99c-.08.17-.15.35-.23.52-.18-.24-.36-.49-.55-.73.16-.09.36-.3.45-.25.15.07.22.3.32.46Z"/><path class="cls-2" d="m6.01,386.46c28.05,7.18,37.47,2.06,47.46-24.76,2.41,11.2-2.75,22.15-13.15,27.88-12.47,6.87-25.45,5.91-34.31-3.12Z"/></svg>