<?xml version="1.0" encoding="UTF-8"?><svg id="Calque_1" xmlns="http://www.w3.org/2000/svg" viewBox="0 0 400.76 400.76"><defs><style>.cls-1{fill:none;}.cls-1,.cls-2,.cls-3,.cls-4,.cls-5{stroke-width:0px;}.cls-6{stroke:#fff;stroke-width:3.32px;}.cls-6,.cls-5{fill:#fff;}.cls-2{fill:#caceea;}.cls-3{fill:#8c58ff;}.cls-4{fill:#33315f;}</style></defs><rect class="cls-5" width="400.76" height="400.76"/><g id="Group_4138"><circle id="Ellipse_1361-2" class="cls-3" cx="199.48" cy="197.99" r="175.79"/><circle id="Ellipse_1362" class="cls-4" cx="199.48" cy="197.99" r="149.25"/></g><g id="Group_4139"><g id="Group_1885"><path id="Path_37114" class="cls-5" d="m113.08,86.31h0c-2.34,0-4.59.93-6.24,2.59-1.7,1.67-2.65,3.94-2.65,6.32v133.59c.02,4.92,4,8.9,8.92,8.91,20.74.05,55.48,4.37,79.44,29.45V127.36c.02-1.59-.41-3.15-1.23-4.51-19.68-31.68-57.46-36.5-78.24-36.54Z"/><path id="Path_37115" class="cls-5" d="m294.76,228.8V95.22c.01-4.91-3.96-8.89-8.86-8.91h0c-20.78.05-58.58,4.86-78.28,36.54-.82,1.36-1.24,2.92-1.22,4.51v139.8c23.97-25.08,58.71-29.4,79.44-29.45,4.92-.01,8.9-3.99,8.92-8.91Z"/><path id="Path_37116" class="cls-2" d="m315.04,117.11h-6.46v111.7c-.03,12.54-10.18,22.7-22.72,22.74-17.59.04-46.59,3.48-67.13,22.92,35.52-8.7,72.97-3.04,94.32,1.82,4.8,1.1,9.57-1.9,10.67-6.69.15-.65.23-1.32.23-1.99V126.02c0-4.92-3.98-8.91-8.9-8.92Z"/><path id="Path_37117" class="cls-2" d="m90.37,228.8v-111.7h-6.46c-4.92,0-8.91,3.99-8.91,8.92v141.57c0,4.92,3.99,8.91,8.91,8.91.67,0,1.34-.08,1.99-.23,21.34-4.86,58.79-10.52,94.31-1.82-20.56-19.44-49.54-22.88-67.13-22.92-12.53-.05-22.68-10.21-22.71-22.74Z"/></g></g><g id="wk_remedee"><rect id="Rectangle_2729" class="cls-1" x="106.61" y="148.24" width="185.74" height="185.74"/><circle id="Ellipse_1358" class="cls-4" cx="199.48" cy="261.01" r="66.34"/><g id="Group_4068"><path id="Path_36920" class="cls-6" d="m199.85,219.52c-20.58,0-37.26,16.68-37.26,37.26s16.68,37.26,37.26,37.26c20.58,0,37.26-16.68,37.26-37.26h0c0-20.58-16.68-37.26-37.26-37.26Zm0,66.38c-16.08,0-29.11-13.03-29.11-29.11s13.03-29.11,29.11-29.11c16.08,0,29.11,13.03,29.11,29.11h0c0,16.07-13.03,29.1-29.11,29.11Z"/><path id="Path_36921" class="cls-6" d="m229.83,300.68c-17.43,13.97-42.23,13.97-59.67,0h-11.83c20.58,23.01,55.92,24.98,78.93,4.39,1.54-1.38,3.01-2.85,4.39-4.39h-11.83Z"/></g></g></svg>