<?xml version="1.0" encoding="UTF-8"?><svg id="Layer_1" xmlns="http://www.w3.org/2000/svg" viewBox="0 0 800 800"><defs><style>.cls-1{fill:#9808ff;}.cls-1,.cls-2,.cls-3,.cls-4,.cls-5,.cls-6{stroke-width:0px;}.cls-2{fill:#390271;}.cls-3{fill:#460093;}.cls-4{fill:#803bff;}.cls-5{fill:#fff;}.cls-6{fill:#fefefe;}</style></defs><rect class="cls-4" x="-2.18" y=".16" width="800" height="800"/><path class="cls-5" d="m57.76,708.5c55.53-11.4,110.65-24.97,165.58-39.04,40.19-10.3,59.65-37.18,60.12-78.56.16-13.88-.48-27.79.26-41.63.61-11.44-2.6-20.29-10.59-28.84-17.97-19.23-29.72-42.16-35.3-67.97-2.31-10.67-3.49-20.68-18.25-21.91-7.83-.65-8.6-9.87-10.08-16.61-4.18-19.07-8.32-38.16-12.37-57.26-2.23-10.5-4.04-21-2.51-31.88.72-5.07-.35-9.97,7.89-8.59,14.3,2.4,13.45-6.07,11.33-16.25-8.81-42.48-4.39-84.24,9.63-124.84C271.46,36.22,438.66-1.11,532.42,106.91c47.6,54.82,60.38,120.46,49.49,191.3-1.02,6.61-5.61,16.86,3.59,17.47,23.03,1.53,15.88,17.55,14.44,28.52-2.63,19.92-8.36,39.41-12.39,59.17-2.73,13.36-1.92,28.33-21.57,30.21-6.59.63-6.13,8.7-7.24,14.11-4.48,21.94-11.36,43.96-26.67,59.76-18.66,19.28-22.74,40.64-20.4,65.26.36,3.75.06,7.56.08,11.35.21,50.43,17.98,74.73,66.37,86.93,54.99,13.85,110.19,26.94,165.58,39.09,21.84,4.79,39.79,13.07,54.12,24.95V.16H-2.18v735.12c15.67-13,35.57-21.78,59.94-26.78Z"/><g id="xJBaEw.tif"><path class="cls-3" d="m398.19,101.31c-.35-.04-.52-.02-.54-.07-.45-.84-.91-1.68-1.33-2.54-6.85-14.28-18.32-22.5-33.86-24.13-28.43-2.97-50.96,8.18-68.5,30.23-1.09,1.37-2.21,2.43-3.82,3.22-24.62,12.15-37.68,31.96-37.6,59.44.02,8.05-.96,14.96-4.55,22.31-8.88,18.2-9.32,37.51-4.22,56.91,4.42,16.82,11.77,32.26,25.36,43.62,25.05,20.94,53.59,25.69,84.41,15.85,6.15-1.96,11.24-2.83,17.47-.41,8.84,3.44,18.4,2.99,27.83,3.12,11.37.16,22.37-1.01,32.89-5.46,1.16-.49,2.15-.55,3.33,0,9.09,4.29,18.69,6.71,28.69,7.3,25.43,1.49,48.19-5.35,66.35-23.65,23.71-23.89,35.31-70,13.49-105.83-.78-1.28-1.32-2.44-1.03-4.14,4.82-28.2-9.8-56.27-35.69-68.46-2.43-1.14-4.14-2.72-5.78-4.76-15.8-19.69-36.23-30.21-61.64-29.83-13.92.21-26.14,4.93-34.98,16.43-2.59,3.37-4.46,7.16-6.29,10.86Z"/><path class="cls-3" d="m398.19,101.31c1.82-3.71,3.7-7.49,6.29-10.86,8.84-11.5,21.06-16.23,34.98-16.43,25.41-.38,45.83,10.14,61.64,29.83,1.64,2.04,3.35,3.62,5.78,4.76,25.89,12.19,40.51,40.27,35.69,68.46-.29,1.7.25,2.86,1.03,4.14,21.82,35.84,10.22,81.95-13.49,105.83-18.16,18.3-40.92,25.14-66.35,23.65-10-.59-19.61-3.01-28.69-7.3-1.18-.56-2.17-.49-3.33,0-10.53,4.45-21.52,5.62-32.89,5.46-9.44-.13-18.99.32-27.83-3.12-6.24-2.43-11.33-1.56-17.47.41-30.82,9.84-59.36,5.09-84.41-15.85-13.59-11.36-20.94-26.8-25.36-43.62-5.1-19.4-4.66-38.71,4.22-56.91,3.59-7.36,4.57-14.26,4.55-22.31-.08-27.48,12.99-47.29,37.6-59.44,1.61-.79,2.73-1.85,3.82-3.22,17.54-22.05,40.07-33.21,68.5-30.23,15.55,1.63,27.01,9.85,33.86,24.13.41.86.87,1.7,1.33,2.54.03.05.2.03.54.07Zm-136.28,162.27c.1.3.2.59.3.89.06.4,0,.87.19,1.19,6.36,10.63,14.7,19.28,25.56,25.38,6.56,3.68,13.59,6.14,20.92,7.75,1.8.4,3.57.65,2.2-2.4-1.8-4-3.21-8.45-2.71-12.69.67-5.79-.27-10.27-5.11-13.88-1.76-1.31-1.42-3.6.05-5.15,1.65-1.74,3.72-1.28,5.06.37,3.59,4.42,8.21,6.53,13.77,6.92,1.85.13,3.05,1.18,3.17,3,.13,1.91-.94,3.24-2.79,3.8-1.37.41-2.73.18-4.09-.24-2.14-.66-3.15.6-3.08,2.41.25,6.1,1.15,12.09,4.38,17.46.7,1.17,1.6,1.83,3.08,1.89,12.72.53,24.84-1.82,36.13-7.77,2.12-1.11,3.7-1.31,5.91-.28,7.88,3.68,16.13,5.99,24.94,6.08,2.42.03,3.12-.72,3.08-3.09-.13-8.44-.07-16.88-.08-25.32,0-1.1,0-2.19,0-3.66-2.09,1.65-3.61,2.97-5.24,4.12-6.87,4.83-14.51,7.39-22.89,8.23-2.75.27-4.43-.21-5.1-2.84-.54-2.14,1.45-4.15,4.42-4.32,6.9-.39,13.25-2.53,18.8-6.47,5.9-4.18,10.3-9.32,10.09-17.42-.32-12.28-.16-24.57-.06-36.85.02-2.52-.83-3.21-3.19-2.78-9.64,1.78-18.17-.51-25.41-7.19-1.21-1.12-1.75-1.59-2.4.59-2.86,9.55-7.95,17.61-16.19,23.51-2.66,1.9-4.31,1.99-5.95-.26-1.74-2.39-.22-4.05,1.58-5.31,7.23-5.08,11.35-12.24,14.01-20.44.58-1.78.19-2.55-1.82-2.57-10.87-.08-17.53-6.05-21.57-15.6-.29-.68-.46-1.58-.98-1.97-3.72-2.75-7.51-5.39-11.28-8.07-.08-.13-.11-.27-.07-.42,0-.72-.43-.88-1.04-.82-8.34-10.01-11.37-21.51-9.61-34.33.14-1-.09-1.68-.81-2.23-5.04-3.82-8.78-8.66-11.36-14.41-.41-.91-.82-1.29-1.92-.8-9.92,4.45-17.71,11.35-23.66,20.4-.41.63-.92,1.63.39,1.55,2.99-.16,5.86,1.36,8.87.55,2.3,2.77,7.07,3.5,9.7,1.56,1.19-.88,2.5-1.62,3.78-2.37,2.12-1.22,3.87-.35,4.86,1.48.94,1.73.54,3.53-1.33,4.71-.99.62-2.07,1.14-2.93,1.91-2.78,2.46-4.73,5.36-5.09,9.25-.22,2.33-1.49,4.03-4.23,3.71-2.59-.3-2.83-2.18-2.74-4.24.04-.96-.21-2.12.24-2.83,2.1-3.31-.23-4.13-2.61-4.96-1.5-.52-3.02-1.08-4.67-.78-1.92-.94-4-.37-5.99-.63-2.26-.29-3.17.74-3.79,2.82-1.38,4.63-2.36,9.32-2.6,14.12-.57,11.06,1.53,21.1,11.53,27.82,1.11-.09.93-.71.59-1.41-.1-.1-.15-.23-.14-.38,1.29-.26,1.44-1.47,1.9-2.38,3.27-6.5,7.59-12.05,13.89-15.93,2.28-1.41,5-1.43,5.97.36,1.24,2.3.37,4.17-1.71,5.44-8.94,5.48-13.14,13.72-14.7,23.85-2.02,13.07,4.97,25.42,17.74,29.07,3.52,1,3.77.98,3.59-2.6-.35-6.88.5-13.61,4.67-19.17,2.64-3.51,3.77-6.43,1.52-10.48-1.12-2.02-.3-4.11,2.1-4.85,2.31-.71,3.95.21,4.55,2.68.86,3.48,2.88,6.15,5.82,8.12,1.06.71,2.22,1.24,3.16,2.15,1.38,1.33,1.59,2.76.53,4.3-1.02,1.48-2.46,1.96-4.18,1.29-.79-.31-1.66-.6-2.28-1.14-2.45-2.13-3.8-.84-5.17,1.35-7.47,11.91-4.29,30.44,13.18,37.46,13.06,5.25,25.24,2.41,36.77-4.99,2.97-1.9,3.75-3.86,2.2-6.99-.5-1-.56-2.26-.65-3.42-.15-2.02.01-3.98,2.61-4.35,2.72-.39,3.99,1.23,4.35,3.59.27,1.71.76,3.31,1.42,4.89,1.37,3.27,3.77,5.61,6.63,7.61,2.11,1.47,2.44,3.72,1.06,5.61-1.43,1.97-3.54,1.55-5.38.12-.84-.65-1.81-1.18-2.54-1.94-1.56-1.61-2.82-1.55-4.66-.16-5.68,4.29-12.05,7.03-19.04,8.66-17.27,4.02-35-3.12-43.4-17.63-.72-1.24-1.53-1.74-2.96-1.95-4.34-.63-8.58-1.78-12.39-4.03-1.96-1.16-2.94-.61-4.12,1.11-4.61,6.73-5.63,14.09-4.11,21.91.44,2.29,1.29,4.5,2.01,6.73.71,2.21.04,3.94-2.07,4.67-1.88.65-3.75-.07-4.49-2.01-4.7-12.34-4.85-24.36,3.05-35.62,2.38-3.4,2.49-3.32-1.38-4.86.06-.97-.17-1.79-.72-2.67-4.16-6.65-5.65-13.94-4.84-21.69.18-1.71-.09-2.73-1.61-3.67-3.63-2.27-6.83-5.13-9.33-8.61-1.27-1.77-1.7-1.21-2.49.28-4.2,7.89-6.8,16.27-7.67,25.16-.21,2.13-.98,4.3-.06,6.67,2.22-1.37,4.7-1.76,6.57-3.4,1.28.59,2.46-.04,3.7-.21,2.17-.3,4.48-.33,4.98,2.49.47,2.67-.9,4.02-3.62,4.5-2.16.38-4.66.41-6.04,2.7-4.16.35-5.93,2.41-5.23,6.35.63,3.56,1.2,7.16,2.19,10.64,1.85,6.52,3.83,13.02,7.63,18.76l-.04-.1Zm214.91-93.61c-.34.4-.67.79-1.01,1.19-2.31.72-3.5,2.99-5.6,4.02-3.44,1.69-5.79,4.15-7.47,7.81-3.01,6.55-7.97,11.13-15.37,12.83-2.35.54-5.91-1.02-6.85,1.62-.82,2.3,1.46,4.94,2.35,7.44.11.3.29.57.43.86,2.66,5.61,6.63,10.11,11.54,13.88,1.86,1.43,2.89,3.39.94,5.47-1.67,1.79-3.34,1.4-5.32-.08-7.69-5.73-13.03-13.06-16.04-22.14-1.12-3.39-1.15-3.36-4.02-.99-6.92,5.73-14.9,7.63-23.66,6.17-2.5-.42-3.2.17-3.18,2.65.09,13.89.06,27.79.04,41.68,0,1.43.41,2.59,1.2,3.85,5.06,8.14,12.58,12.51,21.71,14.49,2.28.49,4.6.78,6.89,1.22,2.2.42,3.04,2.06,2.73,4.01-.32,2.05-1.93,3.15-3.99,2.91-9.56-1.13-18.56-3.77-26.12-10.09-.55-.46-1-1.37-1.82-1.03-1.01.43-.56,1.51-.56,2.29-.02,8.44.1,16.89-.04,25.33-.04,2.55.92,3.03,3.2,2.94,8.77-.33,17.03-2.53,24.86-6.42,1.49-.74,2.76-.74,4.22.07,11.39,6.33,23.65,8.82,36.6,8.34,1.54-.06,2.54-.49,3.38-1.87,2.62-4.29,4.06-8.88,4.22-13.9.05-1.67.93-3.35,0-5.01-1.33-2.36-3.2-.43-4.81-.56-2.24-.18-4.48-.63-4.74-3.32-.25-2.51,1.53-3.6,3.79-3.8,5.26-.46,9.56-2.61,12.97-6.7,1.37-1.64,3.38-2.25,5.08-.59,1.78,1.74,1.65,3.85-.09,5.69-1.25,1.32-2.52,2.63-3.88,3.82-1.08.95-1.53,2.03-1.27,3.4,1.24,6.39-.28,12.45-2.15,18.48-.27.88-1.37,1.81-.7,2.61.72.86,2.02.39,3.04.15,14.1-3.32,26.63-9.53,36.58-20.29,4.91-5.32,9.11-11.18,11.91-17.93,3.56-7.74,6.26-15.75,7.57-24.19q.92-5.89-4.5-8.67c-2.33-1.33-4.79-2.23-7.48-2.62-2.15-.31-2.96-1.83-2.7-3.98.25-2.08,1.44-2.81,3.45-2.98,1.83-.16,3.5,1.14,5.33.37,1.92,1.72,4.42,2.2,6.93,3.5-.18-11.69-2.98-22.26-8.24-32.22-.74-1.4-1.29-1.33-2.18-.08-2.52,3.51-5.74,6.34-9.34,8.64-1.66,1.07-1.89,2.14-1.74,3.92.68,8.08-.77,15.68-5.58,22.42-.86,1.94-4.18,3.02-1.86,6.04,8.39,10.9,7.99,22.87,4.03,35.19-.69,2.14-2.15,3.98-4.75,3.16-2.69-.85-3.06-2.98-2.09-5.45.31-.79.56-1.61.81-2.43,2.75-9.14,2.23-17.84-3.34-25.93-.93-1.35-1.49-1.88-3.25-.95-4.25,2.23-8.74,3.99-13.61,4.33-1.32.09-1.76.92-2.36,1.82-3.25,4.91-6.93,9.47-12.06,12.51-15.84,9.4-31.59,8.01-46.86-1.21-4-2.42-7.14-5.13-10.83-.09-.06.08-.18.11-.27.17-1.85,1.2-3.87,1.41-5.12-.48-1.19-1.8-.98-3.78,1.07-5.3,4.54-3.37,7.62-7.62,8.2-13.5.2-2,1.87-3.01,3.99-2.86,2.15.15,2.94,1.48,2.9,3.46-.03,1.27-.03,2.53-.41,3.8-1.61,5.38-1.58,5.39,3.37,8.36.73.44,1.43.93,2.17,1.36,12.31,7.22,28.9,7.47,40.63-1.55,9.54-7.34,12.07-22.99,6.46-31.7-2.52-3.91-2.36-4.01-6.56-2.29-.3.12-.59.24-.9.34-2.16.69-3.98.51-5.12-1.81-1.15-2.33.5-3.63,1.99-4.4,4.2-2.17,6.56-5.63,7.97-9.94.72-2.22,2.43-2.6,4.37-2.01,1.89.57,2.76,2.01,2.24,3.99-.43,1.64-.92,3.29-1.59,4.84-.37.85-.64,1.32.09,2.21,5.72,7.01,8.25,15.06,7.47,24.11-.18,2.13.39,2.83,2.73,2.25,10.97-2.72,18.97-12.42,19-23.99.03-12.26-4.34-22.47-15.11-29.27-2.08-1.31-3.01-3.24-1.63-5.44,1.44-2.29,3.52-1.91,5.57-.64,5.66,3.52,9.99,8.25,13.19,14.08.95,1.73,1.21,3.85,2.89,5.17-.02,1.34.63,1.1,1.35.54,3.3-2.58,6.25-5.48,7.96-9.4,3.79-8.7,3.51-17.71,1.43-26.65-2.23-9.62-.67-8.31-10.78-7.84-2.61.39-5.5.43-7.45,2.3-1.82,1.74.37,3.98.18,6.07-.2,2.17.14,4.5-2.88,4.78-2.89.27-3.87-1.62-4.23-4.1-.63-4.37-2.86-7.78-6.63-10.02-2.3-1.37-3.79-2.87-2.39-5.62,1.12-2.2,3.49-2.81,5.91-.49,3.85,3.71,7.47,3.26,11.51.91.36-.21.74-.4,1.11-.59,3.1-.35,6.2-.7,9.67-1.1-6.13-9.88-14.15-16.92-24.23-21.68-1.69-.8-1.95.29-2.46,1.38-2.39,5.09-5.72,9.52-10.12,13-1.47,1.16-1.82,2.17-1.63,3.99,1.05,10.37-.52,20.18-6.57,28.97-1.19,1.72-3.08,2.91-3.74,5.02,0,0,.08-.06.08-.06Zm-71.22-55.16c0,.43-.7,1.66.53.93,4.88-2.89,10.21-3.77,15.69-3.4,3.12.21,4.47-1.02,5.52-3.74,2.1-5.45,6.16-9.02,11.59-11.17,2.38-.94,4.14-.26,4.95,1.93.79,2.15.03,3.82-2.43,4.73-3.06,1.14-5.44,3.23-7.21,6.06-1.33,2.13-.99,3.19,1.51,3.78,3.52.84,6.89,2.14,10.04,3.98,1.94,1.13,2.33,2.77,1.33,4.61-1.01,1.85-2.65,2.33-4.63,1.44-1.26-.57-2.55-1.1-3.84-1.6-9.59-3.73-19.28-4.54-28.97-.56-2.66,1.09-5.81,2.23-5.93,5.89-.3,9.28-.34,18.56-.72,27.83-.12,2.93,1.09,2.92,3.14,2.19,4.18-1.5,8.54-2.36,12.88-1.64,3.89.65,7,.91,8.99-3.43.86-1.88,3.24-1.76,4.86-.85,1.64.92,2.29,3.03,1.16,4.47-3.03,3.89-3.74,8.2-3.55,12.92.08,1.92-1.31,3.11-3.25,3.3-1.9.19-3.03-1.01-3.56-2.62-.43-1.3-.65-2.72-.65-4.08,0-1.65-.71-2.03-2.24-2.35-5.26-1.13-10.14.09-14.98,1.93-1.57.6-2.29,1.57-2.27,3.37.08,9.62.07,19.24.02,28.85,0,1.85.44,2.79,2.5,3.3,9.42,2.33,18.92-1.42,24.87-10.33,1.54-2.31,2.73-3.39,5.85-2.3,4.98,1.74,9.95,1.38,14.57-1.97,7.36-5.34,10.44-19.68,6.16-29.3-2.23-5.01-6.01-8.43-10.34-11.48-1.97-1.38-2.36-3.32-.94-5.29,1.25-1.74,2.94-1.88,4.77-.7,9.65,6.18,14.99,14.88,15.53,26.41.04.81-.43,1.94.45,2.35,1.1.51,1.63-.74,2.28-1.34,8.12-7.54,11.55-16.94,10.7-27.9-.58-7.59-2.74-14.64-7.78-20.57-1.63-1.92-3.27-3.44-5.9-1.34-1.71,1.36-3.48.98-4.72-.78-1.22-1.72-1.04-3.42.68-4.8,2.7-2.17,4.72-4.66,4.14-8.43.47-2.35,1.9-3.64,4.29-3.26,2.43.39,3.25,2.17,3.02,4.49-.08.85-.03,1.75-.3,2.53-.58,1.67-.09,2.73,1.25,3.86,2.78,2.35,5.09,5.16,6.83,8.39,1.13,2.1,2.2,4.22,3.37,6.49,3.69-3.32,6.17-7.08,8.03-11.34.79-1.81.58-3.16-.68-4.66-14.59-17.4-32.98-26.33-55.89-24.72-9.78.69-18.19,4.57-23.93,12.93-3.52,5.12-6.17,10.65-6.78,16.97Zm-16.4-.2c.26.18.5.42.79.54.9.36.48-.33.42-.61-2.53-11.88-8.93-24.58-24.04-28.39-23.35-5.88-49.25,5.54-63.37,24.32-.62.82-.95,1.59-.55,2.64,1.63,4.23,3.85,8.06,7.16,11.23,1.28,1.23,1.79.96,2.4-.63,1.61-4.24,3.95-8.12,7.3-11.15,2.49-2.26,3.89-4.38,2.85-7.9-.67-2.28.33-4.33,2.95-4.79,2.43-.43,3.82.9,4.29,3.25-.36,3.26.98,5.85,3.42,7.83,1.86,1.51,3.17,3.19,1.52,5.39-1.64,2.2-3.85,2.08-5.84.31-1.7-1.51-2.55-.68-3.82.74-4.94,5.51-7.5,11.86-8.5,19.21-1.62,11.89,1.61,21.87,10.2,30.17.67.65,1.32,1.88,2.23,1.57,1.26-.43.58-1.87.65-2.85.85-11.3,5.92-20.03,15.59-26.04,1.89-1.17,3.52-.8,4.83.76,1.45,1.72.75,3.43-.54,4.89-.55.62-1.35,1.03-2.05,1.51-7.81,5.36-11.32,12.89-10.75,22.21.68,11.22,7.88,24.59,23.87,19.1,1.91-.66,2.8,0,3.85,1.57,6.13,9.14,14.3,13.74,25.63,11.35,2.21-.47,3.1-1.4,3.09-3.61-.05-9.3-.08-18.59.01-27.89.02-2.04-.8-3.09-2.56-3.9-4.27-1.95-8.73-2.67-13.37-2.48-4.04.17-4.47.62-4.58,4.7-.09,3.21-1.46,5.04-3.78,4.83-3.02-.27-3.45-2.42-3.25-4.87.29-3.51-.16-6.89-2.36-9.72-1.55-1.99-2.5-3.88-.4-5.88,1.67-1.59,4.42-.87,6.1,2,1.43,2.44,3.31,2.84,5.63,2.41,5.39-1,10.6-.15,15.73,1.37,2.32.69,2.92.07,2.83-2.29-.32-8.95-.46-17.91-.72-26.87-.06-2.25-.98-3.91-2.99-5.27-4.05-2.75-8.61-3.69-13.27-4.03-7.69-.56-15.06.98-22,4.39-1.6.79-3.07.89-4.47-.28-1.27-1.07-1.04-2.56-.73-3.88.38-1.62,1.99-2.12,3.3-2.76,2.79-1.34,5.7-2.38,8.75-2.96,1.74-.33,1.91-1.04,1.21-2.64-1.51-3.45-4.03-5.82-7.43-7.09-2.43-.91-3.32-2.49-2.57-4.67.83-2.42,2.72-2.9,5.19-1.99,6.06,2.23,9.68,6.72,12.1,12.44.38.91.35,2.44,1.8,2.29,6.28-.64,12.19,1.32,18.23,2.39Z"/><path class="cls-3" d="m319.59,170.61c3.77,2.68,7.56,5.32,11.28,8.07.53.39.7,1.29.98,1.97,4.04,9.56,10.7,15.53,21.57,15.6,2.01.01,2.4.79,1.82,2.57-2.66,8.2-6.77,15.36-14.01,20.44-1.8,1.26-3.32,2.92-1.58,5.31,1.64,2.26,3.3,2.17,5.95.26,8.24-5.9,13.33-13.97,16.19-23.51.65-2.18,1.19-1.71,2.4-.59,7.25,6.68,15.78,8.97,25.41,7.19,2.36-.44,3.21.25,3.19,2.78-.1,12.28-.26,24.58.06,36.85.21,8.1-4.19,13.23-10.09,17.42-5.55,3.94-11.9,6.08-18.8,6.47-2.97.17-4.96,2.18-4.42,4.32.67,2.62,2.34,3.11,5.1,2.84,8.37-.83,16.01-3.4,22.89-8.23,1.64-1.15,3.16-2.47,5.24-4.12,0,1.47,0,2.57,0,3.66.01,8.44-.05,16.88.08,25.32.04,2.37-.66,3.12-3.08,3.09-8.81-.09-17.05-2.4-24.94-6.08-2.21-1.03-3.8-.84-5.91.28-11.29,5.95-23.41,8.3-36.13,7.77-1.48-.06-2.38-.72-3.08-1.89-3.23-5.38-4.13-11.36-4.38-17.46-.08-1.81.94-3.08,3.08-2.41,1.36.42,2.72.65,4.09.24,1.86-.55,2.92-1.88,2.79-3.8-.12-1.82-1.32-2.87-3.17-3-5.56-.39-10.18-2.5-13.77-6.92-1.34-1.65-3.4-2.11-5.06-.37-1.47,1.55-1.81,3.84-.05,5.15,4.84,3.6,5.78,8.09,5.11,13.88-.49,4.24.92,8.68,2.71,12.69,1.37,3.05-.4,2.8-2.2,2.4-7.32-1.62-14.36-4.07-20.92-7.75-10.86-6.1-19.2-14.75-25.56-25.38-.19-.32-.14-.79-.19-1.19-.1-.3-.2-.59-.3-.89,0,0,.04.1.04.1-.95-3.59-2.04-7.15-2.81-10.78-1.74-8.23-2.95-16.52-1.77-24.97,1.38-2.3,3.87-2.32,6.04-2.7,2.71-.48,4.09-1.83,3.62-4.5-.5-2.82-2.81-2.79-4.98-2.49-1.24.17-2.42.8-3.7.21.51-5.25,2.29-10.14,4.4-14.92.52-1.18.73-3.32,2.44-2.6,1.49.63,3.83,1.16,3.63,3.83-.65,8.92,3.34,15.81,9.68,21.63,3.87,1.53,3.76,1.46,1.38,4.86-7.89,11.26-7.74,23.28-3.05,35.62.74,1.94,2.6,2.66,4.49,2.01,2.11-.73,2.78-2.47,2.07-4.67-.72-2.23-1.56-4.45-2.01-6.73-1.52-7.82-.5-15.18,4.11-21.91,1.18-1.73,2.16-2.27,4.12-1.11,3.81,2.25,8.05,3.4,12.39,4.03,1.43.21,2.25.71,2.96,1.95,8.4,14.51,26.13,21.65,43.4,17.63,6.99-1.63,13.37-4.37,19.04-8.66,1.85-1.4,3.1-1.45,4.66.16.73.76,1.7,1.28,2.54,1.94,1.84,1.43,3.95,1.85,5.38-.12,1.38-1.9,1.05-4.14-1.06-5.61-2.86-1.99-5.27-4.33-6.63-7.61-.66-1.58-1.16-3.18-1.42-4.89-.37-2.36-1.63-3.98-4.35-3.59-2.6.37-2.76,2.33-2.61,4.35.09,1.16.16,2.42.65,3.42,1.55,3.12.76,5.08-2.2,6.99-11.53,7.4-23.7,10.24-36.77,4.99-17.47-7.02-20.65-25.54-13.18-37.46,1.37-2.19,2.72-3.48,5.17-1.35.62.54,1.49.83,2.28,1.14,1.71.67,3.16.18,4.18-1.29,1.06-1.53.85-2.97-.53-4.3-.95-.91-2.1-1.44-3.16-2.15-2.94-1.96-4.97-4.64-5.82-8.12-.61-2.46-2.24-3.39-4.55-2.68-2.41.74-3.22,2.83-2.1,4.85,2.25,4.05,1.11,6.97-1.52,10.48-4.17,5.56-5.02,12.29-4.67,19.17.18,3.57-.07,3.6-3.59,2.6-12.78-3.64-19.76-16-17.74-29.07,1.57-10.13,5.76-18.38,14.7-23.85,2.08-1.27,2.95-3.14,1.71-5.44-.97-1.8-3.69-1.77-5.97-.36-6.29,3.88-10.62,9.42-13.89,15.93-.46.91-.6,2.12-1.9,2.38-1.15-.93-1.35-2.31-1.72-3.62-3.74-13.16-4-26.12,2.12-38.74,1.65-.3,3.17.26,4.67.78,2.37.82,4.7,1.65,2.61,4.96-.45.71-.2,1.87-.24,2.83-.09,2.06.15,3.94,2.74,4.24,2.75.32,4.02-1.38,4.23-3.71.36-3.89,2.31-6.79,5.09-9.25.86-.76,1.94-1.29,2.93-1.91,1.87-1.17,2.27-2.97,1.33-4.71-1-1.83-2.74-2.71-4.86-1.48-1.29.74-2.59,1.48-3.78,2.37-2.62,1.94-7.4,1.22-9.7-1.56,2.37-5.02,6.81-7.85,11.25-10.7,1.8-1.16,3.09-.87,4.32.84,1.75,2.44,3.97,4.5,6.54,5.99,1.67.97,2.09,2.1,1.97,3.86-.42,6.37.23,12.62,3.42,18.27,2.56,4.53,5.51,8.84,10.6,11,.61-.06,1.05.1,1.04.82-.04.16-.02.3.07.42Z"/><path class="cls-3" d="m537.46,218.42c-1.83.77-3.5-.52-5.33-.37-2.01.17-3.2.9-3.45,2.98-.26,2.15.55,3.66,2.7,3.98,2.69.39,5.15,1.29,7.48,2.62.21,9.68-.47,19.26-2.84,28.69-.33,1.3-1.57,2.72-.22,4.17-2.8,6.75-7,12.61-11.91,17.93-9.94,10.76-22.48,16.97-36.58,20.29-1.02.24-2.32.72-3.04-.15-.67-.8.42-1.73.7-2.61,1.87-6.03,3.39-12.09,2.15-18.48-.27-1.37.18-2.46,1.27-3.4,1.37-1.19,2.64-2.5,3.88-3.82,1.74-1.85,1.87-3.95.09-5.69-1.7-1.66-3.71-1.05-5.08.59-3.41,4.09-7.71,6.24-12.97,6.7-2.26.2-4.04,1.29-3.79,3.8.27,2.68,2.5,3.14,4.74,3.32,1.61.13,3.48-1.81,4.81.56.93,1.66.06,3.34,0,5.01-.16,5.02-1.6,9.61-4.22,13.9-.84,1.38-1.84,1.81-3.38,1.87-12.95.48-25.22-2.01-36.6-8.34-1.45-.81-2.73-.81-4.22-.07-7.83,3.89-16.09,6.08-24.86,6.42-2.27.09-3.24-.39-3.2-2.94.14-8.44.02-16.88.04-25.33,0-.78-.45-1.87.56-2.29.82-.34,1.27.57,1.82,1.03,7.56,6.32,16.57,8.96,26.12,10.09,2.05.24,3.66-.86,3.99-2.91.31-1.95-.53-3.59-2.73-4.01-2.29-.44-4.61-.72-6.89-1.22-9.13-1.98-16.64-6.36-21.71-14.49-.78-1.26-1.2-2.41-1.2-3.85.01-13.89.04-27.79-.04-41.68-.02-2.48.68-3.07,3.18-2.65,8.75,1.46,16.74-.44,23.66-6.17,2.87-2.38,2.89-2.41,4.02.99,3.01,9.08,8.35,16.41,16.04,22.14,1.98,1.48,3.65,1.87,5.32.08,1.95-2.08.92-4.04-.94-5.47-4.91-3.77-8.88-8.27-11.54-13.88-.14-.29-.32-.56-.43-.86-.88-2.5-3.17-5.14-2.35-7.44.94-2.64,4.5-1.08,6.85-1.62,7.41-1.71,12.37-6.28,15.37-12.83,1.68-3.66,4.02-6.12,7.47-7.81,2.09-1.03,3.29-3.3,5.6-4.02.34-.4.67-.79,1.01-1.19,0,0-.08.06-.08.06,3.75-1.84,6.44-4.82,8.88-8.09,4.76-6.4,6.2-13.67,5.75-21.48-.07-1.28-.58-2.78,1.11-3.67,3.07-1.62,5.51-3.97,7.56-6.76.91-1.25,2.02-1.85,3.56-.91,4.84,2.96,9.43,6.18,12.24,11.33-.37.2-.75.38-1.11.59-4.04,2.35-7.66,2.8-11.51-.91-2.41-2.32-4.79-1.71-5.91.49-1.4,2.75.09,4.25,2.39,5.62,3.77,2.24,5.99,5.65,6.63,10.02.36,2.49,1.34,4.37,4.23,4.1,3.02-.28,2.68-2.61,2.88-4.78.19-2.09-2.01-4.34-.18-6.07,1.95-1.86,4.84-1.91,7.45-2.3-.02,1.67.93,3.01,1.46,4.5,4.61,13.13,3.95,26.07-1.41,38.84-1.68-1.32-1.94-3.44-2.89-5.17-3.2-5.84-7.53-10.56-13.19-14.08-2.05-1.28-4.13-1.65-5.57.64-1.38,2.2-.45,4.13,1.63,5.44,10.78,6.8,15.14,17.01,15.11,29.27-.03,11.57-8.03,21.27-19,23.99-2.34.58-2.92-.12-2.73-2.25.78-9.04-1.74-17.09-7.47-24.11-.72-.89-.45-1.36-.09-2.21.67-1.55,1.16-3.2,1.59-4.84.51-1.98-.35-3.41-2.24-3.99-1.93-.59-3.64-.21-4.37,2.01-1.41,4.32-3.78,7.77-7.97,9.94-1.49.77-3.15,2.07-1.99,4.4,1.15,2.32,2.96,2.5,5.12,1.81.3-.1.6-.22.9-.34,4.2-1.72,4.05-1.62,6.56,2.29,5.61,8.71,3.08,24.36-6.46,31.7-11.72,9.02-28.32,8.77-40.63,1.55-.74-.43-1.43-.93-2.17-1.36-4.95-2.97-4.99-2.97-3.37-8.36.38-1.27.38-2.53.41-3.8.04-1.98-.75-3.31-2.9-3.46-2.12-.15-3.79.86-3.99,2.86-.58,5.88-3.66,10.13-8.2,13.5-2.05,1.52-2.27,3.5-1.07,5.3,1.25,1.89,3.28,1.68,5.12.48.09-.06.21-.09.27-.17,3.68-5.04,6.82-2.33,10.83.09,15.27,9.22,31.02,10.61,46.86,1.21,5.13-3.04,8.81-7.6,12.06-12.51.6-.91,1.04-1.73,2.36-1.82,4.87-.34,9.36-2.1,13.61-4.33,1.76-.93,2.32-.4,3.25.95,5.57,8.09,6.09,16.79,3.34,25.93-.25.82-.5,1.64-.81,2.43-.97,2.47-.6,4.6,2.09,5.45,2.6.82,4.06-1.02,4.75-3.16,3.97-12.32,4.37-24.29-4.03-35.19-2.33-3.02,1-4.11,1.86-6.04.94.89,1.58.08,2.14-.48,1.97-1.95,3.71-4.09,4.97-6.6,1.95-3.9,2.82-8.05,2.54-12.35-.17-2.64,1.69-3.3,3.37-3.99,1.96-.8,2.23,1.21,2.73,2.33,2.11,4.77,4.03,9.61,4.4,14.9Z"/><path class="cls-3" d="m389.2,114.61c-6.04-1.07-11.95-3.04-18.23-2.39-1.45.15-1.42-1.38-1.8-2.29-2.42-5.73-6.04-10.21-12.1-12.44-2.48-.91-4.36-.43-5.19,1.99-.75,2.18.15,3.76,2.57,4.67,3.4,1.27,5.92,3.65,7.43,7.09.7,1.6.53,2.31-1.21,2.64-3.05.58-5.96,1.62-8.75,2.96-1.32.64-2.93,1.13-3.3,2.76-.31,1.31-.53,2.81.73,3.88,1.4,1.18,2.86,1.07,4.47.28,6.94-3.41,14.31-4.95,22-4.39,4.66.34,9.22,1.28,13.27,4.03,2.01,1.36,2.93,3.03,2.99,5.27.25,8.96.39,17.92.72,26.87.09,2.36-.51,2.97-2.83,2.29-5.13-1.52-10.35-2.36-15.73-1.37-2.32.43-4.21.02-5.63-2.41-1.68-2.88-4.43-3.6-6.1-2-2.1,2.01-1.15,3.9.4,5.88,2.2,2.83,2.64,6.21,2.36,9.72-.2,2.45.23,4.6,3.25,4.87,2.32.21,3.69-1.62,3.78-4.83.12-4.08.55-4.54,4.58-4.7,4.64-.19,9.11.53,13.37,2.48,1.76.81,2.58,1.85,2.56,3.9-.09,9.29-.06,18.59-.01,27.89.01,2.21-.88,3.14-3.09,3.61-11.33,2.39-19.5-2.21-25.63-11.35-1.05-1.56-1.94-2.22-3.85-1.57-15.99,5.49-23.18-7.88-23.87-19.1-.57-9.32,2.94-16.85,10.75-22.21.7-.48,1.5-.89,2.05-1.51,1.29-1.47,1.98-3.17.54-4.89-1.32-1.57-2.95-1.94-4.83-.76-9.68,6.01-14.75,14.74-15.59,26.04-.07.98.61,2.42-.65,2.85-.92.31-1.56-.92-2.23-1.57-8.59-8.3-11.82-18.28-10.2-30.17,1-7.35,3.57-13.7,8.5-19.21,1.27-1.42,2.12-2.25,3.82-.74,2,1.77,4.2,1.89,5.84-.31,1.65-2.2.34-3.88-1.52-5.39-2.44-1.98-3.78-4.57-3.42-7.83,1.02-.57,2.04-1.15,3.06-1.72,14.97-8.42,30.06-9.76,45.07-.27,5.17,3.26,9.36,7.63,11.68,13.48Z"/><path class="cls-3" d="m466.38,103.13c.58,3.77-1.44,6.27-4.14,8.43-1.72,1.38-1.9,3.08-.68,4.8,1.25,1.76,3.01,2.14,4.72.78,2.64-2.1,4.28-.57,5.9,1.34,5.04,5.93,7.19,12.98,7.78,20.57.85,10.96-2.58,20.36-10.7,27.9-.65.6-1.17,1.85-2.28,1.34-.89-.41-.41-1.54-.45-2.35-.55-11.53-5.88-20.23-15.53-26.41-1.84-1.18-3.52-1.03-4.77.7-1.42,1.97-1.03,3.91.94,5.29,4.33,3.04,8.12,6.47,10.34,11.48,4.29,9.63,1.2,23.97-6.16,29.3-4.62,3.35-9.58,3.72-14.57,1.97-3.12-1.09-4.31,0-5.85,2.3-5.95,8.91-15.45,12.66-24.87,10.33-2.06-.51-2.51-1.45-2.5-3.3.05-9.62.06-19.24-.02-28.85-.02-1.81.71-2.78,2.27-3.37,4.84-1.84,9.71-3.05,14.98-1.93,1.53.33,2.24.7,2.24,2.35,0,1.37.22,2.79.65,4.08.53,1.61,1.67,2.81,3.56,2.62,1.94-.19,3.32-1.38,3.25-3.3-.19-4.72.53-9.04,3.55-12.92,1.13-1.45.47-3.55-1.16-4.47-1.62-.92-4-1.04-4.86.85-1.99,4.34-5.09,4.08-8.99,3.43-4.34-.72-8.71.14-12.88,1.64-2.05.74-3.26.74-3.14-2.19.38-9.27.42-18.56.72-27.83.12-3.66,3.28-4.8,5.93-5.89,9.69-3.98,19.38-3.17,28.97.56,1.29.5,2.58,1.03,3.84,1.6,1.99.89,3.63.41,4.63-1.44,1-1.84.61-3.47-1.33-4.61-3.15-1.84-6.52-3.14-10.04-3.98-2.5-.6-2.84-1.65-1.51-3.78,1.77-2.83,4.15-4.92,7.21-6.06,2.46-.91,3.22-2.59,2.43-4.73-.81-2.19-2.57-2.87-4.95-1.93-5.42,2.15-9.48,5.72-11.59,11.17-1.05,2.72-2.39,3.95-5.52,3.74-5.48-.37-10.81.51-15.69,3.4-1.23.73-.52-.5-.53-.93,1.19-1.63,2.36-3.27,3.57-4.88,9.47-12.62,22.24-16.79,37.49-14.69,7.24,1,13.56,4.22,19.72,7.88Z"/><path class="cls-3" d="m389.2,114.61c-2.32-5.85-6.51-10.22-11.68-13.48-15.01-9.49-30.09-8.15-45.07.27-1.02.57-2.04,1.15-3.06,1.72-.47-2.35-1.86-3.67-4.29-3.25-2.62.46-3.63,2.51-2.95,4.79,1.04,3.52-.36,5.64-2.85,7.9-3.35,3.03-5.69,6.91-7.3,11.15-.6,1.59-1.12,1.85-2.4.63-3.31-3.17-5.53-7-7.16-11.23-.4-1.04-.07-1.82.55-2.64,14.12-18.77,40.02-30.19,63.37-24.32,15.11,3.8,21.51,16.51,24.04,28.39.06.28.48.97-.42.61-.29-.12-.53-.35-.79-.54Z"/><path class="cls-3" d="m466.38,103.13c-6.16-3.66-12.49-6.88-19.72-7.88-15.25-2.1-28.02,2.07-37.49,14.69-1.21,1.61-2.38,3.25-3.57,4.88.61-6.32,3.26-11.85,6.78-16.97,5.74-8.36,14.15-12.24,23.93-12.93,22.91-1.61,41.3,7.32,55.89,24.72,1.26,1.5,1.46,2.84.68,4.66-1.85,4.26-4.34,8.02-8.03,11.34-1.18-2.27-2.24-4.4-3.37-6.49-1.74-3.23-4.05-6.04-6.83-8.39-1.33-1.13-1.83-2.19-1.25-3.86.27-.78.22-1.68.3-2.53.22-2.33-.59-4.1-3.02-4.49-2.4-.39-3.82.9-4.29,3.26Z"/><path class="cls-3" d="m515.83,140.45c-2.81-5.15-7.4-8.37-12.24-11.33-1.54-.94-2.65-.33-3.56.91-2.04,2.79-4.49,5.14-7.56,6.76-1.69.89-1.18,2.38-1.11,3.67.45,7.81-.99,15.08-5.75,21.48-2.44,3.28-5.13,6.26-8.88,8.09.66-2.1,2.55-3.29,3.74-5.01,6.06-8.79,7.63-18.6,6.57-28.97-.18-1.82.16-2.83,1.63-3.99,4.41-3.48,7.73-7.91,10.12-13,.51-1.09.77-2.18,2.46-1.38,10.08,4.76,18.1,11.8,24.23,21.68-3.47.39-6.57.75-9.67,1.1Z"/><path class="cls-3" d="m318.48,169.37c-5.09-2.16-8.04-6.47-10.6-11-3.19-5.65-3.84-11.9-3.42-18.27.12-1.76-.31-2.89-1.97-3.86-2.58-1.49-4.79-3.55-6.54-5.99-1.23-1.71-2.52-2-4.32-.84-4.44,2.85-8.88,5.68-11.25,10.7-3.01.81-5.88-.72-8.87-.55-1.31.07-.81-.92-.39-1.55,5.95-9.05,13.74-15.95,23.66-20.4,1.1-.49,1.51-.11,1.92.8,2.58,5.75,6.32,10.59,11.36,14.41.72.54.95,1.22.81,2.23-1.76,12.82,1.27,24.32,9.61,34.33Z"/><path class="cls-3" d="m278.48,226.39c-6.35-5.81-10.33-12.7-9.68-21.63.19-2.67-2.14-3.2-3.63-3.83-1.7-.72-1.92,1.42-2.44,2.6-2.11,4.78-3.88,9.66-4.4,14.92-1.87,1.64-4.35,2.02-6.57,3.4-.92-2.37-.15-4.54.06-6.67.87-8.89,3.47-17.27,7.67-25.16.79-1.49,1.22-2.05,2.49-.28,2.5,3.49,5.7,6.34,9.33,8.61,1.52.95,1.79,1.97,1.61,3.67-.81,7.74.68,15.04,4.84,21.69.55.88.78,1.7.72,2.67Z"/><path class="cls-3" d="m537.46,218.42c-.37-5.29-2.3-10.13-4.4-14.9-.49-1.12-.77-3.12-2.73-2.33-1.68.68-3.54,1.35-3.37,3.99.27,4.3-.6,8.46-2.54,12.35-1.25,2.51-3,4.64-4.97,6.6-.56.56-1.2,1.37-2.14.48,4.8-6.74,6.26-14.34,5.58-22.42-.15-1.78.08-2.86,1.74-3.92,3.6-2.31,6.82-5.14,9.34-8.64.9-1.25,1.44-1.32,2.18.08,5.26,9.96,8.06,20.52,8.24,32.22-2.51-1.3-5.01-1.78-6.93-3.5Z"/><path class="cls-3" d="m520.73,190.56c5.37-12.77,6.02-25.71,1.41-38.84-.52-1.49-1.47-2.84-1.46-4.5,10.11-.47,8.55-1.78,10.78,7.84,2.08,8.94,2.36,17.95-1.43,26.65-1.71,3.92-4.66,6.81-7.96,9.4-.72.56-1.36.8-1.35-.54Z"/><path class="cls-3" d="m275.38,147.55c-6.12,12.62-5.86,25.58-2.12,38.74.37,1.31.57,2.69,1.72,3.62-.01.15.04.27.14.38-.2.47-.4.94-.59,1.41-10-6.72-12.1-16.76-11.53-27.82.25-4.8,1.22-9.49,2.6-14.12.62-2.08,1.54-3.11,3.79-2.82,1.99.25,4.07-.31,5.99.63Z"/><path class="cls-3" d="m257.36,227.94c-1.17,8.45.03,16.74,1.77,24.97.77,3.63,1.86,7.19,2.81,10.78-3.81-5.74-5.78-12.24-7.63-18.76-.99-3.47-1.56-7.07-2.19-10.64-.69-3.94,1.07-6,5.23-6.35Z"/><path class="cls-3" d="m535.8,260.49c-1.35-1.45-.11-2.88.22-4.17,2.37-9.43,3.05-19.01,2.84-28.69q5.41,2.78,4.51,8.67c-1.31,8.44-4.01,16.45-7.57,24.19Z"/><path class="cls-3" d="m476.82,169.97c-.34.4-.67.79-1.01,1.19.34-.4.67-.79,1.01-1.19Z"/><path class="cls-3" d="m274.53,191.69c.2-.47.4-.94.59-1.41.34.7.51,1.32-.59,1.41Z"/><path class="cls-3" d="m261.91,263.58c.1.3.2.6.3.89-.1-.3-.2-.59-.3-.89Z"/><path class="cls-3" d="m319.59,170.61c-.09-.12-.11-.26-.07-.42-.03.15-.01.29.07.42Z"/></g><circle class="cls-1" cx="302.94" cy="195.94" r="23.78"/><circle class="cls-1" cx="386.16" cy="156.16" r="11"/><circle class="cls-1" cx="435.16" cy="260.16" r="11"/><circle class="cls-1" cx="356.16" cy="205.16" r="11"/><circle class="cls-1" cx="478.16" cy="194.16" r="11"/><circle class="cls-1" cx="482.34" cy="239.39" r="19.45"/><circle class="cls-1" cx="375.16" cy="258.16" r="19"/><circle class="cls-1" cx="428.44" cy="205.85" r="24.32"/><circle class="cls-1" cx="303.44" cy="266.85" r="24.32"/><circle class="cls-1" cx="456.16" cy="148.16" r="19"/><circle class="cls-1" cx="346.16" cy="138.16" r="19"/><rect class="cls-3" x="722.16" y="-218.84" width="1109" height="1109"/><rect class="cls-5" x="722.16" y="-218.84" width="1109" height="1109"/><path class="cls-6" d="m722.3,334.93c0-182.33.03-364.65-.14-546.98,0-5.54,1.25-6.78,6.78-6.78,365.15.15,730.29.15,1095.44,0,5.54,0,6.78,1.25,6.78,6.78-.15,365.15-.15,730.29,0,1095.44,0,5.54-1.25,6.78-6.78,6.78-365.15-.15-730.29-.15-1095.44,0-5.54,0-6.79-1.25-6.78-6.78.17-182.82.14-365.64.14-548.46Zm735.05-23.68c2.01,9.4,4.02,18.8,6.02,28.2-.12,4.45-.09,8.88,1.35,13.17,1.65,35.47-1.54,70.49-10.38,104.88-3.82,14.86-8.5,29.49-12.8,44.23-2.15,1.57-2.35,4.19-3.26,6.38-7.93,18.99-17.53,37.05-29.33,53.93-6.25,8.14-12.47,16.29-19.84,23.48-1.22,1.19-2.36,2.34-2.51,4.26-1.18,14.98-3.86,29.83-4.19,44.89-1.21,13.2-3.45,26.32-3.17,39.63-1.89,18.25-3.75,36.51-5.72,54.75-.33,3.06.67,3.68,3.65,3.4,6.08-.57,12.22-.63,18.33-.9,2.19-.02,4.39.04,6.58-.09,41.41-2.46,82.64-7.79,124.25-7.09,43.79.74,85.19,9.12,121.27,35.82,2.74,2.03,5.83,3.66,8.93,5.11,17.6,8.22,29.45,2.28,33.68-16.78,2.03-11.82,1.21-23.32-3.79-34.36-.02-1.46.26-3.01-.11-4.38-4.85-18.2-5.87-36.72-4.55-55.41,1.31-18.51,7.75-35.79,12.97-53.36,2.25-5.1,4.81-10.09,5.13-15.82,4.55-6.67,6.53-14.41,9.17-21.87,9.14-21.34,16.49-43.3,22.46-65.72,5.13-15.98,8.37-32.39,11.39-48.86,6.72-30.19,9.84-60.82,11.13-91.66.97-27.61.97-55.21-1.8-82.74-1.84-18.63-3.68-37.26-5.52-55.89.28-4.55-.4-9.01-1.37-13.43.52-7.81-.35-15.53-1.34-23.25-.27-15.28-.54-30.56-.81-45.84.29-21.34,3.5-41.77,18.41-58.52.13-.15.06-.47.08-.72,6.81-7.43,9.73-15.8,5.34-25.45-4.23-9.31-12.45-11.83-21.84-11.78-3.42.02-6.95-.12-10.25.6-19.09,4.16-38.04,8.98-57.47,11.44-24.63.57-49.23.44-73.71-2.83-7.06-1.17-14.15-2.16-21.17-3.53-23.98-4.66-47.61-10.64-71.03-17.63-40.89-12.21-81.49-25.51-123.31-34.4-5.43-1.13-10.86-2.26-16.29-3.4-48.25-10.04-97.06-16.72-145.79-23.75-24.42-3.52-48.5-9.11-73.24-10.87-11.13-.79-22.18-3.74-33.49-3.98-12.74-1.45-25.48-2.9-38.22-4.35-2.54-.41-5.09-.83-7.63-1.24-2.9-.47-5.79-.94-8.69-1.41-1.5-.16-3.01-.33-4.51-.49-5.89-1.34-11.78-2.67-17.66-4.01-26.1-6.82-50.41-17.48-72.31-33.42-1.96-1.43-4.2-2.56-6.45-3.5-9.04-3.76-13.96-1.1-16.05,8.46-1.6,7.31-1.32,14.69-.19,21.97,2.86,18.51-.47,35.77-7.81,53-11.45,26.84-23.64,53.27-37.82,78.77-3.85,6.03-6.85,12.49-9.65,19.04-7.78,16.42-12.85,33.81-18.04,51.12-15.71,52.4-27.22,105.75-35.22,159.86-1.67,11.3-2.78,22.67-4.15,34.01-.18,2.4-.37,4.79-.55,7.19-2.38,12.81-2.96,25.83-3.75,38.78-1.1,18.08-3.16,36.16-1.76,54.33-.07,2.02-.14,4.05-.22,6.07-2.37,20.04.1,40.13-.69,60.22-1.33,33.98-6,66.82-25.12,96.04-1.59,2.44-2.8,5.16-3.95,7.85-8.43,19.73-2.17,31.04,19.3,35,5.86.08,11.72.12,17.58.25,32.07.71,64.45-5.36,96.1,4.42,7.26,2.99,14.51,5.98,21.77,8.97,2.59,1.35,5.18,2.71,7.77,4.06,8.36,3.47,16.72,6.94,25.09,10.41,1.93.69,3.87,1.38,5.8,2.07,8.55,4.12,17.37,7.52,26.51,10.1,18.36,7.42,37.14,13.59,56.26,18.73,24.67,8.01,49.96,13.62,75.22,19.33,3.23.73,4.87-.19,5.85-3.48,3.77-12.62,7.77-25.16,11.69-37.73,3.33-10.29,6.67-20.57,10.02-30.92-47.65-5.82-94.91-11.69-138.07-34.11-3.58-5.73-10.51-8.95-12.11-16.16-.31-2.25-.89-4.39-2.44-6.14-1.53-4.28-.73-9.13-3.18-13.19-.12-7.83-.24-15.65-.36-23.48.08-9.01.18-18.02.24-27.02.04-5.43,1.54-8.49,7.63-5.22,2.54,1.36,5.13,2.83,8.17,2.9,24.78,10.21,49.21,10.55,73.18-2.04-6.06.42-12.09,1.4-18.17,2-17.63,1.74-34.63-1.91-51.5-6.39-2.47-1.61-5.44-1.85-8.06-2.84-4.58-1.73-10.9-1.73-8.6-10.77,1.45-5.7,3.27-12.14,1.96-18.48,3.48-6.58,2.88-14.06,4.64-21.03.45-1.78-.39-2.85-1.96-3.36-10.85-3.55-20.96-9.23-32.34-11.25-2.58-3.31-6.9-3.25-10.22-4.02-5.52-1.29-4.73-3.53-2.81-6.9,4.8-8.44,10.08-16.62,13.72-25.69,8.26-16.36,16.62-32.67,24.74-49.1,5.3-10.71,11.44-21.03,15.57-32.31,3.03-6.16,5.98-12.35,9.09-18.47,5.07-9.99,11.76-19.18,14.8-30.16,8.58-15.19,18.59-29.4,29.69-42.85,12.02-12.25,24.83-23.62,38.27-34.29,8.32-5.32,17.22-9.75,24.8-16.2,9.45-2.62,17.9-7.58,26.82-11.45,9.37-2.58,18.75-5.17,28.12-7.75,23.93-5.09,47.9-4.6,71.9-.5,8.98,2.26,17.97,4.51,26.95,6.77,18.09,6.37,35.67,13.93,52.88,22.37,9.92,6.46,19.84,12.92,29.77,19.38,8.32,7.84,16.64,15.68,24.96,23.52,13.07,15.6,24.08,32.5,32.62,51,2.91,7.96,5.82,15.91,8.73,23.87Zm-288.1,65.7c-33.43,7.88-59.52-1.87-78.12-33.04,1.31,18.4,9.18,30.52,24.67,37.08,18.37,7.78,36.36,7.96,53.45-4.04Z"/><path class="cls-2" d="m858.61,509.28c-9.31-3.46-9.5-3.46-9.26,6.68.12,5.32-.82,10.11-3.42,14.8-3.72,6.7-4.92,14.31-7.13,21.56-3.06,10.05-5.51,20.27-10.35,29.8-8.32,16.37-13.06,33.63-10.18,52.27-21.47-3.96-27.73-15.27-19.3-35,1.15-2.69,2.36-5.41,3.95-7.85,19.12-29.23,23.79-62.06,25.12-96.04.79-20.09-1.68-40.18.69-60.22,4.38.98,8.77,1.97,13.15,2.95,10.92,4.08,22.19,7.42,31.73,14.51,1.91,1.42,5.02,2.64,4.73,5.13-.3,2.55-3.78,2.51-5.88,3.5-4.11,1.93-9.98,2.36-6.74,9.46-4.47.84-4.73,4.1-4.72,7.77.04,10.29-.83,20.52-2.38,30.69Z"/></svg>